%TF.GenerationSoftware,KiCad,Pcbnew,8.0.1-8.0.1-1~ubuntu22.04.1*%
%TF.CreationDate,2024-03-23T16:48:22+11:00*%
%TF.ProjectId,PIMD601,50494d44-3630-4312-9e6b-696361645f70,6.01*%
%TF.SameCoordinates,Original*%
%TF.FileFunction,Drillmap*%
%TF.FilePolarity,Positive*%
%FSLAX45Y45*%
G04 Gerber Fmt 4.5, Leading zero omitted, Abs format (unit mm)*
G04 Created by KiCad (PCBNEW 8.0.1-8.0.1-1~ubuntu22.04.1) date 2024-03-23 16:48:22*
%MOMM*%
%LPD*%
G01*
G04 APERTURE LIST*
%ADD10C,0.100000*%
%ADD11C,0.200000*%
%ADD12C,0.320000*%
G04 APERTURE END LIST*
D10*
X3400000Y-3000000D02*
X19700000Y-3000000D01*
X19700000Y-16000000D01*
X3400000Y-16000000D01*
X3400000Y-3000000D01*
D11*
X9835000Y-13080000D02*
X10035000Y-13280000D01*
X10035000Y-13080000D02*
X9835000Y-13280000D01*
X9839000Y-15112000D02*
X10039000Y-15312000D01*
X10039000Y-15112000D02*
X9839000Y-15312000D01*
X10785000Y-13080000D02*
X10985000Y-13280000D01*
X10985000Y-13080000D02*
X10785000Y-13280000D01*
X10789000Y-15112000D02*
X10989000Y-15312000D01*
X10989000Y-15112000D02*
X10789000Y-15312000D01*
X12125000Y-13080000D02*
X12325000Y-13280000D01*
X12325000Y-13080000D02*
X12125000Y-13280000D01*
X12125000Y-15112000D02*
X12325000Y-15312000D01*
X12325000Y-15112000D02*
X12125000Y-15312000D01*
X13075000Y-13080000D02*
X13275000Y-13280000D01*
X13275000Y-13080000D02*
X13075000Y-13280000D01*
X13075000Y-15112000D02*
X13275000Y-15312000D01*
X13275000Y-15112000D02*
X13075000Y-15312000D01*
D12*
X4097000Y-4445000D02*
G75*
G02*
X3777000Y-4445000I-160000J0D01*
G01*
X3777000Y-4445000D02*
G75*
G02*
X4097000Y-4445000I160000J0D01*
G01*
X4097000Y-14224000D02*
G75*
G02*
X3777000Y-14224000I-160000J0D01*
G01*
X3777000Y-14224000D02*
G75*
G02*
X4097000Y-14224000I160000J0D01*
G01*
X11717000Y-11049000D02*
G75*
G02*
X11397000Y-11049000I-160000J0D01*
G01*
X11397000Y-11049000D02*
G75*
G02*
X11717000Y-11049000I160000J0D01*
G01*
X19337000Y-4445000D02*
G75*
G02*
X19017000Y-4445000I-160000J0D01*
G01*
X19017000Y-4445000D02*
G75*
G02*
X19337000Y-4445000I160000J0D01*
G01*
X19337000Y-14224000D02*
G75*
G02*
X19017000Y-14224000I-160000J0D01*
G01*
X19017000Y-14224000D02*
G75*
G02*
X19337000Y-14224000I160000J0D01*
G01*
D11*
X3655777Y-16316484D02*
X3655777Y-16116484D01*
X3655777Y-16116484D02*
X3703396Y-16116484D01*
X3703396Y-16116484D02*
X3731967Y-16126008D01*
X3731967Y-16126008D02*
X3751015Y-16145055D01*
X3751015Y-16145055D02*
X3760539Y-16164103D01*
X3760539Y-16164103D02*
X3770062Y-16202198D01*
X3770062Y-16202198D02*
X3770062Y-16230769D01*
X3770062Y-16230769D02*
X3760539Y-16268865D01*
X3760539Y-16268865D02*
X3751015Y-16287912D01*
X3751015Y-16287912D02*
X3731967Y-16306960D01*
X3731967Y-16306960D02*
X3703396Y-16316484D01*
X3703396Y-16316484D02*
X3655777Y-16316484D01*
X3855777Y-16316484D02*
X3855777Y-16183150D01*
X3855777Y-16221246D02*
X3865301Y-16202198D01*
X3865301Y-16202198D02*
X3874824Y-16192674D01*
X3874824Y-16192674D02*
X3893872Y-16183150D01*
X3893872Y-16183150D02*
X3912920Y-16183150D01*
X3979586Y-16316484D02*
X3979586Y-16183150D01*
X3979586Y-16116484D02*
X3970062Y-16126008D01*
X3970062Y-16126008D02*
X3979586Y-16135531D01*
X3979586Y-16135531D02*
X3989110Y-16126008D01*
X3989110Y-16126008D02*
X3979586Y-16116484D01*
X3979586Y-16116484D02*
X3979586Y-16135531D01*
X4103396Y-16316484D02*
X4084348Y-16306960D01*
X4084348Y-16306960D02*
X4074824Y-16287912D01*
X4074824Y-16287912D02*
X4074824Y-16116484D01*
X4208158Y-16316484D02*
X4189110Y-16306960D01*
X4189110Y-16306960D02*
X4179586Y-16287912D01*
X4179586Y-16287912D02*
X4179586Y-16116484D01*
X4436729Y-16316484D02*
X4436729Y-16116484D01*
X4436729Y-16116484D02*
X4503396Y-16259341D01*
X4503396Y-16259341D02*
X4570063Y-16116484D01*
X4570063Y-16116484D02*
X4570063Y-16316484D01*
X4751015Y-16316484D02*
X4751015Y-16211722D01*
X4751015Y-16211722D02*
X4741491Y-16192674D01*
X4741491Y-16192674D02*
X4722444Y-16183150D01*
X4722444Y-16183150D02*
X4684348Y-16183150D01*
X4684348Y-16183150D02*
X4665301Y-16192674D01*
X4751015Y-16306960D02*
X4731967Y-16316484D01*
X4731967Y-16316484D02*
X4684348Y-16316484D01*
X4684348Y-16316484D02*
X4665301Y-16306960D01*
X4665301Y-16306960D02*
X4655777Y-16287912D01*
X4655777Y-16287912D02*
X4655777Y-16268865D01*
X4655777Y-16268865D02*
X4665301Y-16249817D01*
X4665301Y-16249817D02*
X4684348Y-16240293D01*
X4684348Y-16240293D02*
X4731967Y-16240293D01*
X4731967Y-16240293D02*
X4751015Y-16230769D01*
X4846253Y-16183150D02*
X4846253Y-16383150D01*
X4846253Y-16192674D02*
X4865301Y-16183150D01*
X4865301Y-16183150D02*
X4903396Y-16183150D01*
X4903396Y-16183150D02*
X4922444Y-16192674D01*
X4922444Y-16192674D02*
X4931967Y-16202198D01*
X4931967Y-16202198D02*
X4941491Y-16221246D01*
X4941491Y-16221246D02*
X4941491Y-16278388D01*
X4941491Y-16278388D02*
X4931967Y-16297436D01*
X4931967Y-16297436D02*
X4922444Y-16306960D01*
X4922444Y-16306960D02*
X4903396Y-16316484D01*
X4903396Y-16316484D02*
X4865301Y-16316484D01*
X4865301Y-16316484D02*
X4846253Y-16306960D01*
X5027205Y-16297436D02*
X5036729Y-16306960D01*
X5036729Y-16306960D02*
X5027205Y-16316484D01*
X5027205Y-16316484D02*
X5017682Y-16306960D01*
X5017682Y-16306960D02*
X5027205Y-16297436D01*
X5027205Y-16297436D02*
X5027205Y-16316484D01*
X5027205Y-16192674D02*
X5036729Y-16202198D01*
X5036729Y-16202198D02*
X5027205Y-16211722D01*
X5027205Y-16211722D02*
X5017682Y-16202198D01*
X5017682Y-16202198D02*
X5027205Y-16192674D01*
X5027205Y-16192674D02*
X5027205Y-16211722D01*
X3195000Y-16545000D02*
X3395000Y-16745000D01*
X3395000Y-16545000D02*
X3195000Y-16745000D01*
X3646253Y-16555531D02*
X3655777Y-16546008D01*
X3655777Y-16546008D02*
X3674824Y-16536484D01*
X3674824Y-16536484D02*
X3722443Y-16536484D01*
X3722443Y-16536484D02*
X3741491Y-16546008D01*
X3741491Y-16546008D02*
X3751015Y-16555531D01*
X3751015Y-16555531D02*
X3760539Y-16574579D01*
X3760539Y-16574579D02*
X3760539Y-16593627D01*
X3760539Y-16593627D02*
X3751015Y-16622198D01*
X3751015Y-16622198D02*
X3636729Y-16736484D01*
X3636729Y-16736484D02*
X3760539Y-16736484D01*
X3846253Y-16717436D02*
X3855777Y-16726960D01*
X3855777Y-16726960D02*
X3846253Y-16736484D01*
X3846253Y-16736484D02*
X3836729Y-16726960D01*
X3836729Y-16726960D02*
X3846253Y-16717436D01*
X3846253Y-16717436D02*
X3846253Y-16736484D01*
X3979586Y-16536484D02*
X3998634Y-16536484D01*
X3998634Y-16536484D02*
X4017682Y-16546008D01*
X4017682Y-16546008D02*
X4027205Y-16555531D01*
X4027205Y-16555531D02*
X4036729Y-16574579D01*
X4036729Y-16574579D02*
X4046253Y-16612674D01*
X4046253Y-16612674D02*
X4046253Y-16660293D01*
X4046253Y-16660293D02*
X4036729Y-16698388D01*
X4036729Y-16698388D02*
X4027205Y-16717436D01*
X4027205Y-16717436D02*
X4017682Y-16726960D01*
X4017682Y-16726960D02*
X3998634Y-16736484D01*
X3998634Y-16736484D02*
X3979586Y-16736484D01*
X3979586Y-16736484D02*
X3960539Y-16726960D01*
X3960539Y-16726960D02*
X3951015Y-16717436D01*
X3951015Y-16717436D02*
X3941491Y-16698388D01*
X3941491Y-16698388D02*
X3931967Y-16660293D01*
X3931967Y-16660293D02*
X3931967Y-16612674D01*
X3931967Y-16612674D02*
X3941491Y-16574579D01*
X3941491Y-16574579D02*
X3951015Y-16555531D01*
X3951015Y-16555531D02*
X3960539Y-16546008D01*
X3960539Y-16546008D02*
X3979586Y-16536484D01*
X4170062Y-16536484D02*
X4189110Y-16536484D01*
X4189110Y-16536484D02*
X4208158Y-16546008D01*
X4208158Y-16546008D02*
X4217682Y-16555531D01*
X4217682Y-16555531D02*
X4227205Y-16574579D01*
X4227205Y-16574579D02*
X4236729Y-16612674D01*
X4236729Y-16612674D02*
X4236729Y-16660293D01*
X4236729Y-16660293D02*
X4227205Y-16698388D01*
X4227205Y-16698388D02*
X4217682Y-16717436D01*
X4217682Y-16717436D02*
X4208158Y-16726960D01*
X4208158Y-16726960D02*
X4189110Y-16736484D01*
X4189110Y-16736484D02*
X4170062Y-16736484D01*
X4170062Y-16736484D02*
X4151015Y-16726960D01*
X4151015Y-16726960D02*
X4141491Y-16717436D01*
X4141491Y-16717436D02*
X4131967Y-16698388D01*
X4131967Y-16698388D02*
X4122443Y-16660293D01*
X4122443Y-16660293D02*
X4122443Y-16612674D01*
X4122443Y-16612674D02*
X4131967Y-16574579D01*
X4131967Y-16574579D02*
X4141491Y-16555531D01*
X4141491Y-16555531D02*
X4151015Y-16546008D01*
X4151015Y-16546008D02*
X4170062Y-16536484D01*
X4360539Y-16536484D02*
X4379586Y-16536484D01*
X4379586Y-16536484D02*
X4398634Y-16546008D01*
X4398634Y-16546008D02*
X4408158Y-16555531D01*
X4408158Y-16555531D02*
X4417682Y-16574579D01*
X4417682Y-16574579D02*
X4427205Y-16612674D01*
X4427205Y-16612674D02*
X4427205Y-16660293D01*
X4427205Y-16660293D02*
X4417682Y-16698388D01*
X4417682Y-16698388D02*
X4408158Y-16717436D01*
X4408158Y-16717436D02*
X4398634Y-16726960D01*
X4398634Y-16726960D02*
X4379586Y-16736484D01*
X4379586Y-16736484D02*
X4360539Y-16736484D01*
X4360539Y-16736484D02*
X4341491Y-16726960D01*
X4341491Y-16726960D02*
X4331967Y-16717436D01*
X4331967Y-16717436D02*
X4322444Y-16698388D01*
X4322444Y-16698388D02*
X4312920Y-16660293D01*
X4312920Y-16660293D02*
X4312920Y-16612674D01*
X4312920Y-16612674D02*
X4322444Y-16574579D01*
X4322444Y-16574579D02*
X4331967Y-16555531D01*
X4331967Y-16555531D02*
X4341491Y-16546008D01*
X4341491Y-16546008D02*
X4360539Y-16536484D01*
X4512920Y-16736484D02*
X4512920Y-16603150D01*
X4512920Y-16622198D02*
X4522444Y-16612674D01*
X4522444Y-16612674D02*
X4541491Y-16603150D01*
X4541491Y-16603150D02*
X4570063Y-16603150D01*
X4570063Y-16603150D02*
X4589110Y-16612674D01*
X4589110Y-16612674D02*
X4598634Y-16631722D01*
X4598634Y-16631722D02*
X4598634Y-16736484D01*
X4598634Y-16631722D02*
X4608158Y-16612674D01*
X4608158Y-16612674D02*
X4627205Y-16603150D01*
X4627205Y-16603150D02*
X4655777Y-16603150D01*
X4655777Y-16603150D02*
X4674825Y-16612674D01*
X4674825Y-16612674D02*
X4684348Y-16631722D01*
X4684348Y-16631722D02*
X4684348Y-16736484D01*
X4779586Y-16736484D02*
X4779586Y-16603150D01*
X4779586Y-16622198D02*
X4789110Y-16612674D01*
X4789110Y-16612674D02*
X4808158Y-16603150D01*
X4808158Y-16603150D02*
X4836729Y-16603150D01*
X4836729Y-16603150D02*
X4855777Y-16612674D01*
X4855777Y-16612674D02*
X4865301Y-16631722D01*
X4865301Y-16631722D02*
X4865301Y-16736484D01*
X4865301Y-16631722D02*
X4874825Y-16612674D01*
X4874825Y-16612674D02*
X4893872Y-16603150D01*
X4893872Y-16603150D02*
X4922444Y-16603150D01*
X4922444Y-16603150D02*
X4941491Y-16612674D01*
X4941491Y-16612674D02*
X4951015Y-16631722D01*
X4951015Y-16631722D02*
X4951015Y-16736484D01*
X5341491Y-16526960D02*
X5170063Y-16784103D01*
X5598634Y-16536484D02*
X5617682Y-16536484D01*
X5617682Y-16536484D02*
X5636729Y-16546008D01*
X5636729Y-16546008D02*
X5646253Y-16555531D01*
X5646253Y-16555531D02*
X5655777Y-16574579D01*
X5655777Y-16574579D02*
X5665301Y-16612674D01*
X5665301Y-16612674D02*
X5665301Y-16660293D01*
X5665301Y-16660293D02*
X5655777Y-16698388D01*
X5655777Y-16698388D02*
X5646253Y-16717436D01*
X5646253Y-16717436D02*
X5636729Y-16726960D01*
X5636729Y-16726960D02*
X5617682Y-16736484D01*
X5617682Y-16736484D02*
X5598634Y-16736484D01*
X5598634Y-16736484D02*
X5579587Y-16726960D01*
X5579587Y-16726960D02*
X5570063Y-16717436D01*
X5570063Y-16717436D02*
X5560539Y-16698388D01*
X5560539Y-16698388D02*
X5551015Y-16660293D01*
X5551015Y-16660293D02*
X5551015Y-16612674D01*
X5551015Y-16612674D02*
X5560539Y-16574579D01*
X5560539Y-16574579D02*
X5570063Y-16555531D01*
X5570063Y-16555531D02*
X5579587Y-16546008D01*
X5579587Y-16546008D02*
X5598634Y-16536484D01*
X5751015Y-16717436D02*
X5760539Y-16726960D01*
X5760539Y-16726960D02*
X5751015Y-16736484D01*
X5751015Y-16736484D02*
X5741491Y-16726960D01*
X5741491Y-16726960D02*
X5751015Y-16717436D01*
X5751015Y-16717436D02*
X5751015Y-16736484D01*
X5884348Y-16536484D02*
X5903396Y-16536484D01*
X5903396Y-16536484D02*
X5922444Y-16546008D01*
X5922444Y-16546008D02*
X5931967Y-16555531D01*
X5931967Y-16555531D02*
X5941491Y-16574579D01*
X5941491Y-16574579D02*
X5951015Y-16612674D01*
X5951015Y-16612674D02*
X5951015Y-16660293D01*
X5951015Y-16660293D02*
X5941491Y-16698388D01*
X5941491Y-16698388D02*
X5931967Y-16717436D01*
X5931967Y-16717436D02*
X5922444Y-16726960D01*
X5922444Y-16726960D02*
X5903396Y-16736484D01*
X5903396Y-16736484D02*
X5884348Y-16736484D01*
X5884348Y-16736484D02*
X5865301Y-16726960D01*
X5865301Y-16726960D02*
X5855777Y-16717436D01*
X5855777Y-16717436D02*
X5846253Y-16698388D01*
X5846253Y-16698388D02*
X5836729Y-16660293D01*
X5836729Y-16660293D02*
X5836729Y-16612674D01*
X5836729Y-16612674D02*
X5846253Y-16574579D01*
X5846253Y-16574579D02*
X5855777Y-16555531D01*
X5855777Y-16555531D02*
X5865301Y-16546008D01*
X5865301Y-16546008D02*
X5884348Y-16536484D01*
X6017682Y-16536484D02*
X6151015Y-16536484D01*
X6151015Y-16536484D02*
X6065301Y-16736484D01*
X6255777Y-16622198D02*
X6236729Y-16612674D01*
X6236729Y-16612674D02*
X6227206Y-16603150D01*
X6227206Y-16603150D02*
X6217682Y-16584103D01*
X6217682Y-16584103D02*
X6217682Y-16574579D01*
X6217682Y-16574579D02*
X6227206Y-16555531D01*
X6227206Y-16555531D02*
X6236729Y-16546008D01*
X6236729Y-16546008D02*
X6255777Y-16536484D01*
X6255777Y-16536484D02*
X6293872Y-16536484D01*
X6293872Y-16536484D02*
X6312920Y-16546008D01*
X6312920Y-16546008D02*
X6322444Y-16555531D01*
X6322444Y-16555531D02*
X6331967Y-16574579D01*
X6331967Y-16574579D02*
X6331967Y-16584103D01*
X6331967Y-16584103D02*
X6322444Y-16603150D01*
X6322444Y-16603150D02*
X6312920Y-16612674D01*
X6312920Y-16612674D02*
X6293872Y-16622198D01*
X6293872Y-16622198D02*
X6255777Y-16622198D01*
X6255777Y-16622198D02*
X6236729Y-16631722D01*
X6236729Y-16631722D02*
X6227206Y-16641246D01*
X6227206Y-16641246D02*
X6217682Y-16660293D01*
X6217682Y-16660293D02*
X6217682Y-16698388D01*
X6217682Y-16698388D02*
X6227206Y-16717436D01*
X6227206Y-16717436D02*
X6236729Y-16726960D01*
X6236729Y-16726960D02*
X6255777Y-16736484D01*
X6255777Y-16736484D02*
X6293872Y-16736484D01*
X6293872Y-16736484D02*
X6312920Y-16726960D01*
X6312920Y-16726960D02*
X6322444Y-16717436D01*
X6322444Y-16717436D02*
X6331967Y-16698388D01*
X6331967Y-16698388D02*
X6331967Y-16660293D01*
X6331967Y-16660293D02*
X6322444Y-16641246D01*
X6322444Y-16641246D02*
X6312920Y-16631722D01*
X6312920Y-16631722D02*
X6293872Y-16622198D01*
X6398634Y-16536484D02*
X6531967Y-16536484D01*
X6531967Y-16536484D02*
X6446253Y-16736484D01*
X6598634Y-16536484D02*
X6598634Y-16574579D01*
X6674825Y-16536484D02*
X6674825Y-16574579D01*
X6970063Y-16812674D02*
X6960539Y-16803150D01*
X6960539Y-16803150D02*
X6941491Y-16774579D01*
X6941491Y-16774579D02*
X6931968Y-16755531D01*
X6931968Y-16755531D02*
X6922444Y-16726960D01*
X6922444Y-16726960D02*
X6912920Y-16679341D01*
X6912920Y-16679341D02*
X6912920Y-16641246D01*
X6912920Y-16641246D02*
X6922444Y-16593627D01*
X6922444Y-16593627D02*
X6931968Y-16565055D01*
X6931968Y-16565055D02*
X6941491Y-16546008D01*
X6941491Y-16546008D02*
X6960539Y-16517436D01*
X6960539Y-16517436D02*
X6970063Y-16507912D01*
X7074825Y-16622198D02*
X7055777Y-16612674D01*
X7055777Y-16612674D02*
X7046253Y-16603150D01*
X7046253Y-16603150D02*
X7036729Y-16584103D01*
X7036729Y-16584103D02*
X7036729Y-16574579D01*
X7036729Y-16574579D02*
X7046253Y-16555531D01*
X7046253Y-16555531D02*
X7055777Y-16546008D01*
X7055777Y-16546008D02*
X7074825Y-16536484D01*
X7074825Y-16536484D02*
X7112920Y-16536484D01*
X7112920Y-16536484D02*
X7131968Y-16546008D01*
X7131968Y-16546008D02*
X7141491Y-16555531D01*
X7141491Y-16555531D02*
X7151015Y-16574579D01*
X7151015Y-16574579D02*
X7151015Y-16584103D01*
X7151015Y-16584103D02*
X7141491Y-16603150D01*
X7141491Y-16603150D02*
X7131968Y-16612674D01*
X7131968Y-16612674D02*
X7112920Y-16622198D01*
X7112920Y-16622198D02*
X7074825Y-16622198D01*
X7074825Y-16622198D02*
X7055777Y-16631722D01*
X7055777Y-16631722D02*
X7046253Y-16641246D01*
X7046253Y-16641246D02*
X7036729Y-16660293D01*
X7036729Y-16660293D02*
X7036729Y-16698388D01*
X7036729Y-16698388D02*
X7046253Y-16717436D01*
X7046253Y-16717436D02*
X7055777Y-16726960D01*
X7055777Y-16726960D02*
X7074825Y-16736484D01*
X7074825Y-16736484D02*
X7112920Y-16736484D01*
X7112920Y-16736484D02*
X7131968Y-16726960D01*
X7131968Y-16726960D02*
X7141491Y-16717436D01*
X7141491Y-16717436D02*
X7151015Y-16698388D01*
X7151015Y-16698388D02*
X7151015Y-16660293D01*
X7151015Y-16660293D02*
X7141491Y-16641246D01*
X7141491Y-16641246D02*
X7131968Y-16631722D01*
X7131968Y-16631722D02*
X7112920Y-16622198D01*
X7389110Y-16736484D02*
X7389110Y-16536484D01*
X7474825Y-16736484D02*
X7474825Y-16631722D01*
X7474825Y-16631722D02*
X7465301Y-16612674D01*
X7465301Y-16612674D02*
X7446253Y-16603150D01*
X7446253Y-16603150D02*
X7417682Y-16603150D01*
X7417682Y-16603150D02*
X7398634Y-16612674D01*
X7398634Y-16612674D02*
X7389110Y-16622198D01*
X7598634Y-16736484D02*
X7579587Y-16726960D01*
X7579587Y-16726960D02*
X7570063Y-16717436D01*
X7570063Y-16717436D02*
X7560539Y-16698388D01*
X7560539Y-16698388D02*
X7560539Y-16641246D01*
X7560539Y-16641246D02*
X7570063Y-16622198D01*
X7570063Y-16622198D02*
X7579587Y-16612674D01*
X7579587Y-16612674D02*
X7598634Y-16603150D01*
X7598634Y-16603150D02*
X7627206Y-16603150D01*
X7627206Y-16603150D02*
X7646253Y-16612674D01*
X7646253Y-16612674D02*
X7655777Y-16622198D01*
X7655777Y-16622198D02*
X7665301Y-16641246D01*
X7665301Y-16641246D02*
X7665301Y-16698388D01*
X7665301Y-16698388D02*
X7655777Y-16717436D01*
X7655777Y-16717436D02*
X7646253Y-16726960D01*
X7646253Y-16726960D02*
X7627206Y-16736484D01*
X7627206Y-16736484D02*
X7598634Y-16736484D01*
X7779587Y-16736484D02*
X7760539Y-16726960D01*
X7760539Y-16726960D02*
X7751015Y-16707912D01*
X7751015Y-16707912D02*
X7751015Y-16536484D01*
X7931968Y-16726960D02*
X7912920Y-16736484D01*
X7912920Y-16736484D02*
X7874825Y-16736484D01*
X7874825Y-16736484D02*
X7855777Y-16726960D01*
X7855777Y-16726960D02*
X7846253Y-16707912D01*
X7846253Y-16707912D02*
X7846253Y-16631722D01*
X7846253Y-16631722D02*
X7855777Y-16612674D01*
X7855777Y-16612674D02*
X7874825Y-16603150D01*
X7874825Y-16603150D02*
X7912920Y-16603150D01*
X7912920Y-16603150D02*
X7931968Y-16612674D01*
X7931968Y-16612674D02*
X7941491Y-16631722D01*
X7941491Y-16631722D02*
X7941491Y-16650769D01*
X7941491Y-16650769D02*
X7846253Y-16669817D01*
X8017682Y-16726960D02*
X8036730Y-16736484D01*
X8036730Y-16736484D02*
X8074825Y-16736484D01*
X8074825Y-16736484D02*
X8093872Y-16726960D01*
X8093872Y-16726960D02*
X8103396Y-16707912D01*
X8103396Y-16707912D02*
X8103396Y-16698388D01*
X8103396Y-16698388D02*
X8093872Y-16679341D01*
X8093872Y-16679341D02*
X8074825Y-16669817D01*
X8074825Y-16669817D02*
X8046253Y-16669817D01*
X8046253Y-16669817D02*
X8027206Y-16660293D01*
X8027206Y-16660293D02*
X8017682Y-16641246D01*
X8017682Y-16641246D02*
X8017682Y-16631722D01*
X8017682Y-16631722D02*
X8027206Y-16612674D01*
X8027206Y-16612674D02*
X8046253Y-16603150D01*
X8046253Y-16603150D02*
X8074825Y-16603150D01*
X8074825Y-16603150D02*
X8093872Y-16612674D01*
X8170063Y-16812674D02*
X8179587Y-16803150D01*
X8179587Y-16803150D02*
X8198634Y-16774579D01*
X8198634Y-16774579D02*
X8208158Y-16755531D01*
X8208158Y-16755531D02*
X8217682Y-16726960D01*
X8217682Y-16726960D02*
X8227206Y-16679341D01*
X8227206Y-16679341D02*
X8227206Y-16641246D01*
X8227206Y-16641246D02*
X8217682Y-16593627D01*
X8217682Y-16593627D02*
X8208158Y-16565055D01*
X8208158Y-16565055D02*
X8198634Y-16546008D01*
X8198634Y-16546008D02*
X8179587Y-16517436D01*
X8179587Y-16517436D02*
X8170063Y-16507912D01*
X8531968Y-16812674D02*
X8522444Y-16803150D01*
X8522444Y-16803150D02*
X8503396Y-16774579D01*
X8503396Y-16774579D02*
X8493873Y-16755531D01*
X8493873Y-16755531D02*
X8484349Y-16726960D01*
X8484349Y-16726960D02*
X8474825Y-16679341D01*
X8474825Y-16679341D02*
X8474825Y-16641246D01*
X8474825Y-16641246D02*
X8484349Y-16593627D01*
X8484349Y-16593627D02*
X8493873Y-16565055D01*
X8493873Y-16565055D02*
X8503396Y-16546008D01*
X8503396Y-16546008D02*
X8522444Y-16517436D01*
X8522444Y-16517436D02*
X8531968Y-16507912D01*
X8608158Y-16603150D02*
X8608158Y-16736484D01*
X8608158Y-16622198D02*
X8617682Y-16612674D01*
X8617682Y-16612674D02*
X8636730Y-16603150D01*
X8636730Y-16603150D02*
X8665301Y-16603150D01*
X8665301Y-16603150D02*
X8684349Y-16612674D01*
X8684349Y-16612674D02*
X8693873Y-16631722D01*
X8693873Y-16631722D02*
X8693873Y-16736484D01*
X8817682Y-16736484D02*
X8798634Y-16726960D01*
X8798634Y-16726960D02*
X8789111Y-16717436D01*
X8789111Y-16717436D02*
X8779587Y-16698388D01*
X8779587Y-16698388D02*
X8779587Y-16641246D01*
X8779587Y-16641246D02*
X8789111Y-16622198D01*
X8789111Y-16622198D02*
X8798634Y-16612674D01*
X8798634Y-16612674D02*
X8817682Y-16603150D01*
X8817682Y-16603150D02*
X8846254Y-16603150D01*
X8846254Y-16603150D02*
X8865301Y-16612674D01*
X8865301Y-16612674D02*
X8874825Y-16622198D01*
X8874825Y-16622198D02*
X8884349Y-16641246D01*
X8884349Y-16641246D02*
X8884349Y-16698388D01*
X8884349Y-16698388D02*
X8874825Y-16717436D01*
X8874825Y-16717436D02*
X8865301Y-16726960D01*
X8865301Y-16726960D02*
X8846254Y-16736484D01*
X8846254Y-16736484D02*
X8817682Y-16736484D01*
X8941492Y-16603150D02*
X9017682Y-16603150D01*
X8970063Y-16536484D02*
X8970063Y-16707912D01*
X8970063Y-16707912D02*
X8979587Y-16726960D01*
X8979587Y-16726960D02*
X8998634Y-16736484D01*
X8998634Y-16736484D02*
X9017682Y-16736484D01*
X9236730Y-16603150D02*
X9236730Y-16803150D01*
X9236730Y-16612674D02*
X9255777Y-16603150D01*
X9255777Y-16603150D02*
X9293873Y-16603150D01*
X9293873Y-16603150D02*
X9312920Y-16612674D01*
X9312920Y-16612674D02*
X9322444Y-16622198D01*
X9322444Y-16622198D02*
X9331968Y-16641246D01*
X9331968Y-16641246D02*
X9331968Y-16698388D01*
X9331968Y-16698388D02*
X9322444Y-16717436D01*
X9322444Y-16717436D02*
X9312920Y-16726960D01*
X9312920Y-16726960D02*
X9293873Y-16736484D01*
X9293873Y-16736484D02*
X9255777Y-16736484D01*
X9255777Y-16736484D02*
X9236730Y-16726960D01*
X9446254Y-16736484D02*
X9427206Y-16726960D01*
X9427206Y-16726960D02*
X9417682Y-16707912D01*
X9417682Y-16707912D02*
X9417682Y-16536484D01*
X9608158Y-16736484D02*
X9608158Y-16631722D01*
X9608158Y-16631722D02*
X9598635Y-16612674D01*
X9598635Y-16612674D02*
X9579587Y-16603150D01*
X9579587Y-16603150D02*
X9541492Y-16603150D01*
X9541492Y-16603150D02*
X9522444Y-16612674D01*
X9608158Y-16726960D02*
X9589111Y-16736484D01*
X9589111Y-16736484D02*
X9541492Y-16736484D01*
X9541492Y-16736484D02*
X9522444Y-16726960D01*
X9522444Y-16726960D02*
X9512920Y-16707912D01*
X9512920Y-16707912D02*
X9512920Y-16688865D01*
X9512920Y-16688865D02*
X9522444Y-16669817D01*
X9522444Y-16669817D02*
X9541492Y-16660293D01*
X9541492Y-16660293D02*
X9589111Y-16660293D01*
X9589111Y-16660293D02*
X9608158Y-16650769D01*
X9674825Y-16603150D02*
X9751015Y-16603150D01*
X9703396Y-16536484D02*
X9703396Y-16707912D01*
X9703396Y-16707912D02*
X9712920Y-16726960D01*
X9712920Y-16726960D02*
X9731968Y-16736484D01*
X9731968Y-16736484D02*
X9751015Y-16736484D01*
X9893873Y-16726960D02*
X9874825Y-16736484D01*
X9874825Y-16736484D02*
X9836730Y-16736484D01*
X9836730Y-16736484D02*
X9817682Y-16726960D01*
X9817682Y-16726960D02*
X9808158Y-16707912D01*
X9808158Y-16707912D02*
X9808158Y-16631722D01*
X9808158Y-16631722D02*
X9817682Y-16612674D01*
X9817682Y-16612674D02*
X9836730Y-16603150D01*
X9836730Y-16603150D02*
X9874825Y-16603150D01*
X9874825Y-16603150D02*
X9893873Y-16612674D01*
X9893873Y-16612674D02*
X9903396Y-16631722D01*
X9903396Y-16631722D02*
X9903396Y-16650769D01*
X9903396Y-16650769D02*
X9808158Y-16669817D01*
X10074825Y-16736484D02*
X10074825Y-16536484D01*
X10074825Y-16726960D02*
X10055777Y-16736484D01*
X10055777Y-16736484D02*
X10017682Y-16736484D01*
X10017682Y-16736484D02*
X9998635Y-16726960D01*
X9998635Y-16726960D02*
X9989111Y-16717436D01*
X9989111Y-16717436D02*
X9979587Y-16698388D01*
X9979587Y-16698388D02*
X9979587Y-16641246D01*
X9979587Y-16641246D02*
X9989111Y-16622198D01*
X9989111Y-16622198D02*
X9998635Y-16612674D01*
X9998635Y-16612674D02*
X10017682Y-16603150D01*
X10017682Y-16603150D02*
X10055777Y-16603150D01*
X10055777Y-16603150D02*
X10074825Y-16612674D01*
X10151016Y-16812674D02*
X10160539Y-16803150D01*
X10160539Y-16803150D02*
X10179587Y-16774579D01*
X10179587Y-16774579D02*
X10189111Y-16755531D01*
X10189111Y-16755531D02*
X10198635Y-16726960D01*
X10198635Y-16726960D02*
X10208158Y-16679341D01*
X10208158Y-16679341D02*
X10208158Y-16641246D01*
X10208158Y-16641246D02*
X10198635Y-16593627D01*
X10198635Y-16593627D02*
X10189111Y-16565055D01*
X10189111Y-16565055D02*
X10179587Y-16546008D01*
X10179587Y-16546008D02*
X10160539Y-16517436D01*
X10160539Y-16517436D02*
X10151016Y-16507912D01*
X3395000Y-16965000D02*
G75*
G02*
X3195000Y-16965000I-100000J0D01*
G01*
X3195000Y-16965000D02*
G75*
G02*
X3395000Y-16965000I100000J0D01*
G01*
X3636729Y-16856484D02*
X3760539Y-16856484D01*
X3760539Y-16856484D02*
X3693872Y-16932674D01*
X3693872Y-16932674D02*
X3722443Y-16932674D01*
X3722443Y-16932674D02*
X3741491Y-16942198D01*
X3741491Y-16942198D02*
X3751015Y-16951722D01*
X3751015Y-16951722D02*
X3760539Y-16970770D01*
X3760539Y-16970770D02*
X3760539Y-17018389D01*
X3760539Y-17018389D02*
X3751015Y-17037436D01*
X3751015Y-17037436D02*
X3741491Y-17046960D01*
X3741491Y-17046960D02*
X3722443Y-17056484D01*
X3722443Y-17056484D02*
X3665301Y-17056484D01*
X3665301Y-17056484D02*
X3646253Y-17046960D01*
X3646253Y-17046960D02*
X3636729Y-17037436D01*
X3846253Y-17037436D02*
X3855777Y-17046960D01*
X3855777Y-17046960D02*
X3846253Y-17056484D01*
X3846253Y-17056484D02*
X3836729Y-17046960D01*
X3836729Y-17046960D02*
X3846253Y-17037436D01*
X3846253Y-17037436D02*
X3846253Y-17056484D01*
X3931967Y-16875531D02*
X3941491Y-16866008D01*
X3941491Y-16866008D02*
X3960539Y-16856484D01*
X3960539Y-16856484D02*
X4008158Y-16856484D01*
X4008158Y-16856484D02*
X4027205Y-16866008D01*
X4027205Y-16866008D02*
X4036729Y-16875531D01*
X4036729Y-16875531D02*
X4046253Y-16894579D01*
X4046253Y-16894579D02*
X4046253Y-16913627D01*
X4046253Y-16913627D02*
X4036729Y-16942198D01*
X4036729Y-16942198D02*
X3922443Y-17056484D01*
X3922443Y-17056484D02*
X4046253Y-17056484D01*
X4170062Y-16856484D02*
X4189110Y-16856484D01*
X4189110Y-16856484D02*
X4208158Y-16866008D01*
X4208158Y-16866008D02*
X4217682Y-16875531D01*
X4217682Y-16875531D02*
X4227205Y-16894579D01*
X4227205Y-16894579D02*
X4236729Y-16932674D01*
X4236729Y-16932674D02*
X4236729Y-16980293D01*
X4236729Y-16980293D02*
X4227205Y-17018389D01*
X4227205Y-17018389D02*
X4217682Y-17037436D01*
X4217682Y-17037436D02*
X4208158Y-17046960D01*
X4208158Y-17046960D02*
X4189110Y-17056484D01*
X4189110Y-17056484D02*
X4170062Y-17056484D01*
X4170062Y-17056484D02*
X4151015Y-17046960D01*
X4151015Y-17046960D02*
X4141491Y-17037436D01*
X4141491Y-17037436D02*
X4131967Y-17018389D01*
X4131967Y-17018389D02*
X4122443Y-16980293D01*
X4122443Y-16980293D02*
X4122443Y-16932674D01*
X4122443Y-16932674D02*
X4131967Y-16894579D01*
X4131967Y-16894579D02*
X4141491Y-16875531D01*
X4141491Y-16875531D02*
X4151015Y-16866008D01*
X4151015Y-16866008D02*
X4170062Y-16856484D01*
X4360539Y-16856484D02*
X4379586Y-16856484D01*
X4379586Y-16856484D02*
X4398634Y-16866008D01*
X4398634Y-16866008D02*
X4408158Y-16875531D01*
X4408158Y-16875531D02*
X4417682Y-16894579D01*
X4417682Y-16894579D02*
X4427205Y-16932674D01*
X4427205Y-16932674D02*
X4427205Y-16980293D01*
X4427205Y-16980293D02*
X4417682Y-17018389D01*
X4417682Y-17018389D02*
X4408158Y-17037436D01*
X4408158Y-17037436D02*
X4398634Y-17046960D01*
X4398634Y-17046960D02*
X4379586Y-17056484D01*
X4379586Y-17056484D02*
X4360539Y-17056484D01*
X4360539Y-17056484D02*
X4341491Y-17046960D01*
X4341491Y-17046960D02*
X4331967Y-17037436D01*
X4331967Y-17037436D02*
X4322444Y-17018389D01*
X4322444Y-17018389D02*
X4312920Y-16980293D01*
X4312920Y-16980293D02*
X4312920Y-16932674D01*
X4312920Y-16932674D02*
X4322444Y-16894579D01*
X4322444Y-16894579D02*
X4331967Y-16875531D01*
X4331967Y-16875531D02*
X4341491Y-16866008D01*
X4341491Y-16866008D02*
X4360539Y-16856484D01*
X4512920Y-17056484D02*
X4512920Y-16923150D01*
X4512920Y-16942198D02*
X4522444Y-16932674D01*
X4522444Y-16932674D02*
X4541491Y-16923150D01*
X4541491Y-16923150D02*
X4570063Y-16923150D01*
X4570063Y-16923150D02*
X4589110Y-16932674D01*
X4589110Y-16932674D02*
X4598634Y-16951722D01*
X4598634Y-16951722D02*
X4598634Y-17056484D01*
X4598634Y-16951722D02*
X4608158Y-16932674D01*
X4608158Y-16932674D02*
X4627205Y-16923150D01*
X4627205Y-16923150D02*
X4655777Y-16923150D01*
X4655777Y-16923150D02*
X4674825Y-16932674D01*
X4674825Y-16932674D02*
X4684348Y-16951722D01*
X4684348Y-16951722D02*
X4684348Y-17056484D01*
X4779586Y-17056484D02*
X4779586Y-16923150D01*
X4779586Y-16942198D02*
X4789110Y-16932674D01*
X4789110Y-16932674D02*
X4808158Y-16923150D01*
X4808158Y-16923150D02*
X4836729Y-16923150D01*
X4836729Y-16923150D02*
X4855777Y-16932674D01*
X4855777Y-16932674D02*
X4865301Y-16951722D01*
X4865301Y-16951722D02*
X4865301Y-17056484D01*
X4865301Y-16951722D02*
X4874825Y-16932674D01*
X4874825Y-16932674D02*
X4893872Y-16923150D01*
X4893872Y-16923150D02*
X4922444Y-16923150D01*
X4922444Y-16923150D02*
X4941491Y-16932674D01*
X4941491Y-16932674D02*
X4951015Y-16951722D01*
X4951015Y-16951722D02*
X4951015Y-17056484D01*
X5341491Y-16846960D02*
X5170063Y-17104103D01*
X5598634Y-16856484D02*
X5617682Y-16856484D01*
X5617682Y-16856484D02*
X5636729Y-16866008D01*
X5636729Y-16866008D02*
X5646253Y-16875531D01*
X5646253Y-16875531D02*
X5655777Y-16894579D01*
X5655777Y-16894579D02*
X5665301Y-16932674D01*
X5665301Y-16932674D02*
X5665301Y-16980293D01*
X5665301Y-16980293D02*
X5655777Y-17018389D01*
X5655777Y-17018389D02*
X5646253Y-17037436D01*
X5646253Y-17037436D02*
X5636729Y-17046960D01*
X5636729Y-17046960D02*
X5617682Y-17056484D01*
X5617682Y-17056484D02*
X5598634Y-17056484D01*
X5598634Y-17056484D02*
X5579587Y-17046960D01*
X5579587Y-17046960D02*
X5570063Y-17037436D01*
X5570063Y-17037436D02*
X5560539Y-17018389D01*
X5560539Y-17018389D02*
X5551015Y-16980293D01*
X5551015Y-16980293D02*
X5551015Y-16932674D01*
X5551015Y-16932674D02*
X5560539Y-16894579D01*
X5560539Y-16894579D02*
X5570063Y-16875531D01*
X5570063Y-16875531D02*
X5579587Y-16866008D01*
X5579587Y-16866008D02*
X5598634Y-16856484D01*
X5751015Y-17037436D02*
X5760539Y-17046960D01*
X5760539Y-17046960D02*
X5751015Y-17056484D01*
X5751015Y-17056484D02*
X5741491Y-17046960D01*
X5741491Y-17046960D02*
X5751015Y-17037436D01*
X5751015Y-17037436D02*
X5751015Y-17056484D01*
X5951015Y-17056484D02*
X5836729Y-17056484D01*
X5893872Y-17056484D02*
X5893872Y-16856484D01*
X5893872Y-16856484D02*
X5874825Y-16885055D01*
X5874825Y-16885055D02*
X5855777Y-16904103D01*
X5855777Y-16904103D02*
X5836729Y-16913627D01*
X6027206Y-16875531D02*
X6036729Y-16866008D01*
X6036729Y-16866008D02*
X6055777Y-16856484D01*
X6055777Y-16856484D02*
X6103396Y-16856484D01*
X6103396Y-16856484D02*
X6122444Y-16866008D01*
X6122444Y-16866008D02*
X6131967Y-16875531D01*
X6131967Y-16875531D02*
X6141491Y-16894579D01*
X6141491Y-16894579D02*
X6141491Y-16913627D01*
X6141491Y-16913627D02*
X6131967Y-16942198D01*
X6131967Y-16942198D02*
X6017682Y-17056484D01*
X6017682Y-17056484D02*
X6141491Y-17056484D01*
X6312920Y-16856484D02*
X6274825Y-16856484D01*
X6274825Y-16856484D02*
X6255777Y-16866008D01*
X6255777Y-16866008D02*
X6246253Y-16875531D01*
X6246253Y-16875531D02*
X6227206Y-16904103D01*
X6227206Y-16904103D02*
X6217682Y-16942198D01*
X6217682Y-16942198D02*
X6217682Y-17018389D01*
X6217682Y-17018389D02*
X6227206Y-17037436D01*
X6227206Y-17037436D02*
X6236729Y-17046960D01*
X6236729Y-17046960D02*
X6255777Y-17056484D01*
X6255777Y-17056484D02*
X6293872Y-17056484D01*
X6293872Y-17056484D02*
X6312920Y-17046960D01*
X6312920Y-17046960D02*
X6322444Y-17037436D01*
X6322444Y-17037436D02*
X6331967Y-17018389D01*
X6331967Y-17018389D02*
X6331967Y-16970770D01*
X6331967Y-16970770D02*
X6322444Y-16951722D01*
X6322444Y-16951722D02*
X6312920Y-16942198D01*
X6312920Y-16942198D02*
X6293872Y-16932674D01*
X6293872Y-16932674D02*
X6255777Y-16932674D01*
X6255777Y-16932674D02*
X6236729Y-16942198D01*
X6236729Y-16942198D02*
X6227206Y-16951722D01*
X6227206Y-16951722D02*
X6217682Y-16970770D01*
X6455777Y-16856484D02*
X6474825Y-16856484D01*
X6474825Y-16856484D02*
X6493872Y-16866008D01*
X6493872Y-16866008D02*
X6503396Y-16875531D01*
X6503396Y-16875531D02*
X6512920Y-16894579D01*
X6512920Y-16894579D02*
X6522444Y-16932674D01*
X6522444Y-16932674D02*
X6522444Y-16980293D01*
X6522444Y-16980293D02*
X6512920Y-17018389D01*
X6512920Y-17018389D02*
X6503396Y-17037436D01*
X6503396Y-17037436D02*
X6493872Y-17046960D01*
X6493872Y-17046960D02*
X6474825Y-17056484D01*
X6474825Y-17056484D02*
X6455777Y-17056484D01*
X6455777Y-17056484D02*
X6436729Y-17046960D01*
X6436729Y-17046960D02*
X6427206Y-17037436D01*
X6427206Y-17037436D02*
X6417682Y-17018389D01*
X6417682Y-17018389D02*
X6408158Y-16980293D01*
X6408158Y-16980293D02*
X6408158Y-16932674D01*
X6408158Y-16932674D02*
X6417682Y-16894579D01*
X6417682Y-16894579D02*
X6427206Y-16875531D01*
X6427206Y-16875531D02*
X6436729Y-16866008D01*
X6436729Y-16866008D02*
X6455777Y-16856484D01*
X6598634Y-16856484D02*
X6598634Y-16894579D01*
X6674825Y-16856484D02*
X6674825Y-16894579D01*
X6970063Y-17132674D02*
X6960539Y-17123150D01*
X6960539Y-17123150D02*
X6941491Y-17094579D01*
X6941491Y-17094579D02*
X6931968Y-17075531D01*
X6931968Y-17075531D02*
X6922444Y-17046960D01*
X6922444Y-17046960D02*
X6912920Y-16999341D01*
X6912920Y-16999341D02*
X6912920Y-16961246D01*
X6912920Y-16961246D02*
X6922444Y-16913627D01*
X6922444Y-16913627D02*
X6931968Y-16885055D01*
X6931968Y-16885055D02*
X6941491Y-16866008D01*
X6941491Y-16866008D02*
X6960539Y-16837436D01*
X6960539Y-16837436D02*
X6970063Y-16827912D01*
X7141491Y-16856484D02*
X7046253Y-16856484D01*
X7046253Y-16856484D02*
X7036729Y-16951722D01*
X7036729Y-16951722D02*
X7046253Y-16942198D01*
X7046253Y-16942198D02*
X7065301Y-16932674D01*
X7065301Y-16932674D02*
X7112920Y-16932674D01*
X7112920Y-16932674D02*
X7131968Y-16942198D01*
X7131968Y-16942198D02*
X7141491Y-16951722D01*
X7141491Y-16951722D02*
X7151015Y-16970770D01*
X7151015Y-16970770D02*
X7151015Y-17018389D01*
X7151015Y-17018389D02*
X7141491Y-17037436D01*
X7141491Y-17037436D02*
X7131968Y-17046960D01*
X7131968Y-17046960D02*
X7112920Y-17056484D01*
X7112920Y-17056484D02*
X7065301Y-17056484D01*
X7065301Y-17056484D02*
X7046253Y-17046960D01*
X7046253Y-17046960D02*
X7036729Y-17037436D01*
X7389110Y-17056484D02*
X7389110Y-16856484D01*
X7474825Y-17056484D02*
X7474825Y-16951722D01*
X7474825Y-16951722D02*
X7465301Y-16932674D01*
X7465301Y-16932674D02*
X7446253Y-16923150D01*
X7446253Y-16923150D02*
X7417682Y-16923150D01*
X7417682Y-16923150D02*
X7398634Y-16932674D01*
X7398634Y-16932674D02*
X7389110Y-16942198D01*
X7598634Y-17056484D02*
X7579587Y-17046960D01*
X7579587Y-17046960D02*
X7570063Y-17037436D01*
X7570063Y-17037436D02*
X7560539Y-17018389D01*
X7560539Y-17018389D02*
X7560539Y-16961246D01*
X7560539Y-16961246D02*
X7570063Y-16942198D01*
X7570063Y-16942198D02*
X7579587Y-16932674D01*
X7579587Y-16932674D02*
X7598634Y-16923150D01*
X7598634Y-16923150D02*
X7627206Y-16923150D01*
X7627206Y-16923150D02*
X7646253Y-16932674D01*
X7646253Y-16932674D02*
X7655777Y-16942198D01*
X7655777Y-16942198D02*
X7665301Y-16961246D01*
X7665301Y-16961246D02*
X7665301Y-17018389D01*
X7665301Y-17018389D02*
X7655777Y-17037436D01*
X7655777Y-17037436D02*
X7646253Y-17046960D01*
X7646253Y-17046960D02*
X7627206Y-17056484D01*
X7627206Y-17056484D02*
X7598634Y-17056484D01*
X7779587Y-17056484D02*
X7760539Y-17046960D01*
X7760539Y-17046960D02*
X7751015Y-17027912D01*
X7751015Y-17027912D02*
X7751015Y-16856484D01*
X7931968Y-17046960D02*
X7912920Y-17056484D01*
X7912920Y-17056484D02*
X7874825Y-17056484D01*
X7874825Y-17056484D02*
X7855777Y-17046960D01*
X7855777Y-17046960D02*
X7846253Y-17027912D01*
X7846253Y-17027912D02*
X7846253Y-16951722D01*
X7846253Y-16951722D02*
X7855777Y-16932674D01*
X7855777Y-16932674D02*
X7874825Y-16923150D01*
X7874825Y-16923150D02*
X7912920Y-16923150D01*
X7912920Y-16923150D02*
X7931968Y-16932674D01*
X7931968Y-16932674D02*
X7941491Y-16951722D01*
X7941491Y-16951722D02*
X7941491Y-16970770D01*
X7941491Y-16970770D02*
X7846253Y-16989817D01*
X8017682Y-17046960D02*
X8036730Y-17056484D01*
X8036730Y-17056484D02*
X8074825Y-17056484D01*
X8074825Y-17056484D02*
X8093872Y-17046960D01*
X8093872Y-17046960D02*
X8103396Y-17027912D01*
X8103396Y-17027912D02*
X8103396Y-17018389D01*
X8103396Y-17018389D02*
X8093872Y-16999341D01*
X8093872Y-16999341D02*
X8074825Y-16989817D01*
X8074825Y-16989817D02*
X8046253Y-16989817D01*
X8046253Y-16989817D02*
X8027206Y-16980293D01*
X8027206Y-16980293D02*
X8017682Y-16961246D01*
X8017682Y-16961246D02*
X8017682Y-16951722D01*
X8017682Y-16951722D02*
X8027206Y-16932674D01*
X8027206Y-16932674D02*
X8046253Y-16923150D01*
X8046253Y-16923150D02*
X8074825Y-16923150D01*
X8074825Y-16923150D02*
X8093872Y-16932674D01*
X8170063Y-17132674D02*
X8179587Y-17123150D01*
X8179587Y-17123150D02*
X8198634Y-17094579D01*
X8198634Y-17094579D02*
X8208158Y-17075531D01*
X8208158Y-17075531D02*
X8217682Y-17046960D01*
X8217682Y-17046960D02*
X8227206Y-16999341D01*
X8227206Y-16999341D02*
X8227206Y-16961246D01*
X8227206Y-16961246D02*
X8217682Y-16913627D01*
X8217682Y-16913627D02*
X8208158Y-16885055D01*
X8208158Y-16885055D02*
X8198634Y-16866008D01*
X8198634Y-16866008D02*
X8179587Y-16837436D01*
X8179587Y-16837436D02*
X8170063Y-16827912D01*
X8531968Y-17132674D02*
X8522444Y-17123150D01*
X8522444Y-17123150D02*
X8503396Y-17094579D01*
X8503396Y-17094579D02*
X8493873Y-17075531D01*
X8493873Y-17075531D02*
X8484349Y-17046960D01*
X8484349Y-17046960D02*
X8474825Y-16999341D01*
X8474825Y-16999341D02*
X8474825Y-16961246D01*
X8474825Y-16961246D02*
X8484349Y-16913627D01*
X8484349Y-16913627D02*
X8493873Y-16885055D01*
X8493873Y-16885055D02*
X8503396Y-16866008D01*
X8503396Y-16866008D02*
X8522444Y-16837436D01*
X8522444Y-16837436D02*
X8531968Y-16827912D01*
X8608158Y-16923150D02*
X8608158Y-17056484D01*
X8608158Y-16942198D02*
X8617682Y-16932674D01*
X8617682Y-16932674D02*
X8636730Y-16923150D01*
X8636730Y-16923150D02*
X8665301Y-16923150D01*
X8665301Y-16923150D02*
X8684349Y-16932674D01*
X8684349Y-16932674D02*
X8693873Y-16951722D01*
X8693873Y-16951722D02*
X8693873Y-17056484D01*
X8817682Y-17056484D02*
X8798634Y-17046960D01*
X8798634Y-17046960D02*
X8789111Y-17037436D01*
X8789111Y-17037436D02*
X8779587Y-17018389D01*
X8779587Y-17018389D02*
X8779587Y-16961246D01*
X8779587Y-16961246D02*
X8789111Y-16942198D01*
X8789111Y-16942198D02*
X8798634Y-16932674D01*
X8798634Y-16932674D02*
X8817682Y-16923150D01*
X8817682Y-16923150D02*
X8846254Y-16923150D01*
X8846254Y-16923150D02*
X8865301Y-16932674D01*
X8865301Y-16932674D02*
X8874825Y-16942198D01*
X8874825Y-16942198D02*
X8884349Y-16961246D01*
X8884349Y-16961246D02*
X8884349Y-17018389D01*
X8884349Y-17018389D02*
X8874825Y-17037436D01*
X8874825Y-17037436D02*
X8865301Y-17046960D01*
X8865301Y-17046960D02*
X8846254Y-17056484D01*
X8846254Y-17056484D02*
X8817682Y-17056484D01*
X8941492Y-16923150D02*
X9017682Y-16923150D01*
X8970063Y-16856484D02*
X8970063Y-17027912D01*
X8970063Y-17027912D02*
X8979587Y-17046960D01*
X8979587Y-17046960D02*
X8998634Y-17056484D01*
X8998634Y-17056484D02*
X9017682Y-17056484D01*
X9236730Y-16923150D02*
X9236730Y-17123150D01*
X9236730Y-16932674D02*
X9255777Y-16923150D01*
X9255777Y-16923150D02*
X9293873Y-16923150D01*
X9293873Y-16923150D02*
X9312920Y-16932674D01*
X9312920Y-16932674D02*
X9322444Y-16942198D01*
X9322444Y-16942198D02*
X9331968Y-16961246D01*
X9331968Y-16961246D02*
X9331968Y-17018389D01*
X9331968Y-17018389D02*
X9322444Y-17037436D01*
X9322444Y-17037436D02*
X9312920Y-17046960D01*
X9312920Y-17046960D02*
X9293873Y-17056484D01*
X9293873Y-17056484D02*
X9255777Y-17056484D01*
X9255777Y-17056484D02*
X9236730Y-17046960D01*
X9446254Y-17056484D02*
X9427206Y-17046960D01*
X9427206Y-17046960D02*
X9417682Y-17027912D01*
X9417682Y-17027912D02*
X9417682Y-16856484D01*
X9608158Y-17056484D02*
X9608158Y-16951722D01*
X9608158Y-16951722D02*
X9598635Y-16932674D01*
X9598635Y-16932674D02*
X9579587Y-16923150D01*
X9579587Y-16923150D02*
X9541492Y-16923150D01*
X9541492Y-16923150D02*
X9522444Y-16932674D01*
X9608158Y-17046960D02*
X9589111Y-17056484D01*
X9589111Y-17056484D02*
X9541492Y-17056484D01*
X9541492Y-17056484D02*
X9522444Y-17046960D01*
X9522444Y-17046960D02*
X9512920Y-17027912D01*
X9512920Y-17027912D02*
X9512920Y-17008865D01*
X9512920Y-17008865D02*
X9522444Y-16989817D01*
X9522444Y-16989817D02*
X9541492Y-16980293D01*
X9541492Y-16980293D02*
X9589111Y-16980293D01*
X9589111Y-16980293D02*
X9608158Y-16970770D01*
X9674825Y-16923150D02*
X9751015Y-16923150D01*
X9703396Y-16856484D02*
X9703396Y-17027912D01*
X9703396Y-17027912D02*
X9712920Y-17046960D01*
X9712920Y-17046960D02*
X9731968Y-17056484D01*
X9731968Y-17056484D02*
X9751015Y-17056484D01*
X9893873Y-17046960D02*
X9874825Y-17056484D01*
X9874825Y-17056484D02*
X9836730Y-17056484D01*
X9836730Y-17056484D02*
X9817682Y-17046960D01*
X9817682Y-17046960D02*
X9808158Y-17027912D01*
X9808158Y-17027912D02*
X9808158Y-16951722D01*
X9808158Y-16951722D02*
X9817682Y-16932674D01*
X9817682Y-16932674D02*
X9836730Y-16923150D01*
X9836730Y-16923150D02*
X9874825Y-16923150D01*
X9874825Y-16923150D02*
X9893873Y-16932674D01*
X9893873Y-16932674D02*
X9903396Y-16951722D01*
X9903396Y-16951722D02*
X9903396Y-16970770D01*
X9903396Y-16970770D02*
X9808158Y-16989817D01*
X10074825Y-17056484D02*
X10074825Y-16856484D01*
X10074825Y-17046960D02*
X10055777Y-17056484D01*
X10055777Y-17056484D02*
X10017682Y-17056484D01*
X10017682Y-17056484D02*
X9998635Y-17046960D01*
X9998635Y-17046960D02*
X9989111Y-17037436D01*
X9989111Y-17037436D02*
X9979587Y-17018389D01*
X9979587Y-17018389D02*
X9979587Y-16961246D01*
X9979587Y-16961246D02*
X9989111Y-16942198D01*
X9989111Y-16942198D02*
X9998635Y-16932674D01*
X9998635Y-16932674D02*
X10017682Y-16923150D01*
X10017682Y-16923150D02*
X10055777Y-16923150D01*
X10055777Y-16923150D02*
X10074825Y-16932674D01*
X10151016Y-17132674D02*
X10160539Y-17123150D01*
X10160539Y-17123150D02*
X10179587Y-17094579D01*
X10179587Y-17094579D02*
X10189111Y-17075531D01*
X10189111Y-17075531D02*
X10198635Y-17046960D01*
X10198635Y-17046960D02*
X10208158Y-16999341D01*
X10208158Y-16999341D02*
X10208158Y-16961246D01*
X10208158Y-16961246D02*
X10198635Y-16913627D01*
X10198635Y-16913627D02*
X10189111Y-16885055D01*
X10189111Y-16885055D02*
X10179587Y-16866008D01*
X10179587Y-16866008D02*
X10160539Y-16837436D01*
X10160539Y-16837436D02*
X10151016Y-16827912D01*
M02*
