M48
; DRILL file {KiCad 8.0.1-8.0.1-1~ubuntu22.04.1} date 2024-03-23T16:48:19+1100
; FORMAT={-:-/ absolute / metric / decimal}
; #@! TF.CreationDate,2024-03-23T16:48:19+11:00
; #@! TF.GenerationSoftware,Kicad,Pcbnew,8.0.1-8.0.1-1~ubuntu22.04.1
; #@! TF.FileFunction,Plated,1,4,PTH
FMAT,2
METRIC
; #@! TA.AperFunction,Plated,PTH,ViaDrill
T1C0.400
; #@! TA.AperFunction,Plated,PTH,ComponentDrill
T2C0.700
; #@! TA.AperFunction,Plated,PTH,ComponentDrill
T3C0.800
; #@! TA.AperFunction,Plated,PTH,ComponentDrill
T4C0.900
; #@! TA.AperFunction,Plated,PTH,ViaDrill
T5C1.000
; #@! TA.AperFunction,Plated,PTH,ComponentDrill
T6C1.000
; #@! TA.AperFunction,Plated,PTH,ComponentDrill
T7C1.100
; #@! TA.AperFunction,Plated,PTH,ComponentDrill
T8C1.200
; #@! TA.AperFunction,Plated,PTH,ComponentDrill
T9C1.300
; #@! TA.AperFunction,Plated,PTH,ComponentDrill
T10C1.520
%
G90
G05
T1
X50.8Y-158.115
X52.705Y-97.155
X80.645Y-93.98
X115.57Y-86.36
X115.57Y-139.7
X118.11Y-116.84
X125.73Y-99.06
X125.73Y-104.14
X126.365Y-102.87
X130.175Y-121.285
X160.02Y-156.845
X173.99Y-139.7
X173.99Y-142.24
X173.99Y-148.59
T2
X86.36Y-81.28
X86.36Y-83.82
X86.36Y-86.36
X86.36Y-88.9
X86.36Y-91.44
X91.44Y-45.72
X106.685Y-45.72
X149.86Y-39.37
X162.56Y-147.32
X162.56Y-152.4
X190.5Y-132.08
X190.5Y-134.62
T3
X40.64Y-116.84
X40.64Y-121.84
X45.72Y-106.68
X45.72Y-109.18
X45.72Y-114.3
X45.72Y-121.8
X58.42Y-40.64
X65.92Y-40.64
X73.66Y-35.64
X73.66Y-40.64
X86.36Y-66.04
X86.36Y-76.2
X88.9Y-35.56
X88.9Y-66.04
X88.9Y-76.2
X91.4Y-35.56
X91.44Y-50.8
X91.44Y-58.42
X91.44Y-66.04
X91.44Y-76.2
X91.44Y-83.82
X91.44Y-91.44
X93.98Y-35.56
X93.98Y-45.72
X93.98Y-50.8
X93.98Y-58.42
X93.98Y-66.04
X93.98Y-76.2
X93.98Y-83.82
X93.98Y-91.44
X96.52Y-35.56
X96.52Y-45.72
X96.52Y-50.8
X96.52Y-58.42
X96.52Y-66.04
X96.52Y-76.2
X96.52Y-83.82
X96.52Y-91.44
X99.06Y-43.22
X99.06Y-45.72
X99.06Y-50.8
X99.06Y-58.42
X99.06Y-66.04
X99.06Y-76.2
X99.06Y-83.82
X99.06Y-91.44
X101.6Y-35.56
X101.6Y-45.72
X101.6Y-50.8
X101.6Y-58.42
X101.6Y-66.04
X101.6Y-76.2
X101.6Y-83.82
X101.6Y-91.44
X104.14Y-35.56
X104.14Y-45.72
X104.14Y-50.8
X104.14Y-58.42
X104.14Y-66.04
X104.14Y-76.2
X104.14Y-83.82
X104.14Y-91.44
X106.68Y-50.8
X106.68Y-58.42
X106.68Y-66.04
X106.68Y-76.2
X106.68Y-83.82
X106.68Y-91.44
X109.22Y-66.04
X109.22Y-76.2
X110.49Y-88.94
X110.49Y-91.44
X111.76Y-66.04
X111.76Y-76.2
X119.38Y-40.64
X119.38Y-45.64
X119.38Y-71.12
X119.38Y-81.28
X121.92Y-71.12
X121.92Y-81.28
X121.92Y-88.9
X121.92Y-96.4
X124.46Y-40.68
X124.46Y-43.18
X124.46Y-71.12
X124.46Y-81.28
X127.0Y-71.12
X127.0Y-81.28
X127.0Y-88.94
X127.0Y-91.44
X132.715Y-35.56
X132.715Y-43.06
X134.62Y-55.88
X134.62Y-71.12
X134.62Y-86.36
X137.16Y-71.12
X137.16Y-86.36
X137.16Y-93.98
X137.16Y-104.14
X139.7Y-35.56
X139.7Y-45.72
X139.7Y-71.12
X139.7Y-86.36
X139.7Y-93.98
X139.7Y-104.14
X142.24Y-35.56
X142.24Y-45.72
X142.24Y-71.12
X142.24Y-86.36
X142.24Y-93.98
X142.24Y-104.14
X142.24Y-154.94
X144.78Y-55.88
X144.78Y-71.12
X144.78Y-86.36
X147.32Y-48.26
X147.32Y-50.76
X147.32Y-63.5
X147.32Y-71.12
X147.32Y-86.36
X147.32Y-93.98
X147.32Y-104.14
X149.82Y-63.5
X149.86Y-48.3
X149.86Y-50.8
X149.86Y-55.88
X149.86Y-71.12
X149.86Y-86.36
X149.86Y-93.98
X149.86Y-104.14
X149.86Y-134.62
X149.86Y-137.16
X149.86Y-139.7
X149.86Y-142.24
X152.4Y-43.18
X152.4Y-45.72
X152.4Y-48.26
X152.4Y-50.8
X152.4Y-71.12
X152.4Y-86.36
X152.4Y-93.98
X152.4Y-104.14
X152.4Y-154.94
X154.94Y-71.12
X154.94Y-86.36
X154.94Y-93.98
X154.94Y-104.14
X157.44Y-63.5
X157.48Y-71.12
X157.48Y-86.36
X157.48Y-93.98
X157.48Y-104.14
X159.94Y-63.5
X160.02Y-43.18
X160.02Y-45.72
X160.02Y-48.26
X160.02Y-50.8
X160.02Y-55.88
X160.02Y-71.12
X160.02Y-86.36
X160.02Y-134.62
X160.02Y-137.16
X160.02Y-139.7
X160.02Y-142.24
X162.54Y-96.56
X162.54Y-99.06
X162.56Y-63.5
X162.56Y-71.12
X162.56Y-86.36
X165.06Y-63.5
X165.1Y-45.72
X165.1Y-71.12
X165.1Y-86.36
X167.64Y-71.12
X167.64Y-86.36
X167.64Y-134.62
X167.64Y-137.16
X167.64Y-139.7
X167.64Y-142.24
X167.64Y-144.78
X167.64Y-147.32
X167.64Y-149.86
X167.64Y-152.4
X167.64Y-154.94
X167.68Y-96.52
X170.18Y-40.64
X170.18Y-96.52
X170.18Y-119.38
X170.18Y-129.54
X170.18Y-134.62
X170.22Y-63.5
X172.72Y-63.5
X172.72Y-71.12
X172.72Y-86.36
X172.72Y-119.38
X172.72Y-129.54
X172.72Y-134.62
X175.26Y-45.72
X175.26Y-71.12
X175.26Y-86.36
X175.26Y-119.38
X175.26Y-129.54
X175.26Y-134.62
X175.3Y-63.5
X177.8Y-63.5
X177.8Y-71.12
X177.8Y-86.36
X177.8Y-119.38
X177.8Y-129.54
X177.8Y-134.62
X180.34Y-40.64
X180.34Y-71.12
X180.34Y-86.36
X180.34Y-119.38
X180.34Y-129.54
X180.34Y-134.62
X182.88Y-60.96
X182.88Y-71.12
X182.88Y-86.36
X182.88Y-96.52
X182.88Y-119.38
X182.88Y-129.54
X182.88Y-134.62
X182.88Y-137.16
X182.88Y-139.7
X182.88Y-142.24
X182.88Y-144.78
X182.88Y-147.32
X182.88Y-149.86
X182.88Y-152.4
X182.88Y-154.94
X185.38Y-96.52
X185.42Y-71.12
X185.42Y-86.36
X187.96Y-71.12
X187.96Y-86.36
X187.96Y-154.94
X188.0Y-149.86
X190.38Y-60.96
X190.46Y-154.94
X190.5Y-71.12
X190.5Y-86.36
X190.5Y-149.86
T4
X50.8Y-147.32
X50.8Y-149.86
T5
X160.655Y-119.38
X160.655Y-121.92
X160.655Y-124.46
T6
X88.9Y-96.52
X91.44Y-96.52
X93.98Y-96.52
X96.52Y-96.52
X99.06Y-96.52
X101.6Y-96.52
X101.6Y-124.3
X101.64Y-144.62
X104.1Y-124.3
X104.14Y-96.52
X104.14Y-144.62
X106.6Y-124.3
X106.64Y-144.62
X106.68Y-96.52
X124.5Y-124.3
X124.5Y-144.62
X127.0Y-124.3
X127.0Y-144.62
X129.5Y-124.3
X129.5Y-144.62
T7
X40.64Y-106.68
X40.64Y-109.22
X40.64Y-111.76
X50.8Y-129.54
X50.8Y-142.24
X53.34Y-104.14
X53.34Y-124.46
X58.42Y-35.56
X60.96Y-35.56
X63.5Y-35.56
X78.74Y-35.56
X81.28Y-35.56
X83.82Y-35.56
X119.38Y-35.56
X121.92Y-35.56
X124.46Y-35.56
X165.1Y-50.8
X175.26Y-50.8
X180.34Y-50.8
X180.34Y-55.88
X190.5Y-50.8
X190.5Y-55.88
T8
X43.18Y-86.48
X43.18Y-93.98
X45.72Y-48.26
X45.72Y-78.74
X55.88Y-48.26
X55.88Y-78.74
X66.04Y-48.26
X66.04Y-78.74
X68.58Y-86.36
X68.58Y-93.86
X76.2Y-48.26
X76.2Y-78.74
X76.2Y-149.94
X76.2Y-154.94
X76.4Y-129.62
X76.4Y-134.62
X88.7Y-149.94
X88.7Y-154.94
X88.9Y-129.62
X88.9Y-134.62
X160.02Y-35.56
X180.34Y-35.56
T9
X60.96Y-103.62
X60.96Y-108.22
X60.96Y-130.02
X60.96Y-134.62
T10
X40.64Y-129.54
X40.64Y-134.62
X40.64Y-149.86
X40.64Y-154.94
X41.275Y-35.56
X46.355Y-35.56
X187.96Y-35.56
X193.04Y-35.56
T6
X58.96Y-139.7G85X62.96Y-139.7
G05
X58.96Y-147.32G85X62.96Y-147.32
G05
X58.96Y-154.94G85X62.96Y-154.94
G05
M30
