%TF.GenerationSoftware,KiCad,Pcbnew,8.0.1-8.0.1-1~ubuntu22.04.1*%
%TF.CreationDate,2024-03-23T16:48:21+11:00*%
%TF.ProjectId,PIMD601,50494d44-3630-4312-9e6b-696361645f70,6.01*%
%TF.SameCoordinates,Original*%
%TF.FileFunction,Drillmap*%
%TF.FilePolarity,Positive*%
%FSLAX45Y45*%
G04 Gerber Fmt 4.5, Leading zero omitted, Abs format (unit mm)*
G04 Created by KiCad (PCBNEW 8.0.1-8.0.1-1~ubuntu22.04.1) date 2024-03-23 16:48:21*
%MOMM*%
%LPD*%
G01*
G04 APERTURE LIST*
%ADD10C,0.100000*%
%ADD11C,0.200000*%
%ADD12C,0.110000*%
%ADD13C,0.120000*%
%ADD14C,0.130000*%
%ADD15C,0.152000*%
G04 APERTURE END LIST*
D10*
X3400000Y-3000000D02*
X19700000Y-3000000D01*
X19700000Y-16000000D01*
X3400000Y-16000000D01*
X3400000Y-3000000D01*
D11*
D10*
X5060000Y-15791500D02*
X5100000Y-15831500D01*
X5100000Y-15791500D02*
X5060000Y-15831500D01*
X5250500Y-9695500D02*
X5290500Y-9735500D01*
X5290500Y-9695500D02*
X5250500Y-9735500D01*
X8044500Y-9378000D02*
X8084500Y-9418000D01*
X8084500Y-9378000D02*
X8044500Y-9418000D01*
X11537000Y-8616000D02*
X11577000Y-8656000D01*
X11577000Y-8616000D02*
X11537000Y-8656000D01*
X11537000Y-13950000D02*
X11577000Y-13990000D01*
X11577000Y-13950000D02*
X11537000Y-13990000D01*
X11791000Y-11664000D02*
X11831000Y-11704000D01*
X11831000Y-11664000D02*
X11791000Y-11704000D01*
X12553000Y-9886000D02*
X12593000Y-9926000D01*
X12593000Y-9886000D02*
X12553000Y-9926000D01*
X12553000Y-10394000D02*
X12593000Y-10434000D01*
X12593000Y-10394000D02*
X12553000Y-10434000D01*
X12616500Y-10267000D02*
X12656500Y-10307000D01*
X12656500Y-10267000D02*
X12616500Y-10307000D01*
X12997500Y-12108500D02*
X13037500Y-12148500D01*
X13037500Y-12108500D02*
X12997500Y-12148500D01*
X15982000Y-15664500D02*
X16022000Y-15704500D01*
X16022000Y-15664500D02*
X15982000Y-15704500D01*
X17379000Y-13950000D02*
X17419000Y-13990000D01*
X17419000Y-13950000D02*
X17379000Y-13990000D01*
X17379000Y-14204000D02*
X17419000Y-14244000D01*
X17419000Y-14204000D02*
X17379000Y-14244000D01*
X17379000Y-14839000D02*
X17419000Y-14879000D01*
X17419000Y-14839000D02*
X17379000Y-14879000D01*
X8671000Y-8128000D02*
G75*
G02*
X8601000Y-8128000I-35000J0D01*
G01*
X8601000Y-8128000D02*
G75*
G02*
X8671000Y-8128000I35000J0D01*
G01*
X8671000Y-8382000D02*
G75*
G02*
X8601000Y-8382000I-35000J0D01*
G01*
X8601000Y-8382000D02*
G75*
G02*
X8671000Y-8382000I35000J0D01*
G01*
X8671000Y-8636000D02*
G75*
G02*
X8601000Y-8636000I-35000J0D01*
G01*
X8601000Y-8636000D02*
G75*
G02*
X8671000Y-8636000I35000J0D01*
G01*
X8671000Y-8890000D02*
G75*
G02*
X8601000Y-8890000I-35000J0D01*
G01*
X8601000Y-8890000D02*
G75*
G02*
X8671000Y-8890000I35000J0D01*
G01*
X8671000Y-9144000D02*
G75*
G02*
X8601000Y-9144000I-35000J0D01*
G01*
X8601000Y-9144000D02*
G75*
G02*
X8671000Y-9144000I35000J0D01*
G01*
X9179000Y-4572000D02*
G75*
G02*
X9109000Y-4572000I-35000J0D01*
G01*
X9109000Y-4572000D02*
G75*
G02*
X9179000Y-4572000I35000J0D01*
G01*
X10703500Y-4572000D02*
G75*
G02*
X10633500Y-4572000I-35000J0D01*
G01*
X10633500Y-4572000D02*
G75*
G02*
X10703500Y-4572000I35000J0D01*
G01*
X15021000Y-3937000D02*
G75*
G02*
X14951000Y-3937000I-35000J0D01*
G01*
X14951000Y-3937000D02*
G75*
G02*
X15021000Y-3937000I35000J0D01*
G01*
X16291000Y-14732000D02*
G75*
G02*
X16221000Y-14732000I-35000J0D01*
G01*
X16221000Y-14732000D02*
G75*
G02*
X16291000Y-14732000I35000J0D01*
G01*
X16291000Y-15240000D02*
G75*
G02*
X16221000Y-15240000I-35000J0D01*
G01*
X16221000Y-15240000D02*
G75*
G02*
X16291000Y-15240000I35000J0D01*
G01*
X19085000Y-13208000D02*
G75*
G02*
X19015000Y-13208000I-35000J0D01*
G01*
X19015000Y-13208000D02*
G75*
G02*
X19085000Y-13208000I35000J0D01*
G01*
X19085000Y-13462000D02*
G75*
G02*
X19015000Y-13462000I-35000J0D01*
G01*
X19015000Y-13462000D02*
G75*
G02*
X19085000Y-13462000I35000J0D01*
G01*
X4064000Y-11644000D02*
X4064000Y-11724000D01*
X4024000Y-11684000D02*
X4104000Y-11684000D01*
X4064000Y-12144000D02*
X4064000Y-12224000D01*
X4024000Y-12184000D02*
X4104000Y-12184000D01*
X4572000Y-10628000D02*
X4572000Y-10708000D01*
X4532000Y-10668000D02*
X4612000Y-10668000D01*
X4572000Y-10878000D02*
X4572000Y-10958000D01*
X4532000Y-10918000D02*
X4612000Y-10918000D01*
X4572000Y-11390000D02*
X4572000Y-11470000D01*
X4532000Y-11430000D02*
X4612000Y-11430000D01*
X4572000Y-12140000D02*
X4572000Y-12220000D01*
X4532000Y-12180000D02*
X4612000Y-12180000D01*
X5842000Y-4024000D02*
X5842000Y-4104000D01*
X5802000Y-4064000D02*
X5882000Y-4064000D01*
X6592000Y-4024000D02*
X6592000Y-4104000D01*
X6552000Y-4064000D02*
X6632000Y-4064000D01*
X7366000Y-3524000D02*
X7366000Y-3604000D01*
X7326000Y-3564000D02*
X7406000Y-3564000D01*
X7366000Y-4024000D02*
X7366000Y-4104000D01*
X7326000Y-4064000D02*
X7406000Y-4064000D01*
X8636000Y-6564000D02*
X8636000Y-6644000D01*
X8596000Y-6604000D02*
X8676000Y-6604000D01*
X8636000Y-7580000D02*
X8636000Y-7660000D01*
X8596000Y-7620000D02*
X8676000Y-7620000D01*
X8890000Y-3516000D02*
X8890000Y-3596000D01*
X8850000Y-3556000D02*
X8930000Y-3556000D01*
X8890000Y-6564000D02*
X8890000Y-6644000D01*
X8850000Y-6604000D02*
X8930000Y-6604000D01*
X8890000Y-7580000D02*
X8890000Y-7660000D01*
X8850000Y-7620000D02*
X8930000Y-7620000D01*
X9140000Y-3516000D02*
X9140000Y-3596000D01*
X9100000Y-3556000D02*
X9180000Y-3556000D01*
X9144000Y-5040000D02*
X9144000Y-5120000D01*
X9104000Y-5080000D02*
X9184000Y-5080000D01*
X9144000Y-5802000D02*
X9144000Y-5882000D01*
X9104000Y-5842000D02*
X9184000Y-5842000D01*
X9144000Y-6564000D02*
X9144000Y-6644000D01*
X9104000Y-6604000D02*
X9184000Y-6604000D01*
X9144000Y-7580000D02*
X9144000Y-7660000D01*
X9104000Y-7620000D02*
X9184000Y-7620000D01*
X9144000Y-8342000D02*
X9144000Y-8422000D01*
X9104000Y-8382000D02*
X9184000Y-8382000D01*
X9144000Y-9104000D02*
X9144000Y-9184000D01*
X9104000Y-9144000D02*
X9184000Y-9144000D01*
X9398000Y-3516000D02*
X9398000Y-3596000D01*
X9358000Y-3556000D02*
X9438000Y-3556000D01*
X9398000Y-4532000D02*
X9398000Y-4612000D01*
X9358000Y-4572000D02*
X9438000Y-4572000D01*
X9398000Y-5040000D02*
X9398000Y-5120000D01*
X9358000Y-5080000D02*
X9438000Y-5080000D01*
X9398000Y-5802000D02*
X9398000Y-5882000D01*
X9358000Y-5842000D02*
X9438000Y-5842000D01*
X9398000Y-6564000D02*
X9398000Y-6644000D01*
X9358000Y-6604000D02*
X9438000Y-6604000D01*
X9398000Y-7580000D02*
X9398000Y-7660000D01*
X9358000Y-7620000D02*
X9438000Y-7620000D01*
X9398000Y-8342000D02*
X9398000Y-8422000D01*
X9358000Y-8382000D02*
X9438000Y-8382000D01*
X9398000Y-9104000D02*
X9398000Y-9184000D01*
X9358000Y-9144000D02*
X9438000Y-9144000D01*
X9652000Y-3516000D02*
X9652000Y-3596000D01*
X9612000Y-3556000D02*
X9692000Y-3556000D01*
X9652000Y-4532000D02*
X9652000Y-4612000D01*
X9612000Y-4572000D02*
X9692000Y-4572000D01*
X9652000Y-5040000D02*
X9652000Y-5120000D01*
X9612000Y-5080000D02*
X9692000Y-5080000D01*
X9652000Y-5802000D02*
X9652000Y-5882000D01*
X9612000Y-5842000D02*
X9692000Y-5842000D01*
X9652000Y-6564000D02*
X9652000Y-6644000D01*
X9612000Y-6604000D02*
X9692000Y-6604000D01*
X9652000Y-7580000D02*
X9652000Y-7660000D01*
X9612000Y-7620000D02*
X9692000Y-7620000D01*
X9652000Y-8342000D02*
X9652000Y-8422000D01*
X9612000Y-8382000D02*
X9692000Y-8382000D01*
X9652000Y-9104000D02*
X9652000Y-9184000D01*
X9612000Y-9144000D02*
X9692000Y-9144000D01*
X9906000Y-4282000D02*
X9906000Y-4362000D01*
X9866000Y-4322000D02*
X9946000Y-4322000D01*
X9906000Y-4532000D02*
X9906000Y-4612000D01*
X9866000Y-4572000D02*
X9946000Y-4572000D01*
X9906000Y-5040000D02*
X9906000Y-5120000D01*
X9866000Y-5080000D02*
X9946000Y-5080000D01*
X9906000Y-5802000D02*
X9906000Y-5882000D01*
X9866000Y-5842000D02*
X9946000Y-5842000D01*
X9906000Y-6564000D02*
X9906000Y-6644000D01*
X9866000Y-6604000D02*
X9946000Y-6604000D01*
X9906000Y-7580000D02*
X9906000Y-7660000D01*
X9866000Y-7620000D02*
X9946000Y-7620000D01*
X9906000Y-8342000D02*
X9906000Y-8422000D01*
X9866000Y-8382000D02*
X9946000Y-8382000D01*
X9906000Y-9104000D02*
X9906000Y-9184000D01*
X9866000Y-9144000D02*
X9946000Y-9144000D01*
X10160000Y-3516000D02*
X10160000Y-3596000D01*
X10120000Y-3556000D02*
X10200000Y-3556000D01*
X10160000Y-4532000D02*
X10160000Y-4612000D01*
X10120000Y-4572000D02*
X10200000Y-4572000D01*
X10160000Y-5040000D02*
X10160000Y-5120000D01*
X10120000Y-5080000D02*
X10200000Y-5080000D01*
X10160000Y-5802000D02*
X10160000Y-5882000D01*
X10120000Y-5842000D02*
X10200000Y-5842000D01*
X10160000Y-6564000D02*
X10160000Y-6644000D01*
X10120000Y-6604000D02*
X10200000Y-6604000D01*
X10160000Y-7580000D02*
X10160000Y-7660000D01*
X10120000Y-7620000D02*
X10200000Y-7620000D01*
X10160000Y-8342000D02*
X10160000Y-8422000D01*
X10120000Y-8382000D02*
X10200000Y-8382000D01*
X10160000Y-9104000D02*
X10160000Y-9184000D01*
X10120000Y-9144000D02*
X10200000Y-9144000D01*
X10414000Y-3516000D02*
X10414000Y-3596000D01*
X10374000Y-3556000D02*
X10454000Y-3556000D01*
X10414000Y-4532000D02*
X10414000Y-4612000D01*
X10374000Y-4572000D02*
X10454000Y-4572000D01*
X10414000Y-5040000D02*
X10414000Y-5120000D01*
X10374000Y-5080000D02*
X10454000Y-5080000D01*
X10414000Y-5802000D02*
X10414000Y-5882000D01*
X10374000Y-5842000D02*
X10454000Y-5842000D01*
X10414000Y-6564000D02*
X10414000Y-6644000D01*
X10374000Y-6604000D02*
X10454000Y-6604000D01*
X10414000Y-7580000D02*
X10414000Y-7660000D01*
X10374000Y-7620000D02*
X10454000Y-7620000D01*
X10414000Y-8342000D02*
X10414000Y-8422000D01*
X10374000Y-8382000D02*
X10454000Y-8382000D01*
X10414000Y-9104000D02*
X10414000Y-9184000D01*
X10374000Y-9144000D02*
X10454000Y-9144000D01*
X10668000Y-5040000D02*
X10668000Y-5120000D01*
X10628000Y-5080000D02*
X10708000Y-5080000D01*
X10668000Y-5802000D02*
X10668000Y-5882000D01*
X10628000Y-5842000D02*
X10708000Y-5842000D01*
X10668000Y-6564000D02*
X10668000Y-6644000D01*
X10628000Y-6604000D02*
X10708000Y-6604000D01*
X10668000Y-7580000D02*
X10668000Y-7660000D01*
X10628000Y-7620000D02*
X10708000Y-7620000D01*
X10668000Y-8342000D02*
X10668000Y-8422000D01*
X10628000Y-8382000D02*
X10708000Y-8382000D01*
X10668000Y-9104000D02*
X10668000Y-9184000D01*
X10628000Y-9144000D02*
X10708000Y-9144000D01*
X10922000Y-6564000D02*
X10922000Y-6644000D01*
X10882000Y-6604000D02*
X10962000Y-6604000D01*
X10922000Y-7580000D02*
X10922000Y-7660000D01*
X10882000Y-7620000D02*
X10962000Y-7620000D01*
X11049000Y-8854000D02*
X11049000Y-8934000D01*
X11009000Y-8894000D02*
X11089000Y-8894000D01*
X11049000Y-9104000D02*
X11049000Y-9184000D01*
X11009000Y-9144000D02*
X11089000Y-9144000D01*
X11176000Y-6564000D02*
X11176000Y-6644000D01*
X11136000Y-6604000D02*
X11216000Y-6604000D01*
X11176000Y-7580000D02*
X11176000Y-7660000D01*
X11136000Y-7620000D02*
X11216000Y-7620000D01*
X11938000Y-4024000D02*
X11938000Y-4104000D01*
X11898000Y-4064000D02*
X11978000Y-4064000D01*
X11938000Y-4524000D02*
X11938000Y-4604000D01*
X11898000Y-4564000D02*
X11978000Y-4564000D01*
X11938000Y-7072000D02*
X11938000Y-7152000D01*
X11898000Y-7112000D02*
X11978000Y-7112000D01*
X11938000Y-8088000D02*
X11938000Y-8168000D01*
X11898000Y-8128000D02*
X11978000Y-8128000D01*
X12192000Y-7072000D02*
X12192000Y-7152000D01*
X12152000Y-7112000D02*
X12232000Y-7112000D01*
X12192000Y-8088000D02*
X12192000Y-8168000D01*
X12152000Y-8128000D02*
X12232000Y-8128000D01*
X12192000Y-8850000D02*
X12192000Y-8930000D01*
X12152000Y-8890000D02*
X12232000Y-8890000D01*
X12192000Y-9600000D02*
X12192000Y-9680000D01*
X12152000Y-9640000D02*
X12232000Y-9640000D01*
X12446000Y-4028000D02*
X12446000Y-4108000D01*
X12406000Y-4068000D02*
X12486000Y-4068000D01*
X12446000Y-4278000D02*
X12446000Y-4358000D01*
X12406000Y-4318000D02*
X12486000Y-4318000D01*
X12446000Y-7072000D02*
X12446000Y-7152000D01*
X12406000Y-7112000D02*
X12486000Y-7112000D01*
X12446000Y-8088000D02*
X12446000Y-8168000D01*
X12406000Y-8128000D02*
X12486000Y-8128000D01*
X12700000Y-7072000D02*
X12700000Y-7152000D01*
X12660000Y-7112000D02*
X12740000Y-7112000D01*
X12700000Y-8088000D02*
X12700000Y-8168000D01*
X12660000Y-8128000D02*
X12740000Y-8128000D01*
X12700000Y-8854000D02*
X12700000Y-8934000D01*
X12660000Y-8894000D02*
X12740000Y-8894000D01*
X12700000Y-9104000D02*
X12700000Y-9184000D01*
X12660000Y-9144000D02*
X12740000Y-9144000D01*
X13271500Y-3516000D02*
X13271500Y-3596000D01*
X13231500Y-3556000D02*
X13311500Y-3556000D01*
X13271500Y-4266000D02*
X13271500Y-4346000D01*
X13231500Y-4306000D02*
X13311500Y-4306000D01*
X13462000Y-5548000D02*
X13462000Y-5628000D01*
X13422000Y-5588000D02*
X13502000Y-5588000D01*
X13462000Y-7072000D02*
X13462000Y-7152000D01*
X13422000Y-7112000D02*
X13502000Y-7112000D01*
X13462000Y-8596000D02*
X13462000Y-8676000D01*
X13422000Y-8636000D02*
X13502000Y-8636000D01*
X13716000Y-7072000D02*
X13716000Y-7152000D01*
X13676000Y-7112000D02*
X13756000Y-7112000D01*
X13716000Y-8596000D02*
X13716000Y-8676000D01*
X13676000Y-8636000D02*
X13756000Y-8636000D01*
X13716000Y-9358000D02*
X13716000Y-9438000D01*
X13676000Y-9398000D02*
X13756000Y-9398000D01*
X13716000Y-10374000D02*
X13716000Y-10454000D01*
X13676000Y-10414000D02*
X13756000Y-10414000D01*
X13970000Y-3516000D02*
X13970000Y-3596000D01*
X13930000Y-3556000D02*
X14010000Y-3556000D01*
X13970000Y-4532000D02*
X13970000Y-4612000D01*
X13930000Y-4572000D02*
X14010000Y-4572000D01*
X13970000Y-7072000D02*
X13970000Y-7152000D01*
X13930000Y-7112000D02*
X14010000Y-7112000D01*
X13970000Y-8596000D02*
X13970000Y-8676000D01*
X13930000Y-8636000D02*
X14010000Y-8636000D01*
X13970000Y-9358000D02*
X13970000Y-9438000D01*
X13930000Y-9398000D02*
X14010000Y-9398000D01*
X13970000Y-10374000D02*
X13970000Y-10454000D01*
X13930000Y-10414000D02*
X14010000Y-10414000D01*
X14224000Y-3516000D02*
X14224000Y-3596000D01*
X14184000Y-3556000D02*
X14264000Y-3556000D01*
X14224000Y-4532000D02*
X14224000Y-4612000D01*
X14184000Y-4572000D02*
X14264000Y-4572000D01*
X14224000Y-7072000D02*
X14224000Y-7152000D01*
X14184000Y-7112000D02*
X14264000Y-7112000D01*
X14224000Y-8596000D02*
X14224000Y-8676000D01*
X14184000Y-8636000D02*
X14264000Y-8636000D01*
X14224000Y-9358000D02*
X14224000Y-9438000D01*
X14184000Y-9398000D02*
X14264000Y-9398000D01*
X14224000Y-10374000D02*
X14224000Y-10454000D01*
X14184000Y-10414000D02*
X14264000Y-10414000D01*
X14224000Y-15454000D02*
X14224000Y-15534000D01*
X14184000Y-15494000D02*
X14264000Y-15494000D01*
X14478000Y-5548000D02*
X14478000Y-5628000D01*
X14438000Y-5588000D02*
X14518000Y-5588000D01*
X14478000Y-7072000D02*
X14478000Y-7152000D01*
X14438000Y-7112000D02*
X14518000Y-7112000D01*
X14478000Y-8596000D02*
X14478000Y-8676000D01*
X14438000Y-8636000D02*
X14518000Y-8636000D01*
X14732000Y-4786000D02*
X14732000Y-4866000D01*
X14692000Y-4826000D02*
X14772000Y-4826000D01*
X14732000Y-5036000D02*
X14732000Y-5116000D01*
X14692000Y-5076000D02*
X14772000Y-5076000D01*
X14732000Y-6310000D02*
X14732000Y-6390000D01*
X14692000Y-6350000D02*
X14772000Y-6350000D01*
X14732000Y-7072000D02*
X14732000Y-7152000D01*
X14692000Y-7112000D02*
X14772000Y-7112000D01*
X14732000Y-8596000D02*
X14732000Y-8676000D01*
X14692000Y-8636000D02*
X14772000Y-8636000D01*
X14732000Y-9358000D02*
X14732000Y-9438000D01*
X14692000Y-9398000D02*
X14772000Y-9398000D01*
X14732000Y-10374000D02*
X14732000Y-10454000D01*
X14692000Y-10414000D02*
X14772000Y-10414000D01*
X14982000Y-6310000D02*
X14982000Y-6390000D01*
X14942000Y-6350000D02*
X15022000Y-6350000D01*
X14986000Y-4790000D02*
X14986000Y-4870000D01*
X14946000Y-4830000D02*
X15026000Y-4830000D01*
X14986000Y-5040000D02*
X14986000Y-5120000D01*
X14946000Y-5080000D02*
X15026000Y-5080000D01*
X14986000Y-5548000D02*
X14986000Y-5628000D01*
X14946000Y-5588000D02*
X15026000Y-5588000D01*
X14986000Y-7072000D02*
X14986000Y-7152000D01*
X14946000Y-7112000D02*
X15026000Y-7112000D01*
X14986000Y-8596000D02*
X14986000Y-8676000D01*
X14946000Y-8636000D02*
X15026000Y-8636000D01*
X14986000Y-9358000D02*
X14986000Y-9438000D01*
X14946000Y-9398000D02*
X15026000Y-9398000D01*
X14986000Y-10374000D02*
X14986000Y-10454000D01*
X14946000Y-10414000D02*
X15026000Y-10414000D01*
X14986000Y-13422000D02*
X14986000Y-13502000D01*
X14946000Y-13462000D02*
X15026000Y-13462000D01*
X14986000Y-13676000D02*
X14986000Y-13756000D01*
X14946000Y-13716000D02*
X15026000Y-13716000D01*
X14986000Y-13930000D02*
X14986000Y-14010000D01*
X14946000Y-13970000D02*
X15026000Y-13970000D01*
X14986000Y-14184000D02*
X14986000Y-14264000D01*
X14946000Y-14224000D02*
X15026000Y-14224000D01*
X15240000Y-4278000D02*
X15240000Y-4358000D01*
X15200000Y-4318000D02*
X15280000Y-4318000D01*
X15240000Y-4532000D02*
X15240000Y-4612000D01*
X15200000Y-4572000D02*
X15280000Y-4572000D01*
X15240000Y-4786000D02*
X15240000Y-4866000D01*
X15200000Y-4826000D02*
X15280000Y-4826000D01*
X15240000Y-5040000D02*
X15240000Y-5120000D01*
X15200000Y-5080000D02*
X15280000Y-5080000D01*
X15240000Y-7072000D02*
X15240000Y-7152000D01*
X15200000Y-7112000D02*
X15280000Y-7112000D01*
X15240000Y-8596000D02*
X15240000Y-8676000D01*
X15200000Y-8636000D02*
X15280000Y-8636000D01*
X15240000Y-9358000D02*
X15240000Y-9438000D01*
X15200000Y-9398000D02*
X15280000Y-9398000D01*
X15240000Y-10374000D02*
X15240000Y-10454000D01*
X15200000Y-10414000D02*
X15280000Y-10414000D01*
X15240000Y-15454000D02*
X15240000Y-15534000D01*
X15200000Y-15494000D02*
X15280000Y-15494000D01*
X15494000Y-7072000D02*
X15494000Y-7152000D01*
X15454000Y-7112000D02*
X15534000Y-7112000D01*
X15494000Y-8596000D02*
X15494000Y-8676000D01*
X15454000Y-8636000D02*
X15534000Y-8636000D01*
X15494000Y-9358000D02*
X15494000Y-9438000D01*
X15454000Y-9398000D02*
X15534000Y-9398000D01*
X15494000Y-10374000D02*
X15494000Y-10454000D01*
X15454000Y-10414000D02*
X15534000Y-10414000D01*
X15744000Y-6310000D02*
X15744000Y-6390000D01*
X15704000Y-6350000D02*
X15784000Y-6350000D01*
X15748000Y-7072000D02*
X15748000Y-7152000D01*
X15708000Y-7112000D02*
X15788000Y-7112000D01*
X15748000Y-8596000D02*
X15748000Y-8676000D01*
X15708000Y-8636000D02*
X15788000Y-8636000D01*
X15748000Y-9358000D02*
X15748000Y-9438000D01*
X15708000Y-9398000D02*
X15788000Y-9398000D01*
X15748000Y-10374000D02*
X15748000Y-10454000D01*
X15708000Y-10414000D02*
X15788000Y-10414000D01*
X15994000Y-6310000D02*
X15994000Y-6390000D01*
X15954000Y-6350000D02*
X16034000Y-6350000D01*
X16002000Y-4278000D02*
X16002000Y-4358000D01*
X15962000Y-4318000D02*
X16042000Y-4318000D01*
X16002000Y-4532000D02*
X16002000Y-4612000D01*
X15962000Y-4572000D02*
X16042000Y-4572000D01*
X16002000Y-4786000D02*
X16002000Y-4866000D01*
X15962000Y-4826000D02*
X16042000Y-4826000D01*
X16002000Y-5040000D02*
X16002000Y-5120000D01*
X15962000Y-5080000D02*
X16042000Y-5080000D01*
X16002000Y-5548000D02*
X16002000Y-5628000D01*
X15962000Y-5588000D02*
X16042000Y-5588000D01*
X16002000Y-7072000D02*
X16002000Y-7152000D01*
X15962000Y-7112000D02*
X16042000Y-7112000D01*
X16002000Y-8596000D02*
X16002000Y-8676000D01*
X15962000Y-8636000D02*
X16042000Y-8636000D01*
X16002000Y-13422000D02*
X16002000Y-13502000D01*
X15962000Y-13462000D02*
X16042000Y-13462000D01*
X16002000Y-13676000D02*
X16002000Y-13756000D01*
X15962000Y-13716000D02*
X16042000Y-13716000D01*
X16002000Y-13930000D02*
X16002000Y-14010000D01*
X15962000Y-13970000D02*
X16042000Y-13970000D01*
X16002000Y-14184000D02*
X16002000Y-14264000D01*
X15962000Y-14224000D02*
X16042000Y-14224000D01*
X16254000Y-9616000D02*
X16254000Y-9696000D01*
X16214000Y-9656000D02*
X16294000Y-9656000D01*
X16254000Y-9866000D02*
X16254000Y-9946000D01*
X16214000Y-9906000D02*
X16294000Y-9906000D01*
X16256000Y-6310000D02*
X16256000Y-6390000D01*
X16216000Y-6350000D02*
X16296000Y-6350000D01*
X16256000Y-7072000D02*
X16256000Y-7152000D01*
X16216000Y-7112000D02*
X16296000Y-7112000D01*
X16256000Y-8596000D02*
X16256000Y-8676000D01*
X16216000Y-8636000D02*
X16296000Y-8636000D01*
X16506000Y-6310000D02*
X16506000Y-6390000D01*
X16466000Y-6350000D02*
X16546000Y-6350000D01*
X16510000Y-4532000D02*
X16510000Y-4612000D01*
X16470000Y-4572000D02*
X16550000Y-4572000D01*
X16510000Y-7072000D02*
X16510000Y-7152000D01*
X16470000Y-7112000D02*
X16550000Y-7112000D01*
X16510000Y-8596000D02*
X16510000Y-8676000D01*
X16470000Y-8636000D02*
X16550000Y-8636000D01*
X16764000Y-7072000D02*
X16764000Y-7152000D01*
X16724000Y-7112000D02*
X16804000Y-7112000D01*
X16764000Y-8596000D02*
X16764000Y-8676000D01*
X16724000Y-8636000D02*
X16804000Y-8636000D01*
X16764000Y-13422000D02*
X16764000Y-13502000D01*
X16724000Y-13462000D02*
X16804000Y-13462000D01*
X16764000Y-13676000D02*
X16764000Y-13756000D01*
X16724000Y-13716000D02*
X16804000Y-13716000D01*
X16764000Y-13930000D02*
X16764000Y-14010000D01*
X16724000Y-13970000D02*
X16804000Y-13970000D01*
X16764000Y-14184000D02*
X16764000Y-14264000D01*
X16724000Y-14224000D02*
X16804000Y-14224000D01*
X16764000Y-14438000D02*
X16764000Y-14518000D01*
X16724000Y-14478000D02*
X16804000Y-14478000D01*
X16764000Y-14692000D02*
X16764000Y-14772000D01*
X16724000Y-14732000D02*
X16804000Y-14732000D01*
X16764000Y-14946000D02*
X16764000Y-15026000D01*
X16724000Y-14986000D02*
X16804000Y-14986000D01*
X16764000Y-15200000D02*
X16764000Y-15280000D01*
X16724000Y-15240000D02*
X16804000Y-15240000D01*
X16764000Y-15454000D02*
X16764000Y-15534000D01*
X16724000Y-15494000D02*
X16804000Y-15494000D01*
X16768000Y-9612000D02*
X16768000Y-9692000D01*
X16728000Y-9652000D02*
X16808000Y-9652000D01*
X17018000Y-4024000D02*
X17018000Y-4104000D01*
X16978000Y-4064000D02*
X17058000Y-4064000D01*
X17018000Y-9612000D02*
X17018000Y-9692000D01*
X16978000Y-9652000D02*
X17058000Y-9652000D01*
X17018000Y-11898000D02*
X17018000Y-11978000D01*
X16978000Y-11938000D02*
X17058000Y-11938000D01*
X17018000Y-12914000D02*
X17018000Y-12994000D01*
X16978000Y-12954000D02*
X17058000Y-12954000D01*
X17018000Y-13422000D02*
X17018000Y-13502000D01*
X16978000Y-13462000D02*
X17058000Y-13462000D01*
X17022000Y-6310000D02*
X17022000Y-6390000D01*
X16982000Y-6350000D02*
X17062000Y-6350000D01*
X17272000Y-6310000D02*
X17272000Y-6390000D01*
X17232000Y-6350000D02*
X17312000Y-6350000D01*
X17272000Y-7072000D02*
X17272000Y-7152000D01*
X17232000Y-7112000D02*
X17312000Y-7112000D01*
X17272000Y-8596000D02*
X17272000Y-8676000D01*
X17232000Y-8636000D02*
X17312000Y-8636000D01*
X17272000Y-11898000D02*
X17272000Y-11978000D01*
X17232000Y-11938000D02*
X17312000Y-11938000D01*
X17272000Y-12914000D02*
X17272000Y-12994000D01*
X17232000Y-12954000D02*
X17312000Y-12954000D01*
X17272000Y-13422000D02*
X17272000Y-13502000D01*
X17232000Y-13462000D02*
X17312000Y-13462000D01*
X17526000Y-4532000D02*
X17526000Y-4612000D01*
X17486000Y-4572000D02*
X17566000Y-4572000D01*
X17526000Y-7072000D02*
X17526000Y-7152000D01*
X17486000Y-7112000D02*
X17566000Y-7112000D01*
X17526000Y-8596000D02*
X17526000Y-8676000D01*
X17486000Y-8636000D02*
X17566000Y-8636000D01*
X17526000Y-11898000D02*
X17526000Y-11978000D01*
X17486000Y-11938000D02*
X17566000Y-11938000D01*
X17526000Y-12914000D02*
X17526000Y-12994000D01*
X17486000Y-12954000D02*
X17566000Y-12954000D01*
X17526000Y-13422000D02*
X17526000Y-13502000D01*
X17486000Y-13462000D02*
X17566000Y-13462000D01*
X17530000Y-6310000D02*
X17530000Y-6390000D01*
X17490000Y-6350000D02*
X17570000Y-6350000D01*
X17780000Y-6310000D02*
X17780000Y-6390000D01*
X17740000Y-6350000D02*
X17820000Y-6350000D01*
X17780000Y-7072000D02*
X17780000Y-7152000D01*
X17740000Y-7112000D02*
X17820000Y-7112000D01*
X17780000Y-8596000D02*
X17780000Y-8676000D01*
X17740000Y-8636000D02*
X17820000Y-8636000D01*
X17780000Y-11898000D02*
X17780000Y-11978000D01*
X17740000Y-11938000D02*
X17820000Y-11938000D01*
X17780000Y-12914000D02*
X17780000Y-12994000D01*
X17740000Y-12954000D02*
X17820000Y-12954000D01*
X17780000Y-13422000D02*
X17780000Y-13502000D01*
X17740000Y-13462000D02*
X17820000Y-13462000D01*
X18034000Y-4024000D02*
X18034000Y-4104000D01*
X17994000Y-4064000D02*
X18074000Y-4064000D01*
X18034000Y-7072000D02*
X18034000Y-7152000D01*
X17994000Y-7112000D02*
X18074000Y-7112000D01*
X18034000Y-8596000D02*
X18034000Y-8676000D01*
X17994000Y-8636000D02*
X18074000Y-8636000D01*
X18034000Y-11898000D02*
X18034000Y-11978000D01*
X17994000Y-11938000D02*
X18074000Y-11938000D01*
X18034000Y-12914000D02*
X18034000Y-12994000D01*
X17994000Y-12954000D02*
X18074000Y-12954000D01*
X18034000Y-13422000D02*
X18034000Y-13502000D01*
X17994000Y-13462000D02*
X18074000Y-13462000D01*
X18288000Y-6056000D02*
X18288000Y-6136000D01*
X18248000Y-6096000D02*
X18328000Y-6096000D01*
X18288000Y-7072000D02*
X18288000Y-7152000D01*
X18248000Y-7112000D02*
X18328000Y-7112000D01*
X18288000Y-8596000D02*
X18288000Y-8676000D01*
X18248000Y-8636000D02*
X18328000Y-8636000D01*
X18288000Y-9612000D02*
X18288000Y-9692000D01*
X18248000Y-9652000D02*
X18328000Y-9652000D01*
X18288000Y-11898000D02*
X18288000Y-11978000D01*
X18248000Y-11938000D02*
X18328000Y-11938000D01*
X18288000Y-12914000D02*
X18288000Y-12994000D01*
X18248000Y-12954000D02*
X18328000Y-12954000D01*
X18288000Y-13422000D02*
X18288000Y-13502000D01*
X18248000Y-13462000D02*
X18328000Y-13462000D01*
X18288000Y-13676000D02*
X18288000Y-13756000D01*
X18248000Y-13716000D02*
X18328000Y-13716000D01*
X18288000Y-13930000D02*
X18288000Y-14010000D01*
X18248000Y-13970000D02*
X18328000Y-13970000D01*
X18288000Y-14184000D02*
X18288000Y-14264000D01*
X18248000Y-14224000D02*
X18328000Y-14224000D01*
X18288000Y-14438000D02*
X18288000Y-14518000D01*
X18248000Y-14478000D02*
X18328000Y-14478000D01*
X18288000Y-14692000D02*
X18288000Y-14772000D01*
X18248000Y-14732000D02*
X18328000Y-14732000D01*
X18288000Y-14946000D02*
X18288000Y-15026000D01*
X18248000Y-14986000D02*
X18328000Y-14986000D01*
X18288000Y-15200000D02*
X18288000Y-15280000D01*
X18248000Y-15240000D02*
X18328000Y-15240000D01*
X18288000Y-15454000D02*
X18288000Y-15534000D01*
X18248000Y-15494000D02*
X18328000Y-15494000D01*
X18538000Y-9612000D02*
X18538000Y-9692000D01*
X18498000Y-9652000D02*
X18578000Y-9652000D01*
X18542000Y-7072000D02*
X18542000Y-7152000D01*
X18502000Y-7112000D02*
X18582000Y-7112000D01*
X18542000Y-8596000D02*
X18542000Y-8676000D01*
X18502000Y-8636000D02*
X18582000Y-8636000D01*
X18796000Y-7072000D02*
X18796000Y-7152000D01*
X18756000Y-7112000D02*
X18836000Y-7112000D01*
X18796000Y-8596000D02*
X18796000Y-8676000D01*
X18756000Y-8636000D02*
X18836000Y-8636000D01*
X18796000Y-15454000D02*
X18796000Y-15534000D01*
X18756000Y-15494000D02*
X18836000Y-15494000D01*
X18800000Y-14946000D02*
X18800000Y-15026000D01*
X18760000Y-14986000D02*
X18840000Y-14986000D01*
X19038000Y-6056000D02*
X19038000Y-6136000D01*
X18998000Y-6096000D02*
X19078000Y-6096000D01*
X19046000Y-15454000D02*
X19046000Y-15534000D01*
X19006000Y-15494000D02*
X19086000Y-15494000D01*
X19050000Y-7072000D02*
X19050000Y-7152000D01*
X19010000Y-7112000D02*
X19090000Y-7112000D01*
X19050000Y-8596000D02*
X19050000Y-8676000D01*
X19010000Y-8636000D02*
X19090000Y-8636000D01*
X19050000Y-14946000D02*
X19050000Y-15026000D01*
X19010000Y-14986000D02*
X19090000Y-14986000D01*
X5111820Y-14763820D02*
X5111820Y-14700180D01*
X5048180Y-14700180D01*
X5048180Y-14763820D01*
X5111820Y-14763820D01*
X5111820Y-15017820D02*
X5111820Y-14954180D01*
X5048180Y-14954180D01*
X5048180Y-15017820D01*
X5111820Y-15017820D01*
X16065500Y-11988000D02*
X16115500Y-11938000D01*
X16065500Y-11888000D01*
X16015500Y-11938000D01*
X16065500Y-11988000D01*
X16065500Y-12242000D02*
X16115500Y-12192000D01*
X16065500Y-12142000D01*
X16015500Y-12192000D01*
X16065500Y-12242000D01*
X16065500Y-12496000D02*
X16115500Y-12446000D01*
X16065500Y-12396000D01*
X16015500Y-12446000D01*
X16065500Y-12496000D01*
X6046000Y-13920000D02*
X6146000Y-14020000D01*
X6146000Y-13920000D02*
X6046000Y-14020000D01*
X6146000Y-13970000D02*
G75*
G02*
X6046000Y-13970000I-50000J0D01*
G01*
X6046000Y-13970000D02*
G75*
G02*
X6146000Y-13970000I50000J0D01*
G01*
X5896000Y-14020000D02*
X6296000Y-14020000D01*
X6296000Y-13920000D02*
G75*
G02*
X6296000Y-14020000I0J-50000D01*
G01*
X6296000Y-13920000D02*
X5896000Y-13920000D01*
X5896000Y-13920000D02*
G75*
G03*
X5896000Y-14020000I0J-50000D01*
G01*
X6046000Y-14682000D02*
X6146000Y-14782000D01*
X6146000Y-14682000D02*
X6046000Y-14782000D01*
X6146000Y-14732000D02*
G75*
G02*
X6046000Y-14732000I-50000J0D01*
G01*
X6046000Y-14732000D02*
G75*
G02*
X6146000Y-14732000I50000J0D01*
G01*
X5896000Y-14782000D02*
X6296000Y-14782000D01*
X6296000Y-14682000D02*
G75*
G02*
X6296000Y-14782000I0J-50000D01*
G01*
X6296000Y-14682000D02*
X5896000Y-14682000D01*
X5896000Y-14682000D02*
G75*
G03*
X5896000Y-14782000I0J-50000D01*
G01*
X6046000Y-15444000D02*
X6146000Y-15544000D01*
X6146000Y-15444000D02*
X6046000Y-15544000D01*
X6146000Y-15494000D02*
G75*
G02*
X6046000Y-15494000I-50000J0D01*
G01*
X6046000Y-15494000D02*
G75*
G02*
X6146000Y-15494000I50000J0D01*
G01*
X5896000Y-15544000D02*
X6296000Y-15544000D01*
X6296000Y-15444000D02*
G75*
G02*
X6296000Y-15544000I0J-50000D01*
G01*
X6296000Y-15444000D02*
X5896000Y-15444000D01*
X5896000Y-15444000D02*
G75*
G03*
X5896000Y-15544000I0J-50000D01*
G01*
X8840000Y-9602000D02*
X8940000Y-9702000D01*
X8940000Y-9602000D02*
X8840000Y-9702000D01*
X8940000Y-9652000D02*
G75*
G02*
X8840000Y-9652000I-50000J0D01*
G01*
X8840000Y-9652000D02*
G75*
G02*
X8940000Y-9652000I50000J0D01*
G01*
X9094000Y-9602000D02*
X9194000Y-9702000D01*
X9194000Y-9602000D02*
X9094000Y-9702000D01*
X9194000Y-9652000D02*
G75*
G02*
X9094000Y-9652000I-50000J0D01*
G01*
X9094000Y-9652000D02*
G75*
G02*
X9194000Y-9652000I50000J0D01*
G01*
X9348000Y-9602000D02*
X9448000Y-9702000D01*
X9448000Y-9602000D02*
X9348000Y-9702000D01*
X9448000Y-9652000D02*
G75*
G02*
X9348000Y-9652000I-50000J0D01*
G01*
X9348000Y-9652000D02*
G75*
G02*
X9448000Y-9652000I50000J0D01*
G01*
X9602000Y-9602000D02*
X9702000Y-9702000D01*
X9702000Y-9602000D02*
X9602000Y-9702000D01*
X9702000Y-9652000D02*
G75*
G02*
X9602000Y-9652000I-50000J0D01*
G01*
X9602000Y-9652000D02*
G75*
G02*
X9702000Y-9652000I50000J0D01*
G01*
X9856000Y-9602000D02*
X9956000Y-9702000D01*
X9956000Y-9602000D02*
X9856000Y-9702000D01*
X9956000Y-9652000D02*
G75*
G02*
X9856000Y-9652000I-50000J0D01*
G01*
X9856000Y-9652000D02*
G75*
G02*
X9956000Y-9652000I50000J0D01*
G01*
X10110000Y-9602000D02*
X10210000Y-9702000D01*
X10210000Y-9602000D02*
X10110000Y-9702000D01*
X10210000Y-9652000D02*
G75*
G02*
X10110000Y-9652000I-50000J0D01*
G01*
X10110000Y-9652000D02*
G75*
G02*
X10210000Y-9652000I50000J0D01*
G01*
X10110000Y-12380000D02*
X10210000Y-12480000D01*
X10210000Y-12380000D02*
X10110000Y-12480000D01*
X10210000Y-12430000D02*
G75*
G02*
X10110000Y-12430000I-50000J0D01*
G01*
X10110000Y-12430000D02*
G75*
G02*
X10210000Y-12430000I50000J0D01*
G01*
X10114000Y-14412000D02*
X10214000Y-14512000D01*
X10214000Y-14412000D02*
X10114000Y-14512000D01*
X10214000Y-14462000D02*
G75*
G02*
X10114000Y-14462000I-50000J0D01*
G01*
X10114000Y-14462000D02*
G75*
G02*
X10214000Y-14462000I50000J0D01*
G01*
X10360000Y-12380000D02*
X10460000Y-12480000D01*
X10460000Y-12380000D02*
X10360000Y-12480000D01*
X10460000Y-12430000D02*
G75*
G02*
X10360000Y-12430000I-50000J0D01*
G01*
X10360000Y-12430000D02*
G75*
G02*
X10460000Y-12430000I50000J0D01*
G01*
X10364000Y-9602000D02*
X10464000Y-9702000D01*
X10464000Y-9602000D02*
X10364000Y-9702000D01*
X10464000Y-9652000D02*
G75*
G02*
X10364000Y-9652000I-50000J0D01*
G01*
X10364000Y-9652000D02*
G75*
G02*
X10464000Y-9652000I50000J0D01*
G01*
X10364000Y-14412000D02*
X10464000Y-14512000D01*
X10464000Y-14412000D02*
X10364000Y-14512000D01*
X10464000Y-14462000D02*
G75*
G02*
X10364000Y-14462000I-50000J0D01*
G01*
X10364000Y-14462000D02*
G75*
G02*
X10464000Y-14462000I50000J0D01*
G01*
X10610000Y-12380000D02*
X10710000Y-12480000D01*
X10710000Y-12380000D02*
X10610000Y-12480000D01*
X10710000Y-12430000D02*
G75*
G02*
X10610000Y-12430000I-50000J0D01*
G01*
X10610000Y-12430000D02*
G75*
G02*
X10710000Y-12430000I50000J0D01*
G01*
X10614000Y-14412000D02*
X10714000Y-14512000D01*
X10714000Y-14412000D02*
X10614000Y-14512000D01*
X10714000Y-14462000D02*
G75*
G02*
X10614000Y-14462000I-50000J0D01*
G01*
X10614000Y-14462000D02*
G75*
G02*
X10714000Y-14462000I50000J0D01*
G01*
X10618000Y-9602000D02*
X10718000Y-9702000D01*
X10718000Y-9602000D02*
X10618000Y-9702000D01*
X10718000Y-9652000D02*
G75*
G02*
X10618000Y-9652000I-50000J0D01*
G01*
X10618000Y-9652000D02*
G75*
G02*
X10718000Y-9652000I50000J0D01*
G01*
X12400000Y-12380000D02*
X12500000Y-12480000D01*
X12500000Y-12380000D02*
X12400000Y-12480000D01*
X12500000Y-12430000D02*
G75*
G02*
X12400000Y-12430000I-50000J0D01*
G01*
X12400000Y-12430000D02*
G75*
G02*
X12500000Y-12430000I50000J0D01*
G01*
X12400000Y-14412000D02*
X12500000Y-14512000D01*
X12500000Y-14412000D02*
X12400000Y-14512000D01*
X12500000Y-14462000D02*
G75*
G02*
X12400000Y-14462000I-50000J0D01*
G01*
X12400000Y-14462000D02*
G75*
G02*
X12500000Y-14462000I50000J0D01*
G01*
X12650000Y-12380000D02*
X12750000Y-12480000D01*
X12750000Y-12380000D02*
X12650000Y-12480000D01*
X12750000Y-12430000D02*
G75*
G02*
X12650000Y-12430000I-50000J0D01*
G01*
X12650000Y-12430000D02*
G75*
G02*
X12750000Y-12430000I50000J0D01*
G01*
X12650000Y-14412000D02*
X12750000Y-14512000D01*
X12750000Y-14412000D02*
X12650000Y-14512000D01*
X12750000Y-14462000D02*
G75*
G02*
X12650000Y-14462000I-50000J0D01*
G01*
X12650000Y-14462000D02*
G75*
G02*
X12750000Y-14462000I50000J0D01*
G01*
X12900000Y-12380000D02*
X13000000Y-12480000D01*
X13000000Y-12380000D02*
X12900000Y-12480000D01*
X13000000Y-12430000D02*
G75*
G02*
X12900000Y-12430000I-50000J0D01*
G01*
X12900000Y-12430000D02*
G75*
G02*
X13000000Y-12430000I50000J0D01*
G01*
X12900000Y-14412000D02*
X13000000Y-14512000D01*
X13000000Y-14412000D02*
X12900000Y-14512000D01*
X13000000Y-14462000D02*
G75*
G02*
X12900000Y-14462000I-50000J0D01*
G01*
X12900000Y-14462000D02*
G75*
G02*
X13000000Y-14462000I50000J0D01*
G01*
D12*
X4009000Y-10613000D02*
X4119000Y-10723000D01*
X4119000Y-10613000D02*
X4009000Y-10723000D01*
X4064000Y-10613000D02*
X4064000Y-10723000D01*
X4009000Y-10668000D02*
X4119000Y-10668000D01*
X4009000Y-10867000D02*
X4119000Y-10977000D01*
X4119000Y-10867000D02*
X4009000Y-10977000D01*
X4064000Y-10867000D02*
X4064000Y-10977000D01*
X4009000Y-10922000D02*
X4119000Y-10922000D01*
X4009000Y-11121000D02*
X4119000Y-11231000D01*
X4119000Y-11121000D02*
X4009000Y-11231000D01*
X4064000Y-11121000D02*
X4064000Y-11231000D01*
X4009000Y-11176000D02*
X4119000Y-11176000D01*
X5025000Y-12899000D02*
X5135000Y-13009000D01*
X5135000Y-12899000D02*
X5025000Y-13009000D01*
X5080000Y-12899000D02*
X5080000Y-13009000D01*
X5025000Y-12954000D02*
X5135000Y-12954000D01*
X5025000Y-14169000D02*
X5135000Y-14279000D01*
X5135000Y-14169000D02*
X5025000Y-14279000D01*
X5080000Y-14169000D02*
X5080000Y-14279000D01*
X5025000Y-14224000D02*
X5135000Y-14224000D01*
X5279000Y-10359000D02*
X5389000Y-10469000D01*
X5389000Y-10359000D02*
X5279000Y-10469000D01*
X5334000Y-10359000D02*
X5334000Y-10469000D01*
X5279000Y-10414000D02*
X5389000Y-10414000D01*
X5279000Y-12391000D02*
X5389000Y-12501000D01*
X5389000Y-12391000D02*
X5279000Y-12501000D01*
X5334000Y-12391000D02*
X5334000Y-12501000D01*
X5279000Y-12446000D02*
X5389000Y-12446000D01*
X5787000Y-3501000D02*
X5897000Y-3611000D01*
X5897000Y-3501000D02*
X5787000Y-3611000D01*
X5842000Y-3501000D02*
X5842000Y-3611000D01*
X5787000Y-3556000D02*
X5897000Y-3556000D01*
X6041000Y-3501000D02*
X6151000Y-3611000D01*
X6151000Y-3501000D02*
X6041000Y-3611000D01*
X6096000Y-3501000D02*
X6096000Y-3611000D01*
X6041000Y-3556000D02*
X6151000Y-3556000D01*
X6295000Y-3501000D02*
X6405000Y-3611000D01*
X6405000Y-3501000D02*
X6295000Y-3611000D01*
X6350000Y-3501000D02*
X6350000Y-3611000D01*
X6295000Y-3556000D02*
X6405000Y-3556000D01*
X7819000Y-3501000D02*
X7929000Y-3611000D01*
X7929000Y-3501000D02*
X7819000Y-3611000D01*
X7874000Y-3501000D02*
X7874000Y-3611000D01*
X7819000Y-3556000D02*
X7929000Y-3556000D01*
X8073000Y-3501000D02*
X8183000Y-3611000D01*
X8183000Y-3501000D02*
X8073000Y-3611000D01*
X8128000Y-3501000D02*
X8128000Y-3611000D01*
X8073000Y-3556000D02*
X8183000Y-3556000D01*
X8327000Y-3501000D02*
X8437000Y-3611000D01*
X8437000Y-3501000D02*
X8327000Y-3611000D01*
X8382000Y-3501000D02*
X8382000Y-3611000D01*
X8327000Y-3556000D02*
X8437000Y-3556000D01*
X11883000Y-3501000D02*
X11993000Y-3611000D01*
X11993000Y-3501000D02*
X11883000Y-3611000D01*
X11938000Y-3501000D02*
X11938000Y-3611000D01*
X11883000Y-3556000D02*
X11993000Y-3556000D01*
X12137000Y-3501000D02*
X12247000Y-3611000D01*
X12247000Y-3501000D02*
X12137000Y-3611000D01*
X12192000Y-3501000D02*
X12192000Y-3611000D01*
X12137000Y-3556000D02*
X12247000Y-3556000D01*
X12391000Y-3501000D02*
X12501000Y-3611000D01*
X12501000Y-3501000D02*
X12391000Y-3611000D01*
X12446000Y-3501000D02*
X12446000Y-3611000D01*
X12391000Y-3556000D02*
X12501000Y-3556000D01*
X16455000Y-5025000D02*
X16565000Y-5135000D01*
X16565000Y-5025000D02*
X16455000Y-5135000D01*
X16510000Y-5025000D02*
X16510000Y-5135000D01*
X16455000Y-5080000D02*
X16565000Y-5080000D01*
X17471000Y-5025000D02*
X17581000Y-5135000D01*
X17581000Y-5025000D02*
X17471000Y-5135000D01*
X17526000Y-5025000D02*
X17526000Y-5135000D01*
X17471000Y-5080000D02*
X17581000Y-5080000D01*
X17979000Y-5025000D02*
X18089000Y-5135000D01*
X18089000Y-5025000D02*
X17979000Y-5135000D01*
X18034000Y-5025000D02*
X18034000Y-5135000D01*
X17979000Y-5080000D02*
X18089000Y-5080000D01*
X17979000Y-5533000D02*
X18089000Y-5643000D01*
X18089000Y-5533000D02*
X17979000Y-5643000D01*
X18034000Y-5533000D02*
X18034000Y-5643000D01*
X17979000Y-5588000D02*
X18089000Y-5588000D01*
X18995000Y-5025000D02*
X19105000Y-5135000D01*
X19105000Y-5025000D02*
X18995000Y-5135000D01*
X19050000Y-5025000D02*
X19050000Y-5135000D01*
X18995000Y-5080000D02*
X19105000Y-5080000D01*
X18995000Y-5533000D02*
X19105000Y-5643000D01*
X19105000Y-5533000D02*
X18995000Y-5643000D01*
X19050000Y-5533000D02*
X19050000Y-5643000D01*
X18995000Y-5588000D02*
X19105000Y-5588000D01*
D13*
X4258000Y-8588000D02*
X4378000Y-8708000D01*
X4378000Y-8588000D02*
X4258000Y-8708000D01*
X4360427Y-8690427D02*
X4360427Y-8605573D01*
X4275573Y-8605573D01*
X4275573Y-8690427D01*
X4360427Y-8690427D01*
X4258000Y-9338000D02*
X4378000Y-9458000D01*
X4378000Y-9338000D02*
X4258000Y-9458000D01*
X4360427Y-9440427D02*
X4360427Y-9355573D01*
X4275573Y-9355573D01*
X4275573Y-9440427D01*
X4360427Y-9440427D01*
X4512000Y-4766000D02*
X4632000Y-4886000D01*
X4632000Y-4766000D02*
X4512000Y-4886000D01*
X4614427Y-4868427D02*
X4614427Y-4783573D01*
X4529573Y-4783573D01*
X4529573Y-4868427D01*
X4614427Y-4868427D01*
X4512000Y-7814000D02*
X4632000Y-7934000D01*
X4632000Y-7814000D02*
X4512000Y-7934000D01*
X4614427Y-7916427D02*
X4614427Y-7831573D01*
X4529573Y-7831573D01*
X4529573Y-7916427D01*
X4614427Y-7916427D01*
X5528000Y-4766000D02*
X5648000Y-4886000D01*
X5648000Y-4766000D02*
X5528000Y-4886000D01*
X5630427Y-4868427D02*
X5630427Y-4783573D01*
X5545573Y-4783573D01*
X5545573Y-4868427D01*
X5630427Y-4868427D01*
X5528000Y-7814000D02*
X5648000Y-7934000D01*
X5648000Y-7814000D02*
X5528000Y-7934000D01*
X5630427Y-7916427D02*
X5630427Y-7831573D01*
X5545573Y-7831573D01*
X5545573Y-7916427D01*
X5630427Y-7916427D01*
X6544000Y-4766000D02*
X6664000Y-4886000D01*
X6664000Y-4766000D02*
X6544000Y-4886000D01*
X6646427Y-4868427D02*
X6646427Y-4783573D01*
X6561573Y-4783573D01*
X6561573Y-4868427D01*
X6646427Y-4868427D01*
X6544000Y-7814000D02*
X6664000Y-7934000D01*
X6664000Y-7814000D02*
X6544000Y-7934000D01*
X6646427Y-7916427D02*
X6646427Y-7831573D01*
X6561573Y-7831573D01*
X6561573Y-7916427D01*
X6646427Y-7916427D01*
X6798000Y-8576000D02*
X6918000Y-8696000D01*
X6918000Y-8576000D02*
X6798000Y-8696000D01*
X6900427Y-8678427D02*
X6900427Y-8593573D01*
X6815573Y-8593573D01*
X6815573Y-8678427D01*
X6900427Y-8678427D01*
X6798000Y-9326000D02*
X6918000Y-9446000D01*
X6918000Y-9326000D02*
X6798000Y-9446000D01*
X6900427Y-9428427D02*
X6900427Y-9343573D01*
X6815573Y-9343573D01*
X6815573Y-9428427D01*
X6900427Y-9428427D01*
X7560000Y-4766000D02*
X7680000Y-4886000D01*
X7680000Y-4766000D02*
X7560000Y-4886000D01*
X7662427Y-4868427D02*
X7662427Y-4783573D01*
X7577573Y-4783573D01*
X7577573Y-4868427D01*
X7662427Y-4868427D01*
X7560000Y-7814000D02*
X7680000Y-7934000D01*
X7680000Y-7814000D02*
X7560000Y-7934000D01*
X7662427Y-7916427D02*
X7662427Y-7831573D01*
X7577573Y-7831573D01*
X7577573Y-7916427D01*
X7662427Y-7916427D01*
X7560000Y-14934000D02*
X7680000Y-15054000D01*
X7680000Y-14934000D02*
X7560000Y-15054000D01*
X7662427Y-15036427D02*
X7662427Y-14951573D01*
X7577573Y-14951573D01*
X7577573Y-15036427D01*
X7662427Y-15036427D01*
X7560000Y-15434000D02*
X7680000Y-15554000D01*
X7680000Y-15434000D02*
X7560000Y-15554000D01*
X7662427Y-15536427D02*
X7662427Y-15451573D01*
X7577573Y-15451573D01*
X7577573Y-15536427D01*
X7662427Y-15536427D01*
X7580000Y-12902000D02*
X7700000Y-13022000D01*
X7700000Y-12902000D02*
X7580000Y-13022000D01*
X7682427Y-13004427D02*
X7682427Y-12919573D01*
X7597573Y-12919573D01*
X7597573Y-13004427D01*
X7682427Y-13004427D01*
X7580000Y-13402000D02*
X7700000Y-13522000D01*
X7700000Y-13402000D02*
X7580000Y-13522000D01*
X7682427Y-13504427D02*
X7682427Y-13419573D01*
X7597573Y-13419573D01*
X7597573Y-13504427D01*
X7682427Y-13504427D01*
X8810000Y-14934000D02*
X8930000Y-15054000D01*
X8930000Y-14934000D02*
X8810000Y-15054000D01*
X8912427Y-15036427D02*
X8912427Y-14951573D01*
X8827573Y-14951573D01*
X8827573Y-15036427D01*
X8912427Y-15036427D01*
X8810000Y-15434000D02*
X8930000Y-15554000D01*
X8930000Y-15434000D02*
X8810000Y-15554000D01*
X8912427Y-15536427D02*
X8912427Y-15451573D01*
X8827573Y-15451573D01*
X8827573Y-15536427D01*
X8912427Y-15536427D01*
X8830000Y-12902000D02*
X8950000Y-13022000D01*
X8950000Y-12902000D02*
X8830000Y-13022000D01*
X8932427Y-13004427D02*
X8932427Y-12919573D01*
X8847573Y-12919573D01*
X8847573Y-13004427D01*
X8932427Y-13004427D01*
X8830000Y-13402000D02*
X8950000Y-13522000D01*
X8950000Y-13402000D02*
X8830000Y-13522000D01*
X8932427Y-13504427D02*
X8932427Y-13419573D01*
X8847573Y-13419573D01*
X8847573Y-13504427D01*
X8932427Y-13504427D01*
X15942000Y-3496000D02*
X16062000Y-3616000D01*
X16062000Y-3496000D02*
X15942000Y-3616000D01*
X16044427Y-3598427D02*
X16044427Y-3513573D01*
X15959573Y-3513573D01*
X15959573Y-3598427D01*
X16044427Y-3598427D01*
X17974000Y-3496000D02*
X18094000Y-3616000D01*
X18094000Y-3496000D02*
X17974000Y-3616000D01*
X18076427Y-3598427D02*
X18076427Y-3513573D01*
X17991573Y-3513573D01*
X17991573Y-3598427D01*
X18076427Y-3598427D01*
D14*
X6031000Y-10297000D02*
X6161000Y-10427000D01*
X6161000Y-10297000D02*
X6031000Y-10427000D01*
X6096000Y-10427000D02*
X6161000Y-10362000D01*
X6096000Y-10297000D01*
X6031000Y-10362000D01*
X6096000Y-10427000D01*
X6031000Y-10757000D02*
X6161000Y-10887000D01*
X6161000Y-10757000D02*
X6031000Y-10887000D01*
X6096000Y-10887000D02*
X6161000Y-10822000D01*
X6096000Y-10757000D01*
X6031000Y-10822000D01*
X6096000Y-10887000D01*
X6031000Y-12937000D02*
X6161000Y-13067000D01*
X6161000Y-12937000D02*
X6031000Y-13067000D01*
X6096000Y-13067000D02*
X6161000Y-13002000D01*
X6096000Y-12937000D01*
X6031000Y-13002000D01*
X6096000Y-13067000D01*
X6031000Y-13397000D02*
X6161000Y-13527000D01*
X6161000Y-13397000D02*
X6031000Y-13527000D01*
X6096000Y-13527000D02*
X6161000Y-13462000D01*
X6096000Y-13397000D01*
X6031000Y-13462000D01*
X6096000Y-13527000D01*
D15*
X4064000Y-12878000D02*
X4064000Y-13030000D01*
X3988000Y-12954000D02*
X4140000Y-12954000D01*
X4140000Y-12954000D02*
G75*
G02*
X3988000Y-12954000I-76000J0D01*
G01*
X3988000Y-12954000D02*
G75*
G02*
X4140000Y-12954000I76000J0D01*
G01*
X4064000Y-13386000D02*
X4064000Y-13538000D01*
X3988000Y-13462000D02*
X4140000Y-13462000D01*
X4140000Y-13462000D02*
G75*
G02*
X3988000Y-13462000I-76000J0D01*
G01*
X3988000Y-13462000D02*
G75*
G02*
X4140000Y-13462000I76000J0D01*
G01*
X4064000Y-14910000D02*
X4064000Y-15062000D01*
X3988000Y-14986000D02*
X4140000Y-14986000D01*
X4140000Y-14986000D02*
G75*
G02*
X3988000Y-14986000I-76000J0D01*
G01*
X3988000Y-14986000D02*
G75*
G02*
X4140000Y-14986000I76000J0D01*
G01*
X4064000Y-15418000D02*
X4064000Y-15570000D01*
X3988000Y-15494000D02*
X4140000Y-15494000D01*
X4140000Y-15494000D02*
G75*
G02*
X3988000Y-15494000I-76000J0D01*
G01*
X3988000Y-15494000D02*
G75*
G02*
X4140000Y-15494000I76000J0D01*
G01*
X4127500Y-3480000D02*
X4127500Y-3632000D01*
X4051500Y-3556000D02*
X4203500Y-3556000D01*
X4203500Y-3556000D02*
G75*
G02*
X4051500Y-3556000I-76000J0D01*
G01*
X4051500Y-3556000D02*
G75*
G02*
X4203500Y-3556000I76000J0D01*
G01*
X4635500Y-3480000D02*
X4635500Y-3632000D01*
X4559500Y-3556000D02*
X4711500Y-3556000D01*
X4711500Y-3556000D02*
G75*
G02*
X4559500Y-3556000I-76000J0D01*
G01*
X4559500Y-3556000D02*
G75*
G02*
X4711500Y-3556000I76000J0D01*
G01*
X18796000Y-3480000D02*
X18796000Y-3632000D01*
X18720000Y-3556000D02*
X18872000Y-3556000D01*
X18872000Y-3556000D02*
G75*
G02*
X18720000Y-3556000I-76000J0D01*
G01*
X18720000Y-3556000D02*
G75*
G02*
X18872000Y-3556000I76000J0D01*
G01*
X19304000Y-3480000D02*
X19304000Y-3632000D01*
X19228000Y-3556000D02*
X19380000Y-3556000D01*
X19380000Y-3556000D02*
G75*
G02*
X19228000Y-3556000I-76000J0D01*
G01*
X19228000Y-3556000D02*
G75*
G02*
X19380000Y-3556000I76000J0D01*
G01*
D11*
X3655777Y-16316484D02*
X3655777Y-16116484D01*
X3655777Y-16116484D02*
X3703396Y-16116484D01*
X3703396Y-16116484D02*
X3731967Y-16126008D01*
X3731967Y-16126008D02*
X3751015Y-16145055D01*
X3751015Y-16145055D02*
X3760539Y-16164103D01*
X3760539Y-16164103D02*
X3770062Y-16202198D01*
X3770062Y-16202198D02*
X3770062Y-16230769D01*
X3770062Y-16230769D02*
X3760539Y-16268865D01*
X3760539Y-16268865D02*
X3751015Y-16287912D01*
X3751015Y-16287912D02*
X3731967Y-16306960D01*
X3731967Y-16306960D02*
X3703396Y-16316484D01*
X3703396Y-16316484D02*
X3655777Y-16316484D01*
X3855777Y-16316484D02*
X3855777Y-16183150D01*
X3855777Y-16221246D02*
X3865301Y-16202198D01*
X3865301Y-16202198D02*
X3874824Y-16192674D01*
X3874824Y-16192674D02*
X3893872Y-16183150D01*
X3893872Y-16183150D02*
X3912920Y-16183150D01*
X3979586Y-16316484D02*
X3979586Y-16183150D01*
X3979586Y-16116484D02*
X3970062Y-16126008D01*
X3970062Y-16126008D02*
X3979586Y-16135531D01*
X3979586Y-16135531D02*
X3989110Y-16126008D01*
X3989110Y-16126008D02*
X3979586Y-16116484D01*
X3979586Y-16116484D02*
X3979586Y-16135531D01*
X4103396Y-16316484D02*
X4084348Y-16306960D01*
X4084348Y-16306960D02*
X4074824Y-16287912D01*
X4074824Y-16287912D02*
X4074824Y-16116484D01*
X4208158Y-16316484D02*
X4189110Y-16306960D01*
X4189110Y-16306960D02*
X4179586Y-16287912D01*
X4179586Y-16287912D02*
X4179586Y-16116484D01*
X4436729Y-16316484D02*
X4436729Y-16116484D01*
X4436729Y-16116484D02*
X4503396Y-16259341D01*
X4503396Y-16259341D02*
X4570063Y-16116484D01*
X4570063Y-16116484D02*
X4570063Y-16316484D01*
X4751015Y-16316484D02*
X4751015Y-16211722D01*
X4751015Y-16211722D02*
X4741491Y-16192674D01*
X4741491Y-16192674D02*
X4722444Y-16183150D01*
X4722444Y-16183150D02*
X4684348Y-16183150D01*
X4684348Y-16183150D02*
X4665301Y-16192674D01*
X4751015Y-16306960D02*
X4731967Y-16316484D01*
X4731967Y-16316484D02*
X4684348Y-16316484D01*
X4684348Y-16316484D02*
X4665301Y-16306960D01*
X4665301Y-16306960D02*
X4655777Y-16287912D01*
X4655777Y-16287912D02*
X4655777Y-16268865D01*
X4655777Y-16268865D02*
X4665301Y-16249817D01*
X4665301Y-16249817D02*
X4684348Y-16240293D01*
X4684348Y-16240293D02*
X4731967Y-16240293D01*
X4731967Y-16240293D02*
X4751015Y-16230769D01*
X4846253Y-16183150D02*
X4846253Y-16383150D01*
X4846253Y-16192674D02*
X4865301Y-16183150D01*
X4865301Y-16183150D02*
X4903396Y-16183150D01*
X4903396Y-16183150D02*
X4922444Y-16192674D01*
X4922444Y-16192674D02*
X4931967Y-16202198D01*
X4931967Y-16202198D02*
X4941491Y-16221246D01*
X4941491Y-16221246D02*
X4941491Y-16278388D01*
X4941491Y-16278388D02*
X4931967Y-16297436D01*
X4931967Y-16297436D02*
X4922444Y-16306960D01*
X4922444Y-16306960D02*
X4903396Y-16316484D01*
X4903396Y-16316484D02*
X4865301Y-16316484D01*
X4865301Y-16316484D02*
X4846253Y-16306960D01*
X5027205Y-16297436D02*
X5036729Y-16306960D01*
X5036729Y-16306960D02*
X5027205Y-16316484D01*
X5027205Y-16316484D02*
X5017682Y-16306960D01*
X5017682Y-16306960D02*
X5027205Y-16297436D01*
X5027205Y-16297436D02*
X5027205Y-16316484D01*
X5027205Y-16192674D02*
X5036729Y-16202198D01*
X5036729Y-16202198D02*
X5027205Y-16211722D01*
X5027205Y-16211722D02*
X5017682Y-16202198D01*
X5017682Y-16202198D02*
X5027205Y-16192674D01*
X5027205Y-16192674D02*
X5027205Y-16211722D01*
D10*
X3355000Y-16625000D02*
X3395000Y-16665000D01*
X3395000Y-16625000D02*
X3355000Y-16665000D01*
D11*
X3693872Y-16536484D02*
X3712920Y-16536484D01*
X3712920Y-16536484D02*
X3731967Y-16546008D01*
X3731967Y-16546008D02*
X3741491Y-16555531D01*
X3741491Y-16555531D02*
X3751015Y-16574579D01*
X3751015Y-16574579D02*
X3760539Y-16612674D01*
X3760539Y-16612674D02*
X3760539Y-16660293D01*
X3760539Y-16660293D02*
X3751015Y-16698388D01*
X3751015Y-16698388D02*
X3741491Y-16717436D01*
X3741491Y-16717436D02*
X3731967Y-16726960D01*
X3731967Y-16726960D02*
X3712920Y-16736484D01*
X3712920Y-16736484D02*
X3693872Y-16736484D01*
X3693872Y-16736484D02*
X3674824Y-16726960D01*
X3674824Y-16726960D02*
X3665301Y-16717436D01*
X3665301Y-16717436D02*
X3655777Y-16698388D01*
X3655777Y-16698388D02*
X3646253Y-16660293D01*
X3646253Y-16660293D02*
X3646253Y-16612674D01*
X3646253Y-16612674D02*
X3655777Y-16574579D01*
X3655777Y-16574579D02*
X3665301Y-16555531D01*
X3665301Y-16555531D02*
X3674824Y-16546008D01*
X3674824Y-16546008D02*
X3693872Y-16536484D01*
X3846253Y-16717436D02*
X3855777Y-16726960D01*
X3855777Y-16726960D02*
X3846253Y-16736484D01*
X3846253Y-16736484D02*
X3836729Y-16726960D01*
X3836729Y-16726960D02*
X3846253Y-16717436D01*
X3846253Y-16717436D02*
X3846253Y-16736484D01*
X4027205Y-16603150D02*
X4027205Y-16736484D01*
X3979586Y-16526960D02*
X3931967Y-16669817D01*
X3931967Y-16669817D02*
X4055777Y-16669817D01*
X4170062Y-16536484D02*
X4189110Y-16536484D01*
X4189110Y-16536484D02*
X4208158Y-16546008D01*
X4208158Y-16546008D02*
X4217682Y-16555531D01*
X4217682Y-16555531D02*
X4227205Y-16574579D01*
X4227205Y-16574579D02*
X4236729Y-16612674D01*
X4236729Y-16612674D02*
X4236729Y-16660293D01*
X4236729Y-16660293D02*
X4227205Y-16698388D01*
X4227205Y-16698388D02*
X4217682Y-16717436D01*
X4217682Y-16717436D02*
X4208158Y-16726960D01*
X4208158Y-16726960D02*
X4189110Y-16736484D01*
X4189110Y-16736484D02*
X4170062Y-16736484D01*
X4170062Y-16736484D02*
X4151015Y-16726960D01*
X4151015Y-16726960D02*
X4141491Y-16717436D01*
X4141491Y-16717436D02*
X4131967Y-16698388D01*
X4131967Y-16698388D02*
X4122443Y-16660293D01*
X4122443Y-16660293D02*
X4122443Y-16612674D01*
X4122443Y-16612674D02*
X4131967Y-16574579D01*
X4131967Y-16574579D02*
X4141491Y-16555531D01*
X4141491Y-16555531D02*
X4151015Y-16546008D01*
X4151015Y-16546008D02*
X4170062Y-16536484D01*
X4360539Y-16536484D02*
X4379586Y-16536484D01*
X4379586Y-16536484D02*
X4398634Y-16546008D01*
X4398634Y-16546008D02*
X4408158Y-16555531D01*
X4408158Y-16555531D02*
X4417682Y-16574579D01*
X4417682Y-16574579D02*
X4427205Y-16612674D01*
X4427205Y-16612674D02*
X4427205Y-16660293D01*
X4427205Y-16660293D02*
X4417682Y-16698388D01*
X4417682Y-16698388D02*
X4408158Y-16717436D01*
X4408158Y-16717436D02*
X4398634Y-16726960D01*
X4398634Y-16726960D02*
X4379586Y-16736484D01*
X4379586Y-16736484D02*
X4360539Y-16736484D01*
X4360539Y-16736484D02*
X4341491Y-16726960D01*
X4341491Y-16726960D02*
X4331967Y-16717436D01*
X4331967Y-16717436D02*
X4322444Y-16698388D01*
X4322444Y-16698388D02*
X4312920Y-16660293D01*
X4312920Y-16660293D02*
X4312920Y-16612674D01*
X4312920Y-16612674D02*
X4322444Y-16574579D01*
X4322444Y-16574579D02*
X4331967Y-16555531D01*
X4331967Y-16555531D02*
X4341491Y-16546008D01*
X4341491Y-16546008D02*
X4360539Y-16536484D01*
X4512920Y-16736484D02*
X4512920Y-16603150D01*
X4512920Y-16622198D02*
X4522444Y-16612674D01*
X4522444Y-16612674D02*
X4541491Y-16603150D01*
X4541491Y-16603150D02*
X4570063Y-16603150D01*
X4570063Y-16603150D02*
X4589110Y-16612674D01*
X4589110Y-16612674D02*
X4598634Y-16631722D01*
X4598634Y-16631722D02*
X4598634Y-16736484D01*
X4598634Y-16631722D02*
X4608158Y-16612674D01*
X4608158Y-16612674D02*
X4627205Y-16603150D01*
X4627205Y-16603150D02*
X4655777Y-16603150D01*
X4655777Y-16603150D02*
X4674825Y-16612674D01*
X4674825Y-16612674D02*
X4684348Y-16631722D01*
X4684348Y-16631722D02*
X4684348Y-16736484D01*
X4779586Y-16736484D02*
X4779586Y-16603150D01*
X4779586Y-16622198D02*
X4789110Y-16612674D01*
X4789110Y-16612674D02*
X4808158Y-16603150D01*
X4808158Y-16603150D02*
X4836729Y-16603150D01*
X4836729Y-16603150D02*
X4855777Y-16612674D01*
X4855777Y-16612674D02*
X4865301Y-16631722D01*
X4865301Y-16631722D02*
X4865301Y-16736484D01*
X4865301Y-16631722D02*
X4874825Y-16612674D01*
X4874825Y-16612674D02*
X4893872Y-16603150D01*
X4893872Y-16603150D02*
X4922444Y-16603150D01*
X4922444Y-16603150D02*
X4941491Y-16612674D01*
X4941491Y-16612674D02*
X4951015Y-16631722D01*
X4951015Y-16631722D02*
X4951015Y-16736484D01*
X5341491Y-16526960D02*
X5170063Y-16784103D01*
X5598634Y-16536484D02*
X5617682Y-16536484D01*
X5617682Y-16536484D02*
X5636729Y-16546008D01*
X5636729Y-16546008D02*
X5646253Y-16555531D01*
X5646253Y-16555531D02*
X5655777Y-16574579D01*
X5655777Y-16574579D02*
X5665301Y-16612674D01*
X5665301Y-16612674D02*
X5665301Y-16660293D01*
X5665301Y-16660293D02*
X5655777Y-16698388D01*
X5655777Y-16698388D02*
X5646253Y-16717436D01*
X5646253Y-16717436D02*
X5636729Y-16726960D01*
X5636729Y-16726960D02*
X5617682Y-16736484D01*
X5617682Y-16736484D02*
X5598634Y-16736484D01*
X5598634Y-16736484D02*
X5579587Y-16726960D01*
X5579587Y-16726960D02*
X5570063Y-16717436D01*
X5570063Y-16717436D02*
X5560539Y-16698388D01*
X5560539Y-16698388D02*
X5551015Y-16660293D01*
X5551015Y-16660293D02*
X5551015Y-16612674D01*
X5551015Y-16612674D02*
X5560539Y-16574579D01*
X5560539Y-16574579D02*
X5570063Y-16555531D01*
X5570063Y-16555531D02*
X5579587Y-16546008D01*
X5579587Y-16546008D02*
X5598634Y-16536484D01*
X5751015Y-16717436D02*
X5760539Y-16726960D01*
X5760539Y-16726960D02*
X5751015Y-16736484D01*
X5751015Y-16736484D02*
X5741491Y-16726960D01*
X5741491Y-16726960D02*
X5751015Y-16717436D01*
X5751015Y-16717436D02*
X5751015Y-16736484D01*
X5884348Y-16536484D02*
X5903396Y-16536484D01*
X5903396Y-16536484D02*
X5922444Y-16546008D01*
X5922444Y-16546008D02*
X5931967Y-16555531D01*
X5931967Y-16555531D02*
X5941491Y-16574579D01*
X5941491Y-16574579D02*
X5951015Y-16612674D01*
X5951015Y-16612674D02*
X5951015Y-16660293D01*
X5951015Y-16660293D02*
X5941491Y-16698388D01*
X5941491Y-16698388D02*
X5931967Y-16717436D01*
X5931967Y-16717436D02*
X5922444Y-16726960D01*
X5922444Y-16726960D02*
X5903396Y-16736484D01*
X5903396Y-16736484D02*
X5884348Y-16736484D01*
X5884348Y-16736484D02*
X5865301Y-16726960D01*
X5865301Y-16726960D02*
X5855777Y-16717436D01*
X5855777Y-16717436D02*
X5846253Y-16698388D01*
X5846253Y-16698388D02*
X5836729Y-16660293D01*
X5836729Y-16660293D02*
X5836729Y-16612674D01*
X5836729Y-16612674D02*
X5846253Y-16574579D01*
X5846253Y-16574579D02*
X5855777Y-16555531D01*
X5855777Y-16555531D02*
X5865301Y-16546008D01*
X5865301Y-16546008D02*
X5884348Y-16536484D01*
X6141491Y-16736484D02*
X6027206Y-16736484D01*
X6084348Y-16736484D02*
X6084348Y-16536484D01*
X6084348Y-16536484D02*
X6065301Y-16565055D01*
X6065301Y-16565055D02*
X6046253Y-16584103D01*
X6046253Y-16584103D02*
X6027206Y-16593627D01*
X6322444Y-16536484D02*
X6227206Y-16536484D01*
X6227206Y-16536484D02*
X6217682Y-16631722D01*
X6217682Y-16631722D02*
X6227206Y-16622198D01*
X6227206Y-16622198D02*
X6246253Y-16612674D01*
X6246253Y-16612674D02*
X6293872Y-16612674D01*
X6293872Y-16612674D02*
X6312920Y-16622198D01*
X6312920Y-16622198D02*
X6322444Y-16631722D01*
X6322444Y-16631722D02*
X6331967Y-16650769D01*
X6331967Y-16650769D02*
X6331967Y-16698388D01*
X6331967Y-16698388D02*
X6322444Y-16717436D01*
X6322444Y-16717436D02*
X6312920Y-16726960D01*
X6312920Y-16726960D02*
X6293872Y-16736484D01*
X6293872Y-16736484D02*
X6246253Y-16736484D01*
X6246253Y-16736484D02*
X6227206Y-16726960D01*
X6227206Y-16726960D02*
X6217682Y-16717436D01*
X6398634Y-16536484D02*
X6531967Y-16536484D01*
X6531967Y-16536484D02*
X6446253Y-16736484D01*
X6598634Y-16536484D02*
X6598634Y-16574579D01*
X6674825Y-16536484D02*
X6674825Y-16574579D01*
X6970063Y-16812674D02*
X6960539Y-16803150D01*
X6960539Y-16803150D02*
X6941491Y-16774579D01*
X6941491Y-16774579D02*
X6931968Y-16755531D01*
X6931968Y-16755531D02*
X6922444Y-16726960D01*
X6922444Y-16726960D02*
X6912920Y-16679341D01*
X6912920Y-16679341D02*
X6912920Y-16641246D01*
X6912920Y-16641246D02*
X6922444Y-16593627D01*
X6922444Y-16593627D02*
X6931968Y-16565055D01*
X6931968Y-16565055D02*
X6941491Y-16546008D01*
X6941491Y-16546008D02*
X6960539Y-16517436D01*
X6960539Y-16517436D02*
X6970063Y-16507912D01*
X7151015Y-16736484D02*
X7036729Y-16736484D01*
X7093872Y-16736484D02*
X7093872Y-16536484D01*
X7093872Y-16536484D02*
X7074825Y-16565055D01*
X7074825Y-16565055D02*
X7055777Y-16584103D01*
X7055777Y-16584103D02*
X7036729Y-16593627D01*
X7322444Y-16603150D02*
X7322444Y-16736484D01*
X7274825Y-16526960D02*
X7227206Y-16669817D01*
X7227206Y-16669817D02*
X7351015Y-16669817D01*
X7579587Y-16736484D02*
X7579587Y-16536484D01*
X7665301Y-16736484D02*
X7665301Y-16631722D01*
X7665301Y-16631722D02*
X7655777Y-16612674D01*
X7655777Y-16612674D02*
X7636730Y-16603150D01*
X7636730Y-16603150D02*
X7608158Y-16603150D01*
X7608158Y-16603150D02*
X7589110Y-16612674D01*
X7589110Y-16612674D02*
X7579587Y-16622198D01*
X7789110Y-16736484D02*
X7770063Y-16726960D01*
X7770063Y-16726960D02*
X7760539Y-16717436D01*
X7760539Y-16717436D02*
X7751015Y-16698388D01*
X7751015Y-16698388D02*
X7751015Y-16641246D01*
X7751015Y-16641246D02*
X7760539Y-16622198D01*
X7760539Y-16622198D02*
X7770063Y-16612674D01*
X7770063Y-16612674D02*
X7789110Y-16603150D01*
X7789110Y-16603150D02*
X7817682Y-16603150D01*
X7817682Y-16603150D02*
X7836730Y-16612674D01*
X7836730Y-16612674D02*
X7846253Y-16622198D01*
X7846253Y-16622198D02*
X7855777Y-16641246D01*
X7855777Y-16641246D02*
X7855777Y-16698388D01*
X7855777Y-16698388D02*
X7846253Y-16717436D01*
X7846253Y-16717436D02*
X7836730Y-16726960D01*
X7836730Y-16726960D02*
X7817682Y-16736484D01*
X7817682Y-16736484D02*
X7789110Y-16736484D01*
X7970063Y-16736484D02*
X7951015Y-16726960D01*
X7951015Y-16726960D02*
X7941491Y-16707912D01*
X7941491Y-16707912D02*
X7941491Y-16536484D01*
X8122444Y-16726960D02*
X8103396Y-16736484D01*
X8103396Y-16736484D02*
X8065301Y-16736484D01*
X8065301Y-16736484D02*
X8046253Y-16726960D01*
X8046253Y-16726960D02*
X8036730Y-16707912D01*
X8036730Y-16707912D02*
X8036730Y-16631722D01*
X8036730Y-16631722D02*
X8046253Y-16612674D01*
X8046253Y-16612674D02*
X8065301Y-16603150D01*
X8065301Y-16603150D02*
X8103396Y-16603150D01*
X8103396Y-16603150D02*
X8122444Y-16612674D01*
X8122444Y-16612674D02*
X8131968Y-16631722D01*
X8131968Y-16631722D02*
X8131968Y-16650769D01*
X8131968Y-16650769D02*
X8036730Y-16669817D01*
X8208158Y-16726960D02*
X8227206Y-16736484D01*
X8227206Y-16736484D02*
X8265301Y-16736484D01*
X8265301Y-16736484D02*
X8284349Y-16726960D01*
X8284349Y-16726960D02*
X8293872Y-16707912D01*
X8293872Y-16707912D02*
X8293872Y-16698388D01*
X8293872Y-16698388D02*
X8284349Y-16679341D01*
X8284349Y-16679341D02*
X8265301Y-16669817D01*
X8265301Y-16669817D02*
X8236730Y-16669817D01*
X8236730Y-16669817D02*
X8217682Y-16660293D01*
X8217682Y-16660293D02*
X8208158Y-16641246D01*
X8208158Y-16641246D02*
X8208158Y-16631722D01*
X8208158Y-16631722D02*
X8217682Y-16612674D01*
X8217682Y-16612674D02*
X8236730Y-16603150D01*
X8236730Y-16603150D02*
X8265301Y-16603150D01*
X8265301Y-16603150D02*
X8284349Y-16612674D01*
X8360539Y-16812674D02*
X8370063Y-16803150D01*
X8370063Y-16803150D02*
X8389111Y-16774579D01*
X8389111Y-16774579D02*
X8398634Y-16755531D01*
X8398634Y-16755531D02*
X8408158Y-16726960D01*
X8408158Y-16726960D02*
X8417682Y-16679341D01*
X8417682Y-16679341D02*
X8417682Y-16641246D01*
X8417682Y-16641246D02*
X8408158Y-16593627D01*
X8408158Y-16593627D02*
X8398634Y-16565055D01*
X8398634Y-16565055D02*
X8389111Y-16546008D01*
X8389111Y-16546008D02*
X8370063Y-16517436D01*
X8370063Y-16517436D02*
X8360539Y-16507912D01*
D10*
X3395000Y-16909000D02*
G75*
G02*
X3325000Y-16909000I-35000J0D01*
G01*
X3325000Y-16909000D02*
G75*
G02*
X3395000Y-16909000I35000J0D01*
G01*
D11*
X3693872Y-16800484D02*
X3712920Y-16800484D01*
X3712920Y-16800484D02*
X3731967Y-16810008D01*
X3731967Y-16810008D02*
X3741491Y-16819531D01*
X3741491Y-16819531D02*
X3751015Y-16838579D01*
X3751015Y-16838579D02*
X3760539Y-16876674D01*
X3760539Y-16876674D02*
X3760539Y-16924293D01*
X3760539Y-16924293D02*
X3751015Y-16962389D01*
X3751015Y-16962389D02*
X3741491Y-16981436D01*
X3741491Y-16981436D02*
X3731967Y-16990960D01*
X3731967Y-16990960D02*
X3712920Y-17000484D01*
X3712920Y-17000484D02*
X3693872Y-17000484D01*
X3693872Y-17000484D02*
X3674824Y-16990960D01*
X3674824Y-16990960D02*
X3665301Y-16981436D01*
X3665301Y-16981436D02*
X3655777Y-16962389D01*
X3655777Y-16962389D02*
X3646253Y-16924293D01*
X3646253Y-16924293D02*
X3646253Y-16876674D01*
X3646253Y-16876674D02*
X3655777Y-16838579D01*
X3655777Y-16838579D02*
X3665301Y-16819531D01*
X3665301Y-16819531D02*
X3674824Y-16810008D01*
X3674824Y-16810008D02*
X3693872Y-16800484D01*
X3846253Y-16981436D02*
X3855777Y-16990960D01*
X3855777Y-16990960D02*
X3846253Y-17000484D01*
X3846253Y-17000484D02*
X3836729Y-16990960D01*
X3836729Y-16990960D02*
X3846253Y-16981436D01*
X3846253Y-16981436D02*
X3846253Y-17000484D01*
X3922443Y-16800484D02*
X4055777Y-16800484D01*
X4055777Y-16800484D02*
X3970062Y-17000484D01*
X4170062Y-16800484D02*
X4189110Y-16800484D01*
X4189110Y-16800484D02*
X4208158Y-16810008D01*
X4208158Y-16810008D02*
X4217682Y-16819531D01*
X4217682Y-16819531D02*
X4227205Y-16838579D01*
X4227205Y-16838579D02*
X4236729Y-16876674D01*
X4236729Y-16876674D02*
X4236729Y-16924293D01*
X4236729Y-16924293D02*
X4227205Y-16962389D01*
X4227205Y-16962389D02*
X4217682Y-16981436D01*
X4217682Y-16981436D02*
X4208158Y-16990960D01*
X4208158Y-16990960D02*
X4189110Y-17000484D01*
X4189110Y-17000484D02*
X4170062Y-17000484D01*
X4170062Y-17000484D02*
X4151015Y-16990960D01*
X4151015Y-16990960D02*
X4141491Y-16981436D01*
X4141491Y-16981436D02*
X4131967Y-16962389D01*
X4131967Y-16962389D02*
X4122443Y-16924293D01*
X4122443Y-16924293D02*
X4122443Y-16876674D01*
X4122443Y-16876674D02*
X4131967Y-16838579D01*
X4131967Y-16838579D02*
X4141491Y-16819531D01*
X4141491Y-16819531D02*
X4151015Y-16810008D01*
X4151015Y-16810008D02*
X4170062Y-16800484D01*
X4360539Y-16800484D02*
X4379586Y-16800484D01*
X4379586Y-16800484D02*
X4398634Y-16810008D01*
X4398634Y-16810008D02*
X4408158Y-16819531D01*
X4408158Y-16819531D02*
X4417682Y-16838579D01*
X4417682Y-16838579D02*
X4427205Y-16876674D01*
X4427205Y-16876674D02*
X4427205Y-16924293D01*
X4427205Y-16924293D02*
X4417682Y-16962389D01*
X4417682Y-16962389D02*
X4408158Y-16981436D01*
X4408158Y-16981436D02*
X4398634Y-16990960D01*
X4398634Y-16990960D02*
X4379586Y-17000484D01*
X4379586Y-17000484D02*
X4360539Y-17000484D01*
X4360539Y-17000484D02*
X4341491Y-16990960D01*
X4341491Y-16990960D02*
X4331967Y-16981436D01*
X4331967Y-16981436D02*
X4322444Y-16962389D01*
X4322444Y-16962389D02*
X4312920Y-16924293D01*
X4312920Y-16924293D02*
X4312920Y-16876674D01*
X4312920Y-16876674D02*
X4322444Y-16838579D01*
X4322444Y-16838579D02*
X4331967Y-16819531D01*
X4331967Y-16819531D02*
X4341491Y-16810008D01*
X4341491Y-16810008D02*
X4360539Y-16800484D01*
X4512920Y-17000484D02*
X4512920Y-16867150D01*
X4512920Y-16886198D02*
X4522444Y-16876674D01*
X4522444Y-16876674D02*
X4541491Y-16867150D01*
X4541491Y-16867150D02*
X4570063Y-16867150D01*
X4570063Y-16867150D02*
X4589110Y-16876674D01*
X4589110Y-16876674D02*
X4598634Y-16895722D01*
X4598634Y-16895722D02*
X4598634Y-17000484D01*
X4598634Y-16895722D02*
X4608158Y-16876674D01*
X4608158Y-16876674D02*
X4627205Y-16867150D01*
X4627205Y-16867150D02*
X4655777Y-16867150D01*
X4655777Y-16867150D02*
X4674825Y-16876674D01*
X4674825Y-16876674D02*
X4684348Y-16895722D01*
X4684348Y-16895722D02*
X4684348Y-17000484D01*
X4779586Y-17000484D02*
X4779586Y-16867150D01*
X4779586Y-16886198D02*
X4789110Y-16876674D01*
X4789110Y-16876674D02*
X4808158Y-16867150D01*
X4808158Y-16867150D02*
X4836729Y-16867150D01*
X4836729Y-16867150D02*
X4855777Y-16876674D01*
X4855777Y-16876674D02*
X4865301Y-16895722D01*
X4865301Y-16895722D02*
X4865301Y-17000484D01*
X4865301Y-16895722D02*
X4874825Y-16876674D01*
X4874825Y-16876674D02*
X4893872Y-16867150D01*
X4893872Y-16867150D02*
X4922444Y-16867150D01*
X4922444Y-16867150D02*
X4941491Y-16876674D01*
X4941491Y-16876674D02*
X4951015Y-16895722D01*
X4951015Y-16895722D02*
X4951015Y-17000484D01*
X5341491Y-16790960D02*
X5170063Y-17048103D01*
X5598634Y-16800484D02*
X5617682Y-16800484D01*
X5617682Y-16800484D02*
X5636729Y-16810008D01*
X5636729Y-16810008D02*
X5646253Y-16819531D01*
X5646253Y-16819531D02*
X5655777Y-16838579D01*
X5655777Y-16838579D02*
X5665301Y-16876674D01*
X5665301Y-16876674D02*
X5665301Y-16924293D01*
X5665301Y-16924293D02*
X5655777Y-16962389D01*
X5655777Y-16962389D02*
X5646253Y-16981436D01*
X5646253Y-16981436D02*
X5636729Y-16990960D01*
X5636729Y-16990960D02*
X5617682Y-17000484D01*
X5617682Y-17000484D02*
X5598634Y-17000484D01*
X5598634Y-17000484D02*
X5579587Y-16990960D01*
X5579587Y-16990960D02*
X5570063Y-16981436D01*
X5570063Y-16981436D02*
X5560539Y-16962389D01*
X5560539Y-16962389D02*
X5551015Y-16924293D01*
X5551015Y-16924293D02*
X5551015Y-16876674D01*
X5551015Y-16876674D02*
X5560539Y-16838579D01*
X5560539Y-16838579D02*
X5570063Y-16819531D01*
X5570063Y-16819531D02*
X5579587Y-16810008D01*
X5579587Y-16810008D02*
X5598634Y-16800484D01*
X5751015Y-16981436D02*
X5760539Y-16990960D01*
X5760539Y-16990960D02*
X5751015Y-17000484D01*
X5751015Y-17000484D02*
X5741491Y-16990960D01*
X5741491Y-16990960D02*
X5751015Y-16981436D01*
X5751015Y-16981436D02*
X5751015Y-17000484D01*
X5884348Y-16800484D02*
X5903396Y-16800484D01*
X5903396Y-16800484D02*
X5922444Y-16810008D01*
X5922444Y-16810008D02*
X5931967Y-16819531D01*
X5931967Y-16819531D02*
X5941491Y-16838579D01*
X5941491Y-16838579D02*
X5951015Y-16876674D01*
X5951015Y-16876674D02*
X5951015Y-16924293D01*
X5951015Y-16924293D02*
X5941491Y-16962389D01*
X5941491Y-16962389D02*
X5931967Y-16981436D01*
X5931967Y-16981436D02*
X5922444Y-16990960D01*
X5922444Y-16990960D02*
X5903396Y-17000484D01*
X5903396Y-17000484D02*
X5884348Y-17000484D01*
X5884348Y-17000484D02*
X5865301Y-16990960D01*
X5865301Y-16990960D02*
X5855777Y-16981436D01*
X5855777Y-16981436D02*
X5846253Y-16962389D01*
X5846253Y-16962389D02*
X5836729Y-16924293D01*
X5836729Y-16924293D02*
X5836729Y-16876674D01*
X5836729Y-16876674D02*
X5846253Y-16838579D01*
X5846253Y-16838579D02*
X5855777Y-16819531D01*
X5855777Y-16819531D02*
X5865301Y-16810008D01*
X5865301Y-16810008D02*
X5884348Y-16800484D01*
X6027206Y-16819531D02*
X6036729Y-16810008D01*
X6036729Y-16810008D02*
X6055777Y-16800484D01*
X6055777Y-16800484D02*
X6103396Y-16800484D01*
X6103396Y-16800484D02*
X6122444Y-16810008D01*
X6122444Y-16810008D02*
X6131967Y-16819531D01*
X6131967Y-16819531D02*
X6141491Y-16838579D01*
X6141491Y-16838579D02*
X6141491Y-16857627D01*
X6141491Y-16857627D02*
X6131967Y-16886198D01*
X6131967Y-16886198D02*
X6017682Y-17000484D01*
X6017682Y-17000484D02*
X6141491Y-17000484D01*
X6208158Y-16800484D02*
X6341491Y-16800484D01*
X6341491Y-16800484D02*
X6255777Y-17000484D01*
X6503396Y-16800484D02*
X6465301Y-16800484D01*
X6465301Y-16800484D02*
X6446253Y-16810008D01*
X6446253Y-16810008D02*
X6436729Y-16819531D01*
X6436729Y-16819531D02*
X6417682Y-16848103D01*
X6417682Y-16848103D02*
X6408158Y-16886198D01*
X6408158Y-16886198D02*
X6408158Y-16962389D01*
X6408158Y-16962389D02*
X6417682Y-16981436D01*
X6417682Y-16981436D02*
X6427206Y-16990960D01*
X6427206Y-16990960D02*
X6446253Y-17000484D01*
X6446253Y-17000484D02*
X6484348Y-17000484D01*
X6484348Y-17000484D02*
X6503396Y-16990960D01*
X6503396Y-16990960D02*
X6512920Y-16981436D01*
X6512920Y-16981436D02*
X6522444Y-16962389D01*
X6522444Y-16962389D02*
X6522444Y-16914770D01*
X6522444Y-16914770D02*
X6512920Y-16895722D01*
X6512920Y-16895722D02*
X6503396Y-16886198D01*
X6503396Y-16886198D02*
X6484348Y-16876674D01*
X6484348Y-16876674D02*
X6446253Y-16876674D01*
X6446253Y-16876674D02*
X6427206Y-16886198D01*
X6427206Y-16886198D02*
X6417682Y-16895722D01*
X6417682Y-16895722D02*
X6408158Y-16914770D01*
X6598634Y-16800484D02*
X6598634Y-16838579D01*
X6674825Y-16800484D02*
X6674825Y-16838579D01*
X6970063Y-17076674D02*
X6960539Y-17067150D01*
X6960539Y-17067150D02*
X6941491Y-17038579D01*
X6941491Y-17038579D02*
X6931968Y-17019531D01*
X6931968Y-17019531D02*
X6922444Y-16990960D01*
X6922444Y-16990960D02*
X6912920Y-16943341D01*
X6912920Y-16943341D02*
X6912920Y-16905246D01*
X6912920Y-16905246D02*
X6922444Y-16857627D01*
X6922444Y-16857627D02*
X6931968Y-16829055D01*
X6931968Y-16829055D02*
X6941491Y-16810008D01*
X6941491Y-16810008D02*
X6960539Y-16781436D01*
X6960539Y-16781436D02*
X6970063Y-16771912D01*
X7151015Y-17000484D02*
X7036729Y-17000484D01*
X7093872Y-17000484D02*
X7093872Y-16800484D01*
X7093872Y-16800484D02*
X7074825Y-16829055D01*
X7074825Y-16829055D02*
X7055777Y-16848103D01*
X7055777Y-16848103D02*
X7036729Y-16857627D01*
X7227206Y-16819531D02*
X7236729Y-16810008D01*
X7236729Y-16810008D02*
X7255777Y-16800484D01*
X7255777Y-16800484D02*
X7303396Y-16800484D01*
X7303396Y-16800484D02*
X7322444Y-16810008D01*
X7322444Y-16810008D02*
X7331968Y-16819531D01*
X7331968Y-16819531D02*
X7341491Y-16838579D01*
X7341491Y-16838579D02*
X7341491Y-16857627D01*
X7341491Y-16857627D02*
X7331968Y-16886198D01*
X7331968Y-16886198D02*
X7217682Y-17000484D01*
X7217682Y-17000484D02*
X7341491Y-17000484D01*
X7579587Y-17000484D02*
X7579587Y-16800484D01*
X7665301Y-17000484D02*
X7665301Y-16895722D01*
X7665301Y-16895722D02*
X7655777Y-16876674D01*
X7655777Y-16876674D02*
X7636730Y-16867150D01*
X7636730Y-16867150D02*
X7608158Y-16867150D01*
X7608158Y-16867150D02*
X7589110Y-16876674D01*
X7589110Y-16876674D02*
X7579587Y-16886198D01*
X7789110Y-17000484D02*
X7770063Y-16990960D01*
X7770063Y-16990960D02*
X7760539Y-16981436D01*
X7760539Y-16981436D02*
X7751015Y-16962389D01*
X7751015Y-16962389D02*
X7751015Y-16905246D01*
X7751015Y-16905246D02*
X7760539Y-16886198D01*
X7760539Y-16886198D02*
X7770063Y-16876674D01*
X7770063Y-16876674D02*
X7789110Y-16867150D01*
X7789110Y-16867150D02*
X7817682Y-16867150D01*
X7817682Y-16867150D02*
X7836730Y-16876674D01*
X7836730Y-16876674D02*
X7846253Y-16886198D01*
X7846253Y-16886198D02*
X7855777Y-16905246D01*
X7855777Y-16905246D02*
X7855777Y-16962389D01*
X7855777Y-16962389D02*
X7846253Y-16981436D01*
X7846253Y-16981436D02*
X7836730Y-16990960D01*
X7836730Y-16990960D02*
X7817682Y-17000484D01*
X7817682Y-17000484D02*
X7789110Y-17000484D01*
X7970063Y-17000484D02*
X7951015Y-16990960D01*
X7951015Y-16990960D02*
X7941491Y-16971912D01*
X7941491Y-16971912D02*
X7941491Y-16800484D01*
X8122444Y-16990960D02*
X8103396Y-17000484D01*
X8103396Y-17000484D02*
X8065301Y-17000484D01*
X8065301Y-17000484D02*
X8046253Y-16990960D01*
X8046253Y-16990960D02*
X8036730Y-16971912D01*
X8036730Y-16971912D02*
X8036730Y-16895722D01*
X8036730Y-16895722D02*
X8046253Y-16876674D01*
X8046253Y-16876674D02*
X8065301Y-16867150D01*
X8065301Y-16867150D02*
X8103396Y-16867150D01*
X8103396Y-16867150D02*
X8122444Y-16876674D01*
X8122444Y-16876674D02*
X8131968Y-16895722D01*
X8131968Y-16895722D02*
X8131968Y-16914770D01*
X8131968Y-16914770D02*
X8036730Y-16933817D01*
X8208158Y-16990960D02*
X8227206Y-17000484D01*
X8227206Y-17000484D02*
X8265301Y-17000484D01*
X8265301Y-17000484D02*
X8284349Y-16990960D01*
X8284349Y-16990960D02*
X8293872Y-16971912D01*
X8293872Y-16971912D02*
X8293872Y-16962389D01*
X8293872Y-16962389D02*
X8284349Y-16943341D01*
X8284349Y-16943341D02*
X8265301Y-16933817D01*
X8265301Y-16933817D02*
X8236730Y-16933817D01*
X8236730Y-16933817D02*
X8217682Y-16924293D01*
X8217682Y-16924293D02*
X8208158Y-16905246D01*
X8208158Y-16905246D02*
X8208158Y-16895722D01*
X8208158Y-16895722D02*
X8217682Y-16876674D01*
X8217682Y-16876674D02*
X8236730Y-16867150D01*
X8236730Y-16867150D02*
X8265301Y-16867150D01*
X8265301Y-16867150D02*
X8284349Y-16876674D01*
X8360539Y-17076674D02*
X8370063Y-17067150D01*
X8370063Y-17067150D02*
X8389111Y-17038579D01*
X8389111Y-17038579D02*
X8398634Y-17019531D01*
X8398634Y-17019531D02*
X8408158Y-16990960D01*
X8408158Y-16990960D02*
X8417682Y-16943341D01*
X8417682Y-16943341D02*
X8417682Y-16905246D01*
X8417682Y-16905246D02*
X8408158Y-16857627D01*
X8408158Y-16857627D02*
X8398634Y-16829055D01*
X8398634Y-16829055D02*
X8389111Y-16810008D01*
X8389111Y-16810008D02*
X8370063Y-16781436D01*
X8370063Y-16781436D02*
X8360539Y-16771912D01*
D10*
X3355000Y-17133000D02*
X3355000Y-17213000D01*
X3315000Y-17173000D02*
X3395000Y-17173000D01*
D11*
X3693872Y-17064484D02*
X3712920Y-17064484D01*
X3712920Y-17064484D02*
X3731967Y-17074008D01*
X3731967Y-17074008D02*
X3741491Y-17083531D01*
X3741491Y-17083531D02*
X3751015Y-17102579D01*
X3751015Y-17102579D02*
X3760539Y-17140674D01*
X3760539Y-17140674D02*
X3760539Y-17188293D01*
X3760539Y-17188293D02*
X3751015Y-17226389D01*
X3751015Y-17226389D02*
X3741491Y-17245436D01*
X3741491Y-17245436D02*
X3731967Y-17254960D01*
X3731967Y-17254960D02*
X3712920Y-17264484D01*
X3712920Y-17264484D02*
X3693872Y-17264484D01*
X3693872Y-17264484D02*
X3674824Y-17254960D01*
X3674824Y-17254960D02*
X3665301Y-17245436D01*
X3665301Y-17245436D02*
X3655777Y-17226389D01*
X3655777Y-17226389D02*
X3646253Y-17188293D01*
X3646253Y-17188293D02*
X3646253Y-17140674D01*
X3646253Y-17140674D02*
X3655777Y-17102579D01*
X3655777Y-17102579D02*
X3665301Y-17083531D01*
X3665301Y-17083531D02*
X3674824Y-17074008D01*
X3674824Y-17074008D02*
X3693872Y-17064484D01*
X3846253Y-17245436D02*
X3855777Y-17254960D01*
X3855777Y-17254960D02*
X3846253Y-17264484D01*
X3846253Y-17264484D02*
X3836729Y-17254960D01*
X3836729Y-17254960D02*
X3846253Y-17245436D01*
X3846253Y-17245436D02*
X3846253Y-17264484D01*
X3970062Y-17150198D02*
X3951015Y-17140674D01*
X3951015Y-17140674D02*
X3941491Y-17131150D01*
X3941491Y-17131150D02*
X3931967Y-17112103D01*
X3931967Y-17112103D02*
X3931967Y-17102579D01*
X3931967Y-17102579D02*
X3941491Y-17083531D01*
X3941491Y-17083531D02*
X3951015Y-17074008D01*
X3951015Y-17074008D02*
X3970062Y-17064484D01*
X3970062Y-17064484D02*
X4008158Y-17064484D01*
X4008158Y-17064484D02*
X4027205Y-17074008D01*
X4027205Y-17074008D02*
X4036729Y-17083531D01*
X4036729Y-17083531D02*
X4046253Y-17102579D01*
X4046253Y-17102579D02*
X4046253Y-17112103D01*
X4046253Y-17112103D02*
X4036729Y-17131150D01*
X4036729Y-17131150D02*
X4027205Y-17140674D01*
X4027205Y-17140674D02*
X4008158Y-17150198D01*
X4008158Y-17150198D02*
X3970062Y-17150198D01*
X3970062Y-17150198D02*
X3951015Y-17159722D01*
X3951015Y-17159722D02*
X3941491Y-17169246D01*
X3941491Y-17169246D02*
X3931967Y-17188293D01*
X3931967Y-17188293D02*
X3931967Y-17226389D01*
X3931967Y-17226389D02*
X3941491Y-17245436D01*
X3941491Y-17245436D02*
X3951015Y-17254960D01*
X3951015Y-17254960D02*
X3970062Y-17264484D01*
X3970062Y-17264484D02*
X4008158Y-17264484D01*
X4008158Y-17264484D02*
X4027205Y-17254960D01*
X4027205Y-17254960D02*
X4036729Y-17245436D01*
X4036729Y-17245436D02*
X4046253Y-17226389D01*
X4046253Y-17226389D02*
X4046253Y-17188293D01*
X4046253Y-17188293D02*
X4036729Y-17169246D01*
X4036729Y-17169246D02*
X4027205Y-17159722D01*
X4027205Y-17159722D02*
X4008158Y-17150198D01*
X4170062Y-17064484D02*
X4189110Y-17064484D01*
X4189110Y-17064484D02*
X4208158Y-17074008D01*
X4208158Y-17074008D02*
X4217682Y-17083531D01*
X4217682Y-17083531D02*
X4227205Y-17102579D01*
X4227205Y-17102579D02*
X4236729Y-17140674D01*
X4236729Y-17140674D02*
X4236729Y-17188293D01*
X4236729Y-17188293D02*
X4227205Y-17226389D01*
X4227205Y-17226389D02*
X4217682Y-17245436D01*
X4217682Y-17245436D02*
X4208158Y-17254960D01*
X4208158Y-17254960D02*
X4189110Y-17264484D01*
X4189110Y-17264484D02*
X4170062Y-17264484D01*
X4170062Y-17264484D02*
X4151015Y-17254960D01*
X4151015Y-17254960D02*
X4141491Y-17245436D01*
X4141491Y-17245436D02*
X4131967Y-17226389D01*
X4131967Y-17226389D02*
X4122443Y-17188293D01*
X4122443Y-17188293D02*
X4122443Y-17140674D01*
X4122443Y-17140674D02*
X4131967Y-17102579D01*
X4131967Y-17102579D02*
X4141491Y-17083531D01*
X4141491Y-17083531D02*
X4151015Y-17074008D01*
X4151015Y-17074008D02*
X4170062Y-17064484D01*
X4360539Y-17064484D02*
X4379586Y-17064484D01*
X4379586Y-17064484D02*
X4398634Y-17074008D01*
X4398634Y-17074008D02*
X4408158Y-17083531D01*
X4408158Y-17083531D02*
X4417682Y-17102579D01*
X4417682Y-17102579D02*
X4427205Y-17140674D01*
X4427205Y-17140674D02*
X4427205Y-17188293D01*
X4427205Y-17188293D02*
X4417682Y-17226389D01*
X4417682Y-17226389D02*
X4408158Y-17245436D01*
X4408158Y-17245436D02*
X4398634Y-17254960D01*
X4398634Y-17254960D02*
X4379586Y-17264484D01*
X4379586Y-17264484D02*
X4360539Y-17264484D01*
X4360539Y-17264484D02*
X4341491Y-17254960D01*
X4341491Y-17254960D02*
X4331967Y-17245436D01*
X4331967Y-17245436D02*
X4322444Y-17226389D01*
X4322444Y-17226389D02*
X4312920Y-17188293D01*
X4312920Y-17188293D02*
X4312920Y-17140674D01*
X4312920Y-17140674D02*
X4322444Y-17102579D01*
X4322444Y-17102579D02*
X4331967Y-17083531D01*
X4331967Y-17083531D02*
X4341491Y-17074008D01*
X4341491Y-17074008D02*
X4360539Y-17064484D01*
X4512920Y-17264484D02*
X4512920Y-17131150D01*
X4512920Y-17150198D02*
X4522444Y-17140674D01*
X4522444Y-17140674D02*
X4541491Y-17131150D01*
X4541491Y-17131150D02*
X4570063Y-17131150D01*
X4570063Y-17131150D02*
X4589110Y-17140674D01*
X4589110Y-17140674D02*
X4598634Y-17159722D01*
X4598634Y-17159722D02*
X4598634Y-17264484D01*
X4598634Y-17159722D02*
X4608158Y-17140674D01*
X4608158Y-17140674D02*
X4627205Y-17131150D01*
X4627205Y-17131150D02*
X4655777Y-17131150D01*
X4655777Y-17131150D02*
X4674825Y-17140674D01*
X4674825Y-17140674D02*
X4684348Y-17159722D01*
X4684348Y-17159722D02*
X4684348Y-17264484D01*
X4779586Y-17264484D02*
X4779586Y-17131150D01*
X4779586Y-17150198D02*
X4789110Y-17140674D01*
X4789110Y-17140674D02*
X4808158Y-17131150D01*
X4808158Y-17131150D02*
X4836729Y-17131150D01*
X4836729Y-17131150D02*
X4855777Y-17140674D01*
X4855777Y-17140674D02*
X4865301Y-17159722D01*
X4865301Y-17159722D02*
X4865301Y-17264484D01*
X4865301Y-17159722D02*
X4874825Y-17140674D01*
X4874825Y-17140674D02*
X4893872Y-17131150D01*
X4893872Y-17131150D02*
X4922444Y-17131150D01*
X4922444Y-17131150D02*
X4941491Y-17140674D01*
X4941491Y-17140674D02*
X4951015Y-17159722D01*
X4951015Y-17159722D02*
X4951015Y-17264484D01*
X5341491Y-17054960D02*
X5170063Y-17312103D01*
X5598634Y-17064484D02*
X5617682Y-17064484D01*
X5617682Y-17064484D02*
X5636729Y-17074008D01*
X5636729Y-17074008D02*
X5646253Y-17083531D01*
X5646253Y-17083531D02*
X5655777Y-17102579D01*
X5655777Y-17102579D02*
X5665301Y-17140674D01*
X5665301Y-17140674D02*
X5665301Y-17188293D01*
X5665301Y-17188293D02*
X5655777Y-17226389D01*
X5655777Y-17226389D02*
X5646253Y-17245436D01*
X5646253Y-17245436D02*
X5636729Y-17254960D01*
X5636729Y-17254960D02*
X5617682Y-17264484D01*
X5617682Y-17264484D02*
X5598634Y-17264484D01*
X5598634Y-17264484D02*
X5579587Y-17254960D01*
X5579587Y-17254960D02*
X5570063Y-17245436D01*
X5570063Y-17245436D02*
X5560539Y-17226389D01*
X5560539Y-17226389D02*
X5551015Y-17188293D01*
X5551015Y-17188293D02*
X5551015Y-17140674D01*
X5551015Y-17140674D02*
X5560539Y-17102579D01*
X5560539Y-17102579D02*
X5570063Y-17083531D01*
X5570063Y-17083531D02*
X5579587Y-17074008D01*
X5579587Y-17074008D02*
X5598634Y-17064484D01*
X5751015Y-17245436D02*
X5760539Y-17254960D01*
X5760539Y-17254960D02*
X5751015Y-17264484D01*
X5751015Y-17264484D02*
X5741491Y-17254960D01*
X5741491Y-17254960D02*
X5751015Y-17245436D01*
X5751015Y-17245436D02*
X5751015Y-17264484D01*
X5884348Y-17064484D02*
X5903396Y-17064484D01*
X5903396Y-17064484D02*
X5922444Y-17074008D01*
X5922444Y-17074008D02*
X5931967Y-17083531D01*
X5931967Y-17083531D02*
X5941491Y-17102579D01*
X5941491Y-17102579D02*
X5951015Y-17140674D01*
X5951015Y-17140674D02*
X5951015Y-17188293D01*
X5951015Y-17188293D02*
X5941491Y-17226389D01*
X5941491Y-17226389D02*
X5931967Y-17245436D01*
X5931967Y-17245436D02*
X5922444Y-17254960D01*
X5922444Y-17254960D02*
X5903396Y-17264484D01*
X5903396Y-17264484D02*
X5884348Y-17264484D01*
X5884348Y-17264484D02*
X5865301Y-17254960D01*
X5865301Y-17254960D02*
X5855777Y-17245436D01*
X5855777Y-17245436D02*
X5846253Y-17226389D01*
X5846253Y-17226389D02*
X5836729Y-17188293D01*
X5836729Y-17188293D02*
X5836729Y-17140674D01*
X5836729Y-17140674D02*
X5846253Y-17102579D01*
X5846253Y-17102579D02*
X5855777Y-17083531D01*
X5855777Y-17083531D02*
X5865301Y-17074008D01*
X5865301Y-17074008D02*
X5884348Y-17064484D01*
X6017682Y-17064484D02*
X6141491Y-17064484D01*
X6141491Y-17064484D02*
X6074825Y-17140674D01*
X6074825Y-17140674D02*
X6103396Y-17140674D01*
X6103396Y-17140674D02*
X6122444Y-17150198D01*
X6122444Y-17150198D02*
X6131967Y-17159722D01*
X6131967Y-17159722D02*
X6141491Y-17178770D01*
X6141491Y-17178770D02*
X6141491Y-17226389D01*
X6141491Y-17226389D02*
X6131967Y-17245436D01*
X6131967Y-17245436D02*
X6122444Y-17254960D01*
X6122444Y-17254960D02*
X6103396Y-17264484D01*
X6103396Y-17264484D02*
X6046253Y-17264484D01*
X6046253Y-17264484D02*
X6027206Y-17254960D01*
X6027206Y-17254960D02*
X6017682Y-17245436D01*
X6331967Y-17264484D02*
X6217682Y-17264484D01*
X6274825Y-17264484D02*
X6274825Y-17064484D01*
X6274825Y-17064484D02*
X6255777Y-17093055D01*
X6255777Y-17093055D02*
X6236729Y-17112103D01*
X6236729Y-17112103D02*
X6217682Y-17121627D01*
X6512920Y-17064484D02*
X6417682Y-17064484D01*
X6417682Y-17064484D02*
X6408158Y-17159722D01*
X6408158Y-17159722D02*
X6417682Y-17150198D01*
X6417682Y-17150198D02*
X6436729Y-17140674D01*
X6436729Y-17140674D02*
X6484348Y-17140674D01*
X6484348Y-17140674D02*
X6503396Y-17150198D01*
X6503396Y-17150198D02*
X6512920Y-17159722D01*
X6512920Y-17159722D02*
X6522444Y-17178770D01*
X6522444Y-17178770D02*
X6522444Y-17226389D01*
X6522444Y-17226389D02*
X6512920Y-17245436D01*
X6512920Y-17245436D02*
X6503396Y-17254960D01*
X6503396Y-17254960D02*
X6484348Y-17264484D01*
X6484348Y-17264484D02*
X6436729Y-17264484D01*
X6436729Y-17264484D02*
X6417682Y-17254960D01*
X6417682Y-17254960D02*
X6408158Y-17245436D01*
X6598634Y-17064484D02*
X6598634Y-17102579D01*
X6674825Y-17064484D02*
X6674825Y-17102579D01*
X6970063Y-17340674D02*
X6960539Y-17331150D01*
X6960539Y-17331150D02*
X6941491Y-17302579D01*
X6941491Y-17302579D02*
X6931968Y-17283531D01*
X6931968Y-17283531D02*
X6922444Y-17254960D01*
X6922444Y-17254960D02*
X6912920Y-17207341D01*
X6912920Y-17207341D02*
X6912920Y-17169246D01*
X6912920Y-17169246D02*
X6922444Y-17121627D01*
X6922444Y-17121627D02*
X6931968Y-17093055D01*
X6931968Y-17093055D02*
X6941491Y-17074008D01*
X6941491Y-17074008D02*
X6960539Y-17045436D01*
X6960539Y-17045436D02*
X6970063Y-17035912D01*
X7036729Y-17083531D02*
X7046253Y-17074008D01*
X7046253Y-17074008D02*
X7065301Y-17064484D01*
X7065301Y-17064484D02*
X7112920Y-17064484D01*
X7112920Y-17064484D02*
X7131968Y-17074008D01*
X7131968Y-17074008D02*
X7141491Y-17083531D01*
X7141491Y-17083531D02*
X7151015Y-17102579D01*
X7151015Y-17102579D02*
X7151015Y-17121627D01*
X7151015Y-17121627D02*
X7141491Y-17150198D01*
X7141491Y-17150198D02*
X7027206Y-17264484D01*
X7027206Y-17264484D02*
X7151015Y-17264484D01*
X7322444Y-17131150D02*
X7322444Y-17264484D01*
X7274825Y-17054960D02*
X7227206Y-17197817D01*
X7227206Y-17197817D02*
X7351015Y-17197817D01*
X7408158Y-17064484D02*
X7531968Y-17064484D01*
X7531968Y-17064484D02*
X7465301Y-17140674D01*
X7465301Y-17140674D02*
X7493872Y-17140674D01*
X7493872Y-17140674D02*
X7512920Y-17150198D01*
X7512920Y-17150198D02*
X7522444Y-17159722D01*
X7522444Y-17159722D02*
X7531968Y-17178770D01*
X7531968Y-17178770D02*
X7531968Y-17226389D01*
X7531968Y-17226389D02*
X7522444Y-17245436D01*
X7522444Y-17245436D02*
X7512920Y-17254960D01*
X7512920Y-17254960D02*
X7493872Y-17264484D01*
X7493872Y-17264484D02*
X7436729Y-17264484D01*
X7436729Y-17264484D02*
X7417682Y-17254960D01*
X7417682Y-17254960D02*
X7408158Y-17245436D01*
X7770063Y-17264484D02*
X7770063Y-17064484D01*
X7855777Y-17264484D02*
X7855777Y-17159722D01*
X7855777Y-17159722D02*
X7846253Y-17140674D01*
X7846253Y-17140674D02*
X7827206Y-17131150D01*
X7827206Y-17131150D02*
X7798634Y-17131150D01*
X7798634Y-17131150D02*
X7779587Y-17140674D01*
X7779587Y-17140674D02*
X7770063Y-17150198D01*
X7979587Y-17264484D02*
X7960539Y-17254960D01*
X7960539Y-17254960D02*
X7951015Y-17245436D01*
X7951015Y-17245436D02*
X7941491Y-17226389D01*
X7941491Y-17226389D02*
X7941491Y-17169246D01*
X7941491Y-17169246D02*
X7951015Y-17150198D01*
X7951015Y-17150198D02*
X7960539Y-17140674D01*
X7960539Y-17140674D02*
X7979587Y-17131150D01*
X7979587Y-17131150D02*
X8008158Y-17131150D01*
X8008158Y-17131150D02*
X8027206Y-17140674D01*
X8027206Y-17140674D02*
X8036730Y-17150198D01*
X8036730Y-17150198D02*
X8046253Y-17169246D01*
X8046253Y-17169246D02*
X8046253Y-17226389D01*
X8046253Y-17226389D02*
X8036730Y-17245436D01*
X8036730Y-17245436D02*
X8027206Y-17254960D01*
X8027206Y-17254960D02*
X8008158Y-17264484D01*
X8008158Y-17264484D02*
X7979587Y-17264484D01*
X8160539Y-17264484D02*
X8141491Y-17254960D01*
X8141491Y-17254960D02*
X8131968Y-17235912D01*
X8131968Y-17235912D02*
X8131968Y-17064484D01*
X8312920Y-17254960D02*
X8293872Y-17264484D01*
X8293872Y-17264484D02*
X8255777Y-17264484D01*
X8255777Y-17264484D02*
X8236730Y-17254960D01*
X8236730Y-17254960D02*
X8227206Y-17235912D01*
X8227206Y-17235912D02*
X8227206Y-17159722D01*
X8227206Y-17159722D02*
X8236730Y-17140674D01*
X8236730Y-17140674D02*
X8255777Y-17131150D01*
X8255777Y-17131150D02*
X8293872Y-17131150D01*
X8293872Y-17131150D02*
X8312920Y-17140674D01*
X8312920Y-17140674D02*
X8322444Y-17159722D01*
X8322444Y-17159722D02*
X8322444Y-17178770D01*
X8322444Y-17178770D02*
X8227206Y-17197817D01*
X8398634Y-17254960D02*
X8417682Y-17264484D01*
X8417682Y-17264484D02*
X8455777Y-17264484D01*
X8455777Y-17264484D02*
X8474825Y-17254960D01*
X8474825Y-17254960D02*
X8484349Y-17235912D01*
X8484349Y-17235912D02*
X8484349Y-17226389D01*
X8484349Y-17226389D02*
X8474825Y-17207341D01*
X8474825Y-17207341D02*
X8455777Y-17197817D01*
X8455777Y-17197817D02*
X8427206Y-17197817D01*
X8427206Y-17197817D02*
X8408158Y-17188293D01*
X8408158Y-17188293D02*
X8398634Y-17169246D01*
X8398634Y-17169246D02*
X8398634Y-17159722D01*
X8398634Y-17159722D02*
X8408158Y-17140674D01*
X8408158Y-17140674D02*
X8427206Y-17131150D01*
X8427206Y-17131150D02*
X8455777Y-17131150D01*
X8455777Y-17131150D02*
X8474825Y-17140674D01*
X8551015Y-17340674D02*
X8560539Y-17331150D01*
X8560539Y-17331150D02*
X8579587Y-17302579D01*
X8579587Y-17302579D02*
X8589111Y-17283531D01*
X8589111Y-17283531D02*
X8598634Y-17254960D01*
X8598634Y-17254960D02*
X8608158Y-17207341D01*
X8608158Y-17207341D02*
X8608158Y-17169246D01*
X8608158Y-17169246D02*
X8598634Y-17121627D01*
X8598634Y-17121627D02*
X8589111Y-17093055D01*
X8589111Y-17093055D02*
X8579587Y-17074008D01*
X8579587Y-17074008D02*
X8560539Y-17045436D01*
X8560539Y-17045436D02*
X8551015Y-17035912D01*
D10*
X3381820Y-17468820D02*
X3381820Y-17405180D01*
X3318180Y-17405180D01*
X3318180Y-17468820D01*
X3381820Y-17468820D01*
D11*
X3693872Y-17328484D02*
X3712920Y-17328484D01*
X3712920Y-17328484D02*
X3731967Y-17338008D01*
X3731967Y-17338008D02*
X3741491Y-17347531D01*
X3741491Y-17347531D02*
X3751015Y-17366579D01*
X3751015Y-17366579D02*
X3760539Y-17404674D01*
X3760539Y-17404674D02*
X3760539Y-17452293D01*
X3760539Y-17452293D02*
X3751015Y-17490389D01*
X3751015Y-17490389D02*
X3741491Y-17509436D01*
X3741491Y-17509436D02*
X3731967Y-17518960D01*
X3731967Y-17518960D02*
X3712920Y-17528484D01*
X3712920Y-17528484D02*
X3693872Y-17528484D01*
X3693872Y-17528484D02*
X3674824Y-17518960D01*
X3674824Y-17518960D02*
X3665301Y-17509436D01*
X3665301Y-17509436D02*
X3655777Y-17490389D01*
X3655777Y-17490389D02*
X3646253Y-17452293D01*
X3646253Y-17452293D02*
X3646253Y-17404674D01*
X3646253Y-17404674D02*
X3655777Y-17366579D01*
X3655777Y-17366579D02*
X3665301Y-17347531D01*
X3665301Y-17347531D02*
X3674824Y-17338008D01*
X3674824Y-17338008D02*
X3693872Y-17328484D01*
X3846253Y-17509436D02*
X3855777Y-17518960D01*
X3855777Y-17518960D02*
X3846253Y-17528484D01*
X3846253Y-17528484D02*
X3836729Y-17518960D01*
X3836729Y-17518960D02*
X3846253Y-17509436D01*
X3846253Y-17509436D02*
X3846253Y-17528484D01*
X3951015Y-17528484D02*
X3989110Y-17528484D01*
X3989110Y-17528484D02*
X4008158Y-17518960D01*
X4008158Y-17518960D02*
X4017682Y-17509436D01*
X4017682Y-17509436D02*
X4036729Y-17480865D01*
X4036729Y-17480865D02*
X4046253Y-17442770D01*
X4046253Y-17442770D02*
X4046253Y-17366579D01*
X4046253Y-17366579D02*
X4036729Y-17347531D01*
X4036729Y-17347531D02*
X4027205Y-17338008D01*
X4027205Y-17338008D02*
X4008158Y-17328484D01*
X4008158Y-17328484D02*
X3970062Y-17328484D01*
X3970062Y-17328484D02*
X3951015Y-17338008D01*
X3951015Y-17338008D02*
X3941491Y-17347531D01*
X3941491Y-17347531D02*
X3931967Y-17366579D01*
X3931967Y-17366579D02*
X3931967Y-17414198D01*
X3931967Y-17414198D02*
X3941491Y-17433246D01*
X3941491Y-17433246D02*
X3951015Y-17442770D01*
X3951015Y-17442770D02*
X3970062Y-17452293D01*
X3970062Y-17452293D02*
X4008158Y-17452293D01*
X4008158Y-17452293D02*
X4027205Y-17442770D01*
X4027205Y-17442770D02*
X4036729Y-17433246D01*
X4036729Y-17433246D02*
X4046253Y-17414198D01*
X4170062Y-17328484D02*
X4189110Y-17328484D01*
X4189110Y-17328484D02*
X4208158Y-17338008D01*
X4208158Y-17338008D02*
X4217682Y-17347531D01*
X4217682Y-17347531D02*
X4227205Y-17366579D01*
X4227205Y-17366579D02*
X4236729Y-17404674D01*
X4236729Y-17404674D02*
X4236729Y-17452293D01*
X4236729Y-17452293D02*
X4227205Y-17490389D01*
X4227205Y-17490389D02*
X4217682Y-17509436D01*
X4217682Y-17509436D02*
X4208158Y-17518960D01*
X4208158Y-17518960D02*
X4189110Y-17528484D01*
X4189110Y-17528484D02*
X4170062Y-17528484D01*
X4170062Y-17528484D02*
X4151015Y-17518960D01*
X4151015Y-17518960D02*
X4141491Y-17509436D01*
X4141491Y-17509436D02*
X4131967Y-17490389D01*
X4131967Y-17490389D02*
X4122443Y-17452293D01*
X4122443Y-17452293D02*
X4122443Y-17404674D01*
X4122443Y-17404674D02*
X4131967Y-17366579D01*
X4131967Y-17366579D02*
X4141491Y-17347531D01*
X4141491Y-17347531D02*
X4151015Y-17338008D01*
X4151015Y-17338008D02*
X4170062Y-17328484D01*
X4360539Y-17328484D02*
X4379586Y-17328484D01*
X4379586Y-17328484D02*
X4398634Y-17338008D01*
X4398634Y-17338008D02*
X4408158Y-17347531D01*
X4408158Y-17347531D02*
X4417682Y-17366579D01*
X4417682Y-17366579D02*
X4427205Y-17404674D01*
X4427205Y-17404674D02*
X4427205Y-17452293D01*
X4427205Y-17452293D02*
X4417682Y-17490389D01*
X4417682Y-17490389D02*
X4408158Y-17509436D01*
X4408158Y-17509436D02*
X4398634Y-17518960D01*
X4398634Y-17518960D02*
X4379586Y-17528484D01*
X4379586Y-17528484D02*
X4360539Y-17528484D01*
X4360539Y-17528484D02*
X4341491Y-17518960D01*
X4341491Y-17518960D02*
X4331967Y-17509436D01*
X4331967Y-17509436D02*
X4322444Y-17490389D01*
X4322444Y-17490389D02*
X4312920Y-17452293D01*
X4312920Y-17452293D02*
X4312920Y-17404674D01*
X4312920Y-17404674D02*
X4322444Y-17366579D01*
X4322444Y-17366579D02*
X4331967Y-17347531D01*
X4331967Y-17347531D02*
X4341491Y-17338008D01*
X4341491Y-17338008D02*
X4360539Y-17328484D01*
X4512920Y-17528484D02*
X4512920Y-17395150D01*
X4512920Y-17414198D02*
X4522444Y-17404674D01*
X4522444Y-17404674D02*
X4541491Y-17395150D01*
X4541491Y-17395150D02*
X4570063Y-17395150D01*
X4570063Y-17395150D02*
X4589110Y-17404674D01*
X4589110Y-17404674D02*
X4598634Y-17423722D01*
X4598634Y-17423722D02*
X4598634Y-17528484D01*
X4598634Y-17423722D02*
X4608158Y-17404674D01*
X4608158Y-17404674D02*
X4627205Y-17395150D01*
X4627205Y-17395150D02*
X4655777Y-17395150D01*
X4655777Y-17395150D02*
X4674825Y-17404674D01*
X4674825Y-17404674D02*
X4684348Y-17423722D01*
X4684348Y-17423722D02*
X4684348Y-17528484D01*
X4779586Y-17528484D02*
X4779586Y-17395150D01*
X4779586Y-17414198D02*
X4789110Y-17404674D01*
X4789110Y-17404674D02*
X4808158Y-17395150D01*
X4808158Y-17395150D02*
X4836729Y-17395150D01*
X4836729Y-17395150D02*
X4855777Y-17404674D01*
X4855777Y-17404674D02*
X4865301Y-17423722D01*
X4865301Y-17423722D02*
X4865301Y-17528484D01*
X4865301Y-17423722D02*
X4874825Y-17404674D01*
X4874825Y-17404674D02*
X4893872Y-17395150D01*
X4893872Y-17395150D02*
X4922444Y-17395150D01*
X4922444Y-17395150D02*
X4941491Y-17404674D01*
X4941491Y-17404674D02*
X4951015Y-17423722D01*
X4951015Y-17423722D02*
X4951015Y-17528484D01*
X5341491Y-17318960D02*
X5170063Y-17576103D01*
X5598634Y-17328484D02*
X5617682Y-17328484D01*
X5617682Y-17328484D02*
X5636729Y-17338008D01*
X5636729Y-17338008D02*
X5646253Y-17347531D01*
X5646253Y-17347531D02*
X5655777Y-17366579D01*
X5655777Y-17366579D02*
X5665301Y-17404674D01*
X5665301Y-17404674D02*
X5665301Y-17452293D01*
X5665301Y-17452293D02*
X5655777Y-17490389D01*
X5655777Y-17490389D02*
X5646253Y-17509436D01*
X5646253Y-17509436D02*
X5636729Y-17518960D01*
X5636729Y-17518960D02*
X5617682Y-17528484D01*
X5617682Y-17528484D02*
X5598634Y-17528484D01*
X5598634Y-17528484D02*
X5579587Y-17518960D01*
X5579587Y-17518960D02*
X5570063Y-17509436D01*
X5570063Y-17509436D02*
X5560539Y-17490389D01*
X5560539Y-17490389D02*
X5551015Y-17452293D01*
X5551015Y-17452293D02*
X5551015Y-17404674D01*
X5551015Y-17404674D02*
X5560539Y-17366579D01*
X5560539Y-17366579D02*
X5570063Y-17347531D01*
X5570063Y-17347531D02*
X5579587Y-17338008D01*
X5579587Y-17338008D02*
X5598634Y-17328484D01*
X5751015Y-17509436D02*
X5760539Y-17518960D01*
X5760539Y-17518960D02*
X5751015Y-17528484D01*
X5751015Y-17528484D02*
X5741491Y-17518960D01*
X5741491Y-17518960D02*
X5751015Y-17509436D01*
X5751015Y-17509436D02*
X5751015Y-17528484D01*
X5884348Y-17328484D02*
X5903396Y-17328484D01*
X5903396Y-17328484D02*
X5922444Y-17338008D01*
X5922444Y-17338008D02*
X5931967Y-17347531D01*
X5931967Y-17347531D02*
X5941491Y-17366579D01*
X5941491Y-17366579D02*
X5951015Y-17404674D01*
X5951015Y-17404674D02*
X5951015Y-17452293D01*
X5951015Y-17452293D02*
X5941491Y-17490389D01*
X5941491Y-17490389D02*
X5931967Y-17509436D01*
X5931967Y-17509436D02*
X5922444Y-17518960D01*
X5922444Y-17518960D02*
X5903396Y-17528484D01*
X5903396Y-17528484D02*
X5884348Y-17528484D01*
X5884348Y-17528484D02*
X5865301Y-17518960D01*
X5865301Y-17518960D02*
X5855777Y-17509436D01*
X5855777Y-17509436D02*
X5846253Y-17490389D01*
X5846253Y-17490389D02*
X5836729Y-17452293D01*
X5836729Y-17452293D02*
X5836729Y-17404674D01*
X5836729Y-17404674D02*
X5846253Y-17366579D01*
X5846253Y-17366579D02*
X5855777Y-17347531D01*
X5855777Y-17347531D02*
X5865301Y-17338008D01*
X5865301Y-17338008D02*
X5884348Y-17328484D01*
X6017682Y-17328484D02*
X6141491Y-17328484D01*
X6141491Y-17328484D02*
X6074825Y-17404674D01*
X6074825Y-17404674D02*
X6103396Y-17404674D01*
X6103396Y-17404674D02*
X6122444Y-17414198D01*
X6122444Y-17414198D02*
X6131967Y-17423722D01*
X6131967Y-17423722D02*
X6141491Y-17442770D01*
X6141491Y-17442770D02*
X6141491Y-17490389D01*
X6141491Y-17490389D02*
X6131967Y-17509436D01*
X6131967Y-17509436D02*
X6122444Y-17518960D01*
X6122444Y-17518960D02*
X6103396Y-17528484D01*
X6103396Y-17528484D02*
X6046253Y-17528484D01*
X6046253Y-17528484D02*
X6027206Y-17518960D01*
X6027206Y-17518960D02*
X6017682Y-17509436D01*
X6322444Y-17328484D02*
X6227206Y-17328484D01*
X6227206Y-17328484D02*
X6217682Y-17423722D01*
X6217682Y-17423722D02*
X6227206Y-17414198D01*
X6227206Y-17414198D02*
X6246253Y-17404674D01*
X6246253Y-17404674D02*
X6293872Y-17404674D01*
X6293872Y-17404674D02*
X6312920Y-17414198D01*
X6312920Y-17414198D02*
X6322444Y-17423722D01*
X6322444Y-17423722D02*
X6331967Y-17442770D01*
X6331967Y-17442770D02*
X6331967Y-17490389D01*
X6331967Y-17490389D02*
X6322444Y-17509436D01*
X6322444Y-17509436D02*
X6312920Y-17518960D01*
X6312920Y-17518960D02*
X6293872Y-17528484D01*
X6293872Y-17528484D02*
X6246253Y-17528484D01*
X6246253Y-17528484D02*
X6227206Y-17518960D01*
X6227206Y-17518960D02*
X6217682Y-17509436D01*
X6503396Y-17395150D02*
X6503396Y-17528484D01*
X6455777Y-17318960D02*
X6408158Y-17461817D01*
X6408158Y-17461817D02*
X6531967Y-17461817D01*
X6598634Y-17328484D02*
X6598634Y-17366579D01*
X6674825Y-17328484D02*
X6674825Y-17366579D01*
X6970063Y-17604674D02*
X6960539Y-17595150D01*
X6960539Y-17595150D02*
X6941491Y-17566579D01*
X6941491Y-17566579D02*
X6931968Y-17547531D01*
X6931968Y-17547531D02*
X6922444Y-17518960D01*
X6922444Y-17518960D02*
X6912920Y-17471341D01*
X6912920Y-17471341D02*
X6912920Y-17433246D01*
X6912920Y-17433246D02*
X6922444Y-17385627D01*
X6922444Y-17385627D02*
X6931968Y-17357055D01*
X6931968Y-17357055D02*
X6941491Y-17338008D01*
X6941491Y-17338008D02*
X6960539Y-17309436D01*
X6960539Y-17309436D02*
X6970063Y-17299912D01*
X7036729Y-17347531D02*
X7046253Y-17338008D01*
X7046253Y-17338008D02*
X7065301Y-17328484D01*
X7065301Y-17328484D02*
X7112920Y-17328484D01*
X7112920Y-17328484D02*
X7131968Y-17338008D01*
X7131968Y-17338008D02*
X7141491Y-17347531D01*
X7141491Y-17347531D02*
X7151015Y-17366579D01*
X7151015Y-17366579D02*
X7151015Y-17385627D01*
X7151015Y-17385627D02*
X7141491Y-17414198D01*
X7141491Y-17414198D02*
X7027206Y-17528484D01*
X7027206Y-17528484D02*
X7151015Y-17528484D01*
X7389110Y-17528484D02*
X7389110Y-17328484D01*
X7474825Y-17528484D02*
X7474825Y-17423722D01*
X7474825Y-17423722D02*
X7465301Y-17404674D01*
X7465301Y-17404674D02*
X7446253Y-17395150D01*
X7446253Y-17395150D02*
X7417682Y-17395150D01*
X7417682Y-17395150D02*
X7398634Y-17404674D01*
X7398634Y-17404674D02*
X7389110Y-17414198D01*
X7598634Y-17528484D02*
X7579587Y-17518960D01*
X7579587Y-17518960D02*
X7570063Y-17509436D01*
X7570063Y-17509436D02*
X7560539Y-17490389D01*
X7560539Y-17490389D02*
X7560539Y-17433246D01*
X7560539Y-17433246D02*
X7570063Y-17414198D01*
X7570063Y-17414198D02*
X7579587Y-17404674D01*
X7579587Y-17404674D02*
X7598634Y-17395150D01*
X7598634Y-17395150D02*
X7627206Y-17395150D01*
X7627206Y-17395150D02*
X7646253Y-17404674D01*
X7646253Y-17404674D02*
X7655777Y-17414198D01*
X7655777Y-17414198D02*
X7665301Y-17433246D01*
X7665301Y-17433246D02*
X7665301Y-17490389D01*
X7665301Y-17490389D02*
X7655777Y-17509436D01*
X7655777Y-17509436D02*
X7646253Y-17518960D01*
X7646253Y-17518960D02*
X7627206Y-17528484D01*
X7627206Y-17528484D02*
X7598634Y-17528484D01*
X7779587Y-17528484D02*
X7760539Y-17518960D01*
X7760539Y-17518960D02*
X7751015Y-17499912D01*
X7751015Y-17499912D02*
X7751015Y-17328484D01*
X7931968Y-17518960D02*
X7912920Y-17528484D01*
X7912920Y-17528484D02*
X7874825Y-17528484D01*
X7874825Y-17528484D02*
X7855777Y-17518960D01*
X7855777Y-17518960D02*
X7846253Y-17499912D01*
X7846253Y-17499912D02*
X7846253Y-17423722D01*
X7846253Y-17423722D02*
X7855777Y-17404674D01*
X7855777Y-17404674D02*
X7874825Y-17395150D01*
X7874825Y-17395150D02*
X7912920Y-17395150D01*
X7912920Y-17395150D02*
X7931968Y-17404674D01*
X7931968Y-17404674D02*
X7941491Y-17423722D01*
X7941491Y-17423722D02*
X7941491Y-17442770D01*
X7941491Y-17442770D02*
X7846253Y-17461817D01*
X8017682Y-17518960D02*
X8036730Y-17528484D01*
X8036730Y-17528484D02*
X8074825Y-17528484D01*
X8074825Y-17528484D02*
X8093872Y-17518960D01*
X8093872Y-17518960D02*
X8103396Y-17499912D01*
X8103396Y-17499912D02*
X8103396Y-17490389D01*
X8103396Y-17490389D02*
X8093872Y-17471341D01*
X8093872Y-17471341D02*
X8074825Y-17461817D01*
X8074825Y-17461817D02*
X8046253Y-17461817D01*
X8046253Y-17461817D02*
X8027206Y-17452293D01*
X8027206Y-17452293D02*
X8017682Y-17433246D01*
X8017682Y-17433246D02*
X8017682Y-17423722D01*
X8017682Y-17423722D02*
X8027206Y-17404674D01*
X8027206Y-17404674D02*
X8046253Y-17395150D01*
X8046253Y-17395150D02*
X8074825Y-17395150D01*
X8074825Y-17395150D02*
X8093872Y-17404674D01*
X8170063Y-17604674D02*
X8179587Y-17595150D01*
X8179587Y-17595150D02*
X8198634Y-17566579D01*
X8198634Y-17566579D02*
X8208158Y-17547531D01*
X8208158Y-17547531D02*
X8217682Y-17518960D01*
X8217682Y-17518960D02*
X8227206Y-17471341D01*
X8227206Y-17471341D02*
X8227206Y-17433246D01*
X8227206Y-17433246D02*
X8217682Y-17385627D01*
X8217682Y-17385627D02*
X8208158Y-17357055D01*
X8208158Y-17357055D02*
X8198634Y-17338008D01*
X8198634Y-17338008D02*
X8179587Y-17309436D01*
X8179587Y-17309436D02*
X8170063Y-17299912D01*
D10*
X3345000Y-17751000D02*
X3395000Y-17701000D01*
X3345000Y-17651000D01*
X3295000Y-17701000D01*
X3345000Y-17751000D01*
D11*
X3760539Y-17792484D02*
X3646253Y-17792484D01*
X3703396Y-17792484D02*
X3703396Y-17592484D01*
X3703396Y-17592484D02*
X3684348Y-17621055D01*
X3684348Y-17621055D02*
X3665301Y-17640103D01*
X3665301Y-17640103D02*
X3646253Y-17649627D01*
X3846253Y-17773436D02*
X3855777Y-17782960D01*
X3855777Y-17782960D02*
X3846253Y-17792484D01*
X3846253Y-17792484D02*
X3836729Y-17782960D01*
X3836729Y-17782960D02*
X3846253Y-17773436D01*
X3846253Y-17773436D02*
X3846253Y-17792484D01*
X3979586Y-17592484D02*
X3998634Y-17592484D01*
X3998634Y-17592484D02*
X4017682Y-17602008D01*
X4017682Y-17602008D02*
X4027205Y-17611531D01*
X4027205Y-17611531D02*
X4036729Y-17630579D01*
X4036729Y-17630579D02*
X4046253Y-17668674D01*
X4046253Y-17668674D02*
X4046253Y-17716293D01*
X4046253Y-17716293D02*
X4036729Y-17754389D01*
X4036729Y-17754389D02*
X4027205Y-17773436D01*
X4027205Y-17773436D02*
X4017682Y-17782960D01*
X4017682Y-17782960D02*
X3998634Y-17792484D01*
X3998634Y-17792484D02*
X3979586Y-17792484D01*
X3979586Y-17792484D02*
X3960539Y-17782960D01*
X3960539Y-17782960D02*
X3951015Y-17773436D01*
X3951015Y-17773436D02*
X3941491Y-17754389D01*
X3941491Y-17754389D02*
X3931967Y-17716293D01*
X3931967Y-17716293D02*
X3931967Y-17668674D01*
X3931967Y-17668674D02*
X3941491Y-17630579D01*
X3941491Y-17630579D02*
X3951015Y-17611531D01*
X3951015Y-17611531D02*
X3960539Y-17602008D01*
X3960539Y-17602008D02*
X3979586Y-17592484D01*
X4170062Y-17592484D02*
X4189110Y-17592484D01*
X4189110Y-17592484D02*
X4208158Y-17602008D01*
X4208158Y-17602008D02*
X4217682Y-17611531D01*
X4217682Y-17611531D02*
X4227205Y-17630579D01*
X4227205Y-17630579D02*
X4236729Y-17668674D01*
X4236729Y-17668674D02*
X4236729Y-17716293D01*
X4236729Y-17716293D02*
X4227205Y-17754389D01*
X4227205Y-17754389D02*
X4217682Y-17773436D01*
X4217682Y-17773436D02*
X4208158Y-17782960D01*
X4208158Y-17782960D02*
X4189110Y-17792484D01*
X4189110Y-17792484D02*
X4170062Y-17792484D01*
X4170062Y-17792484D02*
X4151015Y-17782960D01*
X4151015Y-17782960D02*
X4141491Y-17773436D01*
X4141491Y-17773436D02*
X4131967Y-17754389D01*
X4131967Y-17754389D02*
X4122443Y-17716293D01*
X4122443Y-17716293D02*
X4122443Y-17668674D01*
X4122443Y-17668674D02*
X4131967Y-17630579D01*
X4131967Y-17630579D02*
X4141491Y-17611531D01*
X4141491Y-17611531D02*
X4151015Y-17602008D01*
X4151015Y-17602008D02*
X4170062Y-17592484D01*
X4360539Y-17592484D02*
X4379586Y-17592484D01*
X4379586Y-17592484D02*
X4398634Y-17602008D01*
X4398634Y-17602008D02*
X4408158Y-17611531D01*
X4408158Y-17611531D02*
X4417682Y-17630579D01*
X4417682Y-17630579D02*
X4427205Y-17668674D01*
X4427205Y-17668674D02*
X4427205Y-17716293D01*
X4427205Y-17716293D02*
X4417682Y-17754389D01*
X4417682Y-17754389D02*
X4408158Y-17773436D01*
X4408158Y-17773436D02*
X4398634Y-17782960D01*
X4398634Y-17782960D02*
X4379586Y-17792484D01*
X4379586Y-17792484D02*
X4360539Y-17792484D01*
X4360539Y-17792484D02*
X4341491Y-17782960D01*
X4341491Y-17782960D02*
X4331967Y-17773436D01*
X4331967Y-17773436D02*
X4322444Y-17754389D01*
X4322444Y-17754389D02*
X4312920Y-17716293D01*
X4312920Y-17716293D02*
X4312920Y-17668674D01*
X4312920Y-17668674D02*
X4322444Y-17630579D01*
X4322444Y-17630579D02*
X4331967Y-17611531D01*
X4331967Y-17611531D02*
X4341491Y-17602008D01*
X4341491Y-17602008D02*
X4360539Y-17592484D01*
X4512920Y-17792484D02*
X4512920Y-17659150D01*
X4512920Y-17678198D02*
X4522444Y-17668674D01*
X4522444Y-17668674D02*
X4541491Y-17659150D01*
X4541491Y-17659150D02*
X4570063Y-17659150D01*
X4570063Y-17659150D02*
X4589110Y-17668674D01*
X4589110Y-17668674D02*
X4598634Y-17687722D01*
X4598634Y-17687722D02*
X4598634Y-17792484D01*
X4598634Y-17687722D02*
X4608158Y-17668674D01*
X4608158Y-17668674D02*
X4627205Y-17659150D01*
X4627205Y-17659150D02*
X4655777Y-17659150D01*
X4655777Y-17659150D02*
X4674825Y-17668674D01*
X4674825Y-17668674D02*
X4684348Y-17687722D01*
X4684348Y-17687722D02*
X4684348Y-17792484D01*
X4779586Y-17792484D02*
X4779586Y-17659150D01*
X4779586Y-17678198D02*
X4789110Y-17668674D01*
X4789110Y-17668674D02*
X4808158Y-17659150D01*
X4808158Y-17659150D02*
X4836729Y-17659150D01*
X4836729Y-17659150D02*
X4855777Y-17668674D01*
X4855777Y-17668674D02*
X4865301Y-17687722D01*
X4865301Y-17687722D02*
X4865301Y-17792484D01*
X4865301Y-17687722D02*
X4874825Y-17668674D01*
X4874825Y-17668674D02*
X4893872Y-17659150D01*
X4893872Y-17659150D02*
X4922444Y-17659150D01*
X4922444Y-17659150D02*
X4941491Y-17668674D01*
X4941491Y-17668674D02*
X4951015Y-17687722D01*
X4951015Y-17687722D02*
X4951015Y-17792484D01*
X5341491Y-17582960D02*
X5170063Y-17840103D01*
X5598634Y-17592484D02*
X5617682Y-17592484D01*
X5617682Y-17592484D02*
X5636729Y-17602008D01*
X5636729Y-17602008D02*
X5646253Y-17611531D01*
X5646253Y-17611531D02*
X5655777Y-17630579D01*
X5655777Y-17630579D02*
X5665301Y-17668674D01*
X5665301Y-17668674D02*
X5665301Y-17716293D01*
X5665301Y-17716293D02*
X5655777Y-17754389D01*
X5655777Y-17754389D02*
X5646253Y-17773436D01*
X5646253Y-17773436D02*
X5636729Y-17782960D01*
X5636729Y-17782960D02*
X5617682Y-17792484D01*
X5617682Y-17792484D02*
X5598634Y-17792484D01*
X5598634Y-17792484D02*
X5579587Y-17782960D01*
X5579587Y-17782960D02*
X5570063Y-17773436D01*
X5570063Y-17773436D02*
X5560539Y-17754389D01*
X5560539Y-17754389D02*
X5551015Y-17716293D01*
X5551015Y-17716293D02*
X5551015Y-17668674D01*
X5551015Y-17668674D02*
X5560539Y-17630579D01*
X5560539Y-17630579D02*
X5570063Y-17611531D01*
X5570063Y-17611531D02*
X5579587Y-17602008D01*
X5579587Y-17602008D02*
X5598634Y-17592484D01*
X5751015Y-17773436D02*
X5760539Y-17782960D01*
X5760539Y-17782960D02*
X5751015Y-17792484D01*
X5751015Y-17792484D02*
X5741491Y-17782960D01*
X5741491Y-17782960D02*
X5751015Y-17773436D01*
X5751015Y-17773436D02*
X5751015Y-17792484D01*
X5884348Y-17592484D02*
X5903396Y-17592484D01*
X5903396Y-17592484D02*
X5922444Y-17602008D01*
X5922444Y-17602008D02*
X5931967Y-17611531D01*
X5931967Y-17611531D02*
X5941491Y-17630579D01*
X5941491Y-17630579D02*
X5951015Y-17668674D01*
X5951015Y-17668674D02*
X5951015Y-17716293D01*
X5951015Y-17716293D02*
X5941491Y-17754389D01*
X5941491Y-17754389D02*
X5931967Y-17773436D01*
X5931967Y-17773436D02*
X5922444Y-17782960D01*
X5922444Y-17782960D02*
X5903396Y-17792484D01*
X5903396Y-17792484D02*
X5884348Y-17792484D01*
X5884348Y-17792484D02*
X5865301Y-17782960D01*
X5865301Y-17782960D02*
X5855777Y-17773436D01*
X5855777Y-17773436D02*
X5846253Y-17754389D01*
X5846253Y-17754389D02*
X5836729Y-17716293D01*
X5836729Y-17716293D02*
X5836729Y-17668674D01*
X5836729Y-17668674D02*
X5846253Y-17630579D01*
X5846253Y-17630579D02*
X5855777Y-17611531D01*
X5855777Y-17611531D02*
X5865301Y-17602008D01*
X5865301Y-17602008D02*
X5884348Y-17592484D01*
X6017682Y-17592484D02*
X6141491Y-17592484D01*
X6141491Y-17592484D02*
X6074825Y-17668674D01*
X6074825Y-17668674D02*
X6103396Y-17668674D01*
X6103396Y-17668674D02*
X6122444Y-17678198D01*
X6122444Y-17678198D02*
X6131967Y-17687722D01*
X6131967Y-17687722D02*
X6141491Y-17706770D01*
X6141491Y-17706770D02*
X6141491Y-17754389D01*
X6141491Y-17754389D02*
X6131967Y-17773436D01*
X6131967Y-17773436D02*
X6122444Y-17782960D01*
X6122444Y-17782960D02*
X6103396Y-17792484D01*
X6103396Y-17792484D02*
X6046253Y-17792484D01*
X6046253Y-17792484D02*
X6027206Y-17782960D01*
X6027206Y-17782960D02*
X6017682Y-17773436D01*
X6236729Y-17792484D02*
X6274825Y-17792484D01*
X6274825Y-17792484D02*
X6293872Y-17782960D01*
X6293872Y-17782960D02*
X6303396Y-17773436D01*
X6303396Y-17773436D02*
X6322444Y-17744865D01*
X6322444Y-17744865D02*
X6331967Y-17706770D01*
X6331967Y-17706770D02*
X6331967Y-17630579D01*
X6331967Y-17630579D02*
X6322444Y-17611531D01*
X6322444Y-17611531D02*
X6312920Y-17602008D01*
X6312920Y-17602008D02*
X6293872Y-17592484D01*
X6293872Y-17592484D02*
X6255777Y-17592484D01*
X6255777Y-17592484D02*
X6236729Y-17602008D01*
X6236729Y-17602008D02*
X6227206Y-17611531D01*
X6227206Y-17611531D02*
X6217682Y-17630579D01*
X6217682Y-17630579D02*
X6217682Y-17678198D01*
X6217682Y-17678198D02*
X6227206Y-17697246D01*
X6227206Y-17697246D02*
X6236729Y-17706770D01*
X6236729Y-17706770D02*
X6255777Y-17716293D01*
X6255777Y-17716293D02*
X6293872Y-17716293D01*
X6293872Y-17716293D02*
X6312920Y-17706770D01*
X6312920Y-17706770D02*
X6322444Y-17697246D01*
X6322444Y-17697246D02*
X6331967Y-17678198D01*
X6503396Y-17659150D02*
X6503396Y-17792484D01*
X6455777Y-17582960D02*
X6408158Y-17725817D01*
X6408158Y-17725817D02*
X6531967Y-17725817D01*
X6598634Y-17592484D02*
X6598634Y-17630579D01*
X6674825Y-17592484D02*
X6674825Y-17630579D01*
X6970063Y-17868674D02*
X6960539Y-17859150D01*
X6960539Y-17859150D02*
X6941491Y-17830579D01*
X6941491Y-17830579D02*
X6931968Y-17811531D01*
X6931968Y-17811531D02*
X6922444Y-17782960D01*
X6922444Y-17782960D02*
X6912920Y-17735341D01*
X6912920Y-17735341D02*
X6912920Y-17697246D01*
X6912920Y-17697246D02*
X6922444Y-17649627D01*
X6922444Y-17649627D02*
X6931968Y-17621055D01*
X6931968Y-17621055D02*
X6941491Y-17602008D01*
X6941491Y-17602008D02*
X6960539Y-17573436D01*
X6960539Y-17573436D02*
X6970063Y-17563912D01*
X7027206Y-17592484D02*
X7151015Y-17592484D01*
X7151015Y-17592484D02*
X7084348Y-17668674D01*
X7084348Y-17668674D02*
X7112920Y-17668674D01*
X7112920Y-17668674D02*
X7131968Y-17678198D01*
X7131968Y-17678198D02*
X7141491Y-17687722D01*
X7141491Y-17687722D02*
X7151015Y-17706770D01*
X7151015Y-17706770D02*
X7151015Y-17754389D01*
X7151015Y-17754389D02*
X7141491Y-17773436D01*
X7141491Y-17773436D02*
X7131968Y-17782960D01*
X7131968Y-17782960D02*
X7112920Y-17792484D01*
X7112920Y-17792484D02*
X7055777Y-17792484D01*
X7055777Y-17792484D02*
X7036729Y-17782960D01*
X7036729Y-17782960D02*
X7027206Y-17773436D01*
X7389110Y-17792484D02*
X7389110Y-17592484D01*
X7474825Y-17792484D02*
X7474825Y-17687722D01*
X7474825Y-17687722D02*
X7465301Y-17668674D01*
X7465301Y-17668674D02*
X7446253Y-17659150D01*
X7446253Y-17659150D02*
X7417682Y-17659150D01*
X7417682Y-17659150D02*
X7398634Y-17668674D01*
X7398634Y-17668674D02*
X7389110Y-17678198D01*
X7598634Y-17792484D02*
X7579587Y-17782960D01*
X7579587Y-17782960D02*
X7570063Y-17773436D01*
X7570063Y-17773436D02*
X7560539Y-17754389D01*
X7560539Y-17754389D02*
X7560539Y-17697246D01*
X7560539Y-17697246D02*
X7570063Y-17678198D01*
X7570063Y-17678198D02*
X7579587Y-17668674D01*
X7579587Y-17668674D02*
X7598634Y-17659150D01*
X7598634Y-17659150D02*
X7627206Y-17659150D01*
X7627206Y-17659150D02*
X7646253Y-17668674D01*
X7646253Y-17668674D02*
X7655777Y-17678198D01*
X7655777Y-17678198D02*
X7665301Y-17697246D01*
X7665301Y-17697246D02*
X7665301Y-17754389D01*
X7665301Y-17754389D02*
X7655777Y-17773436D01*
X7655777Y-17773436D02*
X7646253Y-17782960D01*
X7646253Y-17782960D02*
X7627206Y-17792484D01*
X7627206Y-17792484D02*
X7598634Y-17792484D01*
X7779587Y-17792484D02*
X7760539Y-17782960D01*
X7760539Y-17782960D02*
X7751015Y-17763912D01*
X7751015Y-17763912D02*
X7751015Y-17592484D01*
X7931968Y-17782960D02*
X7912920Y-17792484D01*
X7912920Y-17792484D02*
X7874825Y-17792484D01*
X7874825Y-17792484D02*
X7855777Y-17782960D01*
X7855777Y-17782960D02*
X7846253Y-17763912D01*
X7846253Y-17763912D02*
X7846253Y-17687722D01*
X7846253Y-17687722D02*
X7855777Y-17668674D01*
X7855777Y-17668674D02*
X7874825Y-17659150D01*
X7874825Y-17659150D02*
X7912920Y-17659150D01*
X7912920Y-17659150D02*
X7931968Y-17668674D01*
X7931968Y-17668674D02*
X7941491Y-17687722D01*
X7941491Y-17687722D02*
X7941491Y-17706770D01*
X7941491Y-17706770D02*
X7846253Y-17725817D01*
X8017682Y-17782960D02*
X8036730Y-17792484D01*
X8036730Y-17792484D02*
X8074825Y-17792484D01*
X8074825Y-17792484D02*
X8093872Y-17782960D01*
X8093872Y-17782960D02*
X8103396Y-17763912D01*
X8103396Y-17763912D02*
X8103396Y-17754389D01*
X8103396Y-17754389D02*
X8093872Y-17735341D01*
X8093872Y-17735341D02*
X8074825Y-17725817D01*
X8074825Y-17725817D02*
X8046253Y-17725817D01*
X8046253Y-17725817D02*
X8027206Y-17716293D01*
X8027206Y-17716293D02*
X8017682Y-17697246D01*
X8017682Y-17697246D02*
X8017682Y-17687722D01*
X8017682Y-17687722D02*
X8027206Y-17668674D01*
X8027206Y-17668674D02*
X8046253Y-17659150D01*
X8046253Y-17659150D02*
X8074825Y-17659150D01*
X8074825Y-17659150D02*
X8093872Y-17668674D01*
X8170063Y-17868674D02*
X8179587Y-17859150D01*
X8179587Y-17859150D02*
X8198634Y-17830579D01*
X8198634Y-17830579D02*
X8208158Y-17811531D01*
X8208158Y-17811531D02*
X8217682Y-17782960D01*
X8217682Y-17782960D02*
X8227206Y-17735341D01*
X8227206Y-17735341D02*
X8227206Y-17697246D01*
X8227206Y-17697246D02*
X8217682Y-17649627D01*
X8217682Y-17649627D02*
X8208158Y-17621055D01*
X8208158Y-17621055D02*
X8198634Y-17602008D01*
X8198634Y-17602008D02*
X8179587Y-17573436D01*
X8179587Y-17573436D02*
X8170063Y-17563912D01*
D10*
X3295000Y-17915000D02*
X3395000Y-18015000D01*
X3395000Y-17915000D02*
X3295000Y-18015000D01*
X3395000Y-17965000D02*
G75*
G02*
X3295000Y-17965000I-50000J0D01*
G01*
X3295000Y-17965000D02*
G75*
G02*
X3395000Y-17965000I50000J0D01*
G01*
D11*
X3760539Y-18056484D02*
X3646253Y-18056484D01*
X3703396Y-18056484D02*
X3703396Y-17856484D01*
X3703396Y-17856484D02*
X3684348Y-17885055D01*
X3684348Y-17885055D02*
X3665301Y-17904103D01*
X3665301Y-17904103D02*
X3646253Y-17913627D01*
X3846253Y-18037436D02*
X3855777Y-18046960D01*
X3855777Y-18046960D02*
X3846253Y-18056484D01*
X3846253Y-18056484D02*
X3836729Y-18046960D01*
X3836729Y-18046960D02*
X3846253Y-18037436D01*
X3846253Y-18037436D02*
X3846253Y-18056484D01*
X3979586Y-17856484D02*
X3998634Y-17856484D01*
X3998634Y-17856484D02*
X4017682Y-17866008D01*
X4017682Y-17866008D02*
X4027205Y-17875531D01*
X4027205Y-17875531D02*
X4036729Y-17894579D01*
X4036729Y-17894579D02*
X4046253Y-17932674D01*
X4046253Y-17932674D02*
X4046253Y-17980293D01*
X4046253Y-17980293D02*
X4036729Y-18018389D01*
X4036729Y-18018389D02*
X4027205Y-18037436D01*
X4027205Y-18037436D02*
X4017682Y-18046960D01*
X4017682Y-18046960D02*
X3998634Y-18056484D01*
X3998634Y-18056484D02*
X3979586Y-18056484D01*
X3979586Y-18056484D02*
X3960539Y-18046960D01*
X3960539Y-18046960D02*
X3951015Y-18037436D01*
X3951015Y-18037436D02*
X3941491Y-18018389D01*
X3941491Y-18018389D02*
X3931967Y-17980293D01*
X3931967Y-17980293D02*
X3931967Y-17932674D01*
X3931967Y-17932674D02*
X3941491Y-17894579D01*
X3941491Y-17894579D02*
X3951015Y-17875531D01*
X3951015Y-17875531D02*
X3960539Y-17866008D01*
X3960539Y-17866008D02*
X3979586Y-17856484D01*
X4170062Y-17856484D02*
X4189110Y-17856484D01*
X4189110Y-17856484D02*
X4208158Y-17866008D01*
X4208158Y-17866008D02*
X4217682Y-17875531D01*
X4217682Y-17875531D02*
X4227205Y-17894579D01*
X4227205Y-17894579D02*
X4236729Y-17932674D01*
X4236729Y-17932674D02*
X4236729Y-17980293D01*
X4236729Y-17980293D02*
X4227205Y-18018389D01*
X4227205Y-18018389D02*
X4217682Y-18037436D01*
X4217682Y-18037436D02*
X4208158Y-18046960D01*
X4208158Y-18046960D02*
X4189110Y-18056484D01*
X4189110Y-18056484D02*
X4170062Y-18056484D01*
X4170062Y-18056484D02*
X4151015Y-18046960D01*
X4151015Y-18046960D02*
X4141491Y-18037436D01*
X4141491Y-18037436D02*
X4131967Y-18018389D01*
X4131967Y-18018389D02*
X4122443Y-17980293D01*
X4122443Y-17980293D02*
X4122443Y-17932674D01*
X4122443Y-17932674D02*
X4131967Y-17894579D01*
X4131967Y-17894579D02*
X4141491Y-17875531D01*
X4141491Y-17875531D02*
X4151015Y-17866008D01*
X4151015Y-17866008D02*
X4170062Y-17856484D01*
X4360539Y-17856484D02*
X4379586Y-17856484D01*
X4379586Y-17856484D02*
X4398634Y-17866008D01*
X4398634Y-17866008D02*
X4408158Y-17875531D01*
X4408158Y-17875531D02*
X4417682Y-17894579D01*
X4417682Y-17894579D02*
X4427205Y-17932674D01*
X4427205Y-17932674D02*
X4427205Y-17980293D01*
X4427205Y-17980293D02*
X4417682Y-18018389D01*
X4417682Y-18018389D02*
X4408158Y-18037436D01*
X4408158Y-18037436D02*
X4398634Y-18046960D01*
X4398634Y-18046960D02*
X4379586Y-18056484D01*
X4379586Y-18056484D02*
X4360539Y-18056484D01*
X4360539Y-18056484D02*
X4341491Y-18046960D01*
X4341491Y-18046960D02*
X4331967Y-18037436D01*
X4331967Y-18037436D02*
X4322444Y-18018389D01*
X4322444Y-18018389D02*
X4312920Y-17980293D01*
X4312920Y-17980293D02*
X4312920Y-17932674D01*
X4312920Y-17932674D02*
X4322444Y-17894579D01*
X4322444Y-17894579D02*
X4331967Y-17875531D01*
X4331967Y-17875531D02*
X4341491Y-17866008D01*
X4341491Y-17866008D02*
X4360539Y-17856484D01*
X4512920Y-18056484D02*
X4512920Y-17923150D01*
X4512920Y-17942198D02*
X4522444Y-17932674D01*
X4522444Y-17932674D02*
X4541491Y-17923150D01*
X4541491Y-17923150D02*
X4570063Y-17923150D01*
X4570063Y-17923150D02*
X4589110Y-17932674D01*
X4589110Y-17932674D02*
X4598634Y-17951722D01*
X4598634Y-17951722D02*
X4598634Y-18056484D01*
X4598634Y-17951722D02*
X4608158Y-17932674D01*
X4608158Y-17932674D02*
X4627205Y-17923150D01*
X4627205Y-17923150D02*
X4655777Y-17923150D01*
X4655777Y-17923150D02*
X4674825Y-17932674D01*
X4674825Y-17932674D02*
X4684348Y-17951722D01*
X4684348Y-17951722D02*
X4684348Y-18056484D01*
X4779586Y-18056484D02*
X4779586Y-17923150D01*
X4779586Y-17942198D02*
X4789110Y-17932674D01*
X4789110Y-17932674D02*
X4808158Y-17923150D01*
X4808158Y-17923150D02*
X4836729Y-17923150D01*
X4836729Y-17923150D02*
X4855777Y-17932674D01*
X4855777Y-17932674D02*
X4865301Y-17951722D01*
X4865301Y-17951722D02*
X4865301Y-18056484D01*
X4865301Y-17951722D02*
X4874825Y-17932674D01*
X4874825Y-17932674D02*
X4893872Y-17923150D01*
X4893872Y-17923150D02*
X4922444Y-17923150D01*
X4922444Y-17923150D02*
X4941491Y-17932674D01*
X4941491Y-17932674D02*
X4951015Y-17951722D01*
X4951015Y-17951722D02*
X4951015Y-18056484D01*
X5341491Y-17846960D02*
X5170063Y-18104103D01*
X5598634Y-17856484D02*
X5617682Y-17856484D01*
X5617682Y-17856484D02*
X5636729Y-17866008D01*
X5636729Y-17866008D02*
X5646253Y-17875531D01*
X5646253Y-17875531D02*
X5655777Y-17894579D01*
X5655777Y-17894579D02*
X5665301Y-17932674D01*
X5665301Y-17932674D02*
X5665301Y-17980293D01*
X5665301Y-17980293D02*
X5655777Y-18018389D01*
X5655777Y-18018389D02*
X5646253Y-18037436D01*
X5646253Y-18037436D02*
X5636729Y-18046960D01*
X5636729Y-18046960D02*
X5617682Y-18056484D01*
X5617682Y-18056484D02*
X5598634Y-18056484D01*
X5598634Y-18056484D02*
X5579587Y-18046960D01*
X5579587Y-18046960D02*
X5570063Y-18037436D01*
X5570063Y-18037436D02*
X5560539Y-18018389D01*
X5560539Y-18018389D02*
X5551015Y-17980293D01*
X5551015Y-17980293D02*
X5551015Y-17932674D01*
X5551015Y-17932674D02*
X5560539Y-17894579D01*
X5560539Y-17894579D02*
X5570063Y-17875531D01*
X5570063Y-17875531D02*
X5579587Y-17866008D01*
X5579587Y-17866008D02*
X5598634Y-17856484D01*
X5751015Y-18037436D02*
X5760539Y-18046960D01*
X5760539Y-18046960D02*
X5751015Y-18056484D01*
X5751015Y-18056484D02*
X5741491Y-18046960D01*
X5741491Y-18046960D02*
X5751015Y-18037436D01*
X5751015Y-18037436D02*
X5751015Y-18056484D01*
X5884348Y-17856484D02*
X5903396Y-17856484D01*
X5903396Y-17856484D02*
X5922444Y-17866008D01*
X5922444Y-17866008D02*
X5931967Y-17875531D01*
X5931967Y-17875531D02*
X5941491Y-17894579D01*
X5941491Y-17894579D02*
X5951015Y-17932674D01*
X5951015Y-17932674D02*
X5951015Y-17980293D01*
X5951015Y-17980293D02*
X5941491Y-18018389D01*
X5941491Y-18018389D02*
X5931967Y-18037436D01*
X5931967Y-18037436D02*
X5922444Y-18046960D01*
X5922444Y-18046960D02*
X5903396Y-18056484D01*
X5903396Y-18056484D02*
X5884348Y-18056484D01*
X5884348Y-18056484D02*
X5865301Y-18046960D01*
X5865301Y-18046960D02*
X5855777Y-18037436D01*
X5855777Y-18037436D02*
X5846253Y-18018389D01*
X5846253Y-18018389D02*
X5836729Y-17980293D01*
X5836729Y-17980293D02*
X5836729Y-17932674D01*
X5836729Y-17932674D02*
X5846253Y-17894579D01*
X5846253Y-17894579D02*
X5855777Y-17875531D01*
X5855777Y-17875531D02*
X5865301Y-17866008D01*
X5865301Y-17866008D02*
X5884348Y-17856484D01*
X6017682Y-17856484D02*
X6141491Y-17856484D01*
X6141491Y-17856484D02*
X6074825Y-17932674D01*
X6074825Y-17932674D02*
X6103396Y-17932674D01*
X6103396Y-17932674D02*
X6122444Y-17942198D01*
X6122444Y-17942198D02*
X6131967Y-17951722D01*
X6131967Y-17951722D02*
X6141491Y-17970770D01*
X6141491Y-17970770D02*
X6141491Y-18018389D01*
X6141491Y-18018389D02*
X6131967Y-18037436D01*
X6131967Y-18037436D02*
X6122444Y-18046960D01*
X6122444Y-18046960D02*
X6103396Y-18056484D01*
X6103396Y-18056484D02*
X6046253Y-18056484D01*
X6046253Y-18056484D02*
X6027206Y-18046960D01*
X6027206Y-18046960D02*
X6017682Y-18037436D01*
X6236729Y-18056484D02*
X6274825Y-18056484D01*
X6274825Y-18056484D02*
X6293872Y-18046960D01*
X6293872Y-18046960D02*
X6303396Y-18037436D01*
X6303396Y-18037436D02*
X6322444Y-18008865D01*
X6322444Y-18008865D02*
X6331967Y-17970770D01*
X6331967Y-17970770D02*
X6331967Y-17894579D01*
X6331967Y-17894579D02*
X6322444Y-17875531D01*
X6322444Y-17875531D02*
X6312920Y-17866008D01*
X6312920Y-17866008D02*
X6293872Y-17856484D01*
X6293872Y-17856484D02*
X6255777Y-17856484D01*
X6255777Y-17856484D02*
X6236729Y-17866008D01*
X6236729Y-17866008D02*
X6227206Y-17875531D01*
X6227206Y-17875531D02*
X6217682Y-17894579D01*
X6217682Y-17894579D02*
X6217682Y-17942198D01*
X6217682Y-17942198D02*
X6227206Y-17961246D01*
X6227206Y-17961246D02*
X6236729Y-17970770D01*
X6236729Y-17970770D02*
X6255777Y-17980293D01*
X6255777Y-17980293D02*
X6293872Y-17980293D01*
X6293872Y-17980293D02*
X6312920Y-17970770D01*
X6312920Y-17970770D02*
X6322444Y-17961246D01*
X6322444Y-17961246D02*
X6331967Y-17942198D01*
X6503396Y-17923150D02*
X6503396Y-18056484D01*
X6455777Y-17846960D02*
X6408158Y-17989817D01*
X6408158Y-17989817D02*
X6531967Y-17989817D01*
X6598634Y-17856484D02*
X6598634Y-17894579D01*
X6674825Y-17856484D02*
X6674825Y-17894579D01*
X6970063Y-18132674D02*
X6960539Y-18123150D01*
X6960539Y-18123150D02*
X6941491Y-18094579D01*
X6941491Y-18094579D02*
X6931968Y-18075531D01*
X6931968Y-18075531D02*
X6922444Y-18046960D01*
X6922444Y-18046960D02*
X6912920Y-17999341D01*
X6912920Y-17999341D02*
X6912920Y-17961246D01*
X6912920Y-17961246D02*
X6922444Y-17913627D01*
X6922444Y-17913627D02*
X6931968Y-17885055D01*
X6931968Y-17885055D02*
X6941491Y-17866008D01*
X6941491Y-17866008D02*
X6960539Y-17837436D01*
X6960539Y-17837436D02*
X6970063Y-17827912D01*
X7036729Y-17875531D02*
X7046253Y-17866008D01*
X7046253Y-17866008D02*
X7065301Y-17856484D01*
X7065301Y-17856484D02*
X7112920Y-17856484D01*
X7112920Y-17856484D02*
X7131968Y-17866008D01*
X7131968Y-17866008D02*
X7141491Y-17875531D01*
X7141491Y-17875531D02*
X7151015Y-17894579D01*
X7151015Y-17894579D02*
X7151015Y-17913627D01*
X7151015Y-17913627D02*
X7141491Y-17942198D01*
X7141491Y-17942198D02*
X7027206Y-18056484D01*
X7027206Y-18056484D02*
X7151015Y-18056484D01*
X7274825Y-17856484D02*
X7293872Y-17856484D01*
X7293872Y-17856484D02*
X7312920Y-17866008D01*
X7312920Y-17866008D02*
X7322444Y-17875531D01*
X7322444Y-17875531D02*
X7331968Y-17894579D01*
X7331968Y-17894579D02*
X7341491Y-17932674D01*
X7341491Y-17932674D02*
X7341491Y-17980293D01*
X7341491Y-17980293D02*
X7331968Y-18018389D01*
X7331968Y-18018389D02*
X7322444Y-18037436D01*
X7322444Y-18037436D02*
X7312920Y-18046960D01*
X7312920Y-18046960D02*
X7293872Y-18056484D01*
X7293872Y-18056484D02*
X7274825Y-18056484D01*
X7274825Y-18056484D02*
X7255777Y-18046960D01*
X7255777Y-18046960D02*
X7246253Y-18037436D01*
X7246253Y-18037436D02*
X7236729Y-18018389D01*
X7236729Y-18018389D02*
X7227206Y-17980293D01*
X7227206Y-17980293D02*
X7227206Y-17932674D01*
X7227206Y-17932674D02*
X7236729Y-17894579D01*
X7236729Y-17894579D02*
X7246253Y-17875531D01*
X7246253Y-17875531D02*
X7255777Y-17866008D01*
X7255777Y-17866008D02*
X7274825Y-17856484D01*
X7579587Y-18056484D02*
X7579587Y-17856484D01*
X7665301Y-18056484D02*
X7665301Y-17951722D01*
X7665301Y-17951722D02*
X7655777Y-17932674D01*
X7655777Y-17932674D02*
X7636730Y-17923150D01*
X7636730Y-17923150D02*
X7608158Y-17923150D01*
X7608158Y-17923150D02*
X7589110Y-17932674D01*
X7589110Y-17932674D02*
X7579587Y-17942198D01*
X7789110Y-18056484D02*
X7770063Y-18046960D01*
X7770063Y-18046960D02*
X7760539Y-18037436D01*
X7760539Y-18037436D02*
X7751015Y-18018389D01*
X7751015Y-18018389D02*
X7751015Y-17961246D01*
X7751015Y-17961246D02*
X7760539Y-17942198D01*
X7760539Y-17942198D02*
X7770063Y-17932674D01*
X7770063Y-17932674D02*
X7789110Y-17923150D01*
X7789110Y-17923150D02*
X7817682Y-17923150D01*
X7817682Y-17923150D02*
X7836730Y-17932674D01*
X7836730Y-17932674D02*
X7846253Y-17942198D01*
X7846253Y-17942198D02*
X7855777Y-17961246D01*
X7855777Y-17961246D02*
X7855777Y-18018389D01*
X7855777Y-18018389D02*
X7846253Y-18037436D01*
X7846253Y-18037436D02*
X7836730Y-18046960D01*
X7836730Y-18046960D02*
X7817682Y-18056484D01*
X7817682Y-18056484D02*
X7789110Y-18056484D01*
X7970063Y-18056484D02*
X7951015Y-18046960D01*
X7951015Y-18046960D02*
X7941491Y-18027912D01*
X7941491Y-18027912D02*
X7941491Y-17856484D01*
X8122444Y-18046960D02*
X8103396Y-18056484D01*
X8103396Y-18056484D02*
X8065301Y-18056484D01*
X8065301Y-18056484D02*
X8046253Y-18046960D01*
X8046253Y-18046960D02*
X8036730Y-18027912D01*
X8036730Y-18027912D02*
X8036730Y-17951722D01*
X8036730Y-17951722D02*
X8046253Y-17932674D01*
X8046253Y-17932674D02*
X8065301Y-17923150D01*
X8065301Y-17923150D02*
X8103396Y-17923150D01*
X8103396Y-17923150D02*
X8122444Y-17932674D01*
X8122444Y-17932674D02*
X8131968Y-17951722D01*
X8131968Y-17951722D02*
X8131968Y-17970770D01*
X8131968Y-17970770D02*
X8036730Y-17989817D01*
X8208158Y-18046960D02*
X8227206Y-18056484D01*
X8227206Y-18056484D02*
X8265301Y-18056484D01*
X8265301Y-18056484D02*
X8284349Y-18046960D01*
X8284349Y-18046960D02*
X8293872Y-18027912D01*
X8293872Y-18027912D02*
X8293872Y-18018389D01*
X8293872Y-18018389D02*
X8284349Y-17999341D01*
X8284349Y-17999341D02*
X8265301Y-17989817D01*
X8265301Y-17989817D02*
X8236730Y-17989817D01*
X8236730Y-17989817D02*
X8217682Y-17980293D01*
X8217682Y-17980293D02*
X8208158Y-17961246D01*
X8208158Y-17961246D02*
X8208158Y-17951722D01*
X8208158Y-17951722D02*
X8217682Y-17932674D01*
X8217682Y-17932674D02*
X8236730Y-17923150D01*
X8236730Y-17923150D02*
X8265301Y-17923150D01*
X8265301Y-17923150D02*
X8284349Y-17932674D01*
X8531968Y-17980293D02*
X8684349Y-17980293D01*
X8608158Y-18056484D02*
X8608158Y-17904103D01*
X8912920Y-17856484D02*
X9036730Y-17856484D01*
X9036730Y-17856484D02*
X8970063Y-17932674D01*
X8970063Y-17932674D02*
X8998635Y-17932674D01*
X8998635Y-17932674D02*
X9017682Y-17942198D01*
X9017682Y-17942198D02*
X9027206Y-17951722D01*
X9027206Y-17951722D02*
X9036730Y-17970770D01*
X9036730Y-17970770D02*
X9036730Y-18018389D01*
X9036730Y-18018389D02*
X9027206Y-18037436D01*
X9027206Y-18037436D02*
X9017682Y-18046960D01*
X9017682Y-18046960D02*
X8998635Y-18056484D01*
X8998635Y-18056484D02*
X8941492Y-18056484D01*
X8941492Y-18056484D02*
X8922444Y-18046960D01*
X8922444Y-18046960D02*
X8912920Y-18037436D01*
X9265301Y-18046960D02*
X9284349Y-18056484D01*
X9284349Y-18056484D02*
X9322444Y-18056484D01*
X9322444Y-18056484D02*
X9341492Y-18046960D01*
X9341492Y-18046960D02*
X9351016Y-18027912D01*
X9351016Y-18027912D02*
X9351016Y-18018389D01*
X9351016Y-18018389D02*
X9341492Y-17999341D01*
X9341492Y-17999341D02*
X9322444Y-17989817D01*
X9322444Y-17989817D02*
X9293873Y-17989817D01*
X9293873Y-17989817D02*
X9274825Y-17980293D01*
X9274825Y-17980293D02*
X9265301Y-17961246D01*
X9265301Y-17961246D02*
X9265301Y-17951722D01*
X9265301Y-17951722D02*
X9274825Y-17932674D01*
X9274825Y-17932674D02*
X9293873Y-17923150D01*
X9293873Y-17923150D02*
X9322444Y-17923150D01*
X9322444Y-17923150D02*
X9341492Y-17932674D01*
X9465301Y-18056484D02*
X9446254Y-18046960D01*
X9446254Y-18046960D02*
X9436730Y-18027912D01*
X9436730Y-18027912D02*
X9436730Y-17856484D01*
X9570063Y-18056484D02*
X9551016Y-18046960D01*
X9551016Y-18046960D02*
X9541492Y-18037436D01*
X9541492Y-18037436D02*
X9531968Y-18018389D01*
X9531968Y-18018389D02*
X9531968Y-17961246D01*
X9531968Y-17961246D02*
X9541492Y-17942198D01*
X9541492Y-17942198D02*
X9551016Y-17932674D01*
X9551016Y-17932674D02*
X9570063Y-17923150D01*
X9570063Y-17923150D02*
X9598635Y-17923150D01*
X9598635Y-17923150D02*
X9617682Y-17932674D01*
X9617682Y-17932674D02*
X9627206Y-17942198D01*
X9627206Y-17942198D02*
X9636730Y-17961246D01*
X9636730Y-17961246D02*
X9636730Y-18018389D01*
X9636730Y-18018389D02*
X9627206Y-18037436D01*
X9627206Y-18037436D02*
X9617682Y-18046960D01*
X9617682Y-18046960D02*
X9598635Y-18056484D01*
X9598635Y-18056484D02*
X9570063Y-18056484D01*
X9693873Y-17923150D02*
X9770063Y-17923150D01*
X9722444Y-17856484D02*
X9722444Y-18027912D01*
X9722444Y-18027912D02*
X9731968Y-18046960D01*
X9731968Y-18046960D02*
X9751016Y-18056484D01*
X9751016Y-18056484D02*
X9770063Y-18056484D01*
X9827206Y-18046960D02*
X9846254Y-18056484D01*
X9846254Y-18056484D02*
X9884349Y-18056484D01*
X9884349Y-18056484D02*
X9903397Y-18046960D01*
X9903397Y-18046960D02*
X9912920Y-18027912D01*
X9912920Y-18027912D02*
X9912920Y-18018389D01*
X9912920Y-18018389D02*
X9903397Y-17999341D01*
X9903397Y-17999341D02*
X9884349Y-17989817D01*
X9884349Y-17989817D02*
X9855777Y-17989817D01*
X9855777Y-17989817D02*
X9836730Y-17980293D01*
X9836730Y-17980293D02*
X9827206Y-17961246D01*
X9827206Y-17961246D02*
X9827206Y-17951722D01*
X9827206Y-17951722D02*
X9836730Y-17932674D01*
X9836730Y-17932674D02*
X9855777Y-17923150D01*
X9855777Y-17923150D02*
X9884349Y-17923150D01*
X9884349Y-17923150D02*
X9903397Y-17932674D01*
X9979587Y-18132674D02*
X9989111Y-18123150D01*
X9989111Y-18123150D02*
X10008158Y-18094579D01*
X10008158Y-18094579D02*
X10017682Y-18075531D01*
X10017682Y-18075531D02*
X10027206Y-18046960D01*
X10027206Y-18046960D02*
X10036730Y-17999341D01*
X10036730Y-17999341D02*
X10036730Y-17961246D01*
X10036730Y-17961246D02*
X10027206Y-17913627D01*
X10027206Y-17913627D02*
X10017682Y-17885055D01*
X10017682Y-17885055D02*
X10008158Y-17866008D01*
X10008158Y-17866008D02*
X9989111Y-17837436D01*
X9989111Y-17837436D02*
X9979587Y-17827912D01*
D12*
X3285000Y-18174000D02*
X3395000Y-18284000D01*
X3395000Y-18174000D02*
X3285000Y-18284000D01*
X3340000Y-18174000D02*
X3340000Y-18284000D01*
X3285000Y-18229000D02*
X3395000Y-18229000D01*
D11*
X3760539Y-18320484D02*
X3646253Y-18320484D01*
X3703396Y-18320484D02*
X3703396Y-18120484D01*
X3703396Y-18120484D02*
X3684348Y-18149055D01*
X3684348Y-18149055D02*
X3665301Y-18168103D01*
X3665301Y-18168103D02*
X3646253Y-18177627D01*
X3846253Y-18301436D02*
X3855777Y-18310960D01*
X3855777Y-18310960D02*
X3846253Y-18320484D01*
X3846253Y-18320484D02*
X3836729Y-18310960D01*
X3836729Y-18310960D02*
X3846253Y-18301436D01*
X3846253Y-18301436D02*
X3846253Y-18320484D01*
X4046253Y-18320484D02*
X3931967Y-18320484D01*
X3989110Y-18320484D02*
X3989110Y-18120484D01*
X3989110Y-18120484D02*
X3970062Y-18149055D01*
X3970062Y-18149055D02*
X3951015Y-18168103D01*
X3951015Y-18168103D02*
X3931967Y-18177627D01*
X4170062Y-18120484D02*
X4189110Y-18120484D01*
X4189110Y-18120484D02*
X4208158Y-18130008D01*
X4208158Y-18130008D02*
X4217682Y-18139531D01*
X4217682Y-18139531D02*
X4227205Y-18158579D01*
X4227205Y-18158579D02*
X4236729Y-18196674D01*
X4236729Y-18196674D02*
X4236729Y-18244293D01*
X4236729Y-18244293D02*
X4227205Y-18282389D01*
X4227205Y-18282389D02*
X4217682Y-18301436D01*
X4217682Y-18301436D02*
X4208158Y-18310960D01*
X4208158Y-18310960D02*
X4189110Y-18320484D01*
X4189110Y-18320484D02*
X4170062Y-18320484D01*
X4170062Y-18320484D02*
X4151015Y-18310960D01*
X4151015Y-18310960D02*
X4141491Y-18301436D01*
X4141491Y-18301436D02*
X4131967Y-18282389D01*
X4131967Y-18282389D02*
X4122443Y-18244293D01*
X4122443Y-18244293D02*
X4122443Y-18196674D01*
X4122443Y-18196674D02*
X4131967Y-18158579D01*
X4131967Y-18158579D02*
X4141491Y-18139531D01*
X4141491Y-18139531D02*
X4151015Y-18130008D01*
X4151015Y-18130008D02*
X4170062Y-18120484D01*
X4360539Y-18120484D02*
X4379586Y-18120484D01*
X4379586Y-18120484D02*
X4398634Y-18130008D01*
X4398634Y-18130008D02*
X4408158Y-18139531D01*
X4408158Y-18139531D02*
X4417682Y-18158579D01*
X4417682Y-18158579D02*
X4427205Y-18196674D01*
X4427205Y-18196674D02*
X4427205Y-18244293D01*
X4427205Y-18244293D02*
X4417682Y-18282389D01*
X4417682Y-18282389D02*
X4408158Y-18301436D01*
X4408158Y-18301436D02*
X4398634Y-18310960D01*
X4398634Y-18310960D02*
X4379586Y-18320484D01*
X4379586Y-18320484D02*
X4360539Y-18320484D01*
X4360539Y-18320484D02*
X4341491Y-18310960D01*
X4341491Y-18310960D02*
X4331967Y-18301436D01*
X4331967Y-18301436D02*
X4322444Y-18282389D01*
X4322444Y-18282389D02*
X4312920Y-18244293D01*
X4312920Y-18244293D02*
X4312920Y-18196674D01*
X4312920Y-18196674D02*
X4322444Y-18158579D01*
X4322444Y-18158579D02*
X4331967Y-18139531D01*
X4331967Y-18139531D02*
X4341491Y-18130008D01*
X4341491Y-18130008D02*
X4360539Y-18120484D01*
X4512920Y-18320484D02*
X4512920Y-18187150D01*
X4512920Y-18206198D02*
X4522444Y-18196674D01*
X4522444Y-18196674D02*
X4541491Y-18187150D01*
X4541491Y-18187150D02*
X4570063Y-18187150D01*
X4570063Y-18187150D02*
X4589110Y-18196674D01*
X4589110Y-18196674D02*
X4598634Y-18215722D01*
X4598634Y-18215722D02*
X4598634Y-18320484D01*
X4598634Y-18215722D02*
X4608158Y-18196674D01*
X4608158Y-18196674D02*
X4627205Y-18187150D01*
X4627205Y-18187150D02*
X4655777Y-18187150D01*
X4655777Y-18187150D02*
X4674825Y-18196674D01*
X4674825Y-18196674D02*
X4684348Y-18215722D01*
X4684348Y-18215722D02*
X4684348Y-18320484D01*
X4779586Y-18320484D02*
X4779586Y-18187150D01*
X4779586Y-18206198D02*
X4789110Y-18196674D01*
X4789110Y-18196674D02*
X4808158Y-18187150D01*
X4808158Y-18187150D02*
X4836729Y-18187150D01*
X4836729Y-18187150D02*
X4855777Y-18196674D01*
X4855777Y-18196674D02*
X4865301Y-18215722D01*
X4865301Y-18215722D02*
X4865301Y-18320484D01*
X4865301Y-18215722D02*
X4874825Y-18196674D01*
X4874825Y-18196674D02*
X4893872Y-18187150D01*
X4893872Y-18187150D02*
X4922444Y-18187150D01*
X4922444Y-18187150D02*
X4941491Y-18196674D01*
X4941491Y-18196674D02*
X4951015Y-18215722D01*
X4951015Y-18215722D02*
X4951015Y-18320484D01*
X5341491Y-18110960D02*
X5170063Y-18368103D01*
X5598634Y-18120484D02*
X5617682Y-18120484D01*
X5617682Y-18120484D02*
X5636729Y-18130008D01*
X5636729Y-18130008D02*
X5646253Y-18139531D01*
X5646253Y-18139531D02*
X5655777Y-18158579D01*
X5655777Y-18158579D02*
X5665301Y-18196674D01*
X5665301Y-18196674D02*
X5665301Y-18244293D01*
X5665301Y-18244293D02*
X5655777Y-18282389D01*
X5655777Y-18282389D02*
X5646253Y-18301436D01*
X5646253Y-18301436D02*
X5636729Y-18310960D01*
X5636729Y-18310960D02*
X5617682Y-18320484D01*
X5617682Y-18320484D02*
X5598634Y-18320484D01*
X5598634Y-18320484D02*
X5579587Y-18310960D01*
X5579587Y-18310960D02*
X5570063Y-18301436D01*
X5570063Y-18301436D02*
X5560539Y-18282389D01*
X5560539Y-18282389D02*
X5551015Y-18244293D01*
X5551015Y-18244293D02*
X5551015Y-18196674D01*
X5551015Y-18196674D02*
X5560539Y-18158579D01*
X5560539Y-18158579D02*
X5570063Y-18139531D01*
X5570063Y-18139531D02*
X5579587Y-18130008D01*
X5579587Y-18130008D02*
X5598634Y-18120484D01*
X5751015Y-18301436D02*
X5760539Y-18310960D01*
X5760539Y-18310960D02*
X5751015Y-18320484D01*
X5751015Y-18320484D02*
X5741491Y-18310960D01*
X5741491Y-18310960D02*
X5751015Y-18301436D01*
X5751015Y-18301436D02*
X5751015Y-18320484D01*
X5884348Y-18120484D02*
X5903396Y-18120484D01*
X5903396Y-18120484D02*
X5922444Y-18130008D01*
X5922444Y-18130008D02*
X5931967Y-18139531D01*
X5931967Y-18139531D02*
X5941491Y-18158579D01*
X5941491Y-18158579D02*
X5951015Y-18196674D01*
X5951015Y-18196674D02*
X5951015Y-18244293D01*
X5951015Y-18244293D02*
X5941491Y-18282389D01*
X5941491Y-18282389D02*
X5931967Y-18301436D01*
X5931967Y-18301436D02*
X5922444Y-18310960D01*
X5922444Y-18310960D02*
X5903396Y-18320484D01*
X5903396Y-18320484D02*
X5884348Y-18320484D01*
X5884348Y-18320484D02*
X5865301Y-18310960D01*
X5865301Y-18310960D02*
X5855777Y-18301436D01*
X5855777Y-18301436D02*
X5846253Y-18282389D01*
X5846253Y-18282389D02*
X5836729Y-18244293D01*
X5836729Y-18244293D02*
X5836729Y-18196674D01*
X5836729Y-18196674D02*
X5846253Y-18158579D01*
X5846253Y-18158579D02*
X5855777Y-18139531D01*
X5855777Y-18139531D02*
X5865301Y-18130008D01*
X5865301Y-18130008D02*
X5884348Y-18120484D01*
X6122444Y-18187150D02*
X6122444Y-18320484D01*
X6074825Y-18110960D02*
X6027206Y-18253817D01*
X6027206Y-18253817D02*
X6151015Y-18253817D01*
X6208158Y-18120484D02*
X6331967Y-18120484D01*
X6331967Y-18120484D02*
X6265301Y-18196674D01*
X6265301Y-18196674D02*
X6293872Y-18196674D01*
X6293872Y-18196674D02*
X6312920Y-18206198D01*
X6312920Y-18206198D02*
X6322444Y-18215722D01*
X6322444Y-18215722D02*
X6331967Y-18234770D01*
X6331967Y-18234770D02*
X6331967Y-18282389D01*
X6331967Y-18282389D02*
X6322444Y-18301436D01*
X6322444Y-18301436D02*
X6312920Y-18310960D01*
X6312920Y-18310960D02*
X6293872Y-18320484D01*
X6293872Y-18320484D02*
X6236729Y-18320484D01*
X6236729Y-18320484D02*
X6217682Y-18310960D01*
X6217682Y-18310960D02*
X6208158Y-18301436D01*
X6398634Y-18120484D02*
X6522444Y-18120484D01*
X6522444Y-18120484D02*
X6455777Y-18196674D01*
X6455777Y-18196674D02*
X6484348Y-18196674D01*
X6484348Y-18196674D02*
X6503396Y-18206198D01*
X6503396Y-18206198D02*
X6512920Y-18215722D01*
X6512920Y-18215722D02*
X6522444Y-18234770D01*
X6522444Y-18234770D02*
X6522444Y-18282389D01*
X6522444Y-18282389D02*
X6512920Y-18301436D01*
X6512920Y-18301436D02*
X6503396Y-18310960D01*
X6503396Y-18310960D02*
X6484348Y-18320484D01*
X6484348Y-18320484D02*
X6427206Y-18320484D01*
X6427206Y-18320484D02*
X6408158Y-18310960D01*
X6408158Y-18310960D02*
X6398634Y-18301436D01*
X6598634Y-18120484D02*
X6598634Y-18158579D01*
X6674825Y-18120484D02*
X6674825Y-18158579D01*
X6970063Y-18396674D02*
X6960539Y-18387150D01*
X6960539Y-18387150D02*
X6941491Y-18358579D01*
X6941491Y-18358579D02*
X6931968Y-18339531D01*
X6931968Y-18339531D02*
X6922444Y-18310960D01*
X6922444Y-18310960D02*
X6912920Y-18263341D01*
X6912920Y-18263341D02*
X6912920Y-18225246D01*
X6912920Y-18225246D02*
X6922444Y-18177627D01*
X6922444Y-18177627D02*
X6931968Y-18149055D01*
X6931968Y-18149055D02*
X6941491Y-18130008D01*
X6941491Y-18130008D02*
X6960539Y-18101436D01*
X6960539Y-18101436D02*
X6970063Y-18091912D01*
X7036729Y-18139531D02*
X7046253Y-18130008D01*
X7046253Y-18130008D02*
X7065301Y-18120484D01*
X7065301Y-18120484D02*
X7112920Y-18120484D01*
X7112920Y-18120484D02*
X7131968Y-18130008D01*
X7131968Y-18130008D02*
X7141491Y-18139531D01*
X7141491Y-18139531D02*
X7151015Y-18158579D01*
X7151015Y-18158579D02*
X7151015Y-18177627D01*
X7151015Y-18177627D02*
X7141491Y-18206198D01*
X7141491Y-18206198D02*
X7027206Y-18320484D01*
X7027206Y-18320484D02*
X7151015Y-18320484D01*
X7227206Y-18139531D02*
X7236729Y-18130008D01*
X7236729Y-18130008D02*
X7255777Y-18120484D01*
X7255777Y-18120484D02*
X7303396Y-18120484D01*
X7303396Y-18120484D02*
X7322444Y-18130008D01*
X7322444Y-18130008D02*
X7331968Y-18139531D01*
X7331968Y-18139531D02*
X7341491Y-18158579D01*
X7341491Y-18158579D02*
X7341491Y-18177627D01*
X7341491Y-18177627D02*
X7331968Y-18206198D01*
X7331968Y-18206198D02*
X7217682Y-18320484D01*
X7217682Y-18320484D02*
X7341491Y-18320484D01*
X7579587Y-18320484D02*
X7579587Y-18120484D01*
X7665301Y-18320484D02*
X7665301Y-18215722D01*
X7665301Y-18215722D02*
X7655777Y-18196674D01*
X7655777Y-18196674D02*
X7636730Y-18187150D01*
X7636730Y-18187150D02*
X7608158Y-18187150D01*
X7608158Y-18187150D02*
X7589110Y-18196674D01*
X7589110Y-18196674D02*
X7579587Y-18206198D01*
X7789110Y-18320484D02*
X7770063Y-18310960D01*
X7770063Y-18310960D02*
X7760539Y-18301436D01*
X7760539Y-18301436D02*
X7751015Y-18282389D01*
X7751015Y-18282389D02*
X7751015Y-18225246D01*
X7751015Y-18225246D02*
X7760539Y-18206198D01*
X7760539Y-18206198D02*
X7770063Y-18196674D01*
X7770063Y-18196674D02*
X7789110Y-18187150D01*
X7789110Y-18187150D02*
X7817682Y-18187150D01*
X7817682Y-18187150D02*
X7836730Y-18196674D01*
X7836730Y-18196674D02*
X7846253Y-18206198D01*
X7846253Y-18206198D02*
X7855777Y-18225246D01*
X7855777Y-18225246D02*
X7855777Y-18282389D01*
X7855777Y-18282389D02*
X7846253Y-18301436D01*
X7846253Y-18301436D02*
X7836730Y-18310960D01*
X7836730Y-18310960D02*
X7817682Y-18320484D01*
X7817682Y-18320484D02*
X7789110Y-18320484D01*
X7970063Y-18320484D02*
X7951015Y-18310960D01*
X7951015Y-18310960D02*
X7941491Y-18291912D01*
X7941491Y-18291912D02*
X7941491Y-18120484D01*
X8122444Y-18310960D02*
X8103396Y-18320484D01*
X8103396Y-18320484D02*
X8065301Y-18320484D01*
X8065301Y-18320484D02*
X8046253Y-18310960D01*
X8046253Y-18310960D02*
X8036730Y-18291912D01*
X8036730Y-18291912D02*
X8036730Y-18215722D01*
X8036730Y-18215722D02*
X8046253Y-18196674D01*
X8046253Y-18196674D02*
X8065301Y-18187150D01*
X8065301Y-18187150D02*
X8103396Y-18187150D01*
X8103396Y-18187150D02*
X8122444Y-18196674D01*
X8122444Y-18196674D02*
X8131968Y-18215722D01*
X8131968Y-18215722D02*
X8131968Y-18234770D01*
X8131968Y-18234770D02*
X8036730Y-18253817D01*
X8208158Y-18310960D02*
X8227206Y-18320484D01*
X8227206Y-18320484D02*
X8265301Y-18320484D01*
X8265301Y-18320484D02*
X8284349Y-18310960D01*
X8284349Y-18310960D02*
X8293872Y-18291912D01*
X8293872Y-18291912D02*
X8293872Y-18282389D01*
X8293872Y-18282389D02*
X8284349Y-18263341D01*
X8284349Y-18263341D02*
X8265301Y-18253817D01*
X8265301Y-18253817D02*
X8236730Y-18253817D01*
X8236730Y-18253817D02*
X8217682Y-18244293D01*
X8217682Y-18244293D02*
X8208158Y-18225246D01*
X8208158Y-18225246D02*
X8208158Y-18215722D01*
X8208158Y-18215722D02*
X8217682Y-18196674D01*
X8217682Y-18196674D02*
X8236730Y-18187150D01*
X8236730Y-18187150D02*
X8265301Y-18187150D01*
X8265301Y-18187150D02*
X8284349Y-18196674D01*
X8360539Y-18396674D02*
X8370063Y-18387150D01*
X8370063Y-18387150D02*
X8389111Y-18358579D01*
X8389111Y-18358579D02*
X8398634Y-18339531D01*
X8398634Y-18339531D02*
X8408158Y-18310960D01*
X8408158Y-18310960D02*
X8417682Y-18263341D01*
X8417682Y-18263341D02*
X8417682Y-18225246D01*
X8417682Y-18225246D02*
X8408158Y-18177627D01*
X8408158Y-18177627D02*
X8398634Y-18149055D01*
X8398634Y-18149055D02*
X8389111Y-18130008D01*
X8389111Y-18130008D02*
X8370063Y-18101436D01*
X8370063Y-18101436D02*
X8360539Y-18091912D01*
D13*
X3275000Y-18433000D02*
X3395000Y-18553000D01*
X3395000Y-18433000D02*
X3275000Y-18553000D01*
X3377427Y-18535427D02*
X3377427Y-18450573D01*
X3292573Y-18450573D01*
X3292573Y-18535427D01*
X3377427Y-18535427D01*
D11*
X3760539Y-18584484D02*
X3646253Y-18584484D01*
X3703396Y-18584484D02*
X3703396Y-18384484D01*
X3703396Y-18384484D02*
X3684348Y-18413055D01*
X3684348Y-18413055D02*
X3665301Y-18432103D01*
X3665301Y-18432103D02*
X3646253Y-18441627D01*
X3846253Y-18565436D02*
X3855777Y-18574960D01*
X3855777Y-18574960D02*
X3846253Y-18584484D01*
X3846253Y-18584484D02*
X3836729Y-18574960D01*
X3836729Y-18574960D02*
X3846253Y-18565436D01*
X3846253Y-18565436D02*
X3846253Y-18584484D01*
X3931967Y-18403531D02*
X3941491Y-18394008D01*
X3941491Y-18394008D02*
X3960539Y-18384484D01*
X3960539Y-18384484D02*
X4008158Y-18384484D01*
X4008158Y-18384484D02*
X4027205Y-18394008D01*
X4027205Y-18394008D02*
X4036729Y-18403531D01*
X4036729Y-18403531D02*
X4046253Y-18422579D01*
X4046253Y-18422579D02*
X4046253Y-18441627D01*
X4046253Y-18441627D02*
X4036729Y-18470198D01*
X4036729Y-18470198D02*
X3922443Y-18584484D01*
X3922443Y-18584484D02*
X4046253Y-18584484D01*
X4170062Y-18384484D02*
X4189110Y-18384484D01*
X4189110Y-18384484D02*
X4208158Y-18394008D01*
X4208158Y-18394008D02*
X4217682Y-18403531D01*
X4217682Y-18403531D02*
X4227205Y-18422579D01*
X4227205Y-18422579D02*
X4236729Y-18460674D01*
X4236729Y-18460674D02*
X4236729Y-18508293D01*
X4236729Y-18508293D02*
X4227205Y-18546389D01*
X4227205Y-18546389D02*
X4217682Y-18565436D01*
X4217682Y-18565436D02*
X4208158Y-18574960D01*
X4208158Y-18574960D02*
X4189110Y-18584484D01*
X4189110Y-18584484D02*
X4170062Y-18584484D01*
X4170062Y-18584484D02*
X4151015Y-18574960D01*
X4151015Y-18574960D02*
X4141491Y-18565436D01*
X4141491Y-18565436D02*
X4131967Y-18546389D01*
X4131967Y-18546389D02*
X4122443Y-18508293D01*
X4122443Y-18508293D02*
X4122443Y-18460674D01*
X4122443Y-18460674D02*
X4131967Y-18422579D01*
X4131967Y-18422579D02*
X4141491Y-18403531D01*
X4141491Y-18403531D02*
X4151015Y-18394008D01*
X4151015Y-18394008D02*
X4170062Y-18384484D01*
X4360539Y-18384484D02*
X4379586Y-18384484D01*
X4379586Y-18384484D02*
X4398634Y-18394008D01*
X4398634Y-18394008D02*
X4408158Y-18403531D01*
X4408158Y-18403531D02*
X4417682Y-18422579D01*
X4417682Y-18422579D02*
X4427205Y-18460674D01*
X4427205Y-18460674D02*
X4427205Y-18508293D01*
X4427205Y-18508293D02*
X4417682Y-18546389D01*
X4417682Y-18546389D02*
X4408158Y-18565436D01*
X4408158Y-18565436D02*
X4398634Y-18574960D01*
X4398634Y-18574960D02*
X4379586Y-18584484D01*
X4379586Y-18584484D02*
X4360539Y-18584484D01*
X4360539Y-18584484D02*
X4341491Y-18574960D01*
X4341491Y-18574960D02*
X4331967Y-18565436D01*
X4331967Y-18565436D02*
X4322444Y-18546389D01*
X4322444Y-18546389D02*
X4312920Y-18508293D01*
X4312920Y-18508293D02*
X4312920Y-18460674D01*
X4312920Y-18460674D02*
X4322444Y-18422579D01*
X4322444Y-18422579D02*
X4331967Y-18403531D01*
X4331967Y-18403531D02*
X4341491Y-18394008D01*
X4341491Y-18394008D02*
X4360539Y-18384484D01*
X4512920Y-18584484D02*
X4512920Y-18451150D01*
X4512920Y-18470198D02*
X4522444Y-18460674D01*
X4522444Y-18460674D02*
X4541491Y-18451150D01*
X4541491Y-18451150D02*
X4570063Y-18451150D01*
X4570063Y-18451150D02*
X4589110Y-18460674D01*
X4589110Y-18460674D02*
X4598634Y-18479722D01*
X4598634Y-18479722D02*
X4598634Y-18584484D01*
X4598634Y-18479722D02*
X4608158Y-18460674D01*
X4608158Y-18460674D02*
X4627205Y-18451150D01*
X4627205Y-18451150D02*
X4655777Y-18451150D01*
X4655777Y-18451150D02*
X4674825Y-18460674D01*
X4674825Y-18460674D02*
X4684348Y-18479722D01*
X4684348Y-18479722D02*
X4684348Y-18584484D01*
X4779586Y-18584484D02*
X4779586Y-18451150D01*
X4779586Y-18470198D02*
X4789110Y-18460674D01*
X4789110Y-18460674D02*
X4808158Y-18451150D01*
X4808158Y-18451150D02*
X4836729Y-18451150D01*
X4836729Y-18451150D02*
X4855777Y-18460674D01*
X4855777Y-18460674D02*
X4865301Y-18479722D01*
X4865301Y-18479722D02*
X4865301Y-18584484D01*
X4865301Y-18479722D02*
X4874825Y-18460674D01*
X4874825Y-18460674D02*
X4893872Y-18451150D01*
X4893872Y-18451150D02*
X4922444Y-18451150D01*
X4922444Y-18451150D02*
X4941491Y-18460674D01*
X4941491Y-18460674D02*
X4951015Y-18479722D01*
X4951015Y-18479722D02*
X4951015Y-18584484D01*
X5341491Y-18374960D02*
X5170063Y-18632103D01*
X5598634Y-18384484D02*
X5617682Y-18384484D01*
X5617682Y-18384484D02*
X5636729Y-18394008D01*
X5636729Y-18394008D02*
X5646253Y-18403531D01*
X5646253Y-18403531D02*
X5655777Y-18422579D01*
X5655777Y-18422579D02*
X5665301Y-18460674D01*
X5665301Y-18460674D02*
X5665301Y-18508293D01*
X5665301Y-18508293D02*
X5655777Y-18546389D01*
X5655777Y-18546389D02*
X5646253Y-18565436D01*
X5646253Y-18565436D02*
X5636729Y-18574960D01*
X5636729Y-18574960D02*
X5617682Y-18584484D01*
X5617682Y-18584484D02*
X5598634Y-18584484D01*
X5598634Y-18584484D02*
X5579587Y-18574960D01*
X5579587Y-18574960D02*
X5570063Y-18565436D01*
X5570063Y-18565436D02*
X5560539Y-18546389D01*
X5560539Y-18546389D02*
X5551015Y-18508293D01*
X5551015Y-18508293D02*
X5551015Y-18460674D01*
X5551015Y-18460674D02*
X5560539Y-18422579D01*
X5560539Y-18422579D02*
X5570063Y-18403531D01*
X5570063Y-18403531D02*
X5579587Y-18394008D01*
X5579587Y-18394008D02*
X5598634Y-18384484D01*
X5751015Y-18565436D02*
X5760539Y-18574960D01*
X5760539Y-18574960D02*
X5751015Y-18584484D01*
X5751015Y-18584484D02*
X5741491Y-18574960D01*
X5741491Y-18574960D02*
X5751015Y-18565436D01*
X5751015Y-18565436D02*
X5751015Y-18584484D01*
X5884348Y-18384484D02*
X5903396Y-18384484D01*
X5903396Y-18384484D02*
X5922444Y-18394008D01*
X5922444Y-18394008D02*
X5931967Y-18403531D01*
X5931967Y-18403531D02*
X5941491Y-18422579D01*
X5941491Y-18422579D02*
X5951015Y-18460674D01*
X5951015Y-18460674D02*
X5951015Y-18508293D01*
X5951015Y-18508293D02*
X5941491Y-18546389D01*
X5941491Y-18546389D02*
X5931967Y-18565436D01*
X5931967Y-18565436D02*
X5922444Y-18574960D01*
X5922444Y-18574960D02*
X5903396Y-18584484D01*
X5903396Y-18584484D02*
X5884348Y-18584484D01*
X5884348Y-18584484D02*
X5865301Y-18574960D01*
X5865301Y-18574960D02*
X5855777Y-18565436D01*
X5855777Y-18565436D02*
X5846253Y-18546389D01*
X5846253Y-18546389D02*
X5836729Y-18508293D01*
X5836729Y-18508293D02*
X5836729Y-18460674D01*
X5836729Y-18460674D02*
X5846253Y-18422579D01*
X5846253Y-18422579D02*
X5855777Y-18403531D01*
X5855777Y-18403531D02*
X5865301Y-18394008D01*
X5865301Y-18394008D02*
X5884348Y-18384484D01*
X6122444Y-18451150D02*
X6122444Y-18584484D01*
X6074825Y-18374960D02*
X6027206Y-18517817D01*
X6027206Y-18517817D02*
X6151015Y-18517817D01*
X6208158Y-18384484D02*
X6341491Y-18384484D01*
X6341491Y-18384484D02*
X6255777Y-18584484D01*
X6408158Y-18403531D02*
X6417682Y-18394008D01*
X6417682Y-18394008D02*
X6436729Y-18384484D01*
X6436729Y-18384484D02*
X6484348Y-18384484D01*
X6484348Y-18384484D02*
X6503396Y-18394008D01*
X6503396Y-18394008D02*
X6512920Y-18403531D01*
X6512920Y-18403531D02*
X6522444Y-18422579D01*
X6522444Y-18422579D02*
X6522444Y-18441627D01*
X6522444Y-18441627D02*
X6512920Y-18470198D01*
X6512920Y-18470198D02*
X6398634Y-18584484D01*
X6398634Y-18584484D02*
X6522444Y-18584484D01*
X6598634Y-18384484D02*
X6598634Y-18422579D01*
X6674825Y-18384484D02*
X6674825Y-18422579D01*
X6970063Y-18660674D02*
X6960539Y-18651150D01*
X6960539Y-18651150D02*
X6941491Y-18622579D01*
X6941491Y-18622579D02*
X6931968Y-18603531D01*
X6931968Y-18603531D02*
X6922444Y-18574960D01*
X6922444Y-18574960D02*
X6912920Y-18527341D01*
X6912920Y-18527341D02*
X6912920Y-18489246D01*
X6912920Y-18489246D02*
X6922444Y-18441627D01*
X6922444Y-18441627D02*
X6931968Y-18413055D01*
X6931968Y-18413055D02*
X6941491Y-18394008D01*
X6941491Y-18394008D02*
X6960539Y-18365436D01*
X6960539Y-18365436D02*
X6970063Y-18355912D01*
X7036729Y-18403531D02*
X7046253Y-18394008D01*
X7046253Y-18394008D02*
X7065301Y-18384484D01*
X7065301Y-18384484D02*
X7112920Y-18384484D01*
X7112920Y-18384484D02*
X7131968Y-18394008D01*
X7131968Y-18394008D02*
X7141491Y-18403531D01*
X7141491Y-18403531D02*
X7151015Y-18422579D01*
X7151015Y-18422579D02*
X7151015Y-18441627D01*
X7151015Y-18441627D02*
X7141491Y-18470198D01*
X7141491Y-18470198D02*
X7027206Y-18584484D01*
X7027206Y-18584484D02*
X7151015Y-18584484D01*
X7227206Y-18403531D02*
X7236729Y-18394008D01*
X7236729Y-18394008D02*
X7255777Y-18384484D01*
X7255777Y-18384484D02*
X7303396Y-18384484D01*
X7303396Y-18384484D02*
X7322444Y-18394008D01*
X7322444Y-18394008D02*
X7331968Y-18403531D01*
X7331968Y-18403531D02*
X7341491Y-18422579D01*
X7341491Y-18422579D02*
X7341491Y-18441627D01*
X7341491Y-18441627D02*
X7331968Y-18470198D01*
X7331968Y-18470198D02*
X7217682Y-18584484D01*
X7217682Y-18584484D02*
X7341491Y-18584484D01*
X7579587Y-18584484D02*
X7579587Y-18384484D01*
X7665301Y-18584484D02*
X7665301Y-18479722D01*
X7665301Y-18479722D02*
X7655777Y-18460674D01*
X7655777Y-18460674D02*
X7636730Y-18451150D01*
X7636730Y-18451150D02*
X7608158Y-18451150D01*
X7608158Y-18451150D02*
X7589110Y-18460674D01*
X7589110Y-18460674D02*
X7579587Y-18470198D01*
X7789110Y-18584484D02*
X7770063Y-18574960D01*
X7770063Y-18574960D02*
X7760539Y-18565436D01*
X7760539Y-18565436D02*
X7751015Y-18546389D01*
X7751015Y-18546389D02*
X7751015Y-18489246D01*
X7751015Y-18489246D02*
X7760539Y-18470198D01*
X7760539Y-18470198D02*
X7770063Y-18460674D01*
X7770063Y-18460674D02*
X7789110Y-18451150D01*
X7789110Y-18451150D02*
X7817682Y-18451150D01*
X7817682Y-18451150D02*
X7836730Y-18460674D01*
X7836730Y-18460674D02*
X7846253Y-18470198D01*
X7846253Y-18470198D02*
X7855777Y-18489246D01*
X7855777Y-18489246D02*
X7855777Y-18546389D01*
X7855777Y-18546389D02*
X7846253Y-18565436D01*
X7846253Y-18565436D02*
X7836730Y-18574960D01*
X7836730Y-18574960D02*
X7817682Y-18584484D01*
X7817682Y-18584484D02*
X7789110Y-18584484D01*
X7970063Y-18584484D02*
X7951015Y-18574960D01*
X7951015Y-18574960D02*
X7941491Y-18555912D01*
X7941491Y-18555912D02*
X7941491Y-18384484D01*
X8122444Y-18574960D02*
X8103396Y-18584484D01*
X8103396Y-18584484D02*
X8065301Y-18584484D01*
X8065301Y-18584484D02*
X8046253Y-18574960D01*
X8046253Y-18574960D02*
X8036730Y-18555912D01*
X8036730Y-18555912D02*
X8036730Y-18479722D01*
X8036730Y-18479722D02*
X8046253Y-18460674D01*
X8046253Y-18460674D02*
X8065301Y-18451150D01*
X8065301Y-18451150D02*
X8103396Y-18451150D01*
X8103396Y-18451150D02*
X8122444Y-18460674D01*
X8122444Y-18460674D02*
X8131968Y-18479722D01*
X8131968Y-18479722D02*
X8131968Y-18498770D01*
X8131968Y-18498770D02*
X8036730Y-18517817D01*
X8208158Y-18574960D02*
X8227206Y-18584484D01*
X8227206Y-18584484D02*
X8265301Y-18584484D01*
X8265301Y-18584484D02*
X8284349Y-18574960D01*
X8284349Y-18574960D02*
X8293872Y-18555912D01*
X8293872Y-18555912D02*
X8293872Y-18546389D01*
X8293872Y-18546389D02*
X8284349Y-18527341D01*
X8284349Y-18527341D02*
X8265301Y-18517817D01*
X8265301Y-18517817D02*
X8236730Y-18517817D01*
X8236730Y-18517817D02*
X8217682Y-18508293D01*
X8217682Y-18508293D02*
X8208158Y-18489246D01*
X8208158Y-18489246D02*
X8208158Y-18479722D01*
X8208158Y-18479722D02*
X8217682Y-18460674D01*
X8217682Y-18460674D02*
X8236730Y-18451150D01*
X8236730Y-18451150D02*
X8265301Y-18451150D01*
X8265301Y-18451150D02*
X8284349Y-18460674D01*
X8360539Y-18660674D02*
X8370063Y-18651150D01*
X8370063Y-18651150D02*
X8389111Y-18622579D01*
X8389111Y-18622579D02*
X8398634Y-18603531D01*
X8398634Y-18603531D02*
X8408158Y-18574960D01*
X8408158Y-18574960D02*
X8417682Y-18527341D01*
X8417682Y-18527341D02*
X8417682Y-18489246D01*
X8417682Y-18489246D02*
X8408158Y-18441627D01*
X8408158Y-18441627D02*
X8398634Y-18413055D01*
X8398634Y-18413055D02*
X8389111Y-18394008D01*
X8389111Y-18394008D02*
X8370063Y-18365436D01*
X8370063Y-18365436D02*
X8360539Y-18355912D01*
D14*
X3265000Y-18692000D02*
X3395000Y-18822000D01*
X3395000Y-18692000D02*
X3265000Y-18822000D01*
X3330000Y-18822000D02*
X3395000Y-18757000D01*
X3330000Y-18692000D01*
X3265000Y-18757000D01*
X3330000Y-18822000D01*
D11*
X3760539Y-18848484D02*
X3646253Y-18848484D01*
X3703396Y-18848484D02*
X3703396Y-18648484D01*
X3703396Y-18648484D02*
X3684348Y-18677055D01*
X3684348Y-18677055D02*
X3665301Y-18696103D01*
X3665301Y-18696103D02*
X3646253Y-18705627D01*
X3846253Y-18829436D02*
X3855777Y-18838960D01*
X3855777Y-18838960D02*
X3846253Y-18848484D01*
X3846253Y-18848484D02*
X3836729Y-18838960D01*
X3836729Y-18838960D02*
X3846253Y-18829436D01*
X3846253Y-18829436D02*
X3846253Y-18848484D01*
X3922443Y-18648484D02*
X4046253Y-18648484D01*
X4046253Y-18648484D02*
X3979586Y-18724674D01*
X3979586Y-18724674D02*
X4008158Y-18724674D01*
X4008158Y-18724674D02*
X4027205Y-18734198D01*
X4027205Y-18734198D02*
X4036729Y-18743722D01*
X4036729Y-18743722D02*
X4046253Y-18762770D01*
X4046253Y-18762770D02*
X4046253Y-18810389D01*
X4046253Y-18810389D02*
X4036729Y-18829436D01*
X4036729Y-18829436D02*
X4027205Y-18838960D01*
X4027205Y-18838960D02*
X4008158Y-18848484D01*
X4008158Y-18848484D02*
X3951015Y-18848484D01*
X3951015Y-18848484D02*
X3931967Y-18838960D01*
X3931967Y-18838960D02*
X3922443Y-18829436D01*
X4170062Y-18648484D02*
X4189110Y-18648484D01*
X4189110Y-18648484D02*
X4208158Y-18658008D01*
X4208158Y-18658008D02*
X4217682Y-18667531D01*
X4217682Y-18667531D02*
X4227205Y-18686579D01*
X4227205Y-18686579D02*
X4236729Y-18724674D01*
X4236729Y-18724674D02*
X4236729Y-18772293D01*
X4236729Y-18772293D02*
X4227205Y-18810389D01*
X4227205Y-18810389D02*
X4217682Y-18829436D01*
X4217682Y-18829436D02*
X4208158Y-18838960D01*
X4208158Y-18838960D02*
X4189110Y-18848484D01*
X4189110Y-18848484D02*
X4170062Y-18848484D01*
X4170062Y-18848484D02*
X4151015Y-18838960D01*
X4151015Y-18838960D02*
X4141491Y-18829436D01*
X4141491Y-18829436D02*
X4131967Y-18810389D01*
X4131967Y-18810389D02*
X4122443Y-18772293D01*
X4122443Y-18772293D02*
X4122443Y-18724674D01*
X4122443Y-18724674D02*
X4131967Y-18686579D01*
X4131967Y-18686579D02*
X4141491Y-18667531D01*
X4141491Y-18667531D02*
X4151015Y-18658008D01*
X4151015Y-18658008D02*
X4170062Y-18648484D01*
X4360539Y-18648484D02*
X4379586Y-18648484D01*
X4379586Y-18648484D02*
X4398634Y-18658008D01*
X4398634Y-18658008D02*
X4408158Y-18667531D01*
X4408158Y-18667531D02*
X4417682Y-18686579D01*
X4417682Y-18686579D02*
X4427205Y-18724674D01*
X4427205Y-18724674D02*
X4427205Y-18772293D01*
X4427205Y-18772293D02*
X4417682Y-18810389D01*
X4417682Y-18810389D02*
X4408158Y-18829436D01*
X4408158Y-18829436D02*
X4398634Y-18838960D01*
X4398634Y-18838960D02*
X4379586Y-18848484D01*
X4379586Y-18848484D02*
X4360539Y-18848484D01*
X4360539Y-18848484D02*
X4341491Y-18838960D01*
X4341491Y-18838960D02*
X4331967Y-18829436D01*
X4331967Y-18829436D02*
X4322444Y-18810389D01*
X4322444Y-18810389D02*
X4312920Y-18772293D01*
X4312920Y-18772293D02*
X4312920Y-18724674D01*
X4312920Y-18724674D02*
X4322444Y-18686579D01*
X4322444Y-18686579D02*
X4331967Y-18667531D01*
X4331967Y-18667531D02*
X4341491Y-18658008D01*
X4341491Y-18658008D02*
X4360539Y-18648484D01*
X4512920Y-18848484D02*
X4512920Y-18715150D01*
X4512920Y-18734198D02*
X4522444Y-18724674D01*
X4522444Y-18724674D02*
X4541491Y-18715150D01*
X4541491Y-18715150D02*
X4570063Y-18715150D01*
X4570063Y-18715150D02*
X4589110Y-18724674D01*
X4589110Y-18724674D02*
X4598634Y-18743722D01*
X4598634Y-18743722D02*
X4598634Y-18848484D01*
X4598634Y-18743722D02*
X4608158Y-18724674D01*
X4608158Y-18724674D02*
X4627205Y-18715150D01*
X4627205Y-18715150D02*
X4655777Y-18715150D01*
X4655777Y-18715150D02*
X4674825Y-18724674D01*
X4674825Y-18724674D02*
X4684348Y-18743722D01*
X4684348Y-18743722D02*
X4684348Y-18848484D01*
X4779586Y-18848484D02*
X4779586Y-18715150D01*
X4779586Y-18734198D02*
X4789110Y-18724674D01*
X4789110Y-18724674D02*
X4808158Y-18715150D01*
X4808158Y-18715150D02*
X4836729Y-18715150D01*
X4836729Y-18715150D02*
X4855777Y-18724674D01*
X4855777Y-18724674D02*
X4865301Y-18743722D01*
X4865301Y-18743722D02*
X4865301Y-18848484D01*
X4865301Y-18743722D02*
X4874825Y-18724674D01*
X4874825Y-18724674D02*
X4893872Y-18715150D01*
X4893872Y-18715150D02*
X4922444Y-18715150D01*
X4922444Y-18715150D02*
X4941491Y-18724674D01*
X4941491Y-18724674D02*
X4951015Y-18743722D01*
X4951015Y-18743722D02*
X4951015Y-18848484D01*
X5341491Y-18638960D02*
X5170063Y-18896103D01*
X5598634Y-18648484D02*
X5617682Y-18648484D01*
X5617682Y-18648484D02*
X5636729Y-18658008D01*
X5636729Y-18658008D02*
X5646253Y-18667531D01*
X5646253Y-18667531D02*
X5655777Y-18686579D01*
X5655777Y-18686579D02*
X5665301Y-18724674D01*
X5665301Y-18724674D02*
X5665301Y-18772293D01*
X5665301Y-18772293D02*
X5655777Y-18810389D01*
X5655777Y-18810389D02*
X5646253Y-18829436D01*
X5646253Y-18829436D02*
X5636729Y-18838960D01*
X5636729Y-18838960D02*
X5617682Y-18848484D01*
X5617682Y-18848484D02*
X5598634Y-18848484D01*
X5598634Y-18848484D02*
X5579587Y-18838960D01*
X5579587Y-18838960D02*
X5570063Y-18829436D01*
X5570063Y-18829436D02*
X5560539Y-18810389D01*
X5560539Y-18810389D02*
X5551015Y-18772293D01*
X5551015Y-18772293D02*
X5551015Y-18724674D01*
X5551015Y-18724674D02*
X5560539Y-18686579D01*
X5560539Y-18686579D02*
X5570063Y-18667531D01*
X5570063Y-18667531D02*
X5579587Y-18658008D01*
X5579587Y-18658008D02*
X5598634Y-18648484D01*
X5751015Y-18829436D02*
X5760539Y-18838960D01*
X5760539Y-18838960D02*
X5751015Y-18848484D01*
X5751015Y-18848484D02*
X5741491Y-18838960D01*
X5741491Y-18838960D02*
X5751015Y-18829436D01*
X5751015Y-18829436D02*
X5751015Y-18848484D01*
X5884348Y-18648484D02*
X5903396Y-18648484D01*
X5903396Y-18648484D02*
X5922444Y-18658008D01*
X5922444Y-18658008D02*
X5931967Y-18667531D01*
X5931967Y-18667531D02*
X5941491Y-18686579D01*
X5941491Y-18686579D02*
X5951015Y-18724674D01*
X5951015Y-18724674D02*
X5951015Y-18772293D01*
X5951015Y-18772293D02*
X5941491Y-18810389D01*
X5941491Y-18810389D02*
X5931967Y-18829436D01*
X5931967Y-18829436D02*
X5922444Y-18838960D01*
X5922444Y-18838960D02*
X5903396Y-18848484D01*
X5903396Y-18848484D02*
X5884348Y-18848484D01*
X5884348Y-18848484D02*
X5865301Y-18838960D01*
X5865301Y-18838960D02*
X5855777Y-18829436D01*
X5855777Y-18829436D02*
X5846253Y-18810389D01*
X5846253Y-18810389D02*
X5836729Y-18772293D01*
X5836729Y-18772293D02*
X5836729Y-18724674D01*
X5836729Y-18724674D02*
X5846253Y-18686579D01*
X5846253Y-18686579D02*
X5855777Y-18667531D01*
X5855777Y-18667531D02*
X5865301Y-18658008D01*
X5865301Y-18658008D02*
X5884348Y-18648484D01*
X6131967Y-18648484D02*
X6036729Y-18648484D01*
X6036729Y-18648484D02*
X6027206Y-18743722D01*
X6027206Y-18743722D02*
X6036729Y-18734198D01*
X6036729Y-18734198D02*
X6055777Y-18724674D01*
X6055777Y-18724674D02*
X6103396Y-18724674D01*
X6103396Y-18724674D02*
X6122444Y-18734198D01*
X6122444Y-18734198D02*
X6131967Y-18743722D01*
X6131967Y-18743722D02*
X6141491Y-18762770D01*
X6141491Y-18762770D02*
X6141491Y-18810389D01*
X6141491Y-18810389D02*
X6131967Y-18829436D01*
X6131967Y-18829436D02*
X6122444Y-18838960D01*
X6122444Y-18838960D02*
X6103396Y-18848484D01*
X6103396Y-18848484D02*
X6055777Y-18848484D01*
X6055777Y-18848484D02*
X6036729Y-18838960D01*
X6036729Y-18838960D02*
X6027206Y-18829436D01*
X6331967Y-18848484D02*
X6217682Y-18848484D01*
X6274825Y-18848484D02*
X6274825Y-18648484D01*
X6274825Y-18648484D02*
X6255777Y-18677055D01*
X6255777Y-18677055D02*
X6236729Y-18696103D01*
X6236729Y-18696103D02*
X6217682Y-18705627D01*
X6408158Y-18667531D02*
X6417682Y-18658008D01*
X6417682Y-18658008D02*
X6436729Y-18648484D01*
X6436729Y-18648484D02*
X6484348Y-18648484D01*
X6484348Y-18648484D02*
X6503396Y-18658008D01*
X6503396Y-18658008D02*
X6512920Y-18667531D01*
X6512920Y-18667531D02*
X6522444Y-18686579D01*
X6522444Y-18686579D02*
X6522444Y-18705627D01*
X6522444Y-18705627D02*
X6512920Y-18734198D01*
X6512920Y-18734198D02*
X6398634Y-18848484D01*
X6398634Y-18848484D02*
X6522444Y-18848484D01*
X6598634Y-18648484D02*
X6598634Y-18686579D01*
X6674825Y-18648484D02*
X6674825Y-18686579D01*
X6970063Y-18924674D02*
X6960539Y-18915150D01*
X6960539Y-18915150D02*
X6941491Y-18886579D01*
X6941491Y-18886579D02*
X6931968Y-18867531D01*
X6931968Y-18867531D02*
X6922444Y-18838960D01*
X6922444Y-18838960D02*
X6912920Y-18791341D01*
X6912920Y-18791341D02*
X6912920Y-18753246D01*
X6912920Y-18753246D02*
X6922444Y-18705627D01*
X6922444Y-18705627D02*
X6931968Y-18677055D01*
X6931968Y-18677055D02*
X6941491Y-18658008D01*
X6941491Y-18658008D02*
X6960539Y-18629436D01*
X6960539Y-18629436D02*
X6970063Y-18619912D01*
X7131968Y-18715150D02*
X7131968Y-18848484D01*
X7084348Y-18638960D02*
X7036729Y-18781817D01*
X7036729Y-18781817D02*
X7160539Y-18781817D01*
X7389110Y-18848484D02*
X7389110Y-18648484D01*
X7474825Y-18848484D02*
X7474825Y-18743722D01*
X7474825Y-18743722D02*
X7465301Y-18724674D01*
X7465301Y-18724674D02*
X7446253Y-18715150D01*
X7446253Y-18715150D02*
X7417682Y-18715150D01*
X7417682Y-18715150D02*
X7398634Y-18724674D01*
X7398634Y-18724674D02*
X7389110Y-18734198D01*
X7598634Y-18848484D02*
X7579587Y-18838960D01*
X7579587Y-18838960D02*
X7570063Y-18829436D01*
X7570063Y-18829436D02*
X7560539Y-18810389D01*
X7560539Y-18810389D02*
X7560539Y-18753246D01*
X7560539Y-18753246D02*
X7570063Y-18734198D01*
X7570063Y-18734198D02*
X7579587Y-18724674D01*
X7579587Y-18724674D02*
X7598634Y-18715150D01*
X7598634Y-18715150D02*
X7627206Y-18715150D01*
X7627206Y-18715150D02*
X7646253Y-18724674D01*
X7646253Y-18724674D02*
X7655777Y-18734198D01*
X7655777Y-18734198D02*
X7665301Y-18753246D01*
X7665301Y-18753246D02*
X7665301Y-18810389D01*
X7665301Y-18810389D02*
X7655777Y-18829436D01*
X7655777Y-18829436D02*
X7646253Y-18838960D01*
X7646253Y-18838960D02*
X7627206Y-18848484D01*
X7627206Y-18848484D02*
X7598634Y-18848484D01*
X7779587Y-18848484D02*
X7760539Y-18838960D01*
X7760539Y-18838960D02*
X7751015Y-18819912D01*
X7751015Y-18819912D02*
X7751015Y-18648484D01*
X7931968Y-18838960D02*
X7912920Y-18848484D01*
X7912920Y-18848484D02*
X7874825Y-18848484D01*
X7874825Y-18848484D02*
X7855777Y-18838960D01*
X7855777Y-18838960D02*
X7846253Y-18819912D01*
X7846253Y-18819912D02*
X7846253Y-18743722D01*
X7846253Y-18743722D02*
X7855777Y-18724674D01*
X7855777Y-18724674D02*
X7874825Y-18715150D01*
X7874825Y-18715150D02*
X7912920Y-18715150D01*
X7912920Y-18715150D02*
X7931968Y-18724674D01*
X7931968Y-18724674D02*
X7941491Y-18743722D01*
X7941491Y-18743722D02*
X7941491Y-18762770D01*
X7941491Y-18762770D02*
X7846253Y-18781817D01*
X8017682Y-18838960D02*
X8036730Y-18848484D01*
X8036730Y-18848484D02*
X8074825Y-18848484D01*
X8074825Y-18848484D02*
X8093872Y-18838960D01*
X8093872Y-18838960D02*
X8103396Y-18819912D01*
X8103396Y-18819912D02*
X8103396Y-18810389D01*
X8103396Y-18810389D02*
X8093872Y-18791341D01*
X8093872Y-18791341D02*
X8074825Y-18781817D01*
X8074825Y-18781817D02*
X8046253Y-18781817D01*
X8046253Y-18781817D02*
X8027206Y-18772293D01*
X8027206Y-18772293D02*
X8017682Y-18753246D01*
X8017682Y-18753246D02*
X8017682Y-18743722D01*
X8017682Y-18743722D02*
X8027206Y-18724674D01*
X8027206Y-18724674D02*
X8046253Y-18715150D01*
X8046253Y-18715150D02*
X8074825Y-18715150D01*
X8074825Y-18715150D02*
X8093872Y-18724674D01*
X8170063Y-18924674D02*
X8179587Y-18915150D01*
X8179587Y-18915150D02*
X8198634Y-18886579D01*
X8198634Y-18886579D02*
X8208158Y-18867531D01*
X8208158Y-18867531D02*
X8217682Y-18838960D01*
X8217682Y-18838960D02*
X8227206Y-18791341D01*
X8227206Y-18791341D02*
X8227206Y-18753246D01*
X8227206Y-18753246D02*
X8217682Y-18705627D01*
X8217682Y-18705627D02*
X8208158Y-18677055D01*
X8208158Y-18677055D02*
X8198634Y-18658008D01*
X8198634Y-18658008D02*
X8179587Y-18629436D01*
X8179587Y-18629436D02*
X8170063Y-18619912D01*
D15*
X3319000Y-18945000D02*
X3319000Y-19097000D01*
X3243000Y-19021000D02*
X3395000Y-19021000D01*
X3395000Y-19021000D02*
G75*
G02*
X3243000Y-19021000I-76000J0D01*
G01*
X3243000Y-19021000D02*
G75*
G02*
X3395000Y-19021000I76000J0D01*
G01*
D11*
X3760539Y-19112484D02*
X3646253Y-19112484D01*
X3703396Y-19112484D02*
X3703396Y-18912484D01*
X3703396Y-18912484D02*
X3684348Y-18941055D01*
X3684348Y-18941055D02*
X3665301Y-18960103D01*
X3665301Y-18960103D02*
X3646253Y-18969627D01*
X3846253Y-19093436D02*
X3855777Y-19102960D01*
X3855777Y-19102960D02*
X3846253Y-19112484D01*
X3846253Y-19112484D02*
X3836729Y-19102960D01*
X3836729Y-19102960D02*
X3846253Y-19093436D01*
X3846253Y-19093436D02*
X3846253Y-19112484D01*
X4036729Y-18912484D02*
X3941491Y-18912484D01*
X3941491Y-18912484D02*
X3931967Y-19007722D01*
X3931967Y-19007722D02*
X3941491Y-18998198D01*
X3941491Y-18998198D02*
X3960539Y-18988674D01*
X3960539Y-18988674D02*
X4008158Y-18988674D01*
X4008158Y-18988674D02*
X4027205Y-18998198D01*
X4027205Y-18998198D02*
X4036729Y-19007722D01*
X4036729Y-19007722D02*
X4046253Y-19026770D01*
X4046253Y-19026770D02*
X4046253Y-19074389D01*
X4046253Y-19074389D02*
X4036729Y-19093436D01*
X4036729Y-19093436D02*
X4027205Y-19102960D01*
X4027205Y-19102960D02*
X4008158Y-19112484D01*
X4008158Y-19112484D02*
X3960539Y-19112484D01*
X3960539Y-19112484D02*
X3941491Y-19102960D01*
X3941491Y-19102960D02*
X3931967Y-19093436D01*
X4122443Y-18931531D02*
X4131967Y-18922008D01*
X4131967Y-18922008D02*
X4151015Y-18912484D01*
X4151015Y-18912484D02*
X4198634Y-18912484D01*
X4198634Y-18912484D02*
X4217682Y-18922008D01*
X4217682Y-18922008D02*
X4227205Y-18931531D01*
X4227205Y-18931531D02*
X4236729Y-18950579D01*
X4236729Y-18950579D02*
X4236729Y-18969627D01*
X4236729Y-18969627D02*
X4227205Y-18998198D01*
X4227205Y-18998198D02*
X4112920Y-19112484D01*
X4112920Y-19112484D02*
X4236729Y-19112484D01*
X4360539Y-18912484D02*
X4379586Y-18912484D01*
X4379586Y-18912484D02*
X4398634Y-18922008D01*
X4398634Y-18922008D02*
X4408158Y-18931531D01*
X4408158Y-18931531D02*
X4417682Y-18950579D01*
X4417682Y-18950579D02*
X4427205Y-18988674D01*
X4427205Y-18988674D02*
X4427205Y-19036293D01*
X4427205Y-19036293D02*
X4417682Y-19074389D01*
X4417682Y-19074389D02*
X4408158Y-19093436D01*
X4408158Y-19093436D02*
X4398634Y-19102960D01*
X4398634Y-19102960D02*
X4379586Y-19112484D01*
X4379586Y-19112484D02*
X4360539Y-19112484D01*
X4360539Y-19112484D02*
X4341491Y-19102960D01*
X4341491Y-19102960D02*
X4331967Y-19093436D01*
X4331967Y-19093436D02*
X4322444Y-19074389D01*
X4322444Y-19074389D02*
X4312920Y-19036293D01*
X4312920Y-19036293D02*
X4312920Y-18988674D01*
X4312920Y-18988674D02*
X4322444Y-18950579D01*
X4322444Y-18950579D02*
X4331967Y-18931531D01*
X4331967Y-18931531D02*
X4341491Y-18922008D01*
X4341491Y-18922008D02*
X4360539Y-18912484D01*
X4512920Y-19112484D02*
X4512920Y-18979150D01*
X4512920Y-18998198D02*
X4522444Y-18988674D01*
X4522444Y-18988674D02*
X4541491Y-18979150D01*
X4541491Y-18979150D02*
X4570063Y-18979150D01*
X4570063Y-18979150D02*
X4589110Y-18988674D01*
X4589110Y-18988674D02*
X4598634Y-19007722D01*
X4598634Y-19007722D02*
X4598634Y-19112484D01*
X4598634Y-19007722D02*
X4608158Y-18988674D01*
X4608158Y-18988674D02*
X4627205Y-18979150D01*
X4627205Y-18979150D02*
X4655777Y-18979150D01*
X4655777Y-18979150D02*
X4674825Y-18988674D01*
X4674825Y-18988674D02*
X4684348Y-19007722D01*
X4684348Y-19007722D02*
X4684348Y-19112484D01*
X4779586Y-19112484D02*
X4779586Y-18979150D01*
X4779586Y-18998198D02*
X4789110Y-18988674D01*
X4789110Y-18988674D02*
X4808158Y-18979150D01*
X4808158Y-18979150D02*
X4836729Y-18979150D01*
X4836729Y-18979150D02*
X4855777Y-18988674D01*
X4855777Y-18988674D02*
X4865301Y-19007722D01*
X4865301Y-19007722D02*
X4865301Y-19112484D01*
X4865301Y-19007722D02*
X4874825Y-18988674D01*
X4874825Y-18988674D02*
X4893872Y-18979150D01*
X4893872Y-18979150D02*
X4922444Y-18979150D01*
X4922444Y-18979150D02*
X4941491Y-18988674D01*
X4941491Y-18988674D02*
X4951015Y-19007722D01*
X4951015Y-19007722D02*
X4951015Y-19112484D01*
X5341491Y-18902960D02*
X5170063Y-19160103D01*
X5598634Y-18912484D02*
X5617682Y-18912484D01*
X5617682Y-18912484D02*
X5636729Y-18922008D01*
X5636729Y-18922008D02*
X5646253Y-18931531D01*
X5646253Y-18931531D02*
X5655777Y-18950579D01*
X5655777Y-18950579D02*
X5665301Y-18988674D01*
X5665301Y-18988674D02*
X5665301Y-19036293D01*
X5665301Y-19036293D02*
X5655777Y-19074389D01*
X5655777Y-19074389D02*
X5646253Y-19093436D01*
X5646253Y-19093436D02*
X5636729Y-19102960D01*
X5636729Y-19102960D02*
X5617682Y-19112484D01*
X5617682Y-19112484D02*
X5598634Y-19112484D01*
X5598634Y-19112484D02*
X5579587Y-19102960D01*
X5579587Y-19102960D02*
X5570063Y-19093436D01*
X5570063Y-19093436D02*
X5560539Y-19074389D01*
X5560539Y-19074389D02*
X5551015Y-19036293D01*
X5551015Y-19036293D02*
X5551015Y-18988674D01*
X5551015Y-18988674D02*
X5560539Y-18950579D01*
X5560539Y-18950579D02*
X5570063Y-18931531D01*
X5570063Y-18931531D02*
X5579587Y-18922008D01*
X5579587Y-18922008D02*
X5598634Y-18912484D01*
X5751015Y-19093436D02*
X5760539Y-19102960D01*
X5760539Y-19102960D02*
X5751015Y-19112484D01*
X5751015Y-19112484D02*
X5741491Y-19102960D01*
X5741491Y-19102960D02*
X5751015Y-19093436D01*
X5751015Y-19093436D02*
X5751015Y-19112484D01*
X5884348Y-18912484D02*
X5903396Y-18912484D01*
X5903396Y-18912484D02*
X5922444Y-18922008D01*
X5922444Y-18922008D02*
X5931967Y-18931531D01*
X5931967Y-18931531D02*
X5941491Y-18950579D01*
X5941491Y-18950579D02*
X5951015Y-18988674D01*
X5951015Y-18988674D02*
X5951015Y-19036293D01*
X5951015Y-19036293D02*
X5941491Y-19074389D01*
X5941491Y-19074389D02*
X5931967Y-19093436D01*
X5931967Y-19093436D02*
X5922444Y-19102960D01*
X5922444Y-19102960D02*
X5903396Y-19112484D01*
X5903396Y-19112484D02*
X5884348Y-19112484D01*
X5884348Y-19112484D02*
X5865301Y-19102960D01*
X5865301Y-19102960D02*
X5855777Y-19093436D01*
X5855777Y-19093436D02*
X5846253Y-19074389D01*
X5846253Y-19074389D02*
X5836729Y-19036293D01*
X5836729Y-19036293D02*
X5836729Y-18988674D01*
X5836729Y-18988674D02*
X5846253Y-18950579D01*
X5846253Y-18950579D02*
X5855777Y-18931531D01*
X5855777Y-18931531D02*
X5865301Y-18922008D01*
X5865301Y-18922008D02*
X5884348Y-18912484D01*
X6131967Y-18912484D02*
X6036729Y-18912484D01*
X6036729Y-18912484D02*
X6027206Y-19007722D01*
X6027206Y-19007722D02*
X6036729Y-18998198D01*
X6036729Y-18998198D02*
X6055777Y-18988674D01*
X6055777Y-18988674D02*
X6103396Y-18988674D01*
X6103396Y-18988674D02*
X6122444Y-18998198D01*
X6122444Y-18998198D02*
X6131967Y-19007722D01*
X6131967Y-19007722D02*
X6141491Y-19026770D01*
X6141491Y-19026770D02*
X6141491Y-19074389D01*
X6141491Y-19074389D02*
X6131967Y-19093436D01*
X6131967Y-19093436D02*
X6122444Y-19102960D01*
X6122444Y-19102960D02*
X6103396Y-19112484D01*
X6103396Y-19112484D02*
X6055777Y-19112484D01*
X6055777Y-19112484D02*
X6036729Y-19102960D01*
X6036729Y-19102960D02*
X6027206Y-19093436D01*
X6236729Y-19112484D02*
X6274825Y-19112484D01*
X6274825Y-19112484D02*
X6293872Y-19102960D01*
X6293872Y-19102960D02*
X6303396Y-19093436D01*
X6303396Y-19093436D02*
X6322444Y-19064865D01*
X6322444Y-19064865D02*
X6331967Y-19026770D01*
X6331967Y-19026770D02*
X6331967Y-18950579D01*
X6331967Y-18950579D02*
X6322444Y-18931531D01*
X6322444Y-18931531D02*
X6312920Y-18922008D01*
X6312920Y-18922008D02*
X6293872Y-18912484D01*
X6293872Y-18912484D02*
X6255777Y-18912484D01*
X6255777Y-18912484D02*
X6236729Y-18922008D01*
X6236729Y-18922008D02*
X6227206Y-18931531D01*
X6227206Y-18931531D02*
X6217682Y-18950579D01*
X6217682Y-18950579D02*
X6217682Y-18998198D01*
X6217682Y-18998198D02*
X6227206Y-19017246D01*
X6227206Y-19017246D02*
X6236729Y-19026770D01*
X6236729Y-19026770D02*
X6255777Y-19036293D01*
X6255777Y-19036293D02*
X6293872Y-19036293D01*
X6293872Y-19036293D02*
X6312920Y-19026770D01*
X6312920Y-19026770D02*
X6322444Y-19017246D01*
X6322444Y-19017246D02*
X6331967Y-18998198D01*
X6446253Y-18998198D02*
X6427206Y-18988674D01*
X6427206Y-18988674D02*
X6417682Y-18979150D01*
X6417682Y-18979150D02*
X6408158Y-18960103D01*
X6408158Y-18960103D02*
X6408158Y-18950579D01*
X6408158Y-18950579D02*
X6417682Y-18931531D01*
X6417682Y-18931531D02*
X6427206Y-18922008D01*
X6427206Y-18922008D02*
X6446253Y-18912484D01*
X6446253Y-18912484D02*
X6484348Y-18912484D01*
X6484348Y-18912484D02*
X6503396Y-18922008D01*
X6503396Y-18922008D02*
X6512920Y-18931531D01*
X6512920Y-18931531D02*
X6522444Y-18950579D01*
X6522444Y-18950579D02*
X6522444Y-18960103D01*
X6522444Y-18960103D02*
X6512920Y-18979150D01*
X6512920Y-18979150D02*
X6503396Y-18988674D01*
X6503396Y-18988674D02*
X6484348Y-18998198D01*
X6484348Y-18998198D02*
X6446253Y-18998198D01*
X6446253Y-18998198D02*
X6427206Y-19007722D01*
X6427206Y-19007722D02*
X6417682Y-19017246D01*
X6417682Y-19017246D02*
X6408158Y-19036293D01*
X6408158Y-19036293D02*
X6408158Y-19074389D01*
X6408158Y-19074389D02*
X6417682Y-19093436D01*
X6417682Y-19093436D02*
X6427206Y-19102960D01*
X6427206Y-19102960D02*
X6446253Y-19112484D01*
X6446253Y-19112484D02*
X6484348Y-19112484D01*
X6484348Y-19112484D02*
X6503396Y-19102960D01*
X6503396Y-19102960D02*
X6512920Y-19093436D01*
X6512920Y-19093436D02*
X6522444Y-19074389D01*
X6522444Y-19074389D02*
X6522444Y-19036293D01*
X6522444Y-19036293D02*
X6512920Y-19017246D01*
X6512920Y-19017246D02*
X6503396Y-19007722D01*
X6503396Y-19007722D02*
X6484348Y-18998198D01*
X6598634Y-18912484D02*
X6598634Y-18950579D01*
X6674825Y-18912484D02*
X6674825Y-18950579D01*
X6970063Y-19188674D02*
X6960539Y-19179150D01*
X6960539Y-19179150D02*
X6941491Y-19150579D01*
X6941491Y-19150579D02*
X6931968Y-19131531D01*
X6931968Y-19131531D02*
X6922444Y-19102960D01*
X6922444Y-19102960D02*
X6912920Y-19055341D01*
X6912920Y-19055341D02*
X6912920Y-19017246D01*
X6912920Y-19017246D02*
X6922444Y-18969627D01*
X6922444Y-18969627D02*
X6931968Y-18941055D01*
X6931968Y-18941055D02*
X6941491Y-18922008D01*
X6941491Y-18922008D02*
X6960539Y-18893436D01*
X6960539Y-18893436D02*
X6970063Y-18883912D01*
X7074825Y-18998198D02*
X7055777Y-18988674D01*
X7055777Y-18988674D02*
X7046253Y-18979150D01*
X7046253Y-18979150D02*
X7036729Y-18960103D01*
X7036729Y-18960103D02*
X7036729Y-18950579D01*
X7036729Y-18950579D02*
X7046253Y-18931531D01*
X7046253Y-18931531D02*
X7055777Y-18922008D01*
X7055777Y-18922008D02*
X7074825Y-18912484D01*
X7074825Y-18912484D02*
X7112920Y-18912484D01*
X7112920Y-18912484D02*
X7131968Y-18922008D01*
X7131968Y-18922008D02*
X7141491Y-18931531D01*
X7141491Y-18931531D02*
X7151015Y-18950579D01*
X7151015Y-18950579D02*
X7151015Y-18960103D01*
X7151015Y-18960103D02*
X7141491Y-18979150D01*
X7141491Y-18979150D02*
X7131968Y-18988674D01*
X7131968Y-18988674D02*
X7112920Y-18998198D01*
X7112920Y-18998198D02*
X7074825Y-18998198D01*
X7074825Y-18998198D02*
X7055777Y-19007722D01*
X7055777Y-19007722D02*
X7046253Y-19017246D01*
X7046253Y-19017246D02*
X7036729Y-19036293D01*
X7036729Y-19036293D02*
X7036729Y-19074389D01*
X7036729Y-19074389D02*
X7046253Y-19093436D01*
X7046253Y-19093436D02*
X7055777Y-19102960D01*
X7055777Y-19102960D02*
X7074825Y-19112484D01*
X7074825Y-19112484D02*
X7112920Y-19112484D01*
X7112920Y-19112484D02*
X7131968Y-19102960D01*
X7131968Y-19102960D02*
X7141491Y-19093436D01*
X7141491Y-19093436D02*
X7151015Y-19074389D01*
X7151015Y-19074389D02*
X7151015Y-19036293D01*
X7151015Y-19036293D02*
X7141491Y-19017246D01*
X7141491Y-19017246D02*
X7131968Y-19007722D01*
X7131968Y-19007722D02*
X7112920Y-18998198D01*
X7389110Y-19112484D02*
X7389110Y-18912484D01*
X7474825Y-19112484D02*
X7474825Y-19007722D01*
X7474825Y-19007722D02*
X7465301Y-18988674D01*
X7465301Y-18988674D02*
X7446253Y-18979150D01*
X7446253Y-18979150D02*
X7417682Y-18979150D01*
X7417682Y-18979150D02*
X7398634Y-18988674D01*
X7398634Y-18988674D02*
X7389110Y-18998198D01*
X7598634Y-19112484D02*
X7579587Y-19102960D01*
X7579587Y-19102960D02*
X7570063Y-19093436D01*
X7570063Y-19093436D02*
X7560539Y-19074389D01*
X7560539Y-19074389D02*
X7560539Y-19017246D01*
X7560539Y-19017246D02*
X7570063Y-18998198D01*
X7570063Y-18998198D02*
X7579587Y-18988674D01*
X7579587Y-18988674D02*
X7598634Y-18979150D01*
X7598634Y-18979150D02*
X7627206Y-18979150D01*
X7627206Y-18979150D02*
X7646253Y-18988674D01*
X7646253Y-18988674D02*
X7655777Y-18998198D01*
X7655777Y-18998198D02*
X7665301Y-19017246D01*
X7665301Y-19017246D02*
X7665301Y-19074389D01*
X7665301Y-19074389D02*
X7655777Y-19093436D01*
X7655777Y-19093436D02*
X7646253Y-19102960D01*
X7646253Y-19102960D02*
X7627206Y-19112484D01*
X7627206Y-19112484D02*
X7598634Y-19112484D01*
X7779587Y-19112484D02*
X7760539Y-19102960D01*
X7760539Y-19102960D02*
X7751015Y-19083912D01*
X7751015Y-19083912D02*
X7751015Y-18912484D01*
X7931968Y-19102960D02*
X7912920Y-19112484D01*
X7912920Y-19112484D02*
X7874825Y-19112484D01*
X7874825Y-19112484D02*
X7855777Y-19102960D01*
X7855777Y-19102960D02*
X7846253Y-19083912D01*
X7846253Y-19083912D02*
X7846253Y-19007722D01*
X7846253Y-19007722D02*
X7855777Y-18988674D01*
X7855777Y-18988674D02*
X7874825Y-18979150D01*
X7874825Y-18979150D02*
X7912920Y-18979150D01*
X7912920Y-18979150D02*
X7931968Y-18988674D01*
X7931968Y-18988674D02*
X7941491Y-19007722D01*
X7941491Y-19007722D02*
X7941491Y-19026770D01*
X7941491Y-19026770D02*
X7846253Y-19045817D01*
X8017682Y-19102960D02*
X8036730Y-19112484D01*
X8036730Y-19112484D02*
X8074825Y-19112484D01*
X8074825Y-19112484D02*
X8093872Y-19102960D01*
X8093872Y-19102960D02*
X8103396Y-19083912D01*
X8103396Y-19083912D02*
X8103396Y-19074389D01*
X8103396Y-19074389D02*
X8093872Y-19055341D01*
X8093872Y-19055341D02*
X8074825Y-19045817D01*
X8074825Y-19045817D02*
X8046253Y-19045817D01*
X8046253Y-19045817D02*
X8027206Y-19036293D01*
X8027206Y-19036293D02*
X8017682Y-19017246D01*
X8017682Y-19017246D02*
X8017682Y-19007722D01*
X8017682Y-19007722D02*
X8027206Y-18988674D01*
X8027206Y-18988674D02*
X8046253Y-18979150D01*
X8046253Y-18979150D02*
X8074825Y-18979150D01*
X8074825Y-18979150D02*
X8093872Y-18988674D01*
X8170063Y-19188674D02*
X8179587Y-19179150D01*
X8179587Y-19179150D02*
X8198634Y-19150579D01*
X8198634Y-19150579D02*
X8208158Y-19131531D01*
X8208158Y-19131531D02*
X8217682Y-19102960D01*
X8217682Y-19102960D02*
X8227206Y-19055341D01*
X8227206Y-19055341D02*
X8227206Y-19017246D01*
X8227206Y-19017246D02*
X8217682Y-18969627D01*
X8217682Y-18969627D02*
X8208158Y-18941055D01*
X8208158Y-18941055D02*
X8198634Y-18922008D01*
X8198634Y-18922008D02*
X8179587Y-18893436D01*
X8179587Y-18893436D02*
X8170063Y-18883912D01*
M02*
