%TF.GenerationSoftware,KiCad,Pcbnew,8.0.1-8.0.1-1~ubuntu22.04.1*%
%TF.CreationDate,2024-03-23T16:48:16+11:00*%
%TF.ProjectId,PIMD601,50494d44-3630-4312-9e6b-696361645f70,6.01*%
%TF.SameCoordinates,Original*%
%TF.FileFunction,Soldermask,Top*%
%TF.FilePolarity,Negative*%
%FSLAX46Y46*%
G04 Gerber Fmt 4.6, Leading zero omitted, Abs format (unit mm)*
G04 Created by KiCad (PCBNEW 8.0.1-8.0.1-1~ubuntu22.04.1) date 2024-03-23 16:48:16*
%MOMM*%
%LPD*%
G01*
G04 APERTURE LIST*
%ADD10C,1.600000*%
%ADD11O,1.600000X1.600000*%
%ADD12R,1.600000X1.600000*%
%ADD13R,1.700000X1.700000*%
%ADD14O,1.700000X1.700000*%
%ADD15R,3.000000X3.000000*%
%ADD16C,3.000000*%
%ADD17C,3.200000*%
%ADD18C,4.000000*%
%ADD19C,1.800000*%
%ADD20C,2.200000*%
%ADD21O,2.200000X2.200000*%
%ADD22R,2.400000X2.400000*%
%ADD23C,2.400000*%
%ADD24C,1.500000*%
%ADD25R,1.905000X2.000000*%
%ADD26O,1.905000X2.000000*%
%ADD27R,1.800000X1.800000*%
%ADD28O,2.400000X2.400000*%
%ADD29R,2.200000X2.200000*%
%ADD30O,3.000000X2.500000*%
%ADD31R,2.000000X1.905000*%
%ADD32O,2.000000X1.905000*%
%ADD33C,2.300000*%
%ADD34O,6.000000X2.000000*%
%ADD35C,0.800000*%
G04 APERTURE END LIST*
D10*
%TO.C,R17*%
X91440000Y-66040000D03*
D11*
X91440000Y-76200000D03*
%TD*%
D10*
%TO.C,C3*%
X91400000Y-35560000D03*
X88900000Y-35560000D03*
%TD*%
%TO.C,R7*%
X142240000Y-35560000D03*
D11*
X142240000Y-45720000D03*
%TD*%
D12*
%TO.C,U5*%
X127000000Y-71120000D03*
D11*
X124460000Y-71120000D03*
X121920000Y-71120000D03*
X119380000Y-71120000D03*
X119380000Y-81280000D03*
X121920000Y-81280000D03*
X124460000Y-81280000D03*
X127000000Y-81280000D03*
%TD*%
D13*
%TO.C,J6*%
X88900000Y-96520000D03*
D14*
X91440000Y-96520000D03*
X93980000Y-96520000D03*
X96520000Y-96520000D03*
X99060000Y-96520000D03*
X101600000Y-96520000D03*
X104140000Y-96520000D03*
X106680000Y-96520000D03*
%TD*%
D10*
%TO.C,C9*%
X132715000Y-35560000D03*
X132715000Y-43060000D03*
%TD*%
%TO.C,R26*%
X134620000Y-55880000D03*
D11*
X144780000Y-55880000D03*
%TD*%
%TO.C,U7*%
X187960000Y-71120000D03*
X185420000Y-71120000D03*
X182880000Y-71120000D03*
X180340000Y-71120000D03*
X177800000Y-71120000D03*
X175260000Y-71120000D03*
X175260000Y-86360000D03*
X177800000Y-86360000D03*
X180340000Y-86360000D03*
X182880000Y-86360000D03*
X185420000Y-86360000D03*
X187960000Y-86360000D03*
D12*
X190500000Y-71120000D03*
D11*
X172720000Y-71120000D03*
X172720000Y-86360000D03*
X190500000Y-86360000D03*
%TD*%
D10*
%TO.C,R21*%
X99060000Y-76200000D03*
D11*
X99060000Y-66040000D03*
%TD*%
D15*
%TO.C,J3*%
X40640000Y-149860000D03*
D16*
X40640000Y-154940000D03*
%TD*%
D17*
%TO.C,H4*%
X191770000Y-142240000D03*
%TD*%
D12*
%TO.C,U3*%
X160020000Y-50800000D03*
D11*
X160020000Y-48260000D03*
X160020000Y-45720000D03*
X160020000Y-43180000D03*
X152400000Y-43180000D03*
X152400000Y-45720000D03*
X152400000Y-48260000D03*
X152400000Y-50800000D03*
%TD*%
D18*
%TO.C,RV4*%
X131750000Y-152120000D03*
X122250000Y-152120000D03*
D19*
X124500000Y-144620000D03*
X127000000Y-144620000D03*
X129500000Y-144620000D03*
%TD*%
D10*
%TO.C,R2*%
X96520000Y-35560000D03*
D11*
X96520000Y-45720000D03*
%TD*%
D10*
%TO.C,C11*%
X157440000Y-63500000D03*
X159940000Y-63500000D03*
%TD*%
D20*
%TO.C,FB1*%
X53340000Y-124460000D03*
D21*
X53340000Y-104140000D03*
%TD*%
D22*
%TO.C,C19*%
X43180000Y-86480000D03*
D23*
X43180000Y-93980000D03*
%TD*%
D10*
%TO.C,R41*%
X142240000Y-154940000D03*
D11*
X152400000Y-154940000D03*
%TD*%
D24*
%TO.C,TP8*%
X86360000Y-91440000D03*
%TD*%
D10*
%TO.C,R30*%
X147320000Y-93980000D03*
D11*
X147320000Y-104140000D03*
%TD*%
D25*
%TO.C,Q1*%
X58420000Y-35560000D03*
D26*
X60960000Y-35560000D03*
X63500000Y-35560000D03*
%TD*%
D12*
%TO.C,C21*%
X167680000Y-96520000D03*
D10*
X170180000Y-96520000D03*
%TD*%
%TO.C,R37*%
X172720000Y-129540000D03*
D11*
X172720000Y-119380000D03*
%TD*%
D10*
%TO.C,C17*%
X110490000Y-91440000D03*
X110490000Y-88940000D03*
%TD*%
%TO.C,C4*%
X99060000Y-45720000D03*
X99060000Y-43220000D03*
%TD*%
D24*
%TO.C,TP2*%
X106685000Y-45720000D03*
%TD*%
D10*
%TO.C,C23*%
X45720000Y-109180000D03*
X45720000Y-106680000D03*
%TD*%
D24*
%TO.C,TP5*%
X86360000Y-83820000D03*
%TD*%
D25*
%TO.C,U1*%
X78740000Y-35560000D03*
D26*
X81280000Y-35560000D03*
X83820000Y-35560000D03*
%TD*%
D18*
%TO.C,RV1*%
X108850000Y-131800000D03*
X99350000Y-131800000D03*
D19*
X101600000Y-124300000D03*
X104100000Y-124300000D03*
X106600000Y-124300000D03*
%TD*%
D10*
%TO.C,C6*%
X124460000Y-43180000D03*
X124460000Y-40680000D03*
%TD*%
%TO.C,R25*%
X109220000Y-76200000D03*
D11*
X109220000Y-66040000D03*
%TD*%
D27*
%TO.C,D5*%
X50800000Y-149860000D03*
D19*
X50800000Y-147320000D03*
%TD*%
D10*
%TO.C,C20*%
X162540000Y-99060000D03*
X162540000Y-96560000D03*
%TD*%
D23*
%TO.C,R11*%
X55880000Y-78740000D03*
D28*
X55880000Y-48260000D03*
%TD*%
D17*
%TO.C,H3*%
X191770000Y-44450000D03*
%TD*%
D18*
%TO.C,RV2*%
X131750000Y-131800000D03*
X122250000Y-131800000D03*
D19*
X124500000Y-124300000D03*
X127000000Y-124300000D03*
X129500000Y-124300000D03*
%TD*%
D10*
%TO.C,R8*%
X175260000Y-45720000D03*
D11*
X165100000Y-45720000D03*
%TD*%
D10*
%TO.C,R35*%
X180340000Y-129540000D03*
D11*
X180340000Y-119380000D03*
%TD*%
D24*
%TO.C,TP9*%
X190500000Y-134620000D03*
%TD*%
D15*
%TO.C,J2*%
X193040000Y-35560000D03*
D16*
X187960000Y-35560000D03*
%TD*%
D10*
%TO.C,C26*%
X127000000Y-91440000D03*
X127000000Y-88940000D03*
%TD*%
D29*
%TO.C,D4*%
X50800000Y-129540000D03*
D21*
X50800000Y-142240000D03*
%TD*%
D10*
%TO.C,C8*%
X147320000Y-48260000D03*
X147320000Y-50760000D03*
%TD*%
%TO.C,C2*%
X73660000Y-40640000D03*
X73660000Y-35640000D03*
%TD*%
%TO.C,C12*%
X165060000Y-63500000D03*
X162560000Y-63500000D03*
%TD*%
D12*
%TO.C,U8*%
X106680000Y-83820000D03*
D11*
X104140000Y-83820000D03*
X101600000Y-83820000D03*
X99060000Y-83820000D03*
X96520000Y-83820000D03*
X93980000Y-83820000D03*
X91440000Y-83820000D03*
X91440000Y-91440000D03*
X93980000Y-91440000D03*
X96520000Y-91440000D03*
X99060000Y-91440000D03*
X101600000Y-91440000D03*
X104140000Y-91440000D03*
X106680000Y-91440000D03*
%TD*%
D10*
%TO.C,R23*%
X106680000Y-76200000D03*
D11*
X106680000Y-66040000D03*
%TD*%
D10*
%TO.C,C7*%
X149860000Y-50800000D03*
X149860000Y-48300000D03*
%TD*%
D15*
%TO.C,J1*%
X46355000Y-35560000D03*
D16*
X41275000Y-35560000D03*
%TD*%
D20*
%TO.C,D3*%
X180340000Y-55880000D03*
D21*
X190500000Y-55880000D03*
%TD*%
D24*
%TO.C,TP11*%
X162560000Y-147320000D03*
%TD*%
D10*
%TO.C,R20*%
X101600000Y-76200000D03*
D11*
X101600000Y-66040000D03*
%TD*%
D10*
%TO.C,R40*%
X182880000Y-129540000D03*
D11*
X182880000Y-119380000D03*
%TD*%
D20*
%TO.C,D1*%
X165100000Y-50800000D03*
D21*
X175260000Y-50800000D03*
%TD*%
D24*
%TO.C,TP1*%
X91440000Y-45720000D03*
%TD*%
D10*
%TO.C,R45*%
X160020000Y-134620000D03*
D11*
X149860000Y-134620000D03*
%TD*%
D10*
%TO.C,R19*%
X93980000Y-76200000D03*
D11*
X93980000Y-66040000D03*
%TD*%
D10*
%TO.C,C16*%
X121920000Y-88900000D03*
X121920000Y-96400000D03*
%TD*%
%TO.C,R28*%
X139700000Y-104140000D03*
D11*
X139700000Y-93980000D03*
%TD*%
D30*
%TO.C,SW1*%
X88900000Y-134620000D03*
X76400000Y-134620000D03*
X88900000Y-129620000D03*
X76400000Y-129620000D03*
%TD*%
D31*
%TO.C,U9*%
X40640000Y-111760000D03*
D32*
X40640000Y-109220000D03*
X40640000Y-106680000D03*
%TD*%
D23*
%TO.C,R13*%
X66040000Y-48260000D03*
D28*
X66040000Y-78740000D03*
%TD*%
D24*
%TO.C,TP3*%
X149860000Y-39370000D03*
%TD*%
D10*
%TO.C,C28*%
X190460000Y-154940000D03*
X187960000Y-154940000D03*
%TD*%
D24*
%TO.C,TP6*%
X86360000Y-86360000D03*
%TD*%
D18*
%TO.C,RV3*%
X108890000Y-152120000D03*
X99390000Y-152120000D03*
D19*
X101640000Y-144620000D03*
X104140000Y-144620000D03*
X106640000Y-144620000D03*
%TD*%
D10*
%TO.C,R29*%
X142240000Y-93980000D03*
D11*
X142240000Y-104140000D03*
%TD*%
D24*
%TO.C,TP10*%
X190500000Y-132080000D03*
%TD*%
D10*
%TO.C,R43*%
X160020000Y-137160000D03*
D11*
X149860000Y-137160000D03*
%TD*%
D10*
%TO.C,R44*%
X160020000Y-142240000D03*
D11*
X149860000Y-142240000D03*
%TD*%
D10*
%TO.C,C10*%
X149820000Y-63500000D03*
X147320000Y-63500000D03*
%TD*%
%TO.C,C27*%
X188000000Y-149860000D03*
X190500000Y-149860000D03*
%TD*%
%TO.C,C1*%
X65920000Y-40640000D03*
X58420000Y-40640000D03*
%TD*%
D17*
%TO.C,H1*%
X39370000Y-44450000D03*
%TD*%
D10*
%TO.C,R5*%
X104140000Y-35560000D03*
D11*
X104140000Y-45720000D03*
%TD*%
D10*
%TO.C,R34*%
X157480000Y-93980000D03*
D11*
X157480000Y-104140000D03*
%TD*%
D10*
%TO.C,R14*%
X160020000Y-55880000D03*
D11*
X149860000Y-55880000D03*
%TD*%
D10*
%TO.C,C5*%
X119380000Y-45640000D03*
X119380000Y-40640000D03*
%TD*%
D25*
%TO.C,U2*%
X119380000Y-35560000D03*
D26*
X121920000Y-35560000D03*
X124460000Y-35560000D03*
%TD*%
D10*
%TO.C,C14*%
X175300000Y-63500000D03*
X177800000Y-63500000D03*
%TD*%
D17*
%TO.C,H2*%
X39370000Y-142240000D03*
%TD*%
D10*
%TO.C,R39*%
X175260000Y-129540000D03*
D11*
X175260000Y-119380000D03*
%TD*%
D10*
%TO.C,R27*%
X137160000Y-93980000D03*
D11*
X137160000Y-104140000D03*
%TD*%
D30*
%TO.C,SW2*%
X88700000Y-154940000D03*
X76200000Y-154940000D03*
X88700000Y-149940000D03*
X76200000Y-149940000D03*
%TD*%
D10*
%TO.C,C22*%
X182880000Y-96520000D03*
X185380000Y-96520000D03*
%TD*%
%TO.C,R15*%
X86360000Y-76200000D03*
D11*
X86360000Y-66040000D03*
%TD*%
D15*
%TO.C,J5*%
X40640000Y-129540000D03*
D16*
X40640000Y-134620000D03*
%TD*%
D10*
%TO.C,R42*%
X160020000Y-139700000D03*
D11*
X149860000Y-139700000D03*
%TD*%
D33*
%TO.C,F1*%
X60960000Y-134620000D03*
X60960000Y-130020000D03*
X60960000Y-108220000D03*
X60960000Y-103620000D03*
%TD*%
D10*
%TO.C,C15*%
X182880000Y-60960000D03*
X190380000Y-60960000D03*
%TD*%
%TO.C,C24*%
X40640000Y-121840000D03*
X40640000Y-116840000D03*
%TD*%
D24*
%TO.C,TP4*%
X86360000Y-81280000D03*
%TD*%
%TO.C,TP7*%
X86360000Y-88900000D03*
%TD*%
D10*
%TO.C,R22*%
X104140000Y-76200000D03*
D11*
X104140000Y-66040000D03*
%TD*%
D10*
%TO.C,R33*%
X154940000Y-93980000D03*
D11*
X154940000Y-104140000D03*
%TD*%
D23*
%TO.C,R12*%
X76200000Y-78740000D03*
D28*
X76200000Y-48260000D03*
%TD*%
D12*
%TO.C,U4*%
X106680000Y-50800000D03*
D11*
X104140000Y-50800000D03*
X101600000Y-50800000D03*
X99060000Y-50800000D03*
X96520000Y-50800000D03*
X93980000Y-50800000D03*
X91440000Y-50800000D03*
X91440000Y-58420000D03*
X93980000Y-58420000D03*
X96520000Y-58420000D03*
X99060000Y-58420000D03*
X101600000Y-58420000D03*
X104140000Y-58420000D03*
X106680000Y-58420000D03*
%TD*%
D10*
%TO.C,R36*%
X177800000Y-119380000D03*
D11*
X177800000Y-129540000D03*
%TD*%
D10*
%TO.C,R9*%
X170180000Y-40640000D03*
D11*
X180340000Y-40640000D03*
%TD*%
D17*
%TO.C,H5*%
X115570000Y-110490000D03*
%TD*%
D10*
%TO.C,R32*%
X149860000Y-93980000D03*
D11*
X149860000Y-104140000D03*
%TD*%
D23*
%TO.C,R1*%
X180340000Y-35560000D03*
D28*
X160020000Y-35560000D03*
%TD*%
D34*
%TO.C,SW3*%
X60960000Y-154940000D03*
X60960000Y-147320000D03*
X60960000Y-139700000D03*
%TD*%
D10*
%TO.C,R38*%
X170180000Y-129540000D03*
D11*
X170180000Y-119380000D03*
%TD*%
D23*
%TO.C,R10*%
X45720000Y-48260000D03*
D28*
X45720000Y-78740000D03*
%TD*%
D10*
%TO.C,R4*%
X101600000Y-35560000D03*
D11*
X101600000Y-45720000D03*
%TD*%
D10*
%TO.C,R18*%
X96520000Y-66040000D03*
D11*
X96520000Y-76200000D03*
%TD*%
D10*
%TO.C,R31*%
X152400000Y-93980000D03*
D11*
X152400000Y-104140000D03*
%TD*%
D12*
%TO.C,U10*%
X167640000Y-154940000D03*
D11*
X167640000Y-152400000D03*
X167640000Y-149860000D03*
X167640000Y-147320000D03*
X167640000Y-144780000D03*
X167640000Y-142240000D03*
X167640000Y-139700000D03*
X167640000Y-137160000D03*
X167640000Y-134620000D03*
X170180000Y-134620000D03*
X172720000Y-134620000D03*
X175260000Y-134620000D03*
X177800000Y-134620000D03*
X180340000Y-134620000D03*
X182880000Y-134620000D03*
X182880000Y-137160000D03*
X182880000Y-139700000D03*
X182880000Y-142240000D03*
X182880000Y-144780000D03*
X182880000Y-147320000D03*
X182880000Y-149860000D03*
X182880000Y-152400000D03*
D10*
X182880000Y-154940000D03*
%TD*%
D20*
%TO.C,D2*%
X180340000Y-50800000D03*
D21*
X190500000Y-50800000D03*
%TD*%
D10*
%TO.C,C25*%
X45720000Y-114300000D03*
X45720000Y-121800000D03*
%TD*%
%TO.C,C13*%
X170220000Y-63500000D03*
X172720000Y-63500000D03*
%TD*%
%TO.C,R6*%
X139700000Y-35560000D03*
D11*
X139700000Y-45720000D03*
%TD*%
D10*
%TO.C,R3*%
X93980000Y-35560000D03*
D11*
X93980000Y-45720000D03*
%TD*%
D24*
%TO.C,TP12*%
X162560000Y-152400000D03*
%TD*%
D11*
%TO.C,U6*%
X165100000Y-71120000D03*
X162560000Y-71120000D03*
X160020000Y-71120000D03*
X157480000Y-71120000D03*
X154940000Y-71120000D03*
X152400000Y-71120000D03*
X149860000Y-71120000D03*
X147320000Y-71120000D03*
X144780000Y-71120000D03*
X142240000Y-71120000D03*
X139700000Y-71120000D03*
X137160000Y-71120000D03*
X137160000Y-86360000D03*
X139700000Y-86360000D03*
X142240000Y-86360000D03*
X144780000Y-86360000D03*
X147320000Y-86360000D03*
X149860000Y-86360000D03*
X152400000Y-86360000D03*
X154940000Y-86360000D03*
X157480000Y-86360000D03*
X160020000Y-86360000D03*
X162560000Y-86360000D03*
X165100000Y-86360000D03*
D12*
X167640000Y-71120000D03*
D11*
X134620000Y-71120000D03*
X134620000Y-86360000D03*
X167640000Y-86360000D03*
%TD*%
D10*
%TO.C,R24*%
X111760000Y-76200000D03*
D11*
X111760000Y-66040000D03*
%TD*%
D10*
%TO.C,R16*%
X88900000Y-76200000D03*
D11*
X88900000Y-66040000D03*
%TD*%
D22*
%TO.C,C18*%
X68580000Y-86360000D03*
D23*
X68580000Y-93860000D03*
%TD*%
D35*
X80645000Y-93980000D03*
X125730000Y-99060000D03*
X52705000Y-97155000D03*
D24*
X160655000Y-121920000D03*
X160655000Y-124460000D03*
X160655000Y-119380000D03*
D35*
X118110000Y-116840000D03*
X50800000Y-158115000D03*
X125730000Y-104140000D03*
X160020000Y-156845000D03*
X130175000Y-121285000D03*
X115570000Y-139700000D03*
X173990000Y-142240000D03*
X173990000Y-148590000D03*
X173990000Y-139700000D03*
X126365000Y-102870000D03*
X115570000Y-86360000D03*
M02*
