%TF.GenerationSoftware,KiCad,Pcbnew,8.0.1-8.0.1-1~ubuntu22.04.1*%
%TF.CreationDate,2024-03-23T16:48:16+11:00*%
%TF.ProjectId,PIMD601,50494d44-3630-4312-9e6b-696361645f70,6.01*%
%TF.SameCoordinates,Original*%
%TF.FileFunction,Copper,L4,Bot*%
%TF.FilePolarity,Positive*%
%FSLAX46Y46*%
G04 Gerber Fmt 4.6, Leading zero omitted, Abs format (unit mm)*
G04 Created by KiCad (PCBNEW 8.0.1-8.0.1-1~ubuntu22.04.1) date 2024-03-23 16:48:16*
%MOMM*%
%LPD*%
G01*
G04 APERTURE LIST*
%TA.AperFunction,ComponentPad*%
%ADD10C,1.600000*%
%TD*%
%TA.AperFunction,ComponentPad*%
%ADD11O,1.600000X1.600000*%
%TD*%
%TA.AperFunction,ComponentPad*%
%ADD12R,1.600000X1.600000*%
%TD*%
%TA.AperFunction,ComponentPad*%
%ADD13R,1.700000X1.700000*%
%TD*%
%TA.AperFunction,ComponentPad*%
%ADD14O,1.700000X1.700000*%
%TD*%
%TA.AperFunction,ComponentPad*%
%ADD15R,3.000000X3.000000*%
%TD*%
%TA.AperFunction,ComponentPad*%
%ADD16C,3.000000*%
%TD*%
%TA.AperFunction,WasherPad*%
%ADD17C,4.000000*%
%TD*%
%TA.AperFunction,ComponentPad*%
%ADD18C,1.800000*%
%TD*%
%TA.AperFunction,ComponentPad*%
%ADD19C,2.200000*%
%TD*%
%TA.AperFunction,ComponentPad*%
%ADD20O,2.200000X2.200000*%
%TD*%
%TA.AperFunction,ComponentPad*%
%ADD21R,2.400000X2.400000*%
%TD*%
%TA.AperFunction,ComponentPad*%
%ADD22C,2.400000*%
%TD*%
%TA.AperFunction,ComponentPad*%
%ADD23C,1.500000*%
%TD*%
%TA.AperFunction,ComponentPad*%
%ADD24R,1.905000X2.000000*%
%TD*%
%TA.AperFunction,ComponentPad*%
%ADD25O,1.905000X2.000000*%
%TD*%
%TA.AperFunction,ComponentPad*%
%ADD26R,1.800000X1.800000*%
%TD*%
%TA.AperFunction,ComponentPad*%
%ADD27O,2.400000X2.400000*%
%TD*%
%TA.AperFunction,ComponentPad*%
%ADD28R,2.200000X2.200000*%
%TD*%
%TA.AperFunction,ComponentPad*%
%ADD29O,3.000000X2.500000*%
%TD*%
%TA.AperFunction,ComponentPad*%
%ADD30R,2.000000X1.905000*%
%TD*%
%TA.AperFunction,ComponentPad*%
%ADD31O,2.000000X1.905000*%
%TD*%
%TA.AperFunction,ComponentPad*%
%ADD32C,2.300000*%
%TD*%
%TA.AperFunction,ComponentPad*%
%ADD33O,6.000000X2.000000*%
%TD*%
%TA.AperFunction,ViaPad*%
%ADD34C,0.800000*%
%TD*%
%TA.AperFunction,ViaPad*%
%ADD35C,1.500000*%
%TD*%
%TA.AperFunction,Conductor*%
%ADD36C,0.300000*%
%TD*%
%TA.AperFunction,Conductor*%
%ADD37C,0.600000*%
%TD*%
%TA.AperFunction,Conductor*%
%ADD38C,2.000000*%
%TD*%
%TA.AperFunction,Conductor*%
%ADD39C,2.500000*%
%TD*%
%TA.AperFunction,Conductor*%
%ADD40C,1.000000*%
%TD*%
G04 APERTURE END LIST*
D10*
%TO.P,R17,1*%
%TO.N,Net-(U4C--)*%
X91440000Y-66040000D03*
D11*
%TO.P,R17,2*%
%TO.N,Net-(U4D--)*%
X91440000Y-76200000D03*
%TD*%
D10*
%TO.P,C3,1*%
%TO.N,GND*%
X91400000Y-35560000D03*
%TO.P,C3,2*%
%TO.N,+15V*%
X88900000Y-35560000D03*
%TD*%
%TO.P,R7,1*%
%TO.N,GND*%
X142240000Y-35560000D03*
D11*
%TO.P,R7,2*%
%TO.N,Net-(U3B--)*%
X142240000Y-45720000D03*
%TD*%
D12*
%TO.P,U5,1,~{SHDN}*%
%TO.N,+12V*%
X127000000Y-71120000D03*
D11*
%TO.P,U5,2,Vin*%
X124460000Y-71120000D03*
%TO.P,U5,3,GND*%
%TO.N,GND*%
X121920000Y-71120000D03*
%TO.P,U5,4,GND*%
X119380000Y-71120000D03*
%TO.P,U5,5,GND*%
X119380000Y-81280000D03*
%TO.P,U5,6,NR*%
%TO.N,Net-(U5-NR)*%
X121920000Y-81280000D03*
%TO.P,U5,7,VOUT-F*%
%TO.N,/5V-REF*%
X124460000Y-81280000D03*
%TO.P,U5,8,GND*%
%TO.N,GND*%
X127000000Y-81280000D03*
%TD*%
D13*
%TO.P,J6,1,Pin_1*%
%TO.N,GND*%
X88900000Y-96520000D03*
D14*
%TO.P,J6,2,Pin_2*%
%TO.N,+20V*%
X91440000Y-96520000D03*
%TO.P,J6,3,Pin_3*%
%TO.N,+15V*%
X93980000Y-96520000D03*
%TO.P,J6,4,Pin_4*%
%TO.N,+12V*%
X96520000Y-96520000D03*
%TO.P,J6,5,Pin_5*%
%TO.N,+5V*%
X99060000Y-96520000D03*
%TO.P,J6,6,Pin_6*%
%TO.N,+3V3*%
X101600000Y-96520000D03*
%TO.P,J6,7,Pin_7*%
%TO.N,+2V5*%
X104140000Y-96520000D03*
%TO.P,J6,8,Pin_8*%
%TO.N,GND*%
X106680000Y-96520000D03*
%TD*%
D10*
%TO.P,C9,1*%
%TO.N,+12V*%
X132715000Y-35560000D03*
%TO.P,C9,2*%
%TO.N,GND*%
X132715000Y-43060000D03*
%TD*%
%TO.P,R26,1*%
%TO.N,GND*%
X134620000Y-55880000D03*
D11*
%TO.P,R26,2*%
%TO.N,Net-(U6-SEL0)*%
X144780000Y-55880000D03*
%TD*%
%TO.P,U7,1,NC*%
%TO.N,unconnected-(U7-NC-Pad1)*%
X187960000Y-71120000D03*
%TO.P,U7,2,OUT*%
%TO.N,+2V5*%
X185420000Y-71120000D03*
%TO.P,U7,3,OUT*%
X182880000Y-71120000D03*
%TO.P,U7,4,NC*%
%TO.N,unconnected-(U7-NC-Pad4)*%
X180340000Y-71120000D03*
%TO.P,U7,5,SENSE*%
%TO.N,+2V5*%
X177800000Y-71120000D03*
%TO.P,U7,6,BYP*%
%TO.N,Net-(U7-BYP)*%
X175260000Y-71120000D03*
%TO.P,U7,7,GND*%
%TO.N,GND*%
X175260000Y-86360000D03*
%TO.P,U7,8,~{SHDN}*%
%TO.N,+12V*%
X177800000Y-86360000D03*
%TO.P,U7,9,NC*%
%TO.N,unconnected-(U7-NC-Pad9)*%
X180340000Y-86360000D03*
%TO.P,U7,10,IN*%
%TO.N,+12V*%
X182880000Y-86360000D03*
%TO.P,U7,11,IN*%
X185420000Y-86360000D03*
%TO.P,U7,12,NC*%
%TO.N,unconnected-(U7-NC-Pad12)*%
X187960000Y-86360000D03*
D12*
%TO.P,U7,13,GND*%
%TO.N,GND*%
X190500000Y-71120000D03*
D11*
%TO.P,U7,14,GND*%
X172720000Y-71120000D03*
%TO.P,U7,15,GND*%
X172720000Y-86360000D03*
%TO.P,U7,16,GND*%
X190500000Y-86360000D03*
%TD*%
D10*
%TO.P,R21,1*%
%TO.N,+5V*%
X99060000Y-76200000D03*
D11*
%TO.P,R21,2*%
%TO.N,Net-(U4C-+)*%
X99060000Y-66040000D03*
%TD*%
D15*
%TO.P,J3,1,Pin_1*%
%TO.N,GND*%
X40640000Y-149860000D03*
D16*
%TO.P,J3,2,Pin_2*%
%TO.N,Net-(J3-Pin_2)*%
X40640000Y-154940000D03*
%TD*%
D12*
%TO.P,U3,1*%
%TO.N,Net-(U3A--)*%
X160020000Y-50800000D03*
D11*
%TO.P,U3,2,-*%
X160020000Y-48260000D03*
%TO.P,U3,3,+*%
%TO.N,Net-(U3A-+)*%
X160020000Y-45720000D03*
%TO.P,U3,4,V-*%
%TO.N,GND*%
X160020000Y-43180000D03*
%TO.P,U3,5,+*%
%TO.N,Net-(U3B-+)*%
X152400000Y-43180000D03*
%TO.P,U3,6,-*%
%TO.N,Net-(U3B--)*%
X152400000Y-45720000D03*
%TO.P,U3,7*%
%TO.N,Net-(TP3-Pad1)*%
X152400000Y-48260000D03*
%TO.P,U3,8,V+*%
%TO.N,+12V*%
X152400000Y-50800000D03*
%TD*%
D17*
%TO.P,RV4,*%
%TO.N,*%
X131750000Y-152120000D03*
X122250000Y-152120000D03*
D18*
%TO.P,RV4,1,1*%
%TO.N,+3V3*%
X124500000Y-144620000D03*
%TO.P,RV4,2,2*%
%TO.N,/POT-2*%
X127000000Y-144620000D03*
%TO.P,RV4,3,3*%
%TO.N,GND*%
X129500000Y-144620000D03*
%TD*%
D10*
%TO.P,R2,1*%
%TO.N,GND*%
X96520000Y-35560000D03*
D11*
%TO.P,R2,2*%
%TO.N,Net-(U4B-+)*%
X96520000Y-45720000D03*
%TD*%
D10*
%TO.P,C11,1*%
%TO.N,GND*%
X157440000Y-63500000D03*
%TO.P,C11,2*%
%TO.N,+2V5*%
X159940000Y-63500000D03*
%TD*%
D19*
%TO.P,FB1,1*%
%TO.N,+20V*%
X53340000Y-124460000D03*
D20*
%TO.P,FB1,2*%
%TO.N,Net-(U9-VI)*%
X53340000Y-104140000D03*
%TD*%
D21*
%TO.P,C19,1*%
%TO.N,+15V*%
X43180000Y-86480000D03*
D22*
%TO.P,C19,2*%
%TO.N,GND*%
X43180000Y-93980000D03*
%TD*%
D10*
%TO.P,R41,1*%
%TO.N,Net-(D5-K)*%
X142240000Y-154940000D03*
D11*
%TO.P,R41,2*%
%TO.N,GND*%
X152400000Y-154940000D03*
%TD*%
D23*
%TO.P,TP8,1,1*%
%TO.N,Net-(TP8-Pad1)*%
X86360000Y-91440000D03*
%TD*%
D10*
%TO.P,R30,1*%
%TO.N,Net-(U6-SDOA)*%
X147320000Y-93980000D03*
D11*
%TO.P,R30,2*%
%TO.N,/SDOA*%
X147320000Y-104140000D03*
%TD*%
D24*
%TO.P,Q1,1,D*%
%TO.N,/TX-COIL-NEG*%
X58420000Y-35560000D03*
D25*
%TO.P,Q1,2,G*%
%TO.N,Net-(Q1-G)*%
X60960000Y-35560000D03*
%TO.P,Q1,3,S*%
%TO.N,GND*%
X63500000Y-35560000D03*
%TD*%
D12*
%TO.P,C21,1*%
%TO.N,+3V3*%
X167680000Y-96520000D03*
D10*
%TO.P,C21,2*%
%TO.N,GND*%
X170180000Y-96520000D03*
%TD*%
%TO.P,R37,1*%
%TO.N,/DRL*%
X172720000Y-129540000D03*
D11*
%TO.P,R37,2*%
%TO.N,GND*%
X172720000Y-119380000D03*
%TD*%
D10*
%TO.P,C17,1*%
%TO.N,+5V*%
X110490000Y-91440000D03*
%TO.P,C17,2*%
%TO.N,GND*%
X110490000Y-88940000D03*
%TD*%
%TO.P,C4,1*%
%TO.N,+20V*%
X99060000Y-45720000D03*
%TO.P,C4,2*%
%TO.N,GND*%
X99060000Y-43220000D03*
%TD*%
D23*
%TO.P,TP2,1,1*%
%TO.N,Net-(TP2-Pad1)*%
X106685000Y-45720000D03*
%TD*%
D10*
%TO.P,C23,1*%
%TO.N,GND*%
X45720000Y-109180000D03*
%TO.P,C23,2*%
%TO.N,+5V*%
X45720000Y-106680000D03*
%TD*%
D23*
%TO.P,TP5,1,1*%
%TO.N,Net-(TP5-Pad1)*%
X86360000Y-83820000D03*
%TD*%
D24*
%TO.P,U1,1,VI*%
%TO.N,+20V*%
X78740000Y-35560000D03*
D25*
%TO.P,U1,2,GND*%
%TO.N,GND*%
X81280000Y-35560000D03*
%TO.P,U1,3,VO*%
%TO.N,+15V*%
X83820000Y-35560000D03*
%TD*%
D17*
%TO.P,RV1,*%
%TO.N,*%
X108850000Y-131800000D03*
X99350000Y-131800000D03*
D18*
%TO.P,RV1,1,1*%
%TO.N,+3V3*%
X101600000Y-124300000D03*
%TO.P,RV1,2,2*%
%TO.N,/POT-1*%
X104100000Y-124300000D03*
%TO.P,RV1,3,3*%
%TO.N,GND*%
X106600000Y-124300000D03*
%TD*%
D10*
%TO.P,C6,1*%
%TO.N,GND*%
X124460000Y-43180000D03*
%TO.P,C6,2*%
%TO.N,+12V*%
X124460000Y-40680000D03*
%TD*%
%TO.P,R25,1*%
%TO.N,Net-(R25-Pad1)*%
X109220000Y-76200000D03*
D11*
%TO.P,R25,2*%
%TO.N,GND*%
X109220000Y-66040000D03*
%TD*%
D26*
%TO.P,D5,1,K*%
%TO.N,Net-(D5-K)*%
X50800000Y-149860000D03*
D18*
%TO.P,D5,2,A*%
%TO.N,+12V*%
X50800000Y-147320000D03*
%TD*%
D10*
%TO.P,C20,1*%
%TO.N,GND*%
X162540000Y-99060000D03*
%TO.P,C20,2*%
%TO.N,+3V3*%
X162540000Y-96560000D03*
%TD*%
D22*
%TO.P,R11,1*%
%TO.N,Net-(R10-Pad2)*%
X55880000Y-78740000D03*
D27*
%TO.P,R11,2*%
%TO.N,/TX-COIL-NEG*%
X55880000Y-48260000D03*
%TD*%
D17*
%TO.P,RV2,*%
%TO.N,*%
X131750000Y-131800000D03*
X122250000Y-131800000D03*
D18*
%TO.P,RV2,1,1*%
%TO.N,+3V3*%
X124500000Y-124300000D03*
%TO.P,RV2,2,2*%
%TO.N,/POT-3*%
X127000000Y-124300000D03*
%TO.P,RV2,3,3*%
%TO.N,GND*%
X129500000Y-124300000D03*
%TD*%
D10*
%TO.P,R8,1*%
%TO.N,Net-(D1-A)*%
X175260000Y-45720000D03*
D11*
%TO.P,R8,2*%
%TO.N,Net-(U3A-+)*%
X165100000Y-45720000D03*
%TD*%
D10*
%TO.P,R35,1*%
%TO.N,/SDOB*%
X180340000Y-129540000D03*
D11*
%TO.P,R35,2*%
%TO.N,GND*%
X180340000Y-119380000D03*
%TD*%
D23*
%TO.P,TP9,1,1*%
%TO.N,/COMMS-TX*%
X190500000Y-134620000D03*
%TD*%
D15*
%TO.P,J2,1,Pin_1*%
%TO.N,GND*%
X193040000Y-35560000D03*
D16*
%TO.P,J2,2,Pin_2*%
%TO.N,/RX-COIL-POS*%
X187960000Y-35560000D03*
%TD*%
D10*
%TO.P,C26,1*%
%TO.N,GND*%
X127000000Y-91440000D03*
%TO.P,C26,2*%
%TO.N,/5V-REF*%
X127000000Y-88940000D03*
%TD*%
D28*
%TO.P,D4,1,K*%
%TO.N,+20V*%
X50800000Y-129540000D03*
D20*
%TO.P,D4,2,A*%
%TO.N,GND*%
X50800000Y-142240000D03*
%TD*%
D10*
%TO.P,C8,1*%
%TO.N,GND*%
X147320000Y-48260000D03*
%TO.P,C8,2*%
%TO.N,+12V*%
X147320000Y-50760000D03*
%TD*%
%TO.P,C2,1*%
%TO.N,GND*%
X73660000Y-40640000D03*
%TO.P,C2,2*%
%TO.N,+20V*%
X73660000Y-35640000D03*
%TD*%
%TO.P,C12,1*%
%TO.N,GND*%
X165060000Y-63500000D03*
%TO.P,C12,2*%
%TO.N,+2V5*%
X162560000Y-63500000D03*
%TD*%
D12*
%TO.P,U8,1*%
%TO.N,Net-(R24-Pad1)*%
X106680000Y-83820000D03*
D11*
%TO.P,U8,2*%
%TO.N,Net-(TP4-Pad1)*%
X104140000Y-83820000D03*
%TO.P,U8,3*%
%TO.N,Net-(R25-Pad1)*%
X101600000Y-83820000D03*
%TO.P,U8,4*%
%TO.N,Net-(TP5-Pad1)*%
X99060000Y-83820000D03*
%TO.P,U8,5*%
%TO.N,Net-(R19-Pad1)*%
X96520000Y-83820000D03*
%TO.P,U8,6*%
%TO.N,Net-(TP6-Pad1)*%
X93980000Y-83820000D03*
%TO.P,U8,7,GND*%
%TO.N,GND*%
X91440000Y-83820000D03*
%TO.P,U8,8*%
%TO.N,Net-(TP8-Pad1)*%
X91440000Y-91440000D03*
%TO.P,U8,9*%
%TO.N,Net-(R16-Pad1)*%
X93980000Y-91440000D03*
%TO.P,U8,10*%
%TO.N,Net-(TP7-Pad1)*%
X96520000Y-91440000D03*
%TO.P,U8,11*%
%TO.N,Net-(R15-Pad1)*%
X99060000Y-91440000D03*
%TO.P,U8,12*%
%TO.N,Net-(R28-Pad1)*%
X101600000Y-91440000D03*
%TO.P,U8,13*%
%TO.N,/SAMPLE*%
X104140000Y-91440000D03*
%TO.P,U8,14,VCC*%
%TO.N,+5V*%
X106680000Y-91440000D03*
%TD*%
D10*
%TO.P,R23,1*%
%TO.N,Net-(U4D--)*%
X106680000Y-76200000D03*
D11*
%TO.P,R23,2*%
%TO.N,Net-(Q1-G)*%
X106680000Y-66040000D03*
%TD*%
D10*
%TO.P,C7,1*%
%TO.N,GND*%
X149860000Y-50800000D03*
%TO.P,C7,2*%
%TO.N,+12V*%
X149860000Y-48300000D03*
%TD*%
D15*
%TO.P,J1,1,Pin_1*%
%TO.N,/TX-COIL-NEG*%
X46355000Y-35560000D03*
D16*
%TO.P,J1,2,Pin_2*%
%TO.N,/TX-COIL-POS*%
X41275000Y-35560000D03*
%TD*%
D19*
%TO.P,D3,1,K*%
%TO.N,Net-(D1-A)*%
X180340000Y-55880000D03*
D20*
%TO.P,D3,2,A*%
%TO.N,GND*%
X190500000Y-55880000D03*
%TD*%
D23*
%TO.P,TP11,1,1*%
%TO.N,Net-(U10-GP3)*%
X162560000Y-147320000D03*
%TD*%
D10*
%TO.P,R20,1*%
%TO.N,/COIL-DRIVE*%
X101600000Y-76200000D03*
D11*
%TO.P,R20,2*%
%TO.N,Net-(U4D-+)*%
X101600000Y-66040000D03*
%TD*%
D10*
%TO.P,R40,1*%
%TO.N,/BUSY*%
X182880000Y-129540000D03*
D11*
%TO.P,R40,2*%
%TO.N,GND*%
X182880000Y-119380000D03*
%TD*%
D19*
%TO.P,D1,1,K*%
%TO.N,/5V-REF*%
X165100000Y-50800000D03*
D20*
%TO.P,D1,2,A*%
%TO.N,Net-(D1-A)*%
X175260000Y-50800000D03*
%TD*%
D23*
%TO.P,TP1,1,1*%
%TO.N,Net-(TP1-Pad1)*%
X91440000Y-45720000D03*
%TD*%
D10*
%TO.P,R45,1*%
%TO.N,/SW-1*%
X160020000Y-134620000D03*
D11*
%TO.P,R45,2*%
%TO.N,+3V3*%
X149860000Y-134620000D03*
%TD*%
D10*
%TO.P,R19,1*%
%TO.N,Net-(R19-Pad1)*%
X93980000Y-76200000D03*
D11*
%TO.P,R19,2*%
%TO.N,GND*%
X93980000Y-66040000D03*
%TD*%
D10*
%TO.P,C16,1*%
%TO.N,Net-(U5-NR)*%
X121920000Y-88900000D03*
%TO.P,C16,2*%
%TO.N,GND*%
X121920000Y-96400000D03*
%TD*%
%TO.P,R28,1*%
%TO.N,Net-(R28-Pad1)*%
X139700000Y-104140000D03*
D11*
%TO.P,R28,2*%
%TO.N,/MCLK*%
X139700000Y-93980000D03*
%TD*%
D29*
%TO.P,SW1,1,A*%
%TO.N,/SW-1*%
X88900000Y-134620000D03*
X76400000Y-134620000D03*
%TO.P,SW1,2,B*%
%TO.N,GND*%
X88900000Y-129620000D03*
X76400000Y-129620000D03*
%TD*%
D30*
%TO.P,U9,1,VI*%
%TO.N,Net-(U9-VI)*%
X40640000Y-111760000D03*
D31*
%TO.P,U9,2,GND*%
%TO.N,GND*%
X40640000Y-109220000D03*
%TO.P,U9,3,VO*%
%TO.N,+5V*%
X40640000Y-106680000D03*
%TD*%
D22*
%TO.P,R13,1*%
%TO.N,+15V*%
X66040000Y-48260000D03*
D27*
%TO.P,R13,2*%
%TO.N,Net-(R12-Pad1)*%
X66040000Y-78740000D03*
%TD*%
D23*
%TO.P,TP3,1,1*%
%TO.N,Net-(TP3-Pad1)*%
X149860000Y-39370000D03*
%TD*%
D10*
%TO.P,C28,1*%
%TO.N,GND*%
X190460000Y-154940000D03*
%TO.P,C28,2*%
%TO.N,+5V*%
X187960000Y-154940000D03*
%TD*%
D23*
%TO.P,TP6,1,1*%
%TO.N,Net-(TP6-Pad1)*%
X86360000Y-86360000D03*
%TD*%
D17*
%TO.P,RV3,*%
%TO.N,*%
X108890000Y-152120000D03*
X99390000Y-152120000D03*
D18*
%TO.P,RV3,1,1*%
%TO.N,+3V3*%
X101640000Y-144620000D03*
%TO.P,RV3,2,2*%
%TO.N,/POT-0*%
X104140000Y-144620000D03*
%TO.P,RV3,3,3*%
%TO.N,GND*%
X106640000Y-144620000D03*
%TD*%
D10*
%TO.P,R29,1*%
%TO.N,Net-(U6-DRL)*%
X142240000Y-93980000D03*
D11*
%TO.P,R29,2*%
%TO.N,/DRL*%
X142240000Y-104140000D03*
%TD*%
D23*
%TO.P,TP10,1,1*%
%TO.N,Net-(U10-GP11)*%
X190500000Y-132080000D03*
%TD*%
D10*
%TO.P,R43,1*%
%TO.N,/METER-POS*%
X160020000Y-137160000D03*
D11*
%TO.P,R43,2*%
%TO.N,Net-(J5-Pin_2)*%
X149860000Y-137160000D03*
%TD*%
D10*
%TO.P,R44,1*%
%TO.N,/SW-0*%
X160020000Y-142240000D03*
D11*
%TO.P,R44,2*%
%TO.N,+3V3*%
X149860000Y-142240000D03*
%TD*%
D10*
%TO.P,C10,1*%
%TO.N,GND*%
X149820000Y-63500000D03*
%TO.P,C10,2*%
%TO.N,/5V-REF*%
X147320000Y-63500000D03*
%TD*%
%TO.P,C27,1*%
%TO.N,+3V3*%
X188000000Y-149860000D03*
%TO.P,C27,2*%
%TO.N,GND*%
X190500000Y-149860000D03*
%TD*%
%TO.P,C1,1*%
%TO.N,+15V*%
X65920000Y-40640000D03*
%TO.P,C1,2*%
%TO.N,GND*%
X58420000Y-40640000D03*
%TD*%
%TO.P,R5,1*%
%TO.N,GND*%
X104140000Y-35560000D03*
D11*
%TO.P,R5,2*%
%TO.N,Net-(U4A--)*%
X104140000Y-45720000D03*
%TD*%
D10*
%TO.P,R34,1*%
%TO.N,Net-(U6-BUSY)*%
X157480000Y-93980000D03*
D11*
%TO.P,R34,2*%
%TO.N,/BUSY*%
X157480000Y-104140000D03*
%TD*%
D10*
%TO.P,R14,1*%
%TO.N,Net-(U3A--)*%
X160020000Y-55880000D03*
D11*
%TO.P,R14,2*%
%TO.N,Net-(U6-IN+)*%
X149860000Y-55880000D03*
%TD*%
D10*
%TO.P,C5,1*%
%TO.N,GND*%
X119380000Y-45640000D03*
%TO.P,C5,2*%
%TO.N,+20V*%
X119380000Y-40640000D03*
%TD*%
D24*
%TO.P,U2,1,IN*%
%TO.N,+20V*%
X119380000Y-35560000D03*
D25*
%TO.P,U2,2,GND*%
%TO.N,GND*%
X121920000Y-35560000D03*
%TO.P,U2,3,OUT*%
%TO.N,+12V*%
X124460000Y-35560000D03*
%TD*%
D10*
%TO.P,C14,1*%
%TO.N,Net-(U7-BYP)*%
X175300000Y-63500000D03*
%TO.P,C14,2*%
%TO.N,+2V5*%
X177800000Y-63500000D03*
%TD*%
%TO.P,R39,1*%
%TO.N,Net-(U10-GP10)*%
X175260000Y-129540000D03*
D11*
%TO.P,R39,2*%
%TO.N,/SCKA*%
X175260000Y-119380000D03*
%TD*%
D10*
%TO.P,R27,1*%
%TO.N,/MCLK*%
X137160000Y-93980000D03*
D11*
%TO.P,R27,2*%
%TO.N,GND*%
X137160000Y-104140000D03*
%TD*%
D29*
%TO.P,SW2,1,A*%
%TO.N,/SW-0*%
X88700000Y-154940000D03*
X76200000Y-154940000D03*
%TO.P,SW2,2,B*%
%TO.N,GND*%
X88700000Y-149940000D03*
X76200000Y-149940000D03*
%TD*%
D10*
%TO.P,C22,1*%
%TO.N,+12V*%
X182880000Y-96520000D03*
%TO.P,C22,2*%
%TO.N,GND*%
X185380000Y-96520000D03*
%TD*%
%TO.P,R15,1*%
%TO.N,Net-(R15-Pad1)*%
X86360000Y-76200000D03*
D11*
%TO.P,R15,2*%
%TO.N,GND*%
X86360000Y-66040000D03*
%TD*%
D15*
%TO.P,J5,1,Pin_1*%
%TO.N,/METER-NEG*%
X40640000Y-129540000D03*
D16*
%TO.P,J5,2,Pin_2*%
%TO.N,Net-(J5-Pin_2)*%
X40640000Y-134620000D03*
%TD*%
D10*
%TO.P,R42,1*%
%TO.N,/METER-POS*%
X160020000Y-139700000D03*
D11*
%TO.P,R42,2*%
%TO.N,Net-(J5-Pin_2)*%
X149860000Y-139700000D03*
%TD*%
D32*
%TO.P,F1,1*%
%TO.N,Net-(SW3-C)*%
X60960000Y-134620000D03*
X60960000Y-130020000D03*
%TO.P,F1,2*%
%TO.N,+20V*%
X60960000Y-108220000D03*
X60960000Y-103620000D03*
%TD*%
D10*
%TO.P,C15,1*%
%TO.N,+2V5*%
X182880000Y-60960000D03*
%TO.P,C15,2*%
%TO.N,GND*%
X190380000Y-60960000D03*
%TD*%
%TO.P,C24,1*%
%TO.N,GND*%
X40640000Y-121840000D03*
%TO.P,C24,2*%
%TO.N,Net-(U9-VI)*%
X40640000Y-116840000D03*
%TD*%
D23*
%TO.P,TP4,1,1*%
%TO.N,Net-(TP4-Pad1)*%
X86360000Y-81280000D03*
%TD*%
%TO.P,TP7,1,1*%
%TO.N,Net-(TP7-Pad1)*%
X86360000Y-88900000D03*
%TD*%
D10*
%TO.P,R22,1*%
%TO.N,+3V3*%
X104140000Y-76200000D03*
D11*
%TO.P,R22,2*%
%TO.N,Net-(U4D-+)*%
X104140000Y-66040000D03*
%TD*%
D10*
%TO.P,R33,1*%
%TO.N,Net-(U6-SDOB)*%
X154940000Y-93980000D03*
D11*
%TO.P,R33,2*%
%TO.N,/SDOB*%
X154940000Y-104140000D03*
%TD*%
D22*
%TO.P,R12,1*%
%TO.N,Net-(R12-Pad1)*%
X76200000Y-78740000D03*
D27*
%TO.P,R12,2*%
%TO.N,/TX-COIL-POS*%
X76200000Y-48260000D03*
%TD*%
D12*
%TO.P,U4,1*%
%TO.N,Net-(TP2-Pad1)*%
X106680000Y-50800000D03*
D11*
%TO.P,U4,2,-*%
%TO.N,Net-(U4A--)*%
X104140000Y-50800000D03*
%TO.P,U4,3,+*%
%TO.N,Net-(U4A-+)*%
X101600000Y-50800000D03*
%TO.P,U4,4,V+*%
%TO.N,+20V*%
X99060000Y-50800000D03*
%TO.P,U4,5,+*%
%TO.N,Net-(U4B-+)*%
X96520000Y-50800000D03*
%TO.P,U4,6,-*%
%TO.N,Net-(U4B--)*%
X93980000Y-50800000D03*
%TO.P,U4,7*%
%TO.N,Net-(TP1-Pad1)*%
X91440000Y-50800000D03*
%TO.P,U4,8*%
%TO.N,Net-(U4C--)*%
X91440000Y-58420000D03*
%TO.P,U4,9,-*%
X93980000Y-58420000D03*
%TO.P,U4,10,+*%
%TO.N,Net-(U4C-+)*%
X96520000Y-58420000D03*
%TO.P,U4,11,V-*%
%TO.N,GND*%
X99060000Y-58420000D03*
%TO.P,U4,12,+*%
%TO.N,Net-(U4D-+)*%
X101600000Y-58420000D03*
%TO.P,U4,13,-*%
%TO.N,Net-(U4D--)*%
X104140000Y-58420000D03*
%TO.P,U4,14*%
%TO.N,Net-(Q1-G)*%
X106680000Y-58420000D03*
%TD*%
D10*
%TO.P,R36,1*%
%TO.N,/SCKB*%
X177800000Y-119380000D03*
D11*
%TO.P,R36,2*%
%TO.N,Net-(U10-GP2)*%
X177800000Y-129540000D03*
%TD*%
D10*
%TO.P,R9,1*%
%TO.N,Net-(D1-A)*%
X170180000Y-40640000D03*
D11*
%TO.P,R9,2*%
%TO.N,/RX-COIL-POS*%
X180340000Y-40640000D03*
%TD*%
D10*
%TO.P,R32,1*%
%TO.N,/SCKA*%
X149860000Y-93980000D03*
D11*
%TO.P,R32,2*%
%TO.N,GND*%
X149860000Y-104140000D03*
%TD*%
D22*
%TO.P,R1,1*%
%TO.N,/RX-COIL-POS*%
X180340000Y-35560000D03*
D27*
%TO.P,R1,2*%
%TO.N,GND*%
X160020000Y-35560000D03*
%TD*%
D33*
%TO.P,SW3,1,A*%
%TO.N,Net-(J3-Pin_2)*%
X60960000Y-154940000D03*
%TO.P,SW3,2,B*%
X60960000Y-147320000D03*
%TO.P,SW3,3,C*%
%TO.N,Net-(SW3-C)*%
X60960000Y-139700000D03*
%TD*%
D10*
%TO.P,R38,1*%
%TO.N,/SDOA*%
X170180000Y-129540000D03*
D11*
%TO.P,R38,2*%
%TO.N,GND*%
X170180000Y-119380000D03*
%TD*%
D22*
%TO.P,R10,1*%
%TO.N,/TX-COIL-POS*%
X45720000Y-48260000D03*
D27*
%TO.P,R10,2*%
%TO.N,Net-(R10-Pad2)*%
X45720000Y-78740000D03*
%TD*%
D10*
%TO.P,R4,1*%
%TO.N,GND*%
X101600000Y-35560000D03*
D11*
%TO.P,R4,2*%
%TO.N,Net-(U4A-+)*%
X101600000Y-45720000D03*
%TD*%
D10*
%TO.P,R18,1*%
%TO.N,Net-(U4C-+)*%
X96520000Y-66040000D03*
D11*
%TO.P,R18,2*%
%TO.N,GND*%
X96520000Y-76200000D03*
%TD*%
D10*
%TO.P,R31,1*%
%TO.N,/SCKB*%
X152400000Y-93980000D03*
D11*
%TO.P,R31,2*%
%TO.N,GND*%
X152400000Y-104140000D03*
%TD*%
D12*
%TO.P,U10,1,GP0*%
%TO.N,/SDOB*%
X167640000Y-154940000D03*
D11*
%TO.P,U10,2,GP1*%
%TO.N,Net-(U10-GP1)*%
X167640000Y-152400000D03*
%TO.P,U10,3,GP2*%
%TO.N,Net-(U10-GP2)*%
X167640000Y-149860000D03*
%TO.P,U10,4,GP3*%
%TO.N,Net-(U10-GP3)*%
X167640000Y-147320000D03*
%TO.P,U10,5,GP4*%
%TO.N,/COIL-DRIVE*%
X167640000Y-144780000D03*
%TO.P,U10,6,GP5*%
%TO.N,/SAMPLE*%
X167640000Y-142240000D03*
%TO.P,U10,7,GP6*%
%TO.N,/METER-NEG*%
X167640000Y-139700000D03*
%TO.P,U10,8,GP7*%
%TO.N,/METER-POS*%
X167640000Y-137160000D03*
%TO.P,U10,9,GP8*%
%TO.N,/SDOA*%
X167640000Y-134620000D03*
%TO.P,U10,10,GP9*%
%TO.N,/DRL*%
X170180000Y-134620000D03*
%TO.P,U10,11,GP10*%
%TO.N,Net-(U10-GP10)*%
X172720000Y-134620000D03*
%TO.P,U10,12,GP11*%
%TO.N,Net-(U10-GP11)*%
X175260000Y-134620000D03*
%TO.P,U10,13,GP12*%
%TO.N,/COMMS-TX*%
X177800000Y-134620000D03*
%TO.P,U10,14,GP13*%
%TO.N,/SW-1*%
X180340000Y-134620000D03*
%TO.P,U10,15,GP14*%
%TO.N,/SW-0*%
X182880000Y-134620000D03*
%TO.P,U10,16,GP15*%
%TO.N,/BUSY*%
X182880000Y-137160000D03*
%TO.P,U10,17,GP26*%
%TO.N,/POT-3*%
X182880000Y-139700000D03*
%TO.P,U10,18,GP27*%
%TO.N,/POT-2*%
X182880000Y-142240000D03*
%TO.P,U10,19,GP28*%
%TO.N,/POT-1*%
X182880000Y-144780000D03*
%TO.P,U10,20,GP29*%
%TO.N,/POT-0*%
X182880000Y-147320000D03*
%TO.P,U10,21,3V3*%
%TO.N,+3V3*%
X182880000Y-149860000D03*
%TO.P,U10,22,GND*%
%TO.N,GND*%
X182880000Y-152400000D03*
D10*
%TO.P,U10,23,5V*%
%TO.N,+5V*%
X182880000Y-154940000D03*
%TD*%
D19*
%TO.P,D2,1,K*%
%TO.N,Net-(D1-A)*%
X180340000Y-50800000D03*
D20*
%TO.P,D2,2,A*%
%TO.N,GND*%
X190500000Y-50800000D03*
%TD*%
D10*
%TO.P,C25,1*%
%TO.N,+5V*%
X45720000Y-114300000D03*
%TO.P,C25,2*%
%TO.N,GND*%
X45720000Y-121800000D03*
%TD*%
%TO.P,C13,1*%
%TO.N,+2V5*%
X170220000Y-63500000D03*
%TO.P,C13,2*%
%TO.N,GND*%
X172720000Y-63500000D03*
%TD*%
%TO.P,R6,1*%
%TO.N,GND*%
X139700000Y-35560000D03*
D11*
%TO.P,R6,2*%
%TO.N,Net-(U3B-+)*%
X139700000Y-45720000D03*
%TD*%
D10*
%TO.P,R3,1*%
%TO.N,GND*%
X93980000Y-35560000D03*
D11*
%TO.P,R3,2*%
%TO.N,Net-(U4B--)*%
X93980000Y-45720000D03*
%TD*%
D23*
%TO.P,TP12,1,1*%
%TO.N,Net-(U10-GP1)*%
X162560000Y-152400000D03*
%TD*%
D11*
%TO.P,U6,1,RDLA*%
%TO.N,GND*%
X165100000Y-71120000D03*
%TO.P,U6,2,RDLB*%
X162560000Y-71120000D03*
%TO.P,U6,3,VDD*%
%TO.N,+2V5*%
X160020000Y-71120000D03*
%TO.P,U6,4,GND*%
%TO.N,GND*%
X157480000Y-71120000D03*
%TO.P,U6,5,IN+*%
%TO.N,Net-(U6-IN+)*%
X154940000Y-71120000D03*
%TO.P,U6,6,IN-*%
%TO.N,GND*%
X152400000Y-71120000D03*
%TO.P,U6,7,GND*%
X149860000Y-71120000D03*
%TO.P,U6,8,REF*%
%TO.N,/5V-REF*%
X147320000Y-71120000D03*
%TO.P,U6,9,REF*%
X144780000Y-71120000D03*
%TO.P,U6,10,REF*%
X142240000Y-71120000D03*
%TO.P,U6,11,SEL0*%
%TO.N,Net-(U6-SEL0)*%
X139700000Y-71120000D03*
%TO.P,U6,12,SEL1*%
%TO.N,GND*%
X137160000Y-71120000D03*
%TO.P,U6,13,MCLK*%
%TO.N,/MCLK*%
X137160000Y-86360000D03*
%TO.P,U6,14,SYNC*%
%TO.N,GND*%
X139700000Y-86360000D03*
%TO.P,U6,15,DRL*%
%TO.N,Net-(U6-DRL)*%
X142240000Y-86360000D03*
%TO.P,U6,16,GND*%
%TO.N,GND*%
X144780000Y-86360000D03*
%TO.P,U6,17,SDOA*%
%TO.N,Net-(U6-SDOA)*%
X147320000Y-86360000D03*
%TO.P,U6,18,SCKA*%
%TO.N,/SCKA*%
X149860000Y-86360000D03*
%TO.P,U6,19,SCKB*%
%TO.N,/SCKB*%
X152400000Y-86360000D03*
%TO.P,U6,20,SDOB*%
%TO.N,Net-(U6-SDOB)*%
X154940000Y-86360000D03*
%TO.P,U6,21,BUSY*%
%TO.N,Net-(U6-BUSY)*%
X157480000Y-86360000D03*
%TO.P,U6,22,OVDD*%
%TO.N,+3V3*%
X160020000Y-86360000D03*
%TO.P,U6,23,GND*%
%TO.N,GND*%
X162560000Y-86360000D03*
%TO.P,U6,24,GND*%
X165100000Y-86360000D03*
D12*
%TO.P,U6,25,EPAD*%
X167640000Y-71120000D03*
D11*
%TO.P,U6,26,EPAD*%
X134620000Y-71120000D03*
%TO.P,U6,27,EPAD*%
X134620000Y-86360000D03*
%TO.P,U6,28,EPAD*%
X167640000Y-86360000D03*
%TD*%
D10*
%TO.P,R24,1*%
%TO.N,Net-(R24-Pad1)*%
X111760000Y-76200000D03*
D11*
%TO.P,R24,2*%
%TO.N,GND*%
X111760000Y-66040000D03*
%TD*%
D10*
%TO.P,R16,1*%
%TO.N,Net-(R16-Pad1)*%
X88900000Y-76200000D03*
D11*
%TO.P,R16,2*%
%TO.N,GND*%
X88900000Y-66040000D03*
%TD*%
D21*
%TO.P,C18,1*%
%TO.N,+20V*%
X68580000Y-86360000D03*
D22*
%TO.P,C18,2*%
%TO.N,GND*%
X68580000Y-93860000D03*
%TD*%
D34*
%TO.N,+20V*%
X80645000Y-93980000D03*
%TO.N,+12V*%
X125730000Y-99060000D03*
%TO.N,+15V*%
X52705000Y-97155000D03*
D35*
%TO.N,+3V3*%
X160655000Y-121920000D03*
X160655000Y-124460000D03*
X160655000Y-119380000D03*
D34*
%TO.N,/METER-NEG*%
X118110000Y-116840000D03*
%TO.N,Net-(D5-K)*%
X50800000Y-158115000D03*
%TO.N,/COIL-DRIVE*%
X125730000Y-104140000D03*
%TO.N,/SW-0*%
X160020000Y-156845000D03*
%TO.N,/SW-1*%
X130175000Y-121285000D03*
%TO.N,/POT-1*%
X115570000Y-139700000D03*
%TO.N,/POT-2*%
X173990000Y-142240000D03*
X173990000Y-148590000D03*
%TO.N,/POT-3*%
X173990000Y-139700000D03*
%TO.N,/SAMPLE*%
X126365000Y-102870000D03*
X115570000Y-86360000D03*
%TD*%
D36*
%TO.N,+20V*%
X91440000Y-96520000D02*
X91440000Y-94615000D01*
X90170000Y-93980000D02*
X80645000Y-93980000D01*
X91440000Y-94615000D02*
X90805000Y-93980000D01*
X90805000Y-93980000D02*
X90170000Y-93980000D01*
%TO.N,+12V*%
X83185000Y-100965000D02*
X95250000Y-100965000D01*
X55880000Y-128270000D02*
X83185000Y-100965000D01*
X55880000Y-142240000D02*
X55880000Y-128270000D01*
X50800000Y-147320000D02*
X55880000Y-142240000D01*
X95250000Y-100965000D02*
X96520000Y-99695000D01*
X96520000Y-99695000D02*
X96520000Y-96520000D01*
%TO.N,+15V*%
X93980000Y-98425000D02*
X93345000Y-99060000D01*
X54610000Y-99060000D02*
X52705000Y-97155000D01*
X93345000Y-99060000D02*
X54610000Y-99060000D01*
X93980000Y-96520000D02*
X93980000Y-98425000D01*
%TO.N,+5V*%
X99055000Y-76200000D02*
X99055000Y-79370000D01*
X100330000Y-80645000D02*
X100330000Y-85725000D01*
X106680000Y-88265000D02*
X106680000Y-91440000D01*
X101600000Y-86995000D02*
X105410000Y-86995000D01*
X105410000Y-86995000D02*
X106680000Y-88265000D01*
X99055000Y-79370000D02*
X100330000Y-80645000D01*
X100330000Y-85725000D02*
X101600000Y-86995000D01*
D37*
%TO.N,Net-(U7-BYP)*%
X175300000Y-63500000D02*
X175300000Y-71080000D01*
X175300000Y-71080000D02*
X175260000Y-71120000D01*
D38*
%TO.N,/5V-REF*%
X124460000Y-83820000D02*
X127000000Y-86360000D01*
X124460000Y-81280000D02*
X124460000Y-78232000D01*
X139700000Y-78232000D02*
X142240000Y-75692000D01*
X127000000Y-86360000D02*
X127000000Y-88940000D01*
X124460000Y-78232000D02*
X139700000Y-78232000D01*
X142240000Y-71120000D02*
X144780000Y-71120000D01*
X124460000Y-81280000D02*
X124460000Y-83820000D01*
X142240000Y-75692000D02*
X142240000Y-71120000D01*
X144780000Y-71120000D02*
X147320000Y-71120000D01*
X147320000Y-71120000D02*
X147320000Y-63500000D01*
D39*
%TO.N,+3V3*%
X160655000Y-114935000D02*
X160655000Y-125730000D01*
X167680000Y-102870000D02*
X167680000Y-107910000D01*
X160020000Y-89535000D02*
X162560000Y-92075000D01*
X167680000Y-107910000D02*
X160655000Y-114935000D01*
X162540000Y-96560000D02*
X167640000Y-96560000D01*
X162540000Y-92095000D02*
X162540000Y-96560000D01*
X160020000Y-86360000D02*
X160020000Y-89535000D01*
X162560000Y-92075000D02*
X162540000Y-92095000D01*
X167680000Y-96520000D02*
X167680000Y-102870000D01*
X167640000Y-96560000D02*
X167680000Y-96520000D01*
%TO.N,Net-(U9-VI)*%
X53340000Y-106680000D02*
X53340000Y-104140000D01*
X48260000Y-111760000D02*
X53340000Y-106680000D01*
X40640000Y-111760000D02*
X48260000Y-111760000D01*
X40640000Y-111760000D02*
X40640000Y-116840000D01*
D40*
%TO.N,/RX-COIL-POS*%
X187960000Y-35560000D02*
X180340000Y-35560000D01*
X180340000Y-40640000D02*
X180340000Y-35560000D01*
D39*
%TO.N,/TX-COIL-NEG*%
X50800000Y-43180000D02*
X50800000Y-35560000D01*
X50800000Y-35560000D02*
X46355000Y-35560000D01*
X58420000Y-35560000D02*
X50800000Y-35560000D01*
X55880000Y-48260000D02*
X50800000Y-43180000D01*
%TO.N,/TX-COIL-POS*%
X49784000Y-52324000D02*
X45720000Y-48260000D01*
X45720000Y-48260000D02*
X45720000Y-41910000D01*
X45720000Y-41910000D02*
X41275000Y-37465000D01*
X41275000Y-37465000D02*
X41275000Y-35560000D01*
X76327000Y-48133000D02*
X72136000Y-52324000D01*
X72136000Y-52324000D02*
X49784000Y-52324000D01*
D36*
%TO.N,/METER-NEG*%
X167640000Y-139700000D02*
X163830000Y-139700000D01*
X163830000Y-139700000D02*
X162560000Y-140970000D01*
X119380000Y-138430000D02*
X118110000Y-137160000D01*
X161925000Y-140970000D02*
X148590000Y-140970000D01*
X148590000Y-140970000D02*
X147320000Y-140970000D01*
X118110000Y-137160000D02*
X118110000Y-116840000D01*
X147320000Y-140970000D02*
X144780000Y-138430000D01*
X162560000Y-140970000D02*
X161925000Y-140970000D01*
X144780000Y-138430000D02*
X119380000Y-138430000D01*
D37*
%TO.N,Net-(Q1-G)*%
X106680000Y-58420000D02*
X106680000Y-56515000D01*
X60960000Y-35560000D02*
X60960000Y-42545000D01*
X62865000Y-44450000D02*
X82550000Y-44450000D01*
X84455000Y-46355000D02*
X84455000Y-53340000D01*
X84455000Y-53340000D02*
X86360000Y-55245000D01*
D36*
X106680000Y-58420000D02*
X106680000Y-66040000D01*
D37*
X60960000Y-42545000D02*
X62865000Y-44450000D01*
X105410000Y-55245000D02*
X86360000Y-55245000D01*
X82550000Y-44450000D02*
X84455000Y-46355000D01*
X106680000Y-56515000D02*
X105410000Y-55245000D01*
D40*
%TO.N,Net-(D1-A)*%
X175260000Y-45720000D02*
X175260000Y-50800000D01*
X173355000Y-40640000D02*
X175260000Y-42545000D01*
X175260000Y-50800000D02*
X180340000Y-50800000D01*
X180340000Y-55880000D02*
X180340000Y-50800000D01*
X175260000Y-42545000D02*
X175260000Y-45720000D01*
X170180000Y-40640000D02*
X173355000Y-40640000D01*
D36*
%TO.N,Net-(D5-K)*%
X139065000Y-158115000D02*
X50800000Y-158115000D01*
X142240000Y-154940000D02*
X139065000Y-158115000D01*
%TO.N,Net-(U3B--)*%
X152400000Y-45720000D02*
X142240000Y-45720000D01*
%TO.N,Net-(U3B-+)*%
X140335000Y-43180000D02*
X152400000Y-43180000D01*
X139700000Y-45720000D02*
X139700000Y-43815000D01*
X139700000Y-43815000D02*
X140335000Y-43180000D01*
%TO.N,/METER-POS*%
X167640000Y-137160000D02*
X160020000Y-137160000D01*
X160020000Y-139700000D02*
X160020000Y-137160000D01*
%TO.N,/COIL-DRIVE*%
X112395000Y-73025000D02*
X102870000Y-73025000D01*
X101595000Y-74300000D02*
X101595000Y-76200000D01*
X125730000Y-104140000D02*
X120650000Y-104140000D01*
X114300000Y-74930000D02*
X112395000Y-73025000D01*
X102870000Y-73025000D02*
X101595000Y-74300000D01*
X114300000Y-97790000D02*
X114300000Y-74930000D01*
X120650000Y-104140000D02*
X114300000Y-97790000D01*
D40*
%TO.N,Net-(U3A-+)*%
X165100000Y-45720000D02*
X160020000Y-45720000D01*
%TO.N,Net-(U3A--)*%
X160020000Y-50800000D02*
X160020000Y-55880000D01*
X160020000Y-48260000D02*
X160020000Y-50800000D01*
D36*
%TO.N,Net-(U4B-+)*%
X96520000Y-50800000D02*
X96520000Y-45720000D01*
%TO.N,Net-(U4B--)*%
X93980000Y-50800000D02*
X93980000Y-45720000D01*
%TO.N,Net-(U4A-+)*%
X101600000Y-50800000D02*
X101600000Y-45720000D01*
%TO.N,Net-(U4A--)*%
X104140000Y-50800000D02*
X104140000Y-45720000D01*
D39*
%TO.N,Net-(R12-Pad1)*%
X76200000Y-78740000D02*
X66040000Y-78740000D01*
D36*
%TO.N,/SW-0*%
X160020000Y-156845000D02*
X160020000Y-142240000D01*
X76200000Y-154940000D02*
X88700000Y-154940000D01*
%TO.N,/MCLK*%
X139700000Y-93980000D02*
X137160000Y-93980000D01*
X137160000Y-86360000D02*
X137160000Y-93980000D01*
%TO.N,/SW-1*%
X146685000Y-121285000D02*
X160020000Y-134620000D01*
X130175000Y-121285000D02*
X146685000Y-121285000D01*
X76400000Y-134620000D02*
X88900000Y-134620000D01*
%TO.N,Net-(R24-Pad1)*%
X110490000Y-83820000D02*
X111760000Y-82550000D01*
X106680000Y-83820000D02*
X110490000Y-83820000D01*
X111760000Y-82550000D02*
X111760000Y-76200000D01*
%TO.N,/DRL*%
X170180000Y-133350000D02*
X172720000Y-130810000D01*
X170180000Y-134620000D02*
X170180000Y-133350000D01*
X172720000Y-130810000D02*
X172720000Y-129540000D01*
%TO.N,/SCKB*%
X152400000Y-86360000D02*
X152400000Y-93980000D01*
%TO.N,Net-(U10-GP2)*%
X176530000Y-149225000D02*
X175895000Y-149860000D01*
X175895000Y-149860000D02*
X167640000Y-149860000D01*
X176530000Y-132080000D02*
X176530000Y-149225000D01*
X177800000Y-129540000D02*
X177800000Y-130810000D01*
X177800000Y-130810000D02*
X176530000Y-132080000D01*
%TO.N,/SDOB*%
X180340000Y-129540000D02*
X180340000Y-130810000D01*
X179070000Y-154305000D02*
X178435000Y-154940000D01*
X180340000Y-130810000D02*
X179070000Y-132080000D01*
X179070000Y-132080000D02*
X179070000Y-154305000D01*
X178435000Y-154940000D02*
X167640000Y-154940000D01*
%TO.N,/SDOA*%
X167640000Y-133350000D02*
X170180000Y-130810000D01*
X170180000Y-130810000D02*
X170180000Y-129540000D01*
X167640000Y-134620000D02*
X167640000Y-133350000D01*
%TO.N,/SCKA*%
X149860000Y-86360000D02*
X149860000Y-93980000D01*
%TO.N,/BUSY*%
X182880000Y-137160000D02*
X184785000Y-137160000D01*
X185420000Y-136525000D02*
X185420000Y-132080000D01*
X184785000Y-137160000D02*
X185420000Y-136525000D01*
X185420000Y-132080000D02*
X182880000Y-129540000D01*
%TO.N,Net-(R28-Pad1)*%
X121920000Y-107950000D02*
X138430000Y-107950000D01*
X101600000Y-91440000D02*
X101600000Y-92710000D01*
X138430000Y-107950000D02*
X139700000Y-106680000D01*
X107950000Y-93980000D02*
X121920000Y-107950000D01*
X139700000Y-106680000D02*
X139700000Y-104140000D01*
X101600000Y-92710000D02*
X102870000Y-93980000D01*
X102870000Y-93980000D02*
X107950000Y-93980000D01*
%TO.N,Net-(U10-GP10)*%
X175260000Y-130810000D02*
X175260000Y-129540000D01*
X172720000Y-133350000D02*
X175260000Y-130810000D01*
X172720000Y-134620000D02*
X172720000Y-133350000D01*
%TO.N,/POT-1*%
X106680000Y-139700000D02*
X115570000Y-139700000D01*
X104140000Y-137160000D02*
X106680000Y-139700000D01*
X104100000Y-130770000D02*
X104140000Y-130810000D01*
X104100000Y-124300000D02*
X104100000Y-130770000D01*
X104140000Y-130810000D02*
X104140000Y-137160000D01*
%TO.N,/POT-2*%
X173990000Y-142240000D02*
X173990000Y-148590000D01*
%TO.N,/POT-3*%
X133985000Y-127635000D02*
X140990000Y-134640000D01*
X128905000Y-127635000D02*
X133985000Y-127635000D01*
X127000000Y-124300000D02*
X127000000Y-125730000D01*
X140990000Y-135137767D02*
X141742233Y-135890000D01*
X141742233Y-135890000D02*
X170180000Y-135890000D01*
X140990000Y-134640000D02*
X140990000Y-135137767D01*
X170180000Y-135890000D02*
X173990000Y-139700000D01*
X127000000Y-125730000D02*
X128905000Y-127635000D01*
%TO.N,Net-(TP1-Pad1)*%
X91440000Y-50800000D02*
X91440000Y-45720000D01*
%TO.N,Net-(TP2-Pad1)*%
X106680000Y-50800000D02*
X106680000Y-45725000D01*
X106680000Y-45725000D02*
X106685000Y-45720000D01*
%TO.N,Net-(U10-GP1)*%
X162560000Y-152400000D02*
X167640000Y-152400000D01*
%TO.N,Net-(U10-GP3)*%
X162560000Y-147320000D02*
X167640000Y-147320000D01*
%TO.N,/SAMPLE*%
X126365000Y-102870000D02*
X121285000Y-102870000D01*
X121285000Y-102870000D02*
X115570000Y-97155000D01*
X115570000Y-97155000D02*
X115570000Y-86360000D01*
D39*
%TO.N,Net-(SW3-C)*%
X60960000Y-130020000D02*
X60960000Y-134620000D01*
X60960000Y-139700000D02*
X60960000Y-134620000D01*
%TO.N,Net-(J3-Pin_2)*%
X60960000Y-154940000D02*
X60960000Y-147320000D01*
X40640000Y-154940000D02*
X60960000Y-154940000D01*
D40*
%TO.N,Net-(U5-NR)*%
X121920000Y-81280000D02*
X121920000Y-88900000D01*
D39*
%TO.N,Net-(R10-Pad2)*%
X55880000Y-78740000D02*
X45720000Y-78740000D01*
D40*
%TO.N,Net-(U6-IN+)*%
X149860000Y-55880000D02*
X154940000Y-60960000D01*
X154940000Y-60960000D02*
X154940000Y-71120000D01*
D36*
%TO.N,Net-(R15-Pad1)*%
X95250000Y-81915000D02*
X90185000Y-76850000D01*
X89397767Y-74930000D02*
X87630000Y-74930000D01*
X95250000Y-85725000D02*
X95250000Y-81915000D01*
X90185000Y-75717233D02*
X89397767Y-74930000D01*
X90185000Y-76850000D02*
X90185000Y-75717233D01*
X99060000Y-89535000D02*
X95250000Y-85725000D01*
X87630000Y-74930000D02*
X86360000Y-76200000D01*
X99060000Y-91440000D02*
X99060000Y-89535000D01*
%TO.N,Net-(R16-Pad1)*%
X93980000Y-89535000D02*
X93980000Y-91440000D01*
X88900000Y-78105000D02*
X92710000Y-81915000D01*
X88900000Y-76200000D02*
X88900000Y-78105000D01*
X92710000Y-81915000D02*
X92710000Y-88265000D01*
X92710000Y-88265000D02*
X93980000Y-89535000D01*
%TO.N,Net-(U4C--)*%
X91440000Y-58420000D02*
X93980000Y-58420000D01*
X91435000Y-58425000D02*
X91440000Y-58420000D01*
X91435000Y-66040000D02*
X91435000Y-58425000D01*
%TO.N,Net-(U4C-+)*%
X96520000Y-66040000D02*
X99055000Y-66040000D01*
X96520000Y-66035000D02*
X96515000Y-66040000D01*
X96520000Y-58420000D02*
X96520000Y-66035000D01*
%TO.N,Net-(R19-Pad1)*%
X93980000Y-78105000D02*
X96520000Y-80645000D01*
X96520000Y-80645000D02*
X96520000Y-83820000D01*
X93980000Y-76200000D02*
X93980000Y-78105000D01*
%TO.N,Net-(U4D-+)*%
X101600000Y-58420000D02*
X101600000Y-66035000D01*
X101595000Y-66040000D02*
X104135000Y-66040000D01*
X101600000Y-66035000D02*
X101595000Y-66040000D01*
%TO.N,Net-(R25-Pad1)*%
X109220000Y-80010000D02*
X107950000Y-81280000D01*
X102235000Y-81280000D02*
X101600000Y-81915000D01*
X107950000Y-81280000D02*
X102235000Y-81280000D01*
X101600000Y-81915000D02*
X101600000Y-83820000D01*
X109220000Y-76200000D02*
X109220000Y-80010000D01*
%TO.N,Net-(U6-SEL0)*%
X139700000Y-65405000D02*
X139700000Y-71120000D01*
X144780000Y-60325000D02*
X139700000Y-65405000D01*
X144780000Y-55880000D02*
X144780000Y-60325000D01*
%TO.N,Net-(U6-DRL)*%
X142240000Y-86360000D02*
X142240000Y-93980000D01*
%TO.N,Net-(U6-SDOA)*%
X147320000Y-86360000D02*
X147320000Y-93980000D01*
%TO.N,Net-(U6-SDOB)*%
X154940000Y-86360000D02*
X154940000Y-93980000D01*
%TO.N,Net-(U6-BUSY)*%
X157480000Y-86360000D02*
X157480000Y-93980000D01*
%TO.N,Net-(J5-Pin_2)*%
X149860000Y-139700000D02*
X149860000Y-137160000D01*
%TD*%
M02*
